<svg width="120" height="35" viewBox="0 0 120 35" fill="none" xmlns="http://www.w3.org/2000/svg">
<g clip-path="url(#clip0)">
<path d="M0.013916 6.50873H4.19798V15.8194H13.0224V6.50873H17.2119V29.3636H13.0224V19.8574H4.19798V29.3636H0.013916V6.50873ZM30.467 21.9194C30.467 23.8326 28.9107 25.3895 27.001 25.3895C25.0906 25.3895 23.5353 23.8326 23.5353 21.9194V12.0796H19.5674V21.9194C19.5674 26.0245 22.9023 29.3636 27.001 29.3636C31.0988 29.3636 34.4335 26.0245 34.4335 21.9194V12.0796H30.467V21.9194ZM45.5106 12.1949C43.5423 12.1949 42.1684 12.7669 40.8416 14.0715V6.50873H36.8607V20.5245C36.8607 25.7707 40.6477 29.3636 44.9024 29.3636C49.6323 29.3636 53.7765 25.7066 53.7765 20.7795C53.7765 15.9147 49.955 12.1949 45.5106 12.1949ZM45.6095 25.6749C42.912 25.6749 40.8493 23.4185 40.8493 20.7795C40.8493 18.1399 42.912 15.8828 45.6095 15.8828C47.8951 15.8828 49.959 18.1399 49.959 20.7795C49.959 23.4185 47.8951 25.6749 45.6095 25.6749ZM60.4625 13.1994C60.4625 11.1951 61.7959 10.5596 63.2556 10.5596C64.4307 10.5596 65.9858 11.4498 67.0006 12.531L69.6029 9.47903C68.3024 7.7306 65.6682 6.52211 63.5096 6.52211C59.1922 6.52211 56.0813 9.03394 56.0813 13.1994C56.0813 20.925 65.5728 18.4761 65.5728 22.8011C65.5728 24.135 64.2718 25.3125 62.7807 25.3125C60.4309 25.3125 59.6687 24.1678 58.5899 22.9593L55.7007 25.9475C57.5429 28.2051 59.8276 29.3502 62.5578 29.3502C66.6524 29.3502 69.9538 26.8067 69.9538 22.8319C69.9538 14.248 60.4625 16.919 60.4625 13.1994ZM80.4336 11.9709C76.1795 11.9709 72.392 15.5617 72.392 20.809V34.861H76.3726V27.2623C77.6996 28.5659 79.0728 29.1389 81.0418 29.1389C85.486 29.1389 89.308 25.4195 89.308 20.5548C89.308 15.6269 85.1626 11.9709 80.4336 11.9709ZM81.1409 25.4515C78.4438 25.4515 76.3808 23.192 76.3808 20.5548C76.3808 17.9153 78.4438 15.6581 81.1409 15.6581C83.4261 15.6581 85.4902 17.9153 85.4902 20.5548C85.4902 23.192 83.4261 25.4515 81.1409 25.4515ZM118.61 25.6749C116.262 25.6749 115.595 24.658 115.595 23.0995V16.2006H119.245V12.7038H115.595V8.09329L111.565 9.9051V23.958C111.565 27.5511 114.04 29.3636 117.435 29.3636C117.943 29.3636 118.642 29.3307 119.023 29.2366L120.008 25.6125C119.563 25.6432 119.056 25.6749 118.61 25.6749Z" fill="#DAE2EB"/>
<path d="M108.112 16.404C107.349 15.0889 106.276 14.0347 104.934 13.241C103.931 12.6562 102.891 12.2851 101.719 12.1257V7.94711C102.891 7.44873 103.618 6.34564 103.618 5.05873C103.618 3.30468 102.214 1.88326 100.464 1.88326C98.7127 1.88326 97.2837 3.30468 97.2837 5.05873C97.2837 6.34564 97.969 7.44873 99.1409 7.94711V12.1275C98.2034 12.2632 97.2312 12.556 96.3434 13.0057C94.5301 11.6264 88.584 7.10107 85.1056 4.45801C85.1881 4.16011 85.2516 3.85306 85.2516 3.5291C85.2516 1.5863 83.6808 0.0115967 81.7404 0.0115967C79.8001 0.0115967 78.23 1.5863 78.23 3.5291C78.23 5.47166 79.8017 7.04684 81.7421 7.04684C82.404 7.04684 83.0161 6.85293 83.5444 6.53414L84.2785 7.09191L94.3651 14.3711C93.8319 14.8615 93.3352 15.4192 92.9379 16.0451C92.1329 17.3209 91.6409 18.7247 91.6409 20.256V20.5755C91.6409 21.6504 91.8448 22.6653 92.1922 23.6186C92.498 24.451 92.9452 25.2078 93.499 25.8921L90.1515 29.2533C89.6663 29.0724 89.1394 29.0353 88.6338 29.1464C88.1281 29.2575 87.6651 29.512 87.3001 29.8796C87.0473 30.1315 86.847 30.4312 86.7107 30.7612C86.5744 31.0912 86.5048 31.4451 86.506 31.8022C86.5062 32.5283 86.7886 33.2107 87.3015 33.7241C87.5528 33.9775 87.8519 34.1784 88.1813 34.3151C88.5107 34.4519 88.8639 34.5218 89.2205 34.5209C89.5772 34.5218 89.9306 34.4518 90.2601 34.3151C90.5896 34.1783 90.8888 33.9775 91.1403 33.7241C91.3929 33.4722 91.5932 33.1727 91.7295 32.8428C91.8659 32.5129 91.9357 32.1593 91.9348 31.8022C91.9348 31.5212 91.8915 31.247 91.8099 30.9865L95.27 27.5204C95.7444 27.8486 96.2567 28.1249 96.8075 28.3631C97.8938 28.8336 99.0929 29.1202 100.405 29.1202H100.646C102.096 29.1202 103.465 28.7789 104.751 28.0807C106.107 27.3429 107.168 26.3339 107.97 25.0459C108.775 23.7543 109.219 22.3272 109.219 20.7572V20.6788C109.219 19.1344 108.862 17.7094 108.112 16.404ZM103.885 23.6749C102.946 24.7203 101.866 25.3642 100.646 25.3642H100.445C99.7475 25.3642 99.0657 25.1712 98.3982 24.8203C97.6458 24.4339 97.074 23.8827 96.6059 23.1848C96.1222 22.4998 95.8597 21.7519 95.8597 20.9589V20.718C95.8597 19.9384 96.009 19.1992 96.3854 18.501C96.7878 17.7379 97.3313 17.1444 98.0541 16.6726C98.7638 16.204 99.5218 15.9742 100.366 15.9742H100.445C101.21 15.9742 101.935 16.1253 102.619 16.4758C103.315 16.8496 103.885 17.3601 104.326 18.0318C104.755 18.7036 105.01 19.4283 105.092 20.2178C105.105 20.3818 105.111 20.5499 105.111 20.7105C105.111 21.7819 104.702 22.7742 103.885 23.6749Z" fill="#DAE2EB"/>
</g>
<defs>
<clipPath id="clip0">
<rect width="120" height="35" fill="white"/>
</clipPath>
</defs>
</svg>
