<svg width="59" height="60" viewBox="0 0 59 60" fill="none" xmlns="http://www.w3.org/2000/svg">
<g clip-path="url(#clip0)">
<path fill-rule="evenodd" clip-rule="evenodd" d="M0 6.69066L34.5867 0.0100098L34.4666 59.99L0 52.8377V6.69066ZM12.2636 37.8384C9.64791 34.7768 8.91895 29.9657 10.171 25.9693C11.9119 20.4121 16.3285 18.534 20.0248 19.8204C22.1344 20.5579 24.0126 22.3331 25.0159 25.0517C25.4962 26.3553 25.7535 27.8475 25.7706 29.3654C25.8049 32.0925 24.8616 35.2999 22.992 37.5383C20.1191 40.9686 15.248 41.3202 12.2721 37.8384H12.2636ZM14.9564 34.9312C13.67 33.0187 13.3184 30.0172 13.9273 27.5216C14.7763 24.0569 16.946 22.882 18.7555 23.6881C19.7932 24.1512 20.7108 25.2575 21.1997 26.9556C21.4312 27.7703 21.5599 28.6965 21.5684 29.6484C21.5856 31.3464 21.1225 33.3532 20.2049 34.7511C18.7984 36.8951 16.4143 37.1095 14.9564 34.9398V34.9312ZM36.8421 12.6509H56.9184C58.0418 12.6509 58.9594 13.5685 58.9594 14.692V15.4295L43.1797 26.0722C42.9739 26.2095 42.4679 26.604 42.0477 26.8698C41.4303 27.2729 41.3874 27.1957 40.7356 26.8269C39.7322 26.2695 37.9999 25.086 36.8336 24.2799V12.6509H36.8421ZM58.968 20.1549V41.629C58.968 43.3442 57.5616 44.7592 55.8378 44.7592H36.8421V28.8766C37.9827 29.6313 39.5007 30.6261 40.4354 31.2006C41.1901 31.6637 41.3273 31.8781 42.1678 31.3893C42.5537 31.1663 42.931 30.8748 43.1883 30.7032L58.968 20.1634V20.1549Z" fill="#DAE2EB"/>
</g>
<defs>
<clipPath id="clip0">
<rect width="58.968" height="60" fill="white"/>
</clipPath>
</defs>
</svg>
