<svg width="130" height="23" viewBox="0 0 130 23" fill="none" xmlns="http://www.w3.org/2000/svg">
<g clip-path="url(#clip0)">
<rect y="7.55713" width="15.0013" height="15.1143" fill="#A9B4D1" fill-opacity="0.33"/>
<path d="M26.7726 19.5869L30.0505 16.9984C30.9718 18.6051 32.4425 19.5334 34.1257 19.5334C35.9507 19.5334 36.9252 18.3373 36.9252 17.0341C36.9252 15.481 35.0471 14.9811 33.0449 14.3563C30.5289 13.5708 27.7117 12.589 27.7117 8.96504C27.7117 5.93021 30.334 3.5202 33.9663 3.5202C37.0315 3.5202 38.7857 4.68058 40.3095 6.2694L37.3505 8.51874C36.5709 7.35836 35.4723 6.73355 34.0017 6.73355C32.3362 6.73355 31.4325 7.64399 31.4325 8.84007C31.4325 10.2861 33.2398 10.7859 35.242 11.4643C37.7934 12.3033 40.6815 13.428 40.6815 17.0698C40.6815 20.0868 38.3073 22.9788 34.1612 22.9788C30.7415 22.9966 28.4736 21.5328 26.7726 19.5869ZM55.5827 9.75052H59.091V11.1965C59.9237 10.1254 61.1818 9.48274 62.6524 9.48274C65.6822 9.48274 67.525 11.4465 67.525 14.8026V22.711H63.9458V15.2846C63.9458 13.553 63.1485 12.5354 61.5716 12.5354C60.225 12.5354 59.1264 13.4637 59.1264 15.6417V22.7289H55.6005V9.75052H55.5827ZM68.3223 16.2486C68.3223 11.6607 71.6711 9.50059 74.5769 9.50059C76.2424 9.50059 77.5713 10.1254 78.4218 11.0359V3.78798H81.9477V22.7289H78.4218V21.2829C77.5713 22.3004 76.207 22.9966 74.5414 22.9966C71.8128 22.9966 68.3223 20.8009 68.3223 16.2486ZM78.5281 16.2129C78.5281 14.2849 77.1461 12.7318 75.2325 12.7318C73.2834 12.7318 71.7774 14.2135 71.7774 16.2129C71.7774 18.2123 73.2657 19.7119 75.2325 19.7119C77.1283 19.7119 78.5281 18.1409 78.5281 16.2129ZM82.7805 13.2673C82.7805 7.87607 86.8203 3.53805 92.3839 3.53805C95.1657 3.53805 97.5045 4.55561 99.2055 6.16229C99.8965 6.82281 100.481 7.57259 100.942 8.39377L97.8057 10.3218C96.654 8.1617 94.8645 7.05488 92.4193 7.05488C88.9997 7.05488 86.3419 9.87548 86.3419 13.2852C86.3419 16.7663 88.9465 19.5155 92.5434 19.5155C95.272 19.5155 97.2033 17.9624 97.8766 15.5524H91.9764V12.0713H101.739V13.5173C101.739 18.6051 98.1424 22.9788 92.5434 22.9788C86.6608 22.9966 82.7805 18.498 82.7805 13.2673ZM102.625 9.75052H106.133V11.8749C106.771 10.5182 107.941 9.75052 109.695 9.75052H111.112L109.819 13.2138H108.862C106.984 13.2138 106.151 14.1956 106.151 16.6057V22.7289H102.625V9.75052ZM112.016 9.75052H115.542V22.7289H112.016V13.2138H110.74L112.016 9.75052ZM113.788 7.78681C114.957 7.78681 115.896 6.84066 115.896 5.66243C115.896 4.48421 114.957 3.53805 113.788 3.53805C112.618 3.53805 111.679 4.48421 111.679 5.66243C111.679 6.82281 112.618 7.78681 113.788 7.78681ZM116.375 16.2486C116.375 11.6607 119.723 9.50059 122.629 9.50059C124.295 9.50059 125.624 10.1254 126.474 11.0359V3.78798H130V22.7289H126.474V21.2829C125.624 22.3004 124.259 22.9966 122.594 22.9966C119.847 22.9966 116.375 20.8009 116.375 16.2486ZM126.58 16.2129C126.58 14.2849 125.198 12.7318 123.285 12.7318C121.336 12.7318 119.83 14.2135 119.83 16.2129C119.83 18.2123 121.318 19.7119 123.285 19.7119C125.181 19.7119 126.58 18.1409 126.58 16.2129ZM54.75 16.2129C54.75 12.4819 52.0391 9.50059 48.1056 9.50059C44.4024 9.50059 41.408 12.5176 41.408 16.2486C41.408 19.9797 44.1898 22.9966 48.2119 22.9966C50.9937 22.9966 52.9958 21.6399 54.1121 19.7119L51.3126 18.0338C50.7279 19.1763 49.5762 19.8904 48.2296 19.8904C46.3692 19.8904 45.2175 18.9621 44.8099 17.534H54.75V16.2129ZM44.9694 14.6598C45.5187 13.4459 46.6349 12.6068 48.141 12.6068C49.6293 12.6068 50.7456 13.3031 51.2063 14.6598H44.9694Z" fill="#DAE2EB"/>
<path d="M0 15.1597H7.51261V22.7289H0V15.1597Z" fill="#A9B4D1"/>
<path d="M15.043 7.57263V0.00341797H7.5127V15.1597H22.5556V7.57263H15.043Z" fill="#A9B4D1" fill-opacity="0.67"/>
<path d="M15.0428 0.00341797H22.5555V7.57263H15.0428V0.00341797Z" fill="#A9B4D1"/>
</g>
<defs>
<clipPath id="clip0">
<rect width="130" height="23" fill="white"/>
</clipPath>
</defs>
</svg>
