<svg width="315" height="221" viewBox="0 0 315 221" fill="none" xmlns="http://www.w3.org/2000/svg">
<g filter="url(#filter0_d_1_9204)">
<mask id="mask0_1_9204" style="mask-type:alpha" maskUnits="userSpaceOnUse" x="2" y="13" width="209" height="203">
<path fill-rule="evenodd" clip-rule="evenodd" d="M128.951 194.66L130.906 198.746L136.771 210.009C123.399 217.773 98.819 216.674 85.8642 214.018C46.3744 205.846 16.503 178.085 5.86808 140.134C-20.5888 46.3293 94.2835 -31.5646 179.649 42.3963L142.531 79.0959C94.857 35.3986 32.5856 92.606 61.5187 140.313C75.7246 163.758 91.729 158.752 106.3 166.669L106.717 180.767L113.52 179.592C113.937 180.332 114.198 181.252 114.38 181.941L119.646 198.797L128.847 194.634L128.925 194.711L128.951 194.66ZM173.055 97.9436C178.163 93.934 183.272 92.938 189.997 93.8574C189.659 95.1854 197.661 98.531 181.917 101.11C176.052 102.03 175.192 100.038 174.097 99.2717C173.915 99.0929 173.419 98.4289 173.081 97.9436H173.055ZM209.312 113.803C208.973 114.799 216.793 119.473 201.388 119.396C197.974 119.396 194.846 118.145 192.291 117.302C193.647 107.47 205.142 107.725 209.39 113.727L209.312 113.803ZM176.547 112.22V115.719L176.287 119.141L171.178 122.64L155.929 119.218C156.868 115.31 157.05 112.961 157.467 109.385L165.73 107.955L169.145 107.623L172.976 107.036L175.453 108.466L176.573 112.22H176.547ZM138.569 191.595C137.787 191.851 134.399 192.183 133.643 192.106C132.783 191.927 131.766 191.595 130.906 191.442C130.046 191.263 129.108 190.701 128.195 190.267C127.074 172.492 123.269 191.774 117.039 166.005L131.766 158.573C137.058 166.592 136.797 173.156 144.46 169.989L149.908 167.64L154 170.806L161.247 180.562L173.081 166.976L165.678 159.058L160.413 156.224L148.318 166.056L145.425 164.396C144.226 160.054 144.304 162.149 142.688 158.062C139.612 150.222 145.92 141.385 155.278 145.216L163.358 150.963C173.498 136.048 165.991 149.047 155.434 132.855C155.173 132.447 154.678 131.604 154.496 130.94C161.82 127.926 156.789 127.518 165.991 131.527L172.455 136.354L168.285 142.433L183.611 150.426L189.137 138.832L174.254 133.417C174.853 130.327 175.27 127.901 171.96 127.492L178.268 123.483L181.761 123.891L190.362 124.989C190.44 128.412 190.284 127.901 190.362 131.987L190.701 137.836C190.701 138.346 190.779 139.266 190.962 139.93L204.672 141.845C203.656 151.524 198.547 160.54 193.438 169.376L179.91 170.628L186.035 179.464C175.896 190.548 162.706 201.811 150.195 205.233C146.181 196.984 146.624 193.051 138.439 192.055L138.622 191.544L138.569 191.595Z" fill="url(#paint0_linear_1_9204)"/>
</mask>
<g mask="url(#mask0_1_9204)">
<path fill-rule="evenodd" clip-rule="evenodd" d="M128.951 194.66L130.906 198.746L136.771 210.009C123.399 217.773 98.819 216.674 85.8642 214.018C46.3744 205.846 16.503 178.085 5.86808 140.134C-20.5888 46.3293 94.2835 -31.5646 179.649 42.3963L142.531 79.0959C94.857 35.3986 32.5856 92.606 61.5187 140.313C75.7246 163.758 91.729 158.752 106.3 166.669L106.717 180.767L113.52 179.592C113.937 180.332 114.198 181.252 114.38 181.941L119.646 198.797L128.847 194.634L128.925 194.711L128.951 194.66ZM173.055 97.9436C178.163 93.934 183.272 92.938 189.997 93.8574C189.659 95.1854 197.661 98.531 181.917 101.11C176.052 102.03 175.192 100.038 174.097 99.2717C173.915 99.0929 173.419 98.4289 173.081 97.9436H173.055ZM209.312 113.803C208.973 114.799 216.793 119.473 201.388 119.396C197.974 119.396 194.846 118.145 192.291 117.302C193.647 107.47 205.142 107.725 209.39 113.727L209.312 113.803ZM176.547 112.22V115.719L176.287 119.141L171.178 122.64L155.929 119.218C156.868 115.31 157.05 112.961 157.467 109.385L165.73 107.955L169.145 107.623L172.976 107.036L175.453 108.466L176.573 112.22H176.547ZM138.569 191.595C137.787 191.851 134.399 192.183 133.643 192.106C132.783 191.927 131.766 191.595 130.906 191.442C130.046 191.263 129.108 190.701 128.195 190.267C127.074 172.492 123.269 191.774 117.039 166.005L131.766 158.573C137.058 166.592 136.797 173.156 144.46 169.989L149.908 167.64L154 170.806L161.247 180.562L173.081 166.976L165.678 159.058L160.413 156.224L148.318 166.056L145.425 164.396C144.226 160.054 144.304 162.149 142.688 158.062C139.612 150.222 145.92 141.385 155.278 145.216L163.358 150.963C173.498 136.048 165.991 149.047 155.434 132.855C155.173 132.447 154.678 131.604 154.496 130.94C161.82 127.926 156.789 127.518 165.991 131.527L172.455 136.354L168.285 142.433L183.611 150.426L189.137 138.832L174.254 133.417C174.853 130.327 175.27 127.901 171.96 127.492L178.268 123.483L181.761 123.891L190.362 124.989C190.44 128.412 190.284 127.901 190.362 131.987L190.701 137.836C190.701 138.346 190.779 139.266 190.962 139.93L204.672 141.845C203.656 151.524 198.547 160.54 193.438 169.376L179.91 170.628L186.035 179.464C175.896 190.548 162.706 201.811 150.195 205.233C146.181 196.984 146.624 193.051 138.439 192.055L138.622 191.544L138.569 191.595Z" fill="url(#paint1_linear_1_9204)"/>
<ellipse cx="177.56" cy="144.344" rx="63.381" ry="56.6043" fill="url(#paint2_radial_1_9204)"/>
<ellipse cx="63.3503" cy="24.1927" rx="63.3503" ry="24.1927" transform="matrix(0.988302 0.152508 -0.158708 0.987326 9.67915 173.47)" fill="url(#paint3_radial_1_9204)"/>
<ellipse cx="40.9812" cy="17.5706" rx="40.9812" ry="17.5706" transform="matrix(0.988302 0.152508 -0.158708 0.987326 58.0576 36.0813)" fill="url(#paint4_radial_1_9204)"/>
<ellipse cx="56.9865" cy="21.8039" rx="56.9865" ry="21.8039" transform="matrix(0.988302 0.152508 -0.158708 0.987326 31.3567 -13.3787)" fill="url(#paint5_radial_1_9204)"/>
<ellipse cx="56.9865" cy="53.123" rx="56.9865" ry="53.123" transform="matrix(0.988302 0.152508 -0.158708 0.987326 2.03529 52.568)" fill="url(#paint6_radial_1_9204)"/>
</g>
</g>
<defs>
<filter id="filter0_d_1_9204" x="-102" y="-86" width="417" height="411" filterUnits="userSpaceOnUse" color-interpolation-filters="sRGB">
<feFlood flood-opacity="0" result="BackgroundImageFix"/>
<feColorMatrix in="SourceAlpha" type="matrix" values="0 0 0 0 0 0 0 0 0 0 0 0 0 0 0 0 0 0 127 0" result="hardAlpha"/>
<feOffset dy="5"/>
<feGaussianBlur stdDeviation="52"/>
<feComposite in2="hardAlpha" operator="out"/>
<feColorMatrix type="matrix" values="0 0 0 0 0 0 0 0 0 0 0 0 0 0 0 0 0 0 0.25 0"/>
<feBlend mode="normal" in2="BackgroundImageFix" result="effect1_dropShadow_1_9204"/>
<feBlend mode="normal" in="SourceGraphic" in2="effect1_dropShadow_1_9204" result="shape"/>
</filter>
<linearGradient id="paint0_linear_1_9204" x1="193.826" y1="159.731" x2="39.5425" y2="67.4044" gradientUnits="userSpaceOnUse">
<stop stop-color="#381CFF"/>
<stop offset="0.495474" stop-color="#3B1DFF"/>
<stop offset="1" stop-color="#FF00FD"/>
</linearGradient>
<linearGradient id="paint1_linear_1_9204" x1="193.826" y1="159.731" x2="39.5425" y2="67.4044" gradientUnits="userSpaceOnUse">
<stop stop-color="#381CFF"/>
<stop offset="0.495474" stop-color="#3B1DFF"/>
<stop offset="1" stop-color="#FF00FD"/>
</linearGradient>
<radialGradient id="paint2_radial_1_9204" cx="0" cy="0" r="1" gradientUnits="userSpaceOnUse" gradientTransform="translate(177.56 144.344) rotate(90) scale(56.6043 63.381)">
<stop stop-color="#01C9FD"/>
<stop offset="1" stop-color="#01C9FD" stop-opacity="0"/>
</radialGradient>
<radialGradient id="paint3_radial_1_9204" cx="0" cy="0" r="1" gradientUnits="userSpaceOnUse" gradientTransform="translate(63.3503 24.1927) rotate(90) scale(24.1927 63.3503)">
<stop stop-color="#2428ED"/>
<stop offset="1" stop-color="#2428ED" stop-opacity="0"/>
</radialGradient>
<radialGradient id="paint4_radial_1_9204" cx="0" cy="0" r="1" gradientUnits="userSpaceOnUse" gradientTransform="translate(40.9812 17.5706) rotate(90) scale(17.5706 40.9812)">
<stop stop-color="#B600FF"/>
<stop offset="1" stop-color="#B600FF" stop-opacity="0"/>
</radialGradient>
<radialGradient id="paint5_radial_1_9204" cx="0" cy="0" r="1" gradientUnits="userSpaceOnUse" gradientTransform="translate(56.9865 21.8039) rotate(90) scale(21.8039 56.9865)">
<stop stop-color="#F800FF"/>
<stop offset="1" stop-color="#F601FF" stop-opacity="0"/>
</radialGradient>
<radialGradient id="paint6_radial_1_9204" cx="0" cy="0" r="1" gradientUnits="userSpaceOnUse" gradientTransform="translate(56.9865 53.123) rotate(90) scale(53.123 56.9865)">
<stop stop-color="#F800FF"/>
<stop offset="1" stop-color="#F601FF" stop-opacity="0"/>
</radialGradient>
</defs>
</svg>
