<svg width="252" height="29" viewBox="0 0 252 29" fill="none" xmlns="http://www.w3.org/2000/svg">
<path d="M6.58657 14.5168L3.29328 17.7867L0 14.5168L3.29328 11.2469L6.58657 14.5168ZM14.6207 6.53974L20.2663 12.1811L23.5596 8.91128L17.914 3.26987L14.6207 0L11.3274 3.26987L5.64563 8.91128L8.9389 12.1811L14.6207 6.53974ZM25.9482 11.2469L22.6549 14.5168L25.9482 17.7867L29.2414 14.5168L25.9482 11.2469ZM14.6207 22.4579L8.97511 16.8524L5.64563 20.1223L11.2913 25.7277L14.5845 28.9976L17.8778 25.7277L23.5596 20.1223L20.2663 16.8524L14.6207 22.4579ZM14.6207 17.7867L17.914 14.5168L14.6207 11.2469L11.3274 14.5168L14.6207 17.7867ZM49.4716 18.11V18.0741C49.4716 15.9541 48.3136 14.8761 46.4678 14.1575C47.6258 13.5106 48.5668 12.5045 48.5668 10.7079V10.672C48.5668 8.15671 46.5403 6.53974 43.2833 6.53974H35.8279V22.4579H43.464C47.0831 22.4579 49.4716 21.0206 49.4716 18.11ZM45.0566 11.3188C45.0566 12.5045 44.0792 13.0076 42.523 13.0076H39.266V9.62995H42.7401C44.2242 9.62995 45.0566 10.2048 45.0566 11.2828V11.3188ZM45.9611 17.6789C45.9611 18.8646 45.0202 19.4036 43.464 19.4036H39.266V15.9182H43.3554C45.1651 15.9182 45.9611 16.5649 45.9611 17.6429V17.6789ZM56.8545 22.4579V6.53974H53.3439V22.4579H56.8545ZM75.8178 22.4579V6.53974H72.3436V16.3493L64.8162 6.53974H61.5591V22.4579H65.0333V12.3608L72.8143 22.4938H75.8178V22.4579ZM95.3606 22.4579L88.4845 6.43194H85.2271L78.3513 22.4579H81.934L83.4177 18.9006H90.1853L91.669 22.4579H95.3606ZM88.9548 15.8104H84.6843L86.8197 10.636L88.9548 15.8104ZM112.152 22.4579V6.53974H108.678V16.3493L101.151 6.53974H97.8938V22.4579H101.368V12.3608L109.149 22.4938H112.152V22.4579ZM130.392 19.9067L128.149 17.6429C126.882 18.7928 125.76 19.5114 123.95 19.5114C121.2 19.5114 119.318 17.2477 119.318 14.5168V14.4809C119.318 11.7499 121.272 9.52215 123.95 9.52215C125.543 9.52215 126.81 10.2048 128.04 11.3188L130.284 8.73161C128.8 7.25838 126.99 6.28821 123.95 6.28821C119.029 6.28821 115.59 9.98928 115.59 14.5168V14.5527C115.59 19.1162 119.101 22.7453 123.806 22.7453C126.882 22.7453 128.727 21.6674 130.392 19.9067ZM145.411 22.4579V19.3318H136.726V15.99H144.289V12.8639H136.726V9.62995H145.303V6.50381H133.215V22.422H145.411V22.4579Z" fill="#F0B90B"/>
<path d="M157.83 10.6987C157.83 11.9457 158.555 12.4898 161.593 13.2154C164.949 14.0316 166.695 15.2333 166.695 17.886C166.695 20.8789 164.36 22.6474 161.027 22.6474C158.601 22.6474 156.311 21.8085 154.406 20.108L156.084 18.1128C157.603 19.4278 159.122 20.176 161.095 20.176C162.818 20.176 163.906 19.3824 163.906 18.1581C163.906 17.0018 163.271 16.3896 160.324 15.7094C156.945 14.8932 155.041 13.8956 155.041 10.9481C155.041 8.18195 157.308 6.32275 160.46 6.32275C162.772 6.32275 164.609 7.02562 166.219 8.31799L164.722 10.4266C163.294 9.36095 161.866 8.79412 160.414 8.79412C158.782 8.79412 157.83 9.63302 157.83 10.6987Z" fill="white"/>
<path d="M184.258 19.3597L186.072 20.9015L184.281 22.8967L182.377 21.1962C181.039 22.1258 179.406 22.6927 177.547 22.6927C172.672 22.6927 169.271 18.9969 169.271 14.5077C169.271 10.0184 172.718 6.27734 177.593 6.27734C182.467 6.27734 185.868 9.97306 185.868 14.4623C185.868 16.2762 185.279 17.9767 184.258 19.3597ZM180.313 19.3597L177.593 17.0471L179.384 15.0065L182.127 17.5005C182.671 16.6616 182.943 15.6187 182.943 14.5077C182.943 11.4015 180.699 8.8394 177.547 8.8394C174.396 8.8394 172.196 11.3561 172.196 14.4623C172.196 17.5685 174.441 20.1306 177.593 20.1306C178.635 20.1306 179.565 19.8358 180.313 19.3597Z" fill="white"/>
<path d="M202.57 6.5498V15.551C202.57 20.2897 199.894 22.6704 195.745 22.6704C191.619 22.6704 188.988 20.2897 188.988 15.6871V6.5498H191.777V15.5737C191.777 18.5212 193.296 20.1083 195.79 20.1083C198.262 20.1083 199.781 18.6119 199.781 15.6871V6.5498H202.57Z" fill="white"/>
<path d="M214.029 6.43604L221.012 22.4206H218.065L216.455 18.5888H208.95L207.318 22.4206H204.461L211.444 6.43604H214.029ZM215.435 16.1174L212.691 9.76898L209.971 16.1174H215.435Z" fill="white"/>
<path d="M237.202 22.421H233.915L230.015 16.8887H226.523V22.421H223.735V6.5498H230.809C234.459 6.5498 236.704 8.47702 236.704 11.5832C236.704 14.2133 235.139 15.8004 232.917 16.4126L237.202 22.421ZM233.869 11.7419C233.869 9.99611 232.645 9.08919 230.582 9.08919H226.523V14.4174H230.604C232.6 14.4174 233.869 13.3744 233.869 11.7419Z" fill="white"/>
<path d="M251.887 6.5498V9.04384H242.908V13.1703H250.866V15.6644H242.908V19.9269H252V22.421H240.119V6.5498H251.887Z" fill="white"/>
</svg>
