<svg width="43" height="43" viewBox="0 0 43 43" fill="none" xmlns="http://www.w3.org/2000/svg">
<path d="M42.3515 26.7011C39.48 38.219 27.8143 45.2285 16.2951 42.3563C4.78065 39.4847 -2.22895 27.8184 0.643959 16.3013C3.51418 4.78209 15.1798 -2.22819 26.6956 0.643378C38.2142 3.51494 45.2231 15.1826 42.3515 26.7011Z" fill="#F7931A"/>
<path d="M30.9768 18.4371C31.4048 15.5763 29.2266 14.0384 26.2482 13.0124L27.2143 9.1371L24.8554 8.54922L23.9148 12.3224C23.2947 12.1679 22.6577 12.0221 22.0248 11.8777L22.9722 8.07958L20.6146 7.4917L19.6478 11.3657C19.1344 11.2488 18.6305 11.1332 18.1414 11.0116L18.1441 10.9995L14.8909 10.1872L14.2634 12.7067C14.2634 12.7067 16.0136 13.1078 15.9767 13.1327C16.9321 13.3712 17.1047 14.0034 17.0758 14.5047L15.9753 18.9195C16.0412 18.9363 16.1265 18.9605 16.2206 18.9981C16.1419 18.9786 16.058 18.9571 15.9713 18.9363L14.4287 25.1208C14.3118 25.4111 14.0155 25.8465 13.3476 25.6812C13.3712 25.7155 11.633 25.2532 11.633 25.2532L10.462 27.9534L13.5317 28.7187C14.1028 28.8618 14.6625 29.0116 15.2134 29.1527L14.2372 33.0724L16.5934 33.6603L17.5603 29.7823C18.2039 29.957 18.8287 30.1182 19.4401 30.27L18.4767 34.1299L20.8356 34.7178L21.8118 30.8055C25.8343 31.5668 28.8591 31.2597 30.1323 27.6215C31.1582 24.6922 30.0812 23.0024 27.9648 21.9006C29.5061 21.5452 30.6671 20.5313 30.9768 18.4371ZM25.5871 25.9949C24.8581 28.9243 19.9259 27.3407 18.3269 26.9436L19.6222 21.7508C21.2213 22.1498 26.349 22.94 25.5871 25.9949ZM26.3167 18.3948C25.6516 21.0594 21.5465 19.7056 20.2148 19.3737L21.3892 14.6639C22.7209 14.9958 27.0094 15.6153 26.3167 18.3948Z" fill="white"/>
</svg>
