<svg width="43" height="43" viewBox="0 0 43 43" fill="none" xmlns="http://www.w3.org/2000/svg">
<path d="M21.5 43C33.3741 43 43 33.3741 43 21.5C43 9.62588 33.3741 0 21.5 0C9.62588 0 0 9.62588 0 21.5C0 33.3741 9.62588 43 21.5 43Z" fill="#627EEA"/>
<path d="M22.1692 5.375V17.2941L32.2433 21.7956L22.1692 5.375Z" fill="white" fill-opacity="0.602"/>
<path d="M22.1692 5.375L12.0938 21.7956L22.1692 17.2941V5.375Z" fill="white"/>
<path d="M22.1692 29.5195V37.6183L32.25 23.6715L22.1692 29.5195Z" fill="white" fill-opacity="0.602"/>
<path d="M22.1692 37.6183V29.5182L12.0938 23.6715L22.1692 37.6183Z" fill="white"/>
<path d="M22.1692 27.6449L32.2433 21.7956L22.1692 17.2967V27.6449Z" fill="white" fill-opacity="0.2"/>
<path d="M12.0938 21.7956L22.1692 27.6449V17.2967L12.0938 21.7956Z" fill="white" fill-opacity="0.602"/>
</svg>
