<svg width="21" height="30" viewBox="0 0 21 30" fill="none" xmlns="http://www.w3.org/2000/svg">
<g clip-path="url(#clip0_1_9083)">
<path d="M20.0405 14.9942C20.0405 9.4615 15.5829 4.97656 10.085 4.97656C4.58463 4.97781 0.127075 9.4615 0.127075 14.9955C0.127075 19.9944 3.76828 24.1383 8.52699 24.89V17.89H6.00079V14.9955H8.52948V12.7866C8.52948 10.2766 10.0166 8.8903 12.2902 8.8903C13.3803 8.8903 14.5189 9.08568 14.5189 9.08568V11.5497H13.2633C12.0276 11.5497 11.6418 12.3224 11.6418 13.1151V14.9942H14.402L13.9614 17.8888H11.6406V24.8887C16.3993 24.1371 20.0405 19.9931 20.0405 14.9942Z" fill="white"/>
</g>
<defs>
<clipPath id="clip0_1_9083">
<rect width="19.9109" height="19.9109" fill="white" transform="translate(0.131958 4.97754)"/>
</clipPath>
</defs>
</svg>
