<svg width="196" height="36" viewBox="0 0 196 36" fill="none" xmlns="http://www.w3.org/2000/svg">
<mask id="mask0_1_9076" style="mask-type:alpha" maskUnits="userSpaceOnUse" x="0" y="0" width="30" height="30">
<path fill-rule="evenodd" clip-rule="evenodd" d="M17.6684 25.9776L17.9405 26.5619L18.7568 28.1725C16.8957 29.2828 13.4748 29.1257 11.6718 28.7459C6.17582 27.5772 2.01845 23.6074 0.538341 18.1803C-3.1438 4.76614 12.8436 -6.3728 24.7244 4.20371L19.5585 9.45179C12.9234 3.20303 4.25676 11.3838 8.28353 18.2059C10.2606 21.5585 12.4881 20.8427 14.516 21.9749L14.574 23.9908L15.5208 23.8228C15.5789 23.9288 15.6152 24.0602 15.6405 24.1588L16.3733 26.5692L17.6539 25.9739L17.6648 25.9849L17.6684 25.9776ZM23.8066 12.1471C24.5176 11.5737 25.2286 11.4312 26.1646 11.5627C26.1174 11.7526 27.2311 12.2311 25.04 12.5999C24.2237 12.7314 24.104 12.4465 23.9517 12.337C23.9263 12.3114 23.8573 12.2164 23.8102 12.1471H23.8066ZM28.8527 14.415C28.8056 14.5574 29.8939 15.2258 27.7499 15.2148C27.2747 15.2148 26.8393 15.0359 26.4838 14.9154C26.6725 13.5093 28.2723 13.5458 28.8636 14.4041L28.8527 14.415ZM24.2927 14.1886V14.6889L24.2564 15.1783L23.5454 15.6786L21.4231 15.1893C21.5537 14.6305 21.5791 14.2945 21.6372 13.7832L22.7872 13.5787L23.2624 13.5312L23.7957 13.4472L24.1403 13.6517L24.2963 14.1886H24.2927ZM19.0071 25.5393C18.8982 25.5759 18.4266 25.6233 18.3214 25.6124C18.2017 25.5868 18.0602 25.5393 17.9405 25.5174C17.8208 25.4919 17.6902 25.4115 17.5632 25.3494C17.4072 22.8076 16.8776 25.5649 16.0106 21.8799L18.0602 20.8172C18.7967 21.9639 18.7604 22.9025 19.8269 22.4497L20.5851 22.1137L21.1547 22.5665L22.1632 23.9616L23.8102 22.0187L22.7799 20.8866L22.0471 20.4812L20.3638 21.8872L19.9612 21.6498C19.7943 21.029 19.8052 21.3285 19.5803 20.7441C19.1522 19.6229 20.0301 18.3593 21.3324 18.9071L22.457 19.7288C23.8682 17.596 22.8234 19.4549 21.3542 17.1395C21.3179 17.0811 21.249 16.9605 21.2236 16.8656C22.243 16.4346 21.5429 16.3762 22.8234 16.9496L23.7231 17.6398L23.1427 18.509L25.2758 19.6521L26.0449 17.9941L23.9734 17.2198C24.0569 16.7779 24.1149 16.431 23.6542 16.3725L24.5321 15.7992L25.0182 15.8576L26.2154 16.0146C26.2262 16.504 26.2045 16.431 26.2154 17.0153L26.2625 17.8516C26.2625 17.9247 26.2734 18.0562 26.2988 18.1511L28.207 18.425C28.0655 19.8092 27.3545 21.0984 26.6434 22.362L24.7606 22.541L25.6132 23.8046C24.202 25.3896 22.3663 27.0002 20.625 27.4896C20.0664 26.3099 20.128 25.7475 18.9889 25.6051L19.0143 25.532L19.0071 25.5393Z" fill="url(#paint0_linear_1_9076)"/>
</mask>
<g mask="url(#mask0_1_9076)">
<path fill-rule="evenodd" clip-rule="evenodd" d="M17.6684 25.9776L17.9405 26.5619L18.7568 28.1725C16.8957 29.2828 13.4748 29.1257 11.6718 28.7459C6.17582 27.5772 2.01845 23.6074 0.538341 18.1803C-3.1438 4.76614 12.8436 -6.3728 24.7244 4.20371L19.5585 9.45179C12.9234 3.20303 4.25676 11.3838 8.28353 18.2059C10.2606 21.5585 12.4881 20.8427 14.516 21.9749L14.574 23.9908L15.5208 23.8228C15.5789 23.9288 15.6152 24.0602 15.6405 24.1588L16.3733 26.5692L17.6539 25.9739L17.6648 25.9849L17.6684 25.9776ZM23.8066 12.1471C24.5176 11.5737 25.2286 11.4312 26.1646 11.5627C26.1174 11.7526 27.2311 12.2311 25.04 12.5999C24.2237 12.7314 24.104 12.4465 23.9517 12.337C23.9263 12.3114 23.8573 12.2164 23.8102 12.1471H23.8066ZM28.8527 14.415C28.8056 14.5574 29.8939 15.2258 27.7499 15.2148C27.2747 15.2148 26.8393 15.0359 26.4838 14.9154C26.6725 13.5093 28.2723 13.5458 28.8636 14.4041L28.8527 14.415ZM24.2927 14.1886V14.6889L24.2564 15.1783L23.5454 15.6786L21.4231 15.1893C21.5537 14.6305 21.5791 14.2945 21.6372 13.7832L22.7872 13.5787L23.2624 13.5312L23.7957 13.4472L24.1403 13.6517L24.2963 14.1886H24.2927ZM19.0071 25.5393C18.8982 25.5759 18.4266 25.6233 18.3214 25.6124C18.2017 25.5868 18.0602 25.5393 17.9405 25.5174C17.8208 25.4919 17.6902 25.4115 17.5632 25.3494C17.4072 22.8076 16.8776 25.5649 16.0106 21.8799L18.0602 20.8172C18.7967 21.9639 18.7604 22.9025 19.8269 22.4497L20.5851 22.1137L21.1547 22.5665L22.1632 23.9616L23.8102 22.0187L22.7799 20.8866L22.0471 20.4812L20.3638 21.8872L19.9612 21.6498C19.7943 21.029 19.8052 21.3285 19.5803 20.7441C19.1522 19.6229 20.0301 18.3593 21.3324 18.9071L22.457 19.7288C23.8682 17.596 22.8234 19.4549 21.3542 17.1395C21.3179 17.0811 21.249 16.9605 21.2236 16.8656C22.243 16.4346 21.5429 16.3762 22.8234 16.9496L23.7231 17.6398L23.1427 18.509L25.2758 19.6521L26.0449 17.9941L23.9734 17.2198C24.0569 16.7779 24.1149 16.431 23.6542 16.3725L24.5321 15.7992L25.0182 15.8576L26.2154 16.0146C26.2262 16.504 26.2045 16.431 26.2154 17.0153L26.2625 17.8516C26.2625 17.9247 26.2734 18.0562 26.2988 18.1511L28.207 18.425C28.0655 19.8092 27.3545 21.0984 26.6434 22.362L24.7606 22.541L25.6132 23.8046C24.202 25.3896 22.3663 27.0002 20.625 27.4896C20.0664 26.3099 20.128 25.7475 18.9889 25.6051L19.0143 25.532L19.0071 25.5393Z" fill="url(#paint1_linear_1_9076)"/>
<ellipse cx="24.4335" cy="18.7825" rx="8.82106" ry="8.09449" fill="url(#paint2_radial_1_9076)"/>
<ellipse cx="8.8225" cy="3.45728" rx="8.8225" ry="3.45728" transform="matrix(0.987662 0.156599 -0.154565 0.987983 1.06875 22.9473)" fill="url(#paint3_radial_1_9076)"/>
<ellipse cx="5.70727" cy="2.51095" rx="5.70727" ry="2.51095" transform="matrix(0.987662 0.156599 -0.154564 0.987983 7.80183 3.30078)" fill="url(#paint4_radial_1_9076)"/>
<ellipse cx="7.93625" cy="3.11592" rx="7.93625" ry="3.11592" transform="matrix(0.987662 0.156599 -0.154565 0.987983 4.08572 -3.77197)" fill="url(#paint5_radial_1_9076)"/>
<ellipse cx="7.93625" cy="7.59161" rx="7.93625" ry="7.59161" transform="matrix(0.987662 0.156599 -0.154564 0.987983 0.00491333 5.6582)" fill="url(#paint6_radial_1_9076)"/>
</g>
<path d="M30.957 17.9047C30.957 11.8204 35.3176 6.89144 41.6672 6.89144H42.4322V12.1285C39.2574 12.1285 36.6946 14.7085 36.6946 17.9047V28.3018H30.957V17.9047Z" fill="#FFFEF1"/>
<path d="M48.6649 7.50757L54.02 19.4835L59.4133 7.50757H65.6482L53.102 35.2332H46.7141L50.9217 25.8373L42.43 7.50757H48.6649Z" fill="#FFFEF1"/>
<path d="M76.2426 6.89144C82.5157 6.89144 87.603 11.8204 87.603 17.9047C87.603 23.9889 82.5157 28.9179 76.2426 28.9179C74.0623 28.9179 72.0733 28.0322 70.6198 26.6074V35.2332H64.8822V17.9047C64.8822 11.8204 69.9695 6.89144 76.2426 6.89144ZM70.3903 17.9047C70.3903 21.1008 72.9531 23.6808 76.1279 23.6808C79.3027 23.6808 81.8655 21.1008 81.8655 17.9047C81.8655 14.7085 79.3027 12.1285 76.1279 12.1285C72.9531 12.1285 70.3903 14.7085 70.3903 17.9047Z" fill="#FFFEF1"/>
<path d="M95.1297 0.576172V7.50757H100.867V12.4366H95.1297V17.9047C95.1297 21.1008 97.6925 23.6808 100.867 23.6808V28.9179H100.102C93.7527 28.9179 89.3921 23.9889 89.3921 17.9047V0.576172H95.1297Z" fill="#FFFEF1"/>
<path d="M124.982 17.9047C124.982 23.9889 119.894 28.9179 113.583 28.9179C107.271 28.9179 102.184 23.9889 102.184 17.9047C102.184 11.8204 107.271 6.89144 113.583 6.89144C119.894 6.89144 124.982 11.8204 124.982 17.9047ZM107.922 17.9047C107.922 21.1008 110.446 23.6808 113.583 23.6808C116.719 23.6808 119.244 21.1008 119.244 17.9047C119.244 14.7085 116.719 12.1285 113.583 12.1285C110.446 12.1285 107.922 14.7085 107.922 17.9047Z" fill="#FFFEF1"/>
<path d="M132.415 17.9047C132.415 21.1008 133.983 23.6808 137.158 23.6808C140.333 23.6808 141.901 21.1008 141.901 17.9047V7.50757H147.639V17.9047C147.639 23.9889 143.508 28.9179 137.158 28.9179C130.808 28.9179 126.677 23.9889 126.677 17.9047V7.50757H132.415V17.9047Z" fill="#FFFEF1"/>
<path d="M160.808 12.1285C157.633 12.1285 155.07 14.7085 155.07 17.9047C155.07 21.1008 157.633 23.6808 160.808 23.6808C162.95 23.6808 164.748 22.4871 165.704 20.7542H171.862C170.562 25.4522 166.125 28.9179 160.808 28.9179C154.458 28.9179 149.333 23.9889 149.333 17.9047C149.333 11.8204 154.458 6.89144 160.808 6.89144C166.163 6.89144 170.676 10.4342 171.939 15.2091H165.895C164.901 13.3607 163.026 12.1285 160.808 12.1285Z" fill="#FFFEF1"/>
<path d="M173.681 0.576172H179.418V8.73982C180.757 7.58458 182.479 6.89144 184.391 6.89144C190.741 6.89144 195.101 11.8204 195.101 17.9047V28.3018H189.364V17.9047C189.364 14.7085 187.566 12.1285 184.391 12.1285C181.216 12.1285 179.418 14.7085 179.418 17.8662V28.3018H173.681V0.576172Z" fill="#FFFEF1"/>
<defs>
<linearGradient id="paint0_linear_1_9076" x1="26.6974" y1="20.9828" x2="4.92184" y2="8.30039" gradientUnits="userSpaceOnUse">
<stop stop-color="#381CFF"/>
<stop offset="0.495474" stop-color="#3B1DFF"/>
<stop offset="1" stop-color="#FF00FD"/>
</linearGradient>
<linearGradient id="paint1_linear_1_9076" x1="26.6974" y1="20.9828" x2="4.92184" y2="8.30039" gradientUnits="userSpaceOnUse">
<stop stop-color="#381CFF"/>
<stop offset="0.495474" stop-color="#3B1DFF"/>
<stop offset="1" stop-color="#FF00FD"/>
</linearGradient>
<radialGradient id="paint2_radial_1_9076" cx="0" cy="0" r="1" gradientUnits="userSpaceOnUse" gradientTransform="translate(24.4335 18.7825) rotate(90) scale(8.09449 8.82106)">
<stop stop-color="#01C9FD"/>
<stop offset="1" stop-color="#01C9FD" stop-opacity="0"/>
</radialGradient>
<radialGradient id="paint3_radial_1_9076" cx="0" cy="0" r="1" gradientUnits="userSpaceOnUse" gradientTransform="translate(8.8225 3.45728) rotate(90) scale(3.45728 8.8225)">
<stop stop-color="#2428ED"/>
<stop offset="1" stop-color="#2428ED" stop-opacity="0"/>
</radialGradient>
<radialGradient id="paint4_radial_1_9076" cx="0" cy="0" r="1" gradientUnits="userSpaceOnUse" gradientTransform="translate(5.70727 2.51095) rotate(90) scale(2.51095 5.70727)">
<stop stop-color="#B600FF"/>
<stop offset="1" stop-color="#B600FF" stop-opacity="0"/>
</radialGradient>
<radialGradient id="paint5_radial_1_9076" cx="0" cy="0" r="1" gradientUnits="userSpaceOnUse" gradientTransform="translate(7.93625 3.11592) rotate(90) scale(3.11592 7.93625)">
<stop stop-color="#F800FF"/>
<stop offset="1" stop-color="#F601FF" stop-opacity="0"/>
</radialGradient>
<radialGradient id="paint6_radial_1_9076" cx="0" cy="0" r="1" gradientUnits="userSpaceOnUse" gradientTransform="translate(7.93625 7.59161) rotate(90) scale(7.59161 7.93625)">
<stop stop-color="#F800FF"/>
<stop offset="1" stop-color="#F601FF" stop-opacity="0"/>
</radialGradient>
</defs>
</svg>
