<svg width="34" height="34" viewBox="0 0 34 34" fill="none" xmlns="http://www.w3.org/2000/svg">
<path d="M-9.49075e-08 2.17123C-1.02198e-07 2.33802 0.0667456 2.49757 0.184276 2.61505L28.2076 30.6714L1.34363 30.6714C0.248122 30.6714 -0.403383 32.7135 0.616675 33.5692C0.734209 33.6679 1.40167 34 1.48873 34L34 34L34 1.5026C34 1.37352 33.6358 0.693286 33.4965 0.558399C32.9886 0.0681682 32.0107 -0.0435117 31.3998 0.350994C31.2112 0.472826 30.6699 1.21397 30.6699 1.35901L30.6699 28.2115L2.17216 -1.39124e-06C0.972176 -1.44369e-06 -4.2477e-08 0.971759 -9.49075e-08 2.17123Z" fill="#DB4D2E"/>
</svg>
