<svg width="21" height="30" viewBox="0 0 21 30" fill="none" xmlns="http://www.w3.org/2000/svg">
<g clip-path="url(#clip0_1_9084)">
<path d="M10.1315 4.97754C7.42982 4.97754 7.09009 4.98998 6.02859 5.03727C4.96709 5.08705 4.24407 5.2538 3.61066 5.5002C2.94625 5.75011 2.34444 6.14211 1.8473 6.64881C1.34091 7.14621 0.948951 7.74794 0.698687 8.41217C0.452289 9.04434 0.284291 9.7686 0.235758 10.8264C0.18847 11.8904 0.176025 12.2288 0.176025 14.9342C0.176025 17.6371 0.18847 17.9756 0.235758 19.0371C0.285535 20.0974 0.452289 20.8204 0.698687 21.4538C0.953795 22.1084 1.29353 22.6634 1.8473 23.2172C2.39983 23.771 2.95484 24.1119 3.60941 24.3658C4.24407 24.6122 4.96584 24.7802 6.0261 24.8287C7.08885 24.876 7.42733 24.8885 10.1315 24.8885C12.8356 24.8885 13.1729 24.876 14.2356 24.8287C15.2946 24.7789 16.0201 24.6122 16.6536 24.3658C17.3175 24.1158 17.9189 23.7238 18.4157 23.2172C18.9694 22.6634 19.3092 22.1084 19.5643 21.4538C19.8094 20.8204 19.9774 20.0974 20.0272 19.0371C20.0745 17.9756 20.0869 17.6371 20.0869 14.933C20.0869 12.2288 20.0745 11.8904 20.0272 10.8276C19.9774 9.7686 19.8094 9.04434 19.5643 8.41217C19.314 7.74793 18.9221 7.14618 18.4157 6.64881C17.9187 6.14192 17.3168 5.74989 16.6523 5.5002C16.0176 5.2538 15.2934 5.0858 14.2344 5.03727C13.1716 4.98998 12.8344 4.97754 10.129 4.97754H10.1327H10.1315ZM9.23922 6.77201H10.1327C12.7908 6.77201 13.1057 6.78072 14.1547 6.82925C15.1254 6.87281 15.653 7.03583 16.004 7.17147C16.4681 7.35192 16.8004 7.56845 17.1488 7.91689C17.4973 8.26533 17.7126 8.59635 17.893 9.06177C18.0299 9.41145 18.1917 9.93909 18.2352 10.9097C18.2838 11.9588 18.2937 12.2736 18.2937 14.9305C18.2937 17.5874 18.2838 17.9035 18.2352 18.9525C18.1917 19.9232 18.0286 20.4496 17.893 20.8005C17.7334 21.2328 17.4786 21.6236 17.1476 21.9441C16.7991 22.2926 16.4681 22.5079 16.0027 22.6883C15.6543 22.8252 15.1266 22.987 14.1547 23.0318C13.1057 23.079 12.7908 23.0902 10.1327 23.0902C7.47462 23.0902 7.15853 23.079 6.10948 23.0318C5.13882 22.987 4.61243 22.8252 4.2615 22.6883C3.82905 22.5289 3.43784 22.2746 3.11662 21.9441C2.78529 21.6231 2.53015 21.2319 2.36996 20.7992C2.23432 20.4496 2.0713 19.9219 2.02774 18.9513C1.98045 17.9022 1.9705 17.5874 1.9705 14.928C1.9705 12.2699 1.98045 11.9563 2.02774 10.9073C2.07254 9.9366 2.23432 9.40896 2.3712 9.05803C2.55165 8.59386 2.76818 8.2616 3.11662 7.91315C3.46506 7.56471 3.79608 7.34943 4.2615 7.16898C4.61243 7.0321 5.13882 6.87032 6.10948 6.82552C7.02787 6.78321 7.38378 6.77077 9.23922 6.76952V6.77201ZM15.4465 8.42462C15.2896 8.42462 15.1342 8.45552 14.9893 8.51555C14.8443 8.57559 14.7126 8.66359 14.6017 8.77452C14.4908 8.88546 14.4028 9.01715 14.3427 9.1621C14.2827 9.30704 14.2518 9.46239 14.2518 9.61927C14.2518 9.77615 14.2827 9.9315 14.3427 10.0764C14.4028 10.2214 14.4908 10.3531 14.6017 10.464C14.7126 10.575 14.8443 10.663 14.9893 10.723C15.1342 10.783 15.2896 10.8139 15.4465 10.8139C15.7633 10.8139 16.0672 10.6881 16.2912 10.464C16.5152 10.24 16.6411 9.93611 16.6411 9.61927C16.6411 9.30243 16.5152 8.99856 16.2912 8.77452C16.0672 8.55048 15.7633 8.42462 15.4465 8.42462ZM10.1327 9.82087C9.4546 9.81029 8.78114 9.93472 8.15156 10.1869C7.52199 10.4391 6.94887 10.814 6.46557 11.2898C5.98228 11.7656 5.59847 12.3328 5.33649 12.9584C5.07451 13.584 4.93959 14.2554 4.93959 14.9336C4.93959 15.6118 5.07451 16.2833 5.33649 16.9088C5.59847 17.5344 5.98228 18.1016 6.46557 18.5774C6.94887 19.0532 7.52199 19.4281 8.15156 19.6803C8.78114 19.9325 9.4546 20.0569 10.1327 20.0464C11.4749 20.0254 12.755 19.4776 13.6968 18.521C14.6385 17.5645 15.1663 16.276 15.1663 14.9336C15.1663 13.5913 14.6385 12.3028 13.6968 11.3462C12.755 10.3897 11.4749 9.84181 10.1327 9.82087ZM10.1327 11.6141C11.013 11.6141 11.8571 11.9638 12.4795 12.5862C13.102 13.2086 13.4516 14.0528 13.4516 14.933C13.4516 15.8132 13.102 16.6574 12.4795 17.2798C11.8571 17.9022 11.013 18.2519 10.1327 18.2519C9.2525 18.2519 8.40832 17.9022 7.78591 17.2798C7.1635 16.6574 6.81383 15.8132 6.81383 14.933C6.81383 14.0528 7.1635 13.2086 7.78591 12.5862C8.40832 11.9638 9.2525 11.6141 10.1327 11.6141Z" fill="white"/>
</g>
<defs>
<clipPath id="clip0_1_9084">
<rect width="19.9109" height="19.9109" fill="white" transform="translate(0.176025 4.97754)"/>
</clipPath>
</defs>
</svg>
