<svg width="1290" height="233" viewBox="0 0 1290 233" fill="none" xmlns="http://www.w3.org/2000/svg">
<mask id="mask0_1_8991" style="mask-type:alpha" maskUnits="userSpaceOnUse" x="0" y="0" width="193" height="192">
<path fill-rule="evenodd" clip-rule="evenodd" d="M116.793 171.795L118.591 175.659L123.987 186.31C111.685 193.652 89.0719 192.614 77.1537 190.102C40.8238 182.373 13.3425 156.12 3.55857 120.23C-20.7813 31.5193 84.8993 -42.1445 163.434 27.7999L129.287 62.5064C85.4269 21.1822 28.1382 75.2829 54.7562 120.399C67.8254 142.571 82.5493 137.837 95.9542 145.324L96.3379 158.656L102.597 157.545C102.98 158.245 103.22 159.115 103.388 159.767L108.232 175.707L116.697 171.77L116.769 171.843L116.793 171.795ZM157.367 80.3306C162.068 76.5388 166.768 75.5968 172.955 76.4663C172.643 77.7222 180.005 80.8861 165.521 83.3255C160.125 84.195 159.334 82.3111 158.327 81.5866C158.159 81.4175 157.703 80.7895 157.391 80.3306H157.367ZM190.724 95.3291C190.412 96.271 197.606 100.691 183.434 100.618C180.292 100.618 177.415 99.4349 175.065 98.6379C176.312 89.3394 186.887 89.5809 190.796 95.2566L190.724 95.3291ZM160.581 93.8316V97.1405L160.341 100.377L155.641 103.686L141.612 100.449C142.476 96.7541 142.644 94.5321 143.027 91.1508L150.629 89.7983L153.77 89.4843L157.295 88.9288L159.574 90.2813L160.605 93.8316H160.581ZM125.642 168.896C124.922 169.138 121.805 169.452 121.109 169.379C120.318 169.21 119.383 168.896 118.591 168.751C117.8 168.582 116.937 168.051 116.098 167.64C115.066 150.831 111.565 169.065 105.834 144.696L119.383 137.668C124.251 145.251 124.011 151.458 131.061 148.464L136.073 146.242L139.838 149.236L146.504 158.463L157.391 145.614L150.581 138.127L145.737 135.446L134.61 144.744L131.948 143.174C130.845 139.068 130.917 141.049 129.43 137.185C126.601 129.77 132.404 121.413 141.013 125.036L148.447 130.47C157.775 116.366 150.869 128.659 141.157 113.347C140.917 112.96 140.461 112.163 140.294 111.535C147.032 108.685 142.404 108.299 150.869 112.091L156.816 116.655L152.979 122.404L167.079 129.963L172.163 118.998L158.47 113.878C159.022 110.955 159.406 108.661 156.36 108.275L162.163 104.483L165.377 104.869L173.29 105.908C173.362 109.144 173.218 108.661 173.29 112.525L173.602 118.056C173.602 118.539 173.674 119.409 173.842 120.037L186.455 121.848C185.52 131.002 180.82 139.527 176.12 147.884L163.674 149.067L169.31 157.424C159.981 167.906 147.847 178.557 136.337 181.793C132.644 173.992 133.051 170.273 125.522 169.331L125.69 168.848L125.642 168.896Z" fill="url(#paint0_linear_1_8991)"/>
</mask>
<g mask="url(#mask0_1_8991)">
<path fill-rule="evenodd" clip-rule="evenodd" d="M116.793 171.795L118.591 175.659L123.987 186.31C111.685 193.652 89.0719 192.614 77.1537 190.102C40.8238 182.373 13.3425 156.12 3.55857 120.23C-20.7813 31.5193 84.8993 -42.1445 163.434 27.7999L129.287 62.5064C85.4269 21.1822 28.1382 75.2829 54.7562 120.399C67.8254 142.571 82.5493 137.837 95.9542 145.324L96.3379 158.656L102.597 157.545C102.98 158.245 103.22 159.115 103.388 159.767L108.232 175.707L116.697 171.77L116.769 171.843L116.793 171.795ZM157.367 80.3306C162.068 76.5388 166.768 75.5968 172.955 76.4663C172.643 77.7222 180.005 80.8861 165.521 83.3255C160.125 84.195 159.334 82.3111 158.327 81.5866C158.159 81.4175 157.703 80.7895 157.391 80.3306H157.367ZM190.724 95.3291C190.412 96.271 197.606 100.691 183.434 100.618C180.292 100.618 177.415 99.4349 175.065 98.6379C176.312 89.3394 186.887 89.5809 190.796 95.2566L190.724 95.3291ZM160.581 93.8316V97.1405L160.341 100.377L155.641 103.686L141.612 100.449C142.476 96.7541 142.644 94.5321 143.027 91.1508L150.629 89.7983L153.77 89.4843L157.295 88.9288L159.574 90.2813L160.605 93.8316H160.581ZM125.642 168.896C124.922 169.138 121.805 169.452 121.109 169.379C120.318 169.21 119.383 168.896 118.591 168.751C117.8 168.582 116.937 168.051 116.098 167.64C115.066 150.831 111.565 169.065 105.834 144.696L119.383 137.668C124.251 145.251 124.011 151.458 131.061 148.464L136.073 146.242L139.838 149.236L146.504 158.463L157.391 145.614L150.581 138.127L145.737 135.446L134.61 144.744L131.948 143.174C130.845 139.068 130.917 141.049 129.43 137.185C126.601 129.77 132.404 121.413 141.013 125.036L148.447 130.47C157.775 116.366 150.869 128.659 141.157 113.347C140.917 112.96 140.461 112.163 140.294 111.535C147.032 108.685 142.404 108.299 150.869 112.091L156.816 116.655L152.979 122.404L167.079 129.963L172.163 118.998L158.47 113.878C159.022 110.955 159.406 108.661 156.36 108.275L162.163 104.483L165.377 104.869L173.29 105.908C173.362 109.144 173.218 108.661 173.29 112.525L173.602 118.056C173.602 118.539 173.674 119.409 173.842 120.037L186.455 121.848C185.52 131.002 180.82 139.527 176.12 147.884L163.674 149.067L169.31 157.424C159.981 167.906 147.847 178.557 136.337 181.793C132.644 173.992 133.051 170.273 125.522 169.331L125.69 168.848L125.642 168.896Z" fill="url(#paint1_linear_1_8991)"/>
<ellipse cx="161.512" cy="124.211" rx="58.3094" ry="53.5303" fill="url(#paint2_radial_1_8991)"/>
<ellipse cx="58.3196" cy="22.8634" rx="58.3196" ry="22.8634" transform="matrix(0.987652 0.156666 -0.154498 0.987993 7.06469 151.756)" fill="url(#paint3_radial_1_8991)"/>
<ellipse cx="37.7269" cy="16.6052" rx="37.7269" ry="16.6052" transform="matrix(0.987652 0.156666 -0.154498 0.987993 51.5721 21.8279)" fill="url(#paint4_radial_1_8991)"/>
<ellipse cx="52.4612" cy="20.6059" rx="52.4612" ry="20.6059" transform="matrix(0.987652 0.156666 -0.154498 0.987993 27.0077 -24.9462)" fill="url(#paint5_radial_1_8991)"/>
<ellipse cx="52.4612" cy="50.2042" rx="52.4612" ry="50.2042" transform="matrix(0.987652 0.156666 -0.154498 0.987993 0.0324707 37.4192)" fill="url(#paint6_radial_1_8991)"/>
</g>
<path d="M204.634 118.407C204.634 78.1707 233.458 45.5744 275.431 45.5744H280.488V80.2079C259.502 80.2079 242.561 97.2701 242.561 118.407V187.165H204.634V118.407Z" fill="white"/>
<path d="M321.687 49.6489L357.086 128.848L392.737 49.6489H433.951L351.018 233.003H308.792L336.605 170.866L280.473 49.6489H321.687Z" fill="white"/>
<path d="M503.983 45.5744C545.45 45.5744 579.079 78.1707 579.079 118.407C579.079 158.643 545.45 191.239 503.983 191.239C489.571 191.239 476.423 185.382 466.815 175.96V233.003H428.888V118.407C428.888 78.1707 462.516 45.5744 503.983 45.5744ZM465.298 118.407C465.298 139.543 482.238 156.606 503.225 156.606C524.211 156.606 541.152 139.543 541.152 118.407C541.152 97.2701 524.211 80.2079 503.225 80.2079C482.238 80.2079 465.298 97.2701 465.298 118.407Z" fill="white"/>
<path d="M628.832 3.81033V49.6489H666.758V82.2452H628.832V118.407C628.832 139.543 645.772 156.606 666.758 156.606V191.239H661.702C619.729 191.239 590.905 158.643 590.905 118.407V3.81033H628.832Z" fill="white"/>
<path d="M826.16 118.407C826.16 158.643 792.531 191.239 750.812 191.239C709.092 191.239 675.463 158.643 675.463 118.407C675.463 78.1707 709.092 45.5744 750.812 45.5744C792.531 45.5744 826.16 78.1707 826.16 118.407ZM713.39 118.407C713.39 139.543 730.078 156.606 750.812 156.606C771.545 156.606 788.233 139.543 788.233 118.407C788.233 97.2701 771.545 80.2079 750.812 80.2079C730.078 80.2079 713.39 97.2701 713.39 118.407Z" fill="white"/>
<path d="M875.297 118.407C875.297 139.543 885.663 156.606 906.649 156.606C927.636 156.606 938.002 139.543 938.002 118.407V49.6489H975.929V118.407C975.929 158.643 948.622 191.239 906.649 191.239C864.677 191.239 837.37 158.643 837.37 118.407V49.6489H875.297V118.407Z" fill="white"/>
<path d="M1062.98 80.2079C1041.99 80.2079 1025.05 97.2701 1025.05 118.407C1025.05 139.543 1041.99 156.606 1062.98 156.606C1077.14 156.606 1089.02 148.711 1095.35 137.251H1136.05C1127.46 168.32 1098.13 191.239 1062.98 191.239C1021.01 191.239 987.127 158.643 987.127 118.407C987.127 78.1707 1021.01 45.5744 1062.98 45.5744C1098.38 45.5744 1128.22 69.003 1136.56 100.581H1096.61C1090.04 88.357 1077.65 80.2079 1062.98 80.2079Z" fill="white"/>
<path d="M1148.08 3.81033H1186V57.798C1194.85 50.1582 1206.23 45.5744 1218.87 45.5744C1260.84 45.5744 1289.67 78.1707 1289.67 118.407V187.165H1251.74V118.407C1251.74 97.2701 1239.86 80.2079 1218.87 80.2079C1197.89 80.2079 1186 97.2701 1186 118.152V187.165H1148.08V3.81033Z" fill="white"/>
<defs>
<linearGradient id="paint0_linear_1_8991" x1="176.476" y1="138.763" x2="32.5024" y2="54.9474" gradientUnits="userSpaceOnUse">
<stop stop-color="#381CFF"/>
<stop offset="0.495474" stop-color="#3B1DFF"/>
<stop offset="1" stop-color="#FF00FD"/>
</linearGradient>
<linearGradient id="paint1_linear_1_8991" x1="176.476" y1="138.763" x2="32.5024" y2="54.9474" gradientUnits="userSpaceOnUse">
<stop stop-color="#381CFF"/>
<stop offset="0.495474" stop-color="#3B1DFF"/>
<stop offset="1" stop-color="#FF00FD"/>
</linearGradient>
<radialGradient id="paint2_radial_1_8991" cx="0" cy="0" r="1" gradientUnits="userSpaceOnUse" gradientTransform="translate(161.512 124.211) rotate(90) scale(53.5303 58.3094)">
<stop stop-color="#01C9FD"/>
<stop offset="1" stop-color="#01C9FD" stop-opacity="0"/>
</radialGradient>
<radialGradient id="paint3_radial_1_8991" cx="0" cy="0" r="1" gradientUnits="userSpaceOnUse" gradientTransform="translate(58.3196 22.8634) rotate(90) scale(22.8634 58.3196)">
<stop stop-color="#2428ED"/>
<stop offset="1" stop-color="#2428ED" stop-opacity="0"/>
</radialGradient>
<radialGradient id="paint4_radial_1_8991" cx="0" cy="0" r="1" gradientUnits="userSpaceOnUse" gradientTransform="translate(37.7269 16.6052) rotate(90) scale(16.6052 37.7269)">
<stop stop-color="#B600FF"/>
<stop offset="1" stop-color="#B600FF" stop-opacity="0"/>
</radialGradient>
<radialGradient id="paint5_radial_1_8991" cx="0" cy="0" r="1" gradientUnits="userSpaceOnUse" gradientTransform="translate(52.4612 20.6059) rotate(90) scale(20.6059 52.4612)">
<stop stop-color="#F800FF"/>
<stop offset="1" stop-color="#F601FF" stop-opacity="0"/>
</radialGradient>
<radialGradient id="paint6_radial_1_8991" cx="0" cy="0" r="1" gradientUnits="userSpaceOnUse" gradientTransform="translate(52.4612 50.2042) rotate(90) scale(50.2042 52.4612)">
<stop stop-color="#F800FF"/>
<stop offset="1" stop-color="#F601FF" stop-opacity="0"/>
</radialGradient>
</defs>
</svg>
