<svg width="151" height="30" viewBox="0 0 151 30" fill="none" xmlns="http://www.w3.org/2000/svg">
<mask id="mask0_1_9169" style="mask-type:alpha" maskUnits="userSpaceOnUse" x="0" y="2" width="23" height="24">
<path fill-rule="evenodd" clip-rule="evenodd" d="M14.1794 22.6366L14.3969 23.0799L15.0472 24.3005C13.6348 25.1777 11.0063 25.108 9.61658 24.8439C5.38018 24.0304 2.13025 21.0533 0.914205 16.9213C-2.10973 6.70867 9.99986 -2.05259 19.2761 5.86729L15.3875 9.96024C10.2019 5.27539 3.66888 11.6645 6.86048 16.8267C8.42757 19.3636 10.127 18.7829 11.7005 19.6195L11.7746 21.1616L12.4991 21.0191C12.5452 21.0993 12.575 21.1994 12.5959 21.2745L13.1939 23.1086L14.1682 22.6341L14.1768 22.6423L14.1794 22.6366ZM18.6883 11.9605C19.2257 11.5112 19.7695 11.3917 20.4899 11.4785C20.4565 11.6245 21.3185 11.9743 19.6418 12.2889C19.0171 12.4016 18.921 12.1853 18.8025 12.1037C18.7826 12.0845 18.7283 12.0129 18.6911 11.9604L18.6883 11.9605ZM22.5955 13.6219C22.5614 13.7317 23.4067 14.2271 21.7606 14.2504C21.3958 14.2574 21.059 14.1268 20.7843 14.0398C20.9084 12.9609 22.1371 12.9652 22.6037 13.6134L22.5955 13.6219ZM19.0915 13.5159L19.0988 13.8988L19.0782 14.2739L18.5397 14.6674L16.9033 14.3241C16.9953 13.8945 17.0099 13.637 17.0469 13.2448L17.9267 13.0713L18.2909 13.0279L18.699 12.9558L18.9666 13.1072L19.0943 13.5158L19.0915 13.5159ZM15.2006 22.2815C15.1176 22.311 14.7563 22.3543 14.6754 22.3475C14.5831 22.3297 14.4738 22.2954 14.3815 22.2804C14.2893 22.2626 14.1878 22.203 14.0894 22.1574C13.9323 20.2142 13.5662 22.3324 12.8465 19.5248L14.4043 18.6812C14.9865 19.548 14.9725 20.2669 15.7846 19.9046L16.3617 19.6362L16.8056 19.9745L17.6004 21.0274L18.8362 19.516L18.0286 18.6647L17.4601 18.3652L16.1885 19.4662L15.8759 19.2905C15.7387 18.8177 15.7514 19.0468 15.5702 18.6028C15.2251 17.751 15.8804 16.7709 16.8883 17.171L17.7637 17.7833C18.8157 16.1301 18.041 17.5683 16.879 15.8178C16.8503 15.7736 16.7956 15.6824 16.7747 15.6101C17.551 15.2652 17.0126 15.2308 18.0041 15.6508L18.705 16.1658L18.2721 16.8396L19.9265 17.6831L20.4925 16.4027L18.891 15.8406C18.9485 15.5012 18.988 15.2348 18.6334 15.1969L19.299 14.7451L19.673 14.7826L20.5943 14.8852C20.6099 15.2596 20.5921 15.204 20.6091 15.6511L20.6576 16.2905C20.6586 16.3464 20.6689 16.4468 20.6898 16.5192L22.1587 16.7007C22.0705 17.7621 21.5436 18.7594 21.0163 19.737L19.5735 19.9017L20.2466 20.8563C19.1865 22.0903 17.801 23.35 16.4714 23.7503C16.0252 22.8556 16.0643 22.4243 15.1877 22.332L15.2061 22.2758L15.2006 22.2815Z" fill="url(#paint0_linear_1_9169)"/>
</mask>
<g mask="url(#mask0_1_9169)">
<path fill-rule="evenodd" clip-rule="evenodd" d="M14.1794 22.6366L14.3969 23.0799L15.0472 24.3005C13.6348 25.1777 11.0063 25.108 9.61658 24.8439C5.38018 24.0304 2.13025 21.0533 0.914205 16.9213C-2.10973 6.70867 9.99986 -2.05259 19.2761 5.86729L15.3875 9.96024C10.2019 5.27539 3.66888 11.6645 6.86048 16.8267C8.42757 19.3636 10.127 18.7829 11.7005 19.6195L11.7746 21.1616L12.4991 21.0191C12.5452 21.0993 12.575 21.1994 12.5959 21.2745L13.1939 23.1086L14.1682 22.6341L14.1768 22.6423L14.1794 22.6366ZM18.6883 11.9605C19.2257 11.5112 19.7695 11.3917 20.4899 11.4785C20.4565 11.6245 21.3185 11.9743 19.6418 12.2889C19.0171 12.4016 18.921 12.1853 18.8025 12.1037C18.7826 12.0845 18.7283 12.0129 18.6911 11.9604L18.6883 11.9605ZM22.5955 13.6219C22.5614 13.7317 23.4067 14.2271 21.7606 14.2504C21.3958 14.2574 21.059 14.1268 20.7843 14.0398C20.9084 12.9609 22.1371 12.9652 22.6037 13.6134L22.5955 13.6219ZM19.0915 13.5159L19.0988 13.8988L19.0782 14.2739L18.5397 14.6674L16.9033 14.3241C16.9953 13.8945 17.0099 13.637 17.0469 13.2448L17.9267 13.0713L18.2909 13.0279L18.699 12.9558L18.9666 13.1072L19.0943 13.5158L19.0915 13.5159ZM15.2006 22.2815C15.1176 22.311 14.7563 22.3543 14.6754 22.3475C14.5831 22.3297 14.4738 22.2954 14.3815 22.2804C14.2893 22.2626 14.1878 22.203 14.0894 22.1574C13.9323 20.2142 13.5662 22.3324 12.8465 19.5248L14.4043 18.6812C14.9865 19.548 14.9725 20.2669 15.7846 19.9046L16.3617 19.6362L16.8056 19.9745L17.6004 21.0274L18.8362 19.516L18.0286 18.6647L17.4601 18.3652L16.1885 19.4662L15.8759 19.2905C15.7387 18.8177 15.7514 19.0468 15.5702 18.6028C15.2251 17.751 15.8804 16.7709 16.8883 17.171L17.7637 17.7833C18.8157 16.1301 18.041 17.5683 16.879 15.8178C16.8503 15.7736 16.7956 15.6824 16.7747 15.6101C17.551 15.2652 17.0126 15.2308 18.0041 15.6508L18.705 16.1658L18.2721 16.8396L19.9265 17.6831L20.4925 16.4027L18.891 15.8406C18.9485 15.5012 18.988 15.2348 18.6334 15.1969L19.299 14.7451L19.673 14.7826L20.5943 14.8852C20.6099 15.2596 20.5921 15.204 20.6091 15.6511L20.6576 16.2905C20.6586 16.3464 20.6689 16.4468 20.6898 16.5192L22.1587 16.7007C22.0705 17.7621 21.5436 18.7594 21.0163 19.737L19.5735 19.9017L20.2466 20.8563C19.1865 22.0903 17.801 23.35 16.4714 23.7503C16.0252 22.8556 16.0643 22.4243 15.1877 22.332L15.2061 22.2758L15.2006 22.2815Z" fill="url(#paint1_linear_1_9169)"/>
<ellipse cx="19.2672" cy="17.0298" rx="6.77308" ry="6.19651" transform="rotate(-1.10033 19.2672 17.0298)" fill="url(#paint2_radial_1_9169)"/>
<ellipse cx="6.77369" cy="2.64682" rx="6.77369" ry="2.64682" transform="matrix(0.990551 0.137143 -0.13602 0.990706 1.39147 20.5623)" fill="url(#paint3_radial_1_9169)"/>
<ellipse cx="4.38189" cy="1.92233" rx="4.38189" ry="1.92233" transform="matrix(0.990551 0.137143 -0.13602 0.990706 6.27157 5.42566)" fill="url(#paint4_radial_1_9169)"/>
<ellipse cx="6.09325" cy="2.38548" rx="6.09325" ry="2.38548" transform="matrix(0.990551 0.137143 -0.13602 0.990706 3.31478 0.0670166)" fill="url(#paint5_radial_1_9169)"/>
<ellipse cx="6.09325" cy="5.81196" rx="6.09325" ry="5.81196" transform="matrix(0.990551 0.137143 -0.13602 0.990706 0.320618 7.34509)" fill="url(#paint6_radial_1_9169)"/>
</g>
<path d="M24.2623 16.2619C24.1728 11.6052 27.4479 7.76831 32.3224 7.67469L32.9097 7.66341L32.9867 11.6718C30.5495 11.7186 28.62 13.731 28.667 16.1773L28.8198 24.135L24.4151 24.2196L24.2623 16.2619Z" fill="black"/>
<path d="M37.7036 8.04308L41.9907 17.1303L45.955 7.8846L50.7414 7.79267L41.5174 29.1983L36.6135 29.2925L39.7055 22.039L32.9171 8.13501L37.7036 8.04308Z" fill="black"/>
<path d="M58.8656 7.16488C63.6814 7.07239 67.6594 10.7699 67.7488 15.4267C67.8382 20.0834 64.0052 23.931 59.1894 24.0235C57.5156 24.0556 55.9757 23.4071 54.8389 22.338L54.9657 28.94L50.561 29.0246L50.3062 15.7617C50.2168 11.1049 54.0498 7.25738 58.8656 7.16488ZM54.5347 15.6805C54.5817 18.1267 56.5871 20.0637 59.0243 20.0168C61.4616 19.97 63.3911 17.9575 63.3441 15.5113C63.2971 13.065 61.2918 11.1281 58.8545 11.1749C56.4173 11.2217 54.4878 13.2342 54.5347 15.6805Z" fill="black"/>
<path d="M73.2722 2.05281L73.3741 7.35797L77.7788 7.27337L77.8512 11.0459L73.4465 11.1305L73.5269 15.3157C73.5739 17.762 75.5793 19.6989 78.0165 19.6521L78.0935 23.6604L77.5062 23.6717C72.6317 23.7653 69.2117 20.0571 69.1222 15.4003L68.8675 2.13741L73.2722 2.05281Z" fill="black"/>
<path d="M96.4439 14.8755C96.5333 19.5323 92.7003 23.3799 87.8551 23.4729C83.01 23.566 79.032 19.8684 78.9426 15.2117C78.8531 10.5549 82.6862 6.70737 87.5313 6.61431C92.3765 6.52125 96.3544 10.2188 96.4439 14.8755ZM83.3473 15.1271C83.3942 17.5734 85.3702 19.5108 87.7781 19.4646C90.186 19.4183 92.0862 17.4064 92.0392 14.9601C91.9922 12.5139 90.0162 10.5764 87.6083 10.6227C85.2004 10.6689 83.3003 12.6808 83.3473 15.1271Z" fill="black"/>
<path d="M102.15 14.7659C102.197 17.2122 103.439 19.1638 105.877 19.117C108.314 19.0702 109.48 17.0723 109.433 14.6261L109.28 6.66834L113.685 6.58374L113.838 14.5415C113.927 19.1982 110.828 23.0317 105.954 23.1253C101.079 23.2189 97.8352 19.5073 97.7457 14.8505L97.5929 6.89281L101.998 6.80821L102.15 14.7659Z" fill="black"/>
<path d="M123.862 9.92633C121.425 9.97314 119.496 11.9856 119.543 14.4319C119.59 16.8782 121.595 18.8151 124.032 18.7683C125.677 18.7367 127.039 17.7965 127.748 16.4561L132.476 16.3653C131.546 19.9802 128.191 22.6982 124.109 22.7766C119.235 22.8702 115.227 19.1732 115.138 14.5165C115.049 9.85974 118.911 6.01161 123.785 5.91799C127.897 5.83903 131.414 8.484 132.453 12.1201L127.813 12.2092C127.023 10.8091 125.566 9.89362 123.862 9.92633Z" fill="black"/>
<path d="M133.575 0.894594L137.98 0.809995L138.1 7.05829C139.111 6.15436 140.422 5.59846 141.89 5.57026C146.765 5.47664 150.185 9.1849 150.274 13.8416L150.427 21.7994L146.022 21.884L145.869 13.9262C145.822 11.48 144.404 9.53179 141.967 9.5786C139.53 9.62541 138.188 11.6266 138.234 14.0434L138.387 22.0306L133.983 22.1152L133.575 0.894594Z" fill="black"/>
<defs>
<linearGradient id="paint0_linear_1_9169" x1="21.0374" y1="18.6806" x2="4.15884" y2="9.25058" gradientUnits="userSpaceOnUse">
<stop stop-color="#381CFF"/>
<stop offset="0.495474" stop-color="#3B1DFF"/>
<stop offset="1" stop-color="#FF00FD"/>
</linearGradient>
<linearGradient id="paint1_linear_1_9169" x1="21.0374" y1="18.6806" x2="4.15884" y2="9.25058" gradientUnits="userSpaceOnUse">
<stop stop-color="#381CFF"/>
<stop offset="0.495474" stop-color="#3B1DFF"/>
<stop offset="1" stop-color="#FF00FD"/>
</linearGradient>
<radialGradient id="paint2_radial_1_9169" cx="0" cy="0" r="1" gradientUnits="userSpaceOnUse" gradientTransform="translate(19.2672 17.0298) rotate(90) scale(6.19651 6.77308)">
<stop stop-color="#01C9FD"/>
<stop offset="1" stop-color="#01C9FD" stop-opacity="0"/>
</radialGradient>
<radialGradient id="paint3_radial_1_9169" cx="0" cy="0" r="1" gradientUnits="userSpaceOnUse" gradientTransform="translate(6.77369 2.64682) rotate(90) scale(2.64682 6.77369)">
<stop stop-color="#2428ED"/>
<stop offset="1" stop-color="#2428ED" stop-opacity="0"/>
</radialGradient>
<radialGradient id="paint4_radial_1_9169" cx="0" cy="0" r="1" gradientUnits="userSpaceOnUse" gradientTransform="translate(4.38189 1.92233) rotate(90) scale(1.92233 4.38189)">
<stop stop-color="#B600FF"/>
<stop offset="1" stop-color="#B600FF" stop-opacity="0"/>
</radialGradient>
<radialGradient id="paint5_radial_1_9169" cx="0" cy="0" r="1" gradientUnits="userSpaceOnUse" gradientTransform="translate(6.09325 2.38548) rotate(90) scale(2.38548 6.09325)">
<stop stop-color="#F800FF"/>
<stop offset="1" stop-color="#F601FF" stop-opacity="0"/>
</radialGradient>
<radialGradient id="paint6_radial_1_9169" cx="0" cy="0" r="1" gradientUnits="userSpaceOnUse" gradientTransform="translate(6.09325 5.81196) rotate(90) scale(5.81196 6.09325)">
<stop stop-color="#F800FF"/>
<stop offset="1" stop-color="#F601FF" stop-opacity="0"/>
</radialGradient>
</defs>
</svg>
