<svg width="25" height="25" viewBox="0 0 25 25" fill="none" xmlns="http://www.w3.org/2000/svg">
<mask id="mask0_1_9178" style="mask-type:alpha" maskUnits="userSpaceOnUse" x="0" y="1" width="24" height="24">
<path fill-rule="evenodd" clip-rule="evenodd" d="M14.2178 21.7573L14.3975 22.2351L14.9451 23.5561C13.4115 24.3225 10.7235 23.9949 9.32459 23.5875C5.06082 22.3372 2.01955 18.9534 1.1761 14.5777C-0.927368 3.76058 12.3424 -4.08851 21.0794 4.97449L16.6934 8.81339C11.8344 3.4817 4.5132 9.42924 7.28144 15.0587C8.64044 17.8252 10.4394 17.3922 11.9708 18.4073L11.8964 20.0035L12.653 19.9271C12.6924 20.0142 12.7132 20.1203 12.7273 20.1997L13.1614 22.1476L14.2066 21.7535L14.2145 21.7628L14.2178 21.7573ZM19.8822 11.1956C20.477 10.7849 21.0461 10.7147 21.7762 10.8742C21.7277 11.0215 22.5773 11.4657 20.8277 11.6268C20.1763 11.6821 20.0989 11.4499 19.9853 11.3542C19.9668 11.3325 19.9181 11.2534 19.885 11.1958L19.8822 11.1956ZM23.7257 13.2877C23.68 13.3974 24.4983 13.9902 22.8085 13.8539C22.4338 13.8257 22.1012 13.6584 21.8281 13.542C22.0606 12.4423 23.3199 12.5664 23.7349 13.2796L23.7257 13.2877ZM20.1437 12.8374L20.1139 13.2327L20.0561 13.6172L19.4657 13.9702L17.8215 13.4573C17.9578 13.0236 17.9979 12.7596 18.0741 12.3591L18.993 12.266L19.3706 12.2567L19.7961 12.2221L20.0556 12.4042L20.1466 12.8376L20.1437 12.8374ZM15.2994 21.4907C15.2114 21.513 14.8368 21.5225 14.7545 21.5076C14.6616 21.4802 14.5529 21.4343 14.4598 21.4099C14.3669 21.3826 14.2687 21.3113 14.1723 21.2547C14.2009 19.2372 13.6189 21.3841 13.1549 18.4212L14.8344 17.7035C15.3467 18.6534 15.2621 19.3927 16.1301 19.0984L16.7479 18.8781L17.17 19.2698L17.882 20.432L19.2964 18.995L18.5516 18.0392L17.998 17.6753L16.5869 18.686L16.2836 18.4745C16.189 17.9741 16.1798 18.2113 16.0373 17.7363C15.7666 16.825 16.5341 15.8789 17.5283 16.3892L18.3661 17.1053C19.6059 15.5042 18.6713 16.9107 17.6509 14.994C17.6258 14.9456 17.5786 14.8463 17.5643 14.7698C18.3937 14.49 17.8451 14.4021 18.8207 14.9313L19.4889 15.5302L18.9794 16.1824L20.5931 17.2124L21.2984 15.9482L19.7113 15.2133C19.8034 14.8691 19.8699 14.5985 19.5101 14.5249L20.2365 14.1241L20.6163 14.1992L21.5508 14.3945C21.5302 14.7818 21.5174 14.7228 21.4912 15.1851L21.4785 15.8487C21.4741 15.9064 21.4749 16.0109 21.4892 16.0874L22.9775 16.4174C22.7834 17.5025 22.1459 18.4787 21.5099 19.4348L20.0147 19.4641L20.6116 20.5132C19.4044 21.6815 17.861 22.8447 16.4589 23.1277C16.0887 22.1625 16.1709 21.7218 15.2812 21.5415L15.3056 21.4853L15.2994 21.4907Z" fill="white"/>
</mask>
<g mask="url(#mask0_1_9178)">
<path fill-rule="evenodd" clip-rule="evenodd" d="M14.2178 21.7573L14.3975 22.2351L14.9451 23.5561C13.4115 24.3225 10.7235 23.9949 9.32459 23.5875C5.06082 22.3372 2.01955 18.9534 1.1761 14.5777C-0.927368 3.76058 12.3424 -4.08851 21.0794 4.97449L16.6934 8.81339C11.8344 3.4817 4.5132 9.42924 7.28144 15.0587C8.64044 17.8252 10.4394 17.3922 11.9708 18.4073L11.8964 20.0035L12.653 19.9271C12.6924 20.0142 12.7132 20.1203 12.7273 20.1997L13.1614 22.1476L14.2066 21.7535L14.2145 21.7628L14.2178 21.7573ZM19.8822 11.1956C20.477 10.7849 21.0461 10.7147 21.7762 10.8742C21.7277 11.0215 22.5773 11.4657 20.8277 11.6268C20.1763 11.6821 20.0989 11.4499 19.9853 11.3542C19.9668 11.3325 19.9181 11.2534 19.885 11.1958L19.8822 11.1956ZM23.7257 13.2877C23.68 13.3974 24.4983 13.9902 22.8085 13.8539C22.4338 13.8257 22.1012 13.6584 21.8281 13.542C22.0606 12.4423 23.3199 12.5664 23.7349 13.2796L23.7257 13.2877ZM20.1437 12.8374L20.1139 13.2327L20.0561 13.6172L19.4657 13.9702L17.8215 13.4573C17.9578 13.0236 17.9979 12.7596 18.0741 12.3591L18.993 12.266L19.3706 12.2567L19.7961 12.2221L20.0556 12.4042L20.1466 12.8376L20.1437 12.8374ZM15.2994 21.4907C15.2114 21.513 14.8368 21.5225 14.7545 21.5076C14.6616 21.4802 14.5529 21.4343 14.4598 21.4099C14.3669 21.3826 14.2687 21.3113 14.1723 21.2547C14.2009 19.2372 13.6189 21.3841 13.1549 18.4212L14.8344 17.7035C15.3467 18.6534 15.2621 19.3927 16.1301 19.0984L16.7479 18.8781L17.17 19.2698L17.882 20.432L19.2964 18.995L18.5516 18.0392L17.998 17.6753L16.5869 18.686L16.2836 18.4745C16.189 17.9741 16.1798 18.2113 16.0373 17.7363C15.7666 16.825 16.5341 15.8789 17.5283 16.3892L18.3661 17.1053C19.6059 15.5042 18.6713 16.9107 17.6509 14.994C17.6258 14.9456 17.5786 14.8463 17.5643 14.7698C18.3937 14.49 17.8451 14.4021 18.8207 14.9313L19.4889 15.5302L18.9794 16.1824L20.5931 17.2124L21.2984 15.9482L19.7113 15.2133C19.8034 14.8691 19.8699 14.5985 19.5101 14.5249L20.2365 14.1241L20.6163 14.1992L21.5508 14.3945C21.5302 14.7818 21.5174 14.7228 21.4912 15.1851L21.4785 15.8487C21.4741 15.9064 21.4749 16.0109 21.4892 16.0874L22.9775 16.4174C22.7834 17.5025 22.1459 18.4787 21.5099 19.4348L20.0147 19.4641L20.6116 20.5132C19.4044 21.6815 17.861 22.8447 16.4589 23.1277C16.0887 22.1625 16.1709 21.7218 15.2812 21.5415L15.3056 21.4853L15.2994 21.4907Z" fill="white"/>
<ellipse cx="19.9809" cy="16.4752" rx="6.97494" ry="6.41329" transform="rotate(4.31575 19.9809 16.4752)" fill="white"/>
<ellipse cx="6.97642" cy="2.73909" rx="6.97642" ry="2.73909" transform="matrix(0.973006 0.230782 -0.228177 0.97362 1.31009 18.3755)" fill="white"/>
<ellipse cx="4.51304" cy="1.98934" rx="4.51304" ry="1.98934" transform="matrix(0.973006 0.230782 -0.228177 0.97362 7.79068 3.25415)" fill="white"/>
<ellipse cx="6.27562" cy="2.46864" rx="6.27562" ry="2.46864" transform="matrix(0.973006 0.230782 -0.228177 0.97362 5.28198 -2.55505)" fill="white"/>
<ellipse cx="6.27562" cy="6.01458" rx="6.27562" ry="6.01458" transform="matrix(0.973006 0.230782 -0.228177 0.97362 1.50259 4.65283)" fill="white"/>
</g>
</svg>
