<svg width="41" height="41" viewBox="0 0 41 41" fill="none" xmlns="http://www.w3.org/2000/svg">
<mask id="mask0_1_9639" style="mask-type:alpha" maskUnits="userSpaceOnUse" x="0" y="0" width="41" height="41">
<path fill-rule="evenodd" clip-rule="evenodd" d="M24.9043 36.6899L25.2878 37.5152L26.4383 39.7899C23.8151 41.358 18.9932 41.1362 16.4518 40.5998C8.70503 38.9492 2.84508 33.3423 0.75881 25.6773C-4.43129 6.73154 18.1035 -9.00073 34.8498 5.93719L27.5684 13.3494C18.216 4.52386 6.00004 16.0781 11.6759 25.7134C14.4627 30.4486 17.6023 29.4376 20.4607 31.0366L20.5426 33.8839L21.8772 33.6466C21.959 33.7962 22.0101 33.9819 22.0459 34.1212L23.0788 37.5255L24.8838 36.6848L24.8992 36.7002L24.9043 36.6899ZM33.5562 17.1561C34.5584 16.3463 35.5606 16.1451 36.8799 16.3308C36.8134 16.599 38.3832 17.2747 35.2947 17.7957C34.1442 17.9814 33.9755 17.5791 33.7607 17.4243C33.7249 17.3882 33.6277 17.2541 33.5613 17.1561H33.5562ZM40.6689 20.3593C40.6024 20.5605 42.1364 21.5044 39.1144 21.4889C38.4446 21.4889 37.831 21.2362 37.3298 21.066C37.5957 19.0801 39.8507 19.1317 40.6842 20.3438L40.6689 20.3593ZM34.2414 20.0395V20.7462L34.1902 21.4373L33.188 22.144L30.1967 21.4528C30.3807 20.6636 30.4165 20.1891 30.4983 19.4669L32.1193 19.1781L32.7891 19.111L33.5408 18.9924L34.0266 19.2813L34.2465 20.0395H34.2414ZM26.7911 36.0709C26.6377 36.1225 25.973 36.1896 25.8247 36.1741C25.656 36.138 25.4565 36.0709 25.2878 36.04C25.119 36.0039 24.935 35.8904 24.756 35.8027C24.5361 32.2127 23.7896 36.107 22.5675 30.9025L25.4565 29.4015C26.4946 31.0211 26.4434 32.3468 27.9468 31.7072L29.0155 31.2326L29.8183 31.8722L31.2398 33.8426L33.5613 31.0985L32.1091 29.4995L31.0762 28.9269L28.7035 30.9128L28.136 30.5775C27.9007 29.7007 27.9161 30.1236 27.599 29.2983C26.9957 27.7148 28.2331 25.9301 30.0688 26.7038L31.654 27.8644C33.6431 24.852 32.1704 27.4775 30.0995 24.2073C30.0484 24.1247 29.9512 23.9545 29.9154 23.8204C31.3523 23.2117 30.3654 23.1292 32.1704 23.939L33.4385 24.9139L32.6204 26.1416L35.6271 27.756L36.7111 25.4143L33.7914 24.3207C33.909 23.6966 33.9908 23.2066 33.3414 23.1241L34.5788 22.3142L35.264 22.3968L36.9515 22.6186C36.9668 23.3097 36.9361 23.2066 36.9515 24.0319L37.0179 25.2131C37.0179 25.3163 37.0333 25.5019 37.0691 25.6361L39.7587 26.0229C39.5593 27.9778 38.5571 29.7987 37.5548 31.5834L34.901 31.8361L36.1026 33.6208C34.1135 35.8595 31.5261 38.1342 29.0717 38.8254C28.2842 37.1593 28.3712 36.365 26.7656 36.1638L26.8014 36.0606L26.7911 36.0709Z" fill="white"/>
</mask>
<g mask="url(#mask0_1_9639)">
<path fill-rule="evenodd" clip-rule="evenodd" d="M24.9043 36.6899L25.2878 37.5152L26.4383 39.7899C23.8151 41.358 18.9932 41.1362 16.4518 40.5998C8.70503 38.9492 2.84508 33.3423 0.75881 25.6773C-4.43129 6.73154 18.1035 -9.00073 34.8498 5.93719L27.5684 13.3494C18.216 4.52386 6.00004 16.0781 11.6759 25.7134C14.4627 30.4486 17.6023 29.4376 20.4607 31.0366L20.5426 33.8839L21.8772 33.6466C21.959 33.7962 22.0101 33.9819 22.0459 34.1212L23.0788 37.5255L24.8838 36.6848L24.8992 36.7002L24.9043 36.6899ZM33.5562 17.1561C34.5584 16.3463 35.5606 16.1451 36.8799 16.3308C36.8134 16.599 38.3832 17.2747 35.2947 17.7957C34.1442 17.9814 33.9755 17.5791 33.7607 17.4243C33.7249 17.3882 33.6277 17.2541 33.5613 17.1561H33.5562ZM40.6689 20.3593C40.6024 20.5605 42.1364 21.5044 39.1144 21.4889C38.4446 21.4889 37.831 21.2362 37.3298 21.066C37.5957 19.0801 39.8507 19.1317 40.6842 20.3438L40.6689 20.3593ZM34.2414 20.0395V20.7462L34.1902 21.4373L33.188 22.144L30.1967 21.4528C30.3807 20.6636 30.4165 20.1891 30.4983 19.4669L32.1193 19.1781L32.7891 19.111L33.5408 18.9924L34.0266 19.2813L34.2465 20.0395H34.2414ZM26.7911 36.0709C26.6377 36.1225 25.973 36.1896 25.8247 36.1741C25.656 36.138 25.4565 36.0709 25.2878 36.04C25.119 36.0039 24.935 35.8904 24.756 35.8027C24.5361 32.2127 23.7896 36.107 22.5675 30.9025L25.4565 29.4015C26.4946 31.0211 26.4434 32.3468 27.9468 31.7072L29.0155 31.2326L29.8183 31.8722L31.2398 33.8426L33.5613 31.0985L32.1091 29.4995L31.0762 28.9269L28.7035 30.9128L28.136 30.5775C27.9007 29.7007 27.9161 30.1236 27.599 29.2983C26.9957 27.7148 28.2331 25.9301 30.0688 26.7038L31.654 27.8644C33.6431 24.852 32.1704 27.4775 30.0995 24.2073C30.0484 24.1247 29.9512 23.9545 29.9154 23.8204C31.3523 23.2117 30.3654 23.1292 32.1704 23.939L33.4385 24.9139L32.6204 26.1416L35.6271 27.756L36.7111 25.4143L33.7914 24.3207C33.909 23.6966 33.9908 23.2066 33.3414 23.1241L34.5788 22.3142L35.264 22.3968L36.9515 22.6186C36.9668 23.3097 36.9361 23.2066 36.9515 24.0319L37.0179 25.2131C37.0179 25.3163 37.0333 25.5019 37.0691 25.6361L39.7587 26.0229C39.5593 27.9778 38.5571 29.7987 37.5548 31.5834L34.901 31.8361L36.1026 33.6208C34.1135 35.8595 31.5261 38.1342 29.0717 38.8254C28.2842 37.1593 28.3712 36.365 26.7656 36.1638L26.8014 36.0606L26.7911 36.0709Z" fill="white"/>
<ellipse cx="34.4394" cy="26.5276" rx="12.4336" ry="11.4324" fill="white"/>
<ellipse cx="12.4362" cy="4.88272" rx="12.4362" ry="4.88272" transform="matrix(0.987614 0.156906 -0.154262 0.98803 1.50684 32.4102)" fill="white"/>
<ellipse cx="8.04499" cy="3.54622" rx="8.04499" ry="3.54622" transform="matrix(0.987614 0.156906 -0.154262 0.98803 10.9969 4.66175)" fill="white"/>
<ellipse cx="11.187" cy="4.40061" rx="11.187" ry="4.40061" transform="matrix(0.987614 0.156906 -0.154262 0.98803 5.75896 -5.32772)" fill="white"/>
<ellipse cx="11.187" cy="10.7216" rx="11.187" ry="10.7216" transform="matrix(0.987614 0.156906 -0.154262 0.98803 0.00692368 7.99157)" fill="white"/>
</g>
</svg>
