<svg width="20" height="30" viewBox="0 0 20 30" fill="none" xmlns="http://www.w3.org/2000/svg">
<g clip-path="url(#clip0_1_9082)">
<path d="M19.9989 14.933C19.9989 17.5733 18.9501 20.1056 17.083 21.9726C15.216 23.8396 12.6838 24.8885 10.0435 24.8885C7.40312 24.8885 4.87091 23.8396 3.0039 21.9726C1.13689 20.1056 0.0880127 17.5733 0.0880127 14.933C0.0880127 12.2926 1.13689 9.76044 3.0039 7.89342C4.87091 6.02641 7.40312 4.97754 10.0435 4.97754C12.6838 4.97754 15.216 6.02641 17.083 7.89342C18.9501 9.76044 19.9989 12.2926 19.9989 14.933ZM10.4006 12.3272C9.43245 12.7304 7.49612 13.5641 4.5941 14.8285C4.12371 15.0151 3.87606 15.1993 3.85366 15.3785C3.81633 15.6809 4.19588 15.8004 4.71232 15.9634L4.9301 16.0318C5.43783 16.1973 6.12226 16.3902 6.47693 16.3977C6.80048 16.4052 7.16012 16.2732 7.55709 15.9995C10.2687 14.1689 11.6687 13.2443 11.7558 13.2244C11.818 13.2095 11.9051 13.192 11.9624 13.2443C12.0209 13.2953 12.0147 13.3936 12.0084 13.4198C11.9711 13.5803 10.4815 14.9641 9.71121 15.6809C9.47103 15.9049 9.30054 16.0629 9.2657 16.099C9.18897 16.1774 9.11098 16.2546 9.03175 16.3305C8.55886 16.786 8.20544 17.1269 9.05041 17.6844C9.45734 17.9532 9.78338 18.1735 10.1082 18.395C10.4616 18.6364 10.815 18.8766 11.273 19.1778C11.3887 19.2524 11.5007 19.3333 11.609 19.4105C12.0209 19.7041 12.393 19.968 12.8497 19.9257C13.116 19.9008 13.391 19.6519 13.5304 18.9052C13.8601 17.1419 14.5085 13.3227 14.6578 11.7485C14.6669 11.6176 14.6615 11.4862 14.6416 11.3565C14.6299 11.2519 14.5793 11.1555 14.4998 11.0865C14.3865 11.0083 14.2516 10.9678 14.114 10.9707C13.7407 10.9769 13.1645 11.1773 10.4006 12.3272Z" fill="white"/>
</g>
<defs>
<clipPath id="clip0_1_9082">
<rect width="19.9109" height="19.9109" fill="white" transform="translate(0.0880127 4.97754)"/>
</clipPath>
</defs>
</svg>
