<svg width="20" height="30" viewBox="0 0 20 30" fill="none" xmlns="http://www.w3.org/2000/svg">
<path d="M6.25452 22.4006C13.7684 22.4006 17.8788 16.1748 17.8788 10.7851C17.8788 10.6109 17.8788 10.4342 17.8713 10.26C18.6715 9.68067 19.3622 8.96346 19.9109 8.14194C19.1634 8.47153 18.3713 8.68876 17.5602 8.78656C18.4145 8.27589 19.0544 7.4724 19.3609 6.52543C18.5582 7.00095 17.6797 7.33477 16.7637 7.51226C16.148 6.85648 15.3331 6.42204 14.4455 6.27624C13.5578 6.13044 12.6468 6.28142 11.8536 6.70579C11.0605 7.13016 10.4293 7.80424 10.0581 8.62362C9.68678 9.44299 9.59604 10.3619 9.7999 11.2381C8.1756 11.1566 6.58655 10.7347 5.13582 9.99956C3.6851 9.26444 2.40509 8.23259 1.37883 6.97093C0.857837 7.87076 0.69884 8.93515 0.934128 9.94795C1.16942 10.9607 1.78135 11.846 2.64566 12.424C1.99799 12.402 1.36455 12.2281 0.796437 11.9163V11.9723C0.797553 12.9149 1.1241 13.8283 1.72089 14.5579C2.31768 15.2876 3.1481 15.7888 4.07178 15.9769C3.72118 16.0735 3.35901 16.1216 2.99535 16.12C2.73898 16.1208 2.48312 16.097 2.23127 16.0491C2.49233 16.8605 3.00067 17.57 3.68507 18.0781C4.36948 18.5862 5.19567 18.8675 6.04794 18.8826C4.60011 20.0198 2.81167 20.6365 0.970657 20.6336C0.646259 20.6349 0.322088 20.6162 0 20.5776C1.86853 21.7688 4.03855 22.4013 6.25452 22.4006Z" fill="white"/>
</svg>
