<svg width="79" height="66" viewBox="0 0 79 66" fill="none" xmlns="http://www.w3.org/2000/svg">
<path d="M22.437 31.8613C27.3573 31.7264 32.3369 33.261 36.1111 36.4652C43.3235 42.6207 43.3235 52.5875 36.1111 58.743C28.8986 64.8985 17.2203 64.8985 10.0078 58.743C6.41146 55.6737 4.59351 51.6431 4.59351 47.6125C4.59351 44.2228 5.97672 40.8837 8.54555 38.0673M8.54555 38.0506L30.2818 19.4999M30.2818 19.4999H22.3777M30.2818 19.4999L30.2818 26.2456M57.0371 34.138C52.3935 34.0874 47.7696 32.5527 44.2325 29.534C37.02 23.3785 37.02 13.4117 44.2325 7.25626C51.445 1.10078 63.1233 1.10078 70.3358 7.25626C73.9914 10.3762 75.7896 14.4742 75.7303 18.5554C75.6908 21.8945 74.3076 25.1662 71.7783 27.9488M71.7783 27.932L50.042 46.4828M50.042 46.4828L57.9461 46.4828M50.042 46.4828V39.737M24.4129 48.1692H16.4496M24.4129 48.1692V48.1523C26.5668 48.1523 28.3057 46.6683 28.3057 44.83V44.7457C28.3057 42.9075 26.5668 41.4234 24.4129 41.4234H16.4496V48.1692M24.4129 48.1692C26.5668 48.1692 28.3057 49.6532 28.3057 51.4914V51.5758C28.3057 53.414 26.5668 54.898 24.4129 54.898V54.9149H16.4496V48.1692M22.3776 38.0506V41.4234M22.3776 54.9149V58.2878M52.018 24.5591H59.9221C62.0957 24.5591 63.8741 23.0413 63.8741 21.1862C63.8741 19.3312 62.0957 17.8134 59.9221 17.8134H55.97C53.7964 17.8134 52.018 16.2956 52.018 14.4405C52.018 12.5854 53.7964 11.0677 55.97 11.0677H63.8741M57.946 7.69479V11.0677M57.946 24.5591V27.932" stroke="url(#paint0_linear_1_9273)" stroke-width="1.8" stroke-linecap="round" stroke-linejoin="round"/>
<defs>
<linearGradient id="paint0_linear_1_9273" x1="95.3936" y1="86.6717" x2="-18.5189" y2="83.2513" gradientUnits="userSpaceOnUse">
<stop stop-color="#337FD0"/>
<stop offset="0.520313" stop-color="#6432A7"/>
<stop offset="1" stop-color="#9F38D2"/>
</linearGradient>
</defs>
</svg>
