<svg width="82" height="78" viewBox="0 0 82 78" fill="none" xmlns="http://www.w3.org/2000/svg">
<path d="M49.8378 8.84012V22.1677C49.8378 25.8095 39.9759 28.7648 27.7889 28.7648C15.6019 28.7648 5.73999 25.8095 5.73999 22.1677V8.84012M37.8111 42.1686C34.8044 42.6262 31.3969 42.8931 27.7889 42.8931C15.6019 42.8931 5.73999 39.9378 5.73999 36.296V22.2058M49.8378 22.1868V33.6268M33.3412 55.0959C31.3969 55.2675 29.3323 55.3628 27.1875 55.3628C15.3413 55.3628 5.73999 52.4838 5.73999 48.9374V35.5145M36.0071 67.8514C33.3212 68.2137 30.3345 68.4235 27.1875 68.4235C15.3413 68.4235 5.73999 65.5444 5.73999 61.998V48.8801M59.86 56.5068H51.8422M59.86 56.5068C62.0849 56.5068 63.8689 54.8099 63.8689 52.6935C63.8689 50.5771 62.0649 48.8801 59.86 48.8801H51.8422V56.5068M59.86 56.5068C62.0649 56.5068 63.8689 58.2037 63.8689 60.3201C63.8689 62.4365 62.0849 64.1335 59.86 64.1335H51.8422V56.5068M57.8555 43.1601V48.8801M57.8555 64.1335V69.8535M49.8378 9.79345C49.8378 13.479 39.9661 16.4668 27.7889 16.4668C15.6116 16.4668 5.73999 13.479 5.73999 9.79345C5.73999 6.10787 15.6116 3.12012 27.7889 3.12012C39.9661 3.12012 49.8378 6.10787 49.8378 9.79345ZM77.9 56.5068C77.9 67.037 68.9258 75.5735 57.8555 75.5735C46.7853 75.5735 37.8111 67.037 37.8111 56.5068C37.8111 45.9766 46.7853 37.4401 57.8555 37.4401C68.9258 37.4401 77.9 45.9766 77.9 56.5068Z" stroke="url(#paint0_linear_1_9294)" stroke-width="1.8" stroke-linecap="round" stroke-linejoin="round"/>
<defs>
<linearGradient id="paint0_linear_1_9294" x1="97.8442" y1="103.39" x2="-17.7333" y2="100.44" gradientUnits="userSpaceOnUse">
<stop stop-color="#337FD0"/>
<stop offset="0.520313" stop-color="#6432A7"/>
<stop offset="1" stop-color="#9F38D2"/>
</linearGradient>
</defs>
</svg>
