<svg width="72" height="58" viewBox="0 0 72 58" fill="none" xmlns="http://www.w3.org/2000/svg">
<path d="M43.6857 12.4036H26.5063V22.1781H1.69153V1H26.5063V7.51634M57.0475 35.2108V22.1781H45.5945V1H70.4093V22.1781H62.774M28.4151 44.9853H45.5945V35.2108H70.4093V56.3889H45.5945V49.8726M15.0533 22.1781V35.2108H26.5063V56.3889H1.69153V35.2108H9.32684M18.871 11.5891C18.871 13.8383 16.7344 15.6618 14.0989 15.6618C11.4634 15.6618 9.32684 13.8383 9.32684 11.5891C9.32684 9.33976 11.4634 7.51634 14.0989 7.51634C16.7344 7.51634 18.871 9.33976 18.871 11.5891ZM62.774 11.5891C62.774 13.8383 60.6375 15.6618 58.0019 15.6618C55.3664 15.6618 53.2299 13.8383 53.2299 11.5891C53.2299 9.33976 55.3664 7.51634 58.0019 7.51634C60.6375 7.51634 62.774 9.33976 62.774 11.5891ZM18.871 45.7998C18.871 48.0491 16.7344 49.8726 14.0989 49.8726C11.4634 49.8726 9.32684 48.0491 9.32684 45.7998C9.32684 43.5505 11.4634 41.7271 14.0989 41.7271C16.7344 41.7271 18.871 43.5505 18.871 45.7998ZM62.774 45.7998C62.774 48.0491 60.6375 49.8726 58.0019 49.8726C55.3664 49.8726 53.2299 48.0491 53.2299 45.7998C53.2299 43.5505 55.3664 41.7271 58.0019 41.7271C60.6375 41.7271 62.774 43.5505 62.774 45.7998Z" stroke="url(#paint0_linear_1_9247)" stroke-width="1.8" stroke-linecap="round" stroke-linejoin="round"/>
<defs>
<linearGradient id="paint0_linear_1_9247" x1="89.4021" y1="77.6542" x2="-20.6225" y2="74.1558" gradientUnits="userSpaceOnUse">
<stop stop-color="#337FD0"/>
<stop offset="0.520313" stop-color="#6432A7"/>
<stop offset="1" stop-color="#9F38D2"/>
</linearGradient>
</defs>
</svg>
