<svg width="91" height="73" viewBox="0 0 91 73" fill="none" xmlns="http://www.w3.org/2000/svg">
<path d="M0.958862 28.0706C1.22523 27.7877 1.51062 27.5048 1.77699 27.2218C9.42554 18.4725 17.0741 9.72324 24.7226 0.995721C25.8832 -0.331907 26.3969 -0.331907 27.5575 0.995721C29.5743 3.30275 31.5911 5.60977 33.5889 7.89503C34.6733 9.1356 34.6924 9.65795 33.6459 11.1379C34.0455 11.2903 34.407 11.4426 34.7685 11.5732C35.3202 11.7691 35.872 11.8997 36.4047 12.1173C38.5166 12.9879 40.4383 13.2708 42.6263 11.7691C44.9095 10.2021 47.7063 10.1803 50.37 10.0715C52.4629 9.98442 54.5367 9.91912 56.6296 9.85383C57.1053 9.83207 57.4668 9.76677 57.5619 9.09208C57.619 8.74385 57.8854 8.39562 58.1327 8.13444C60.2636 5.6533 62.4136 3.19393 64.5636 0.756313C65.4578 -0.244849 66.1047 -0.244849 66.9989 0.778077C74.7616 9.63619 82.5243 18.5161 90.287 27.3959C91.2383 28.4842 91.2383 29.1589 90.287 30.2471C88.3464 32.467 86.3867 34.687 84.446 36.9287C82.8097 38.8005 82.6956 38.8005 81.0022 37.1029C79.6514 39.0617 78.3576 41.0422 76.9496 42.9357C74.6665 46.0045 72.0409 48.6598 69.0537 50.8144C68.7874 51.0103 68.54 51.4456 68.483 51.7938C67.76 56.0379 65.1534 58.062 61.3481 57.1696C60.9676 59.0414 60.1495 60.6084 58.6464 61.6096C57.1624 62.589 55.5832 62.5672 54.004 62.1101C52.2916 66.4413 50.37 67.7254 46.8311 66.9201C46.736 67.2901 46.6409 67.6601 46.5267 68.0083C45.29 72.0347 40.9901 73.4929 38.06 70.8377C37.4892 70.3153 36.9945 69.7059 36.4808 69.1183C30.0119 61.7402 23.524 54.362 17.0931 46.9404C14.81 44.3069 13.0786 41.1946 11.4804 37.9734C11.3282 37.6687 11.1759 37.364 11.0047 36.994C10.7003 37.3205 10.453 37.6034 10.2056 37.8428C9.57775 38.4522 8.91183 38.474 8.34104 37.8211C5.82958 35.0352 3.39422 32.1841 0.958862 29.3765C0.958862 28.9412 0.958862 28.5059 0.958862 28.0706ZM37.1087 15.5779C35.3393 14.9685 33.6269 14.3591 31.8955 13.8367C31.6101 13.7497 31.1535 13.9455 30.9252 14.2067C29.7836 15.4473 28.6801 16.7531 27.5575 18.0155C22.8961 23.326 18.2537 28.6365 13.5923 33.9688C13.2879 34.317 12.8883 34.5564 13.2308 35.2311C14.9622 38.7787 16.7506 42.261 19.2811 45.1557C25.8071 52.6209 32.3331 60.0861 38.8781 67.5512C39.1826 67.8995 39.506 68.2695 39.8675 68.5524C40.7808 69.2489 41.7701 69.3142 42.7405 68.683C43.7108 68.0518 44.2626 67.0507 44.0343 65.8101C43.882 64.983 43.5015 64.0907 42.9878 63.4813C40.6856 60.739 38.3074 58.1055 35.9671 55.4067C35.13 54.4491 35.1871 53.3173 36.0623 52.7732C36.7853 52.3379 37.3751 52.6426 37.9268 53.2738C40.3241 56.0379 42.7595 58.802 45.1758 61.566C45.7276 62.1972 46.2794 62.8719 46.8882 63.4378C47.9917 64.4389 49.5709 64.2648 50.5032 63.1331C51.4355 62.0013 51.5116 60.3472 50.6364 59.0849C50.2939 58.5843 49.8753 58.1273 49.4567 57.6702C47.6112 55.5373 45.7466 53.4262 43.9011 51.2932C43.3113 50.5968 43.3113 49.6391 43.882 49.0733C44.4909 48.4639 45.1568 48.5074 45.7656 49.095C45.9559 49.2692 46.1271 49.4868 46.3174 49.7044C48.7908 52.5338 51.2832 55.3849 53.7567 58.2143C54.5558 59.1284 55.469 59.5855 56.5916 59.259C58.6845 58.6278 59.3313 55.8638 57.7902 54.0356C55.6022 51.4674 53.3571 48.9862 51.1691 46.418C50.8456 46.048 50.4841 45.5039 50.5032 45.0686C50.5222 44.5463 50.8837 43.7628 51.2262 43.6322C51.7018 43.4798 52.4629 43.6539 52.8244 44.0239C54.8031 46.1568 56.7057 48.3986 58.6274 50.575C59.5026 51.5762 60.3588 52.5991 61.272 53.535C62.2043 54.4926 63.3839 54.5797 64.4304 53.905C65.4007 53.2738 65.9905 52.0115 65.6861 50.6838C65.5149 49.9221 65.0773 49.1821 64.5826 48.6162C58.9698 42.1522 53.3381 35.7099 47.6873 29.2894C47.1546 28.68 46.8501 28.0706 46.9072 27.2001C46.9453 26.5036 46.9072 25.7854 46.9072 24.8277C46.4506 25.176 46.2032 25.3718 45.9559 25.5677C43.6347 27.4177 41.2374 29.05 38.4786 29.9206C36.2145 30.6388 33.9884 30.7041 31.8955 29.2459C29.7836 27.7877 29.1748 25.4807 30.4495 23.0431C31.0964 21.8025 31.9716 20.649 32.9039 19.626C34.1977 18.1896 35.6437 16.9708 37.1087 15.5779ZM78.9854 34.5782C78.7191 34.3388 78.4717 34.1211 78.2434 33.86C72.2311 26.9824 66.1998 20.1266 60.2066 13.2273C59.6167 12.5526 59.1221 12.5309 58.323 12.6179C56.0969 12.9008 53.8518 13.0967 51.6257 13.075C46.9453 13.0314 42.6834 14.2502 39.0874 17.8414C37.1848 19.7349 35.149 21.476 33.3796 23.5219C31.8575 25.2848 32.3331 26.5254 34.4641 27.113C34.7114 27.1783 34.9778 27.2436 35.2061 27.2001C36.595 26.8954 38.0981 26.8736 39.3158 26.1989C41.5418 24.9583 43.6157 23.3478 45.6895 21.8025C46.4886 21.1931 47.1165 21.1496 47.9156 21.7807C48.6386 22.3248 49.4567 22.8689 50.2939 23.0431C52.2155 23.4566 54.1562 23.696 56.0969 23.9572C56.877 24.066 57.5239 24.3707 57.6 25.263C57.638 25.7636 57.3336 26.4383 56.9911 26.7865C56.7248 27.0695 56.154 27.0912 55.7354 27.0477C53.6996 26.8301 51.6638 26.5689 49.4187 26.2859C49.647 26.7648 49.8182 27.3306 50.1226 27.7006C56.0208 34.4258 61.9379 41.151 67.8932 47.898C71.3179 45.7433 76.8165 39.214 78.9854 34.5782ZM26.2067 3.95568C18.9196 12.3132 11.6326 20.6272 4.47872 28.8324C6.03887 30.6388 7.67512 32.5323 9.27333 34.3823C16.5033 26.1118 23.7903 17.7761 31.0393 9.48384C29.4221 7.63386 27.7668 5.74036 26.2067 3.95568ZM60.8915 9.5056C68.1405 17.7978 75.4085 26.1336 82.6765 34.4258C84.2938 32.5759 85.949 30.6824 87.5282 28.8977C80.2602 20.5837 72.9732 12.2479 65.7432 3.97744C64.145 5.80565 62.4897 7.67739 60.8915 9.5056Z" fill="url(#paint0_linear_1_9303)"/>
<defs>
<linearGradient id="paint0_linear_1_9303" x1="48.8287" y1="116.023" x2="48.8286" y2="6.95068" gradientUnits="userSpaceOnUse">
<stop stop-color="#337FD0"/>
<stop offset="0.51" stop-color="#6432A7"/>
<stop offset="1" stop-color="#9F38D2"/>
</linearGradient>
</defs>
</svg>
