<svg width="76" height="65" viewBox="0 0 76 65" fill="none" xmlns="http://www.w3.org/2000/svg">
<path d="M12.7304 28.6462L18.9019 23.3792M27.5132 16.0299L33.6847 10.7628M42.5013 28.8214L48.6728 23.5543M28.0874 41.1228L33.3772 36.6082M43.0549 53.9143L48.4678 49.3121M57.4891 41.6127L63.6606 36.3457M42.5423 10.5528L48.9189 15.9949M27.7185 48.7871L34.095 54.2292M2.32211 30.1758L5.91763 27.1072C7.30285 25.925 9.54875 25.925 10.934 27.1073L14.5295 30.1759C15.9147 31.3581 15.9147 33.2748 14.5295 34.457L10.934 37.5256C9.54874 38.7078 7.30288 38.7078 5.91766 37.5256L2.32212 34.457C0.936904 33.2748 0.936893 31.358 2.32211 30.1758ZM17.1049 17.5657L20.7005 14.4971C22.0857 13.3149 24.3316 13.3149 25.7168 14.4971L29.3123 17.5656C30.6975 18.7479 30.6975 20.6646 29.3123 21.8468L25.7168 24.9154C24.3316 26.0976 22.0857 26.0976 20.7004 24.9154L17.105 21.8468C15.7197 20.6646 15.7197 18.7479 17.1049 17.5657ZM31.8675 4.95526L35.463 1.88667C36.8482 0.704459 39.0941 0.704435 40.4793 1.88665L44.0748 4.95525C45.4601 6.13746 45.4601 8.05422 44.0749 9.23644L40.4793 12.305C39.0941 13.4872 36.8482 13.4872 35.463 12.305L31.8675 9.23641C30.4822 8.05419 30.4823 6.13747 31.8675 4.95526ZM17.3057 42.9672L20.9012 39.8986C22.2864 38.7164 24.5323 38.7164 25.9175 39.8986L29.5131 42.9672C30.8983 44.1494 30.8982 46.0661 29.513 47.2483L25.9175 50.3169C24.5323 51.4991 22.2864 51.4992 20.9012 50.3169L17.3057 47.2483C15.9205 46.0661 15.9204 44.1494 17.3057 42.9672ZM32.0887 30.357L35.6843 27.2884C37.0695 26.1062 39.3154 26.1062 40.7006 27.2884L44.2961 30.357C45.6813 31.5392 45.6813 33.4559 44.2961 34.6381L40.7006 37.7067C39.3154 38.889 37.0695 38.8889 35.6842 37.7067L32.0888 34.6382C30.7035 33.4559 30.7035 31.5392 32.0887 30.357ZM46.8716 17.7468L50.4671 14.6782C51.8523 13.496 54.0982 13.496 55.4834 14.6782L59.0789 17.7468C60.4641 18.929 60.4641 20.8458 59.0789 22.028L55.4834 25.0966C54.0982 26.2788 51.8523 26.2788 50.4671 25.0965L46.8715 22.0279C45.4863 20.8457 45.4863 18.929 46.8716 17.7468ZM32.31 55.7412L35.9055 52.6726C37.2907 51.4904 39.5366 51.4904 40.9218 52.6726L44.5174 55.7412C45.9026 56.9234 45.9026 58.8401 44.5174 60.0224L40.9218 63.0909C39.5366 64.2732 37.2908 64.2732 35.9055 63.091L32.31 60.0224C30.9248 58.8401 30.9248 56.9234 32.31 55.7412ZM47.0723 43.1485L50.6678 40.0799C52.053 38.8977 54.2989 38.8977 55.6842 40.0799L59.2796 43.1485C60.6649 44.3307 60.6649 46.2475 59.2797 47.4297L55.6841 50.4983C54.2989 51.6805 52.053 51.6805 50.6678 50.4983L47.0723 47.4297C45.6871 46.2475 45.6871 44.3307 47.0723 43.1485ZM61.8551 30.5381L65.4506 27.4695C66.8359 26.2873 69.0817 26.2873 70.4669 27.4695L74.0625 30.5381C75.4477 31.7203 75.4477 33.6371 74.0625 34.8193L70.467 37.8879C69.0817 39.0701 66.8358 39.0701 65.4506 37.8879L61.8551 34.8193C60.4699 33.637 60.4699 31.7203 61.8551 30.5381Z" stroke="url(#paint0_linear_1_9290)" stroke-width="1.8" stroke-linecap="round" stroke-linejoin="round"/>
<defs>
<linearGradient id="paint0_linear_1_9290" x1="95.5039" y1="88.1565" x2="-22.6998" y2="84.6055" gradientUnits="userSpaceOnUse">
<stop stop-color="#337FD0"/>
<stop offset="0.520313" stop-color="#6432A7"/>
<stop offset="1" stop-color="#9F38D2"/>
</linearGradient>
</defs>
</svg>
