<svg width="72" height="77" viewBox="0 0 72 77" fill="none" xmlns="http://www.w3.org/2000/svg">
<path d="M19.4981 25.2865V55.1776M12.1434 55.1776V25.2865M39.7236 25.2865V34.6275M32.3689 34.6275V25.2865M58.1104 25.2865V34.6275M52.5943 34.6275V25.2865M6.62736 55.1776H30.5302M6.62736 19.6819H65.4651M32.3689 10.341H39.7236M1.11133 62.6504H30.5302M52.5943 58.914H45.2396M52.5943 58.914C54.6353 58.914 56.2717 57.2513 56.2717 55.1776C56.2717 53.1039 54.6169 51.4412 52.5943 51.4412H45.2396V58.914M52.5943 58.914C54.6169 58.914 56.2717 60.5767 56.2717 62.6504C56.2717 64.7241 54.6353 66.3867 52.5943 66.3867H45.2396V58.914M50.7557 47.7048V51.4412M50.7557 66.3867V70.1231M30.5302 42.1002H70.9811M6.62736 18.972L36.0462 1L65.4651 18.972V25.2865H6.62736V18.972ZM30.5302 75.7277V39.9518C30.5302 37.0188 32.8653 34.6275 35.7704 34.6275H65.7593C68.646 34.6275 70.9995 37.0001 70.9995 39.9518V75.7277H30.5302Z" stroke="url(#paint0_linear_1_9279)" stroke-width="1.8" stroke-linecap="round" stroke-linejoin="round"/>
<defs>
<linearGradient id="paint0_linear_1_9279" x1="90.3158" y1="104.418" x2="-21.6316" y2="101.734" gradientUnits="userSpaceOnUse">
<stop stop-color="#337FD0"/>
<stop offset="0.520313" stop-color="#6432A7"/>
<stop offset="1" stop-color="#9F38D2"/>
</linearGradient>
</defs>
</svg>
