<svg width="20" height="30" viewBox="0 0 20 30" fill="none" xmlns="http://www.w3.org/2000/svg">
<g clip-path="url(#clip0_1_9081)">
<path d="M10.0629 7.46533H10.1736C11.1965 7.46907 16.3796 7.5064 17.7771 7.88222C18.1996 7.99691 18.5846 8.22048 18.8936 8.53058C19.2026 8.84067 19.4248 9.22643 19.538 9.64931C19.6637 10.1222 19.752 10.7481 19.8117 11.394L19.8242 11.5234L19.8516 11.847L19.8615 11.9764C19.9424 13.1138 19.9524 14.179 19.9536 14.4118V14.5051C19.9524 14.7465 19.9412 15.8839 19.8516 17.0686L19.8416 17.1993L19.8304 17.3287C19.7682 18.0405 19.6761 18.7474 19.538 19.2675C19.4251 19.6906 19.203 20.0765 18.894 20.3867C18.5849 20.6968 18.1997 20.9203 17.7771 21.0346C16.3336 21.4229 10.8469 21.4503 10.0865 21.4515H9.9098C9.52527 21.4515 7.93489 21.444 6.26735 21.3868L6.0558 21.3793L5.94753 21.3743L5.73473 21.3656L5.52194 21.3569C4.14062 21.296 2.82525 21.1976 2.21921 21.0334C1.79672 20.9191 1.41166 20.6959 1.10261 20.3859C0.793571 20.076 0.571394 19.6903 0.458341 19.2675C0.320209 18.7486 0.228121 18.0405 0.1659 17.3287L0.155944 17.198L0.145989 17.0686C0.084573 16.2254 0.0505406 15.3804 0.0439453 14.535L0.0439453 14.3819C0.0464342 14.1143 0.0563896 13.1897 0.123589 12.1693L0.1323 12.0411L0.136033 11.9764L0.145989 11.847L0.173366 11.5234L0.185811 11.394C0.245543 10.7481 0.333898 10.121 0.459586 9.64931C0.572448 9.22626 0.79454 8.84032 1.1036 8.53017C1.41265 8.22002 1.79781 7.99657 2.22046 7.88222C2.8265 7.72044 4.14186 7.62089 5.52318 7.55866L5.73473 7.54995L5.94878 7.54249L6.0558 7.53875L6.26859 7.53004C7.45293 7.49193 8.63775 7.47077 9.82269 7.46658H10.0629V7.46533ZM8.00831 11.46V17.4556L13.1814 14.459L8.00831 11.46Z" fill="white"/>
</g>
<defs>
<clipPath id="clip0_1_9081">
<rect width="19.9109" height="19.9109" fill="white" transform="translate(0.0439453 4.97754)"/>
</clipPath>
</defs>
</svg>
