<svg xmlns="http://www.w3.org/2000/svg" width="188.2" height="118.827"><g data-name="Group 617"><g data-name="Group 616"><path data-name="Path 179" d="M138.34 52.395l6.175 18.527s3.295 12.385 4.464 13.643c1.864 2 2.469 1.535 3.074 1.564.526.023 3.277-1.678 1.029-3.834-.564-.543-1.074-.446-1.677-2.646s-7.7-28.832-7.7-28.832z" fill="#ea463d"/><path data-name="Path 180" d="M148.338 54.598l-.691.188-2.66-9.825.967-.189z" fill="#231f20"/><path data-name="Path 181" d="M147.322 53.585s2.227-.825 2.6.262-.268 1.882-.094 1.994a7.994 7.994 0 011.651.974c.227.321-.288 1.744-1.55 2.2s-1.344-2.047-1.344-2.047l-.988.217s-.94-2.598-.275-3.6z" fill="#231f20"/><g data-name="Group 609"><g data-name="Group 607"><path data-name="Path 182" d="M154.399 44.895a36.912 36.912 0 1033.665 39.9 36.911 36.911 0 00-33.665-39.9zm-5.72 67.537a30.867 30.867 0 1133.362-28.15 30.865 30.865 0 01-33.36 28.15z" fill="#b5abaa"/><g data-name="Group 606" fill="none" stroke="#b5abaa" stroke-miterlimit="10" stroke-width=".478"><path data-name="Line 2" d="M157.826 51.187l-5.35 30.71"/><path data-name="Line 3" d="M152.138 50.412l-2.341 30.896"/><path data-name="Line 4" d="M164.012 53.245l-10.185 29.647"/><path data-name="Line 5" d="M177.643 65.06l-25.848 17.774"/><path data-name="Line 6" d="M180.485 70.337l-26.711 13.72"/><path data-name="Line 7" d="M176.515 99.646l-24.093-19.551"/><path data-name="Line 8" d="M172.715 104.278L153.09 80.982"/><path data-name="Line 9" d="M182.466 82.376l-31.261-1.787"/><path data-name="Line 10" d="M179.901 94.257l-27.888-9.341"/><path data-name="Line 11" d="M181.715 88.309l-27.968-4.474"/><path data-name="Line 12" d="M181.93 76.474l-31.287 2.797"/><path data-name="Line 13" d="M174.04 60.426l-22.815 19.93"/><path data-name="Line 14" d="M169.494 56.5l-19.986 22.916"/><path data-name="Line 15" d="M168.194 108.021l-18.377-24.517"/><path data-name="Line 16" d="M162.483 110.689l-12.638-27.494"/><path data-name="Line 17" d="M156.369 112.603l-3.488-29.152"/><path data-name="Line 18" d="M150.014 112.803l3.805-29.271"/><path data-name="Line 19" d="M138.567 110.326l11.097-27.457"/><path data-name="Line 20" d="M144.419 112.22l3.909-30.063"/><path data-name="Line 21" d="M133.17 107.06l17.732-22.878"/><path data-name="Line 22" d="M128.711 103.057l23.301-18.141"/><path data-name="Line 23" d="M125.157 98.538l22.819-17.766"/><path data-name="Line 24" d="M150.866 84.585l-30.754-3.293"/><path data-name="Line 25" d="M150.643 79.271l-29.829-3.633"/><path data-name="Line 26" d="M149.063 79.378l-26.519-9.575"/><path data-name="Line 27" d="M150.636 84.238l-25.091-19.896"/><path data-name="Line 28" d="M122.278 93.137l26.39-11.339"/><path data-name="Line 29" d="M120.682 87.3l28.741-3.83"/><path data-name="Line 30" d="M148.115 81.165l-18.546-21.497"/><path data-name="Line 31" d="M150.704 78.046l-16.451-22.35"/><path data-name="Line 32" d="M153.07 80.513l-13.819-27.551"/><path data-name="Line 33" d="M148.668 81.798l-2.666-30.748"/></g><path data-name="Path 183" d="M154.399 44.895a36.912 36.912 0 1033.665 39.9 36.911 36.911 0 00-33.665-39.9zm-5.792 68.394a31.727 31.727 0 1134.29-28.935 31.728 31.728 0 01-34.288 28.935z" fill="#e7f2f1"/><path data-name="Path 184" d="M154.399 44.895a36.912 36.912 0 1033.665 39.9 36.911 36.911 0 00-33.665-39.9zm-5.9 69.685a33.022 33.022 0 1135.692-30.118 33.023 33.023 0 01-35.692 30.118z" fill="#323232"/></g><g data-name="Group 608" fill="#323232"><path data-name="Path 185" d="M154.541 50.438l-.03.663 1.116.078.109-.629z"/><path data-name="Path 186" d="M155.06 53.173l-.465-.032.155-2.2.565.042z"/><path data-name="Path 187" d="M154.45 52.829a5.474 5.474 0 01.856.093l-.307 1.346s-.057.284-.237.274a.279.279 0 01-.307-.29c-.017-.207-.005-1.423-.005-1.423z"/></g></g><g data-name="Group 611"><path data-name="Path 188" d="M40.03 41.96a36.912 36.912 0 1033.663 39.9 36.912 36.912 0 00-33.663-39.9zm-5.721 67.537A30.867 30.867 0 1167.67 81.345a30.867 30.867 0 01-33.361 28.152z" fill="#b5abaa"/><g data-name="Group 610" fill="none" stroke="#b5abaa" stroke-miterlimit="10" stroke-width=".478"><path data-name="Line 34" d="M43.454 48.251l-5.35 30.71"/><path data-name="Line 35" d="M37.766 47.475l-2.342 30.896"/><path data-name="Line 36" d="M49.639 50.308L39.454 79.957"/><path data-name="Line 37" d="M63.27 62.126L37.422 79.897"/><path data-name="Line 38" d="M66.112 67.404l-26.71 13.718"/><path data-name="Line 39" d="M62.142 96.712L38.049 77.161"/><path data-name="Line 40" d="M58.342 101.345L38.717 78.046"/><path data-name="Line 41" d="M68.094 79.441l-31.261-1.788"/><path data-name="Line 42" d="M65.528 91.32l-27.887-9.339"/><path data-name="Line 43" d="M67.342 85.375l-27.968-4.474"/><path data-name="Line 44" d="M67.556 73.538l-31.285 2.799"/><path data-name="Line 45" d="M59.668 57.49L36.853 77.422"/><path data-name="Line 46" d="M55.122 53.564L35.135 76.482"/><path data-name="Line 47" d="M53.823 105.087l-18.377-24.52"/><path data-name="Line 48" d="M48.11 107.753L35.472 80.258"/><path data-name="Line 49" d="M41.997 109.667l-3.489-29.15"/><path data-name="Line 50" d="M35.641 109.867l3.805-29.272"/><path data-name="Line 51" d="M24.195 107.389l11.097-27.456"/><path data-name="Line 52" d="M30.046 109.285l3.908-30.065"/><path data-name="Line 53" d="M18.797 104.126l17.732-22.88"/><path data-name="Line 54" d="M14.34 100.12l23.3-18.139"/><path data-name="Line 55" d="M10.785 95.602l22.819-17.765"/><path data-name="Line 56" d="M36.494 81.65L5.74 78.356"/><path data-name="Line 57" d="M36.271 76.337l-29.83-3.635"/><path data-name="Line 58" d="M34.689 76.442L8.172 66.867"/><path data-name="Line 59" d="M36.264 81.302L11.173 61.406"/><path data-name="Line 60" d="M7.906 90.201l26.39-11.337"/><path data-name="Line 61" d="M6.309 84.364l28.741-3.83"/><path data-name="Line 62" d="M33.744 78.229L15.197 56.732"/><path data-name="Line 63" d="M36.333 75.108l-16.452-22.35"/><path data-name="Line 64" d="M38.697 77.579L24.878 50.027"/><path data-name="Line 65" d="M34.296 78.864l-2.665-30.748"/></g><path data-name="Path 189" d="M40.03 41.96a36.912 36.912 0 1033.663 39.9 36.912 36.912 0 00-33.663-39.9zm-5.794 68.392a31.726 31.726 0 1134.291-28.935 31.724 31.724 0 01-34.291 28.935z" fill="#e7f2f1"/><path data-name="Path 190" d="M40.03 41.96a36.912 36.912 0 1033.663 39.9 36.912 36.912 0 00-33.663-39.9zm-5.9 69.684a33.022 33.022 0 1135.692-30.116 33.022 33.022 0 01-35.696 30.116z" fill="#323232"/></g><path data-name="Path 191" d="M42.657 79.782a6.077 6.077 0 11-5.786-6.355 6.076 6.076 0 015.786 6.355z" fill="#323232"/><path data-name="Path 192" d="M141.631 4.407s2.774.371 3.967 2.117.826 2.233.561 2.366.429 1.189.4 1.452a.4.4 0 01-.534.356c-.285-.09-5.477-3.832-5.477-3.832s.542-2.275 1.083-2.459z" fill="#231f20"/><path data-name="Path 193" d="M133.218 7.338l-3.738.033a2.321 2.321 0 00-1.323 1.719 1.911 1.911 0 00.894 1.879l2.665-.03z" fill="#414042"/><path data-name="Path 194" d="M134.818 7.407a1.532 1.532 0 00-1.205-.356c-.729.1-2.617.653-2.908 1.364a10.144 10.144 0 01-1.171 1.8s1.958 2.187 3.877 1.526 1.407-4.334 1.407-4.334z" fill="#231f20"/><path data-name="Path 195" d="M135.09 10.374a10.165 10.165 0 00-1.456-.069 1.8 1.8 0 01-.412-1.9 1.531 1.531 0 011.322-1.007c.274.012 2.95-.044 2.95-.044s-.949 2.777-2.404 3.02z" fill="#bbbdbf"/><path data-name="Path 196" d="M42.232 81.763a.33.33 0 01-.2-.42l.029-.08a.323.323 0 01.418-.194l.048.016c.029-.107.055-.216.078-.326l-.069-.01a.329.329 0 01-.266-.379l.014-.084a.327.327 0 01.379-.265l.05.009c.009-.113.016-.224.02-.336h-.071a.328.328 0 01-.328-.326v-.084a.326.326 0 01.328-.327h.051a9.05 9.05 0 00-.037-.331l-.071.011a.328.328 0 01-.38-.264l-.014-.084a.328.328 0 01.265-.379l.05-.008q-.043-.164-.1-.321l-.067.024a.328.328 0 01-.419-.194l-.03-.081a.325.325 0 01.2-.417l.048-.019c-.048-.1-.1-.2-.15-.3l-.062.036a.329.329 0 01-.446-.12l-.043-.073a.329.329 0 01.12-.447l.044-.027a7.69 7.69 0 00-.2-.266l-.054.045a.329.329 0 01-.461-.041l-.055-.064a.327.327 0 01.041-.46l.039-.034a6.574 6.574 0 00-.243-.229l-.046.053a.327.327 0 01-.461.041l-.065-.053a.328.328 0 01-.04-.461l.033-.039a4.23 4.23 0 00-.28-.185l-.036.062a.325.325 0 01-.446.119l-.074-.041a.331.331 0 01-.119-.449l.026-.043c-.1-.047-.2-.092-.308-.133l-.025.067a.328.328 0 01-.418.2l-.079-.028a.328.328 0 01-.2-.42l.017-.046a5.3 5.3 0 00-.325-.079l-.013.069a.328.328 0 01-.379.267l-.082-.015a.327.327 0 01-.266-.378l.008-.051a6.369 6.369 0 00-.334-.021v.072a.328.328 0 01-.326.328h-.085a.329.329 0 01-.328-.328v-.051c-.111.01-.221.022-.332.038l.012.072a.328.328 0 01-.265.379l-.082.013a.326.326 0 01-.371-.266l-.008-.05c-.108.03-.216.061-.321.1l.024.067a.327.327 0 01-.2.419l-.078.029a.328.328 0 01-.42-.2l-.017-.046c-.1.046-.2.1-.3.15l.036.061a.329.329 0 01-.12.448l-.073.041a.328.328 0 01-.446-.119l-.025-.044a4.804 4.804 0 00-.269.2l.045.054a.329.329 0 01-.039.461l-.066.054a.327.327 0 01-.461-.042l-.032-.036a5.304 5.304 0 00-.231.242l.055.045a.327.327 0 01.041.461l-.055.064a.326.326 0 01-.46.042l-.04-.034a8.02 8.02 0 00-.185.281l.063.034a.33.33 0 01.121.448l-.044.072a.327.327 0 01-.445.12l-.045-.026c-.047.1-.091.2-.134.309l.068.024a.326.326 0 01.2.419l-.029.079a.327.327 0 01-.419.2l-.048-.017a7.298 7.298 0 00-.077.325l.07.014a.325.325 0 01.264.379l-.014.082a.328.328 0 01-.379.266l-.048-.01a5.475 5.475 0 00-.021.335h.071a.326.326 0 01.326.328v.083a.327.327 0 01-.326.327h-.051c.01.112.022.221.038.333l.07-.012a.328.328 0 01.379.265l.015.082a.327.327 0 01-.265.38l-.05.008c.028.109.061.216.1.322l.068-.026a.331.331 0 01.42.2l.028.079a.329.329 0 01-.195.42l-.049.016c.049.1.1.2.151.3l.062-.035a.324.324 0 01.446.119l.043.072a.33.33 0 01-.12.448l-.044.025c.064.092.13.18.2.268l.055-.044a.326.326 0 01.46.038l.054.066a.326.326 0 01-.039.461l-.039.032c.078.079.161.155.242.231l.047-.054a.325.325 0 01.461-.041l.065.054a.329.329 0 01.04.461l-.033.039c.09.063.184.125.279.184l.036-.061a.329.329 0 01.447-.122l.073.043a.327.327 0 01.12.447l-.026.044c.1.047.2.091.308.133l.024-.068a.326.326 0 01.42-.193l.079.027a.327.327 0 01.195.42l-.018.047q.162.042.327.078l.012-.071a.327.327 0 01.378-.265l.083.015a.327.327 0 01.266.379l-.008.048c.111.011.222.017.334.021v-.071a.325.325 0 01.326-.326h.077a.326.326 0 01.328.326v.052c.112-.01.223-.022.333-.039l-.012-.071a.327.327 0 01.264-.379l.084-.014a.325.325 0 01.378.265l.01.05a3.19 3.19 0 00.32-.1l-.024-.067a.328.328 0 01.195-.419l.08-.028a.328.328 0 01.419.194l.017.048c.1-.048.2-.1.3-.15l-.036-.06a.328.328 0 01.12-.448l.073-.043a.327.327 0 01.446.121l.026.043c.091-.064.181-.13.269-.2l-.046-.053a.327.327 0 01.04-.461l.065-.054a.326.326 0 01.46.038l.033.04c.078-.078.156-.161.229-.243l-.054-.046a.328.328 0 01-.04-.461l.054-.063a.329.329 0 01.461-.042l.039.034c.065-.092.126-.185.185-.279l-.063-.036a.329.329 0 01-.119-.449l.042-.072a.325.325 0 01.447-.119l.044.023c.047-.1.092-.2.133-.3z" fill="#323232"/><path data-name="Path 197" d="M40.592 81.107a.233.233 0 01-.139-.3l.021-.056a.232.232 0 01.3-.138l.033.011c.02-.076.039-.153.053-.229l-.048-.01a.232.232 0 01-.188-.269l.01-.06a.233.233 0 01.27-.187l.034.008c.007-.081.012-.16.014-.238h-.05a.229.229 0 01-.231-.231v-.06a.23.23 0 01.231-.231h.037a4.513 4.513 0 00-.028-.237l-.051.009a.23.23 0 01-.268-.188l-.011-.061a.233.233 0 01.189-.267l.036-.006a5.056 5.056 0 00-.068-.228l-.048.017a.232.232 0 01-.3-.138l-.021-.055a.234.234 0 01.138-.3l.034-.012a3.001 3.001 0 00-.107-.212l-.042.023a.231.231 0 01-.318-.082l-.029-.053a.233.233 0 01.084-.318l.031-.016c-.044-.066-.093-.128-.142-.192l-.038.034a.232.232 0 01-.327-.031l-.039-.045a.232.232 0 01.029-.327l.028-.023a2.975 2.975 0 00-.174-.162l-.031.038a.234.234 0 01-.327.029l-.046-.039a.233.233 0 01-.029-.327l.024-.029c-.065-.043-.131-.088-.2-.129l-.026.043a.234.234 0 01-.318.086l-.051-.031a.232.232 0 01-.085-.317l.019-.031a3.435 3.435 0 00-.219-.094l-.017.047a.231.231 0 01-.3.139l-.05-.025a.234.234 0 01-.14-.3l.012-.034c-.076-.021-.153-.037-.231-.054l-.008.048a.232.232 0 01-.269.189l-.059-.009a.232.232 0 01-.188-.27v-.034a3.108 3.108 0 00-.237-.016v.05a.23.23 0 01-.231.232h-.06a.232.232 0 01-.233-.232v-.034a2.989 2.989 0 00-.234.026l.008.05a.233.233 0 01-.189.269l-.058.011a.231.231 0 01-.269-.188l-.006-.036c-.077.02-.153.044-.228.067l.018.049a.233.233 0 01-.14.3l-.056.019a.229.229 0 01-.3-.137l-.013-.033c-.071.033-.142.069-.213.105l.026.044a.229.229 0 01-.086.316l-.05.031a.232.232 0 01-.317-.084l-.018-.032a3.94 3.94 0 00-.191.142l.032.039a.231.231 0 01-.028.326l-.047.039a.231.231 0 01-.327-.03l-.022-.025c-.056.055-.11.111-.164.171l.039.032a.234.234 0 01.028.329l-.037.044a.233.233 0 01-.328.029L33 76.993c-.046.065-.089.13-.132.2l.045.026a.232.232 0 01.085.317l-.03.052a.231.231 0 01-.316.085l-.032-.019c-.034.073-.065.145-.1.219l.049.018a.232.232 0 01.138.3l-.021.056a.232.232 0 01-.3.139l-.033-.012a4.1 4.1 0 00-.056.231l.05.009a.233.233 0 01.188.269l-.01.057a.231.231 0 01-.269.189l-.036-.005c-.007.08-.011.158-.014.237h.05a.232.232 0 01.233.231v.06a.232.232 0 01-.232.232h-.037c.008.079.016.159.028.235l.05-.007a.232.232 0 01.269.189l.009.057a.23.23 0 01-.187.269l-.036.007c.02.077.044.151.069.228l.046-.019a.235.235 0 01.3.141l.021.056a.232.232 0 01-.14.3l-.034.013c.033.072.069.142.106.213l.045-.026a.23.23 0 01.317.086l.03.052a.23.23 0 01-.086.315l-.031.019c.046.065.093.128.143.19l.037-.031a.234.234 0 01.328.027l.038.047a.232.232 0 01-.028.326l-.028.022c.056.056.114.112.173.166l.033-.041a.233.233 0 01.326-.028l.047.038a.235.235 0 01.027.327l-.023.029c.064.046.131.088.2.131l.025-.045a.231.231 0 01.317-.084l.052.03a.228.228 0 01.085.314l-.018.035c.07.031.143.063.218.093l.017-.048a.235.235 0 01.3-.139l.056.021a.23.23 0 01.138.3l-.011.033c.075.022.153.041.23.057l.009-.051a.232.232 0 01.269-.187l.059.01a.233.233 0 01.189.269l-.007.036c.08.007.159.01.238.014v-.05a.233.233 0 01.232-.233h.06a.231.231 0 01.232.231v.038c.079-.008.158-.015.236-.028l-.009-.049a.232.232 0 01.188-.27l.06-.01a.231.231 0 01.268.189l.006.034a2.285 2.285 0 00.228-.068l-.017-.047a.233.233 0 01.138-.3l.057-.021a.233.233 0 01.3.141l.012.033c.072-.033.144-.069.213-.107l-.025-.044a.234.234 0 01.085-.318l.051-.029a.232.232 0 01.317.087l.018.03a3.29 3.29 0 00.191-.144l-.033-.036a.233.233 0 01.029-.327l.045-.039a.236.236 0 01.328.027l.023.029c.056-.056.11-.115.163-.172l-.038-.033a.231.231 0 01-.029-.327l.038-.046a.234.234 0 01.327-.029l.028.025c.045-.065.089-.132.131-.2l-.044-.023a.235.235 0 01-.086-.317l.03-.052a.233.233 0 01.318-.086l.031.018c.034-.07.066-.143.1-.217z" fill="#878885"/><path data-name="Path 198" d="M88.053 94.253a11.014 11.014 0 01-6.369 1.1c-12.1-1-47.387-10.144-47.387-10.144l-.108-.629s35.579 9.272 47.794 10.126a16.1 16.1 0 005.944-1.192z" fill="#323232"/><path data-name="Path 199" d="M141.766 44.865a1.706 1.706 0 011.938-.02c.976.693 2.918 8.884 2.959 9.593s-.4 5.36-.426 5.875 5.708 19.381 5.708 19.381a6.684 6.684 0 001.794 2.55c1.751 1.324.288 3.922-1.386 3.883a5.131 5.131 0 01-3.347-1.907c-.909-1.37-8.563-29.544-8.563-29.544s3.875-.761 3.907-1.441-1.263-7.517-2.584-8.37z" fill="#ff5949"/><path data-name="Path 200" d="M142.922 54.82l-.34.084a2.578 2.578 0 01-3.122-1.886l-2.661-10.769a2.578 2.578 0 011.887-3.123l.339-.084a2.582 2.582 0 013.123 1.885l2.658 10.771a2.579 2.579 0 01-1.884 3.122z" fill="#231f20"/><path data-name="Path 201" d="M139.279 41.133a1.942 1.942 0 01-2.423-1.289l-.211-.69a1.717 1.717 0 011.138-2.142l.216-.065a1.941 1.941 0 012.424 1.289l.145.474a1.939 1.939 0 01-1.289 2.423z" fill="#231f20"/><path data-name="Path 202" d="M136.423 38.27c.006.02 2.944-.344 3.879-1.127 0 0 1.156 4.163 1.15 4.294a20.729 20.729 0 01-3.826 1.086c-.412-.019-1.339-2.285-1.645-2.377s-1.825.237-2.338-.58-5.623-16.909-5.623-16.909l5.177-1.617 4.565 15.98s-1.632.224-1.339 1.25z" fill="#ff5949"/><path data-name="Path 203" d="M126.868 13.607a.721.721 0 00-.67.863 19.661 19.661 0 001.1 4.07 3.875 3.875 0 01.822 1.9c.014.647-.4 1.83-.034 2.434.25.409 5.122-1.39 5.2-1.521s-.073-.467-.187-.592a5.528 5.528 0 01-1.654-2.983c-.267-1.73-.16-1.531-.607-1.916a1.327 1.327 0 01-.294-1.122.607.607 0 00-.013-.213l-.319-1.211a.585.585 0 00-.715-.421 73.72 73.72 0 00-2.629.712z" fill="#231f20"/><path data-name="Path 204" d="M129.699 13.042a1.984 1.984 0 001.014-.12 36.364 36.364 0 004.2-3.212c.148-.381 3.2 2.838 2.867 3.2s-1.054.225-1.775.735-4.551 2.864-4.6 3.851-1.173-.283-1.473-1.035c-.284-.701-1.392-3.421-.233-3.419z" fill="#231f20"/><path data-name="Path 205" d="M135.357 9.18a14.64 14.64 0 00-.31 2.191c.009.376 2.018 1.849 2.018 1.849s2.964-.961 3.332-1.64-2.252-4.347-2.9-4.223a4.573 4.573 0 00-2.14 1.823z" fill="#231f20"/><path data-name="Path 206" d="M130.999 28.175s-27.484 9.809-30.36 10.846-8.521 3.807-12.206 4.1-15.868.65-15.868.65-1.966-3.093.165-4.44c0 0 13.925.13 15.92-.216 2.464-.428 41.025-14.764 41.025-14.764a6.306 6.306 0 011.324 3.824z" fill="#ff5949"/><path data-name="Path 207" d="M130.534 27.747L84.449 80.573s2.211 2.7 3.142 2.69c.6 0 .809-.086.974-.28 10.765-12.749 30.732-35.276 39.642-45.943.746-.894 2.444-2.883 4.444-1.411s-.437-8.422-2.117-7.882z" fill="#ff5949"/><path data-name="Path 208" d="M131.076 27.207a.263.263 0 00-.3-.381c-12.609 3.734-27.021 10.463-39.943 14.572-5.318 1.692-12.559.63-18.772 1.135a10.494 10.494 0 00.508 1.236s12.184-.357 15.868-.65 9.33-3.063 12.206-4.1c2.236-.806 21.593-7.732 29.1-10.411-.005-.001.389.246 1.333-1.401z" fill="#ea463d"/><path data-name="Path 209" d="M131.883 32.457a.753.753 0 00-1.276-.3c-4.019 4.308-20.236 21.774-27.518 30.814-5.061 6.128-8.95 9.7-13.993 15.4a4.371 4.371 0 001.781 1.009c.6-.005.808-.087.973-.282 10.765-12.747 27.447-31.386 36.357-42.053.682-.818 2.159-2.538 3.933-1.71.686 2.043 1.326 3.926 1.478 4.169a1.109 1.109 0 00.815.565 79.7 79.7 0 01-2.55-7.612z" fill="#ea463d"/><path data-name="Path 210" d="M68.319 35.849L80.268 80.88l4.191-1.146-12.2-45z" fill="#ff5949"/><path data-name="Path 211" d="M74.344 42.413a1.074 1.074 0 00-1.114 1.345c3.372 12.912 4.893 19.789 9.1 33.1l1.252-.446z" fill="#ea463d"/><path data-name="Path 212" d="M66.861 35.667l.412 1.539 5.925-1.739s1.125-.283 1.186-.5-.21-1.323-.5-1.3-7.023 2-7.023 2z" fill="#323232"/><path data-name="Path 213" d="M62.599 14.598l6.1 21.4 3.152-.835-5.175-17.193a17.615 17.615 0 01-1.636-1.851c-.353-.57-.167-2.156-2.441-1.521z" fill="#323232"/><path data-name="Path 214" d="M70.23 14.413a21.3 21.3 0 01-2.6 1.929 9.132 9.132 0 01-2.488.521l-1.066 1.695s-2.18.246-2.679-.125a1.663 1.663 0 01-.8-1.335c.071-.4-3.442-.03-4.053-2.077l-.019-.068c1.357-2.032 13.705-.54 13.705-.54z" fill="#414042"/><path data-name="Path 215" d="M80.399 13.907a36.2 36.2 0 01-7.307.613c-3.512-.1-7.31 1.519-8.677 1.455a41.2 41.2 0 01-6.2-.652 59.846 59.846 0 01-7.045-1.934.867.867 0 01-.611-.933 4.131 4.131 0 01.765-2.887c.787-.816 2.064-1.581 7.91-.551s7.193.993 9.762.6 9.074-.51 10.812 1.136c1.791 1.685 1.382 2.976.591 3.153z" fill="#424242"/><path data-name="Path 216" d="M58.318 13.655a38.67 38.67 0 01-7.723-2.263 8 8 0 00-.033 1.065.869.869 0 00.611.933 59.846 59.846 0 007.045 1.934 41.2 41.2 0 006.2.652c1.367.064 5.165-1.555 8.677-1.455a36.2 36.2 0 007.307-.613.851.851 0 00.636-.663c-2.024.679-4.763.167-6.748.183-6.02.046-11.767.899-15.972.227z" fill="#323232"/><path data-name="Path 217" d="M128.458 15.807l-2.04.57a1.031 1.031 0 01-1.272-.717 1.034 1.034 0 01.717-1.273l2.04-.57z" fill="#231f20"/><path data-name="Path 218" d="M85.488 75.862l-50.547-1.8.016-.592 50.688 1.83z" fill="#323232"/><path data-name="Path 219" d="M129.315 18.091l-2.039.57a1.034 1.034 0 01-1.273-.717 1.034 1.034 0 01.718-1.274l2.039-.569z" fill="#231f20"/><path data-name="Path 220" d="M126.843 15.389a.632.632 0 11-.6-.661.634.634 0 01.6.661z" fill="#fafafa"/><path data-name="Path 221" d="M127.679 17.696a.632.632 0 11-.6-.66.63.63 0 01.6.66z" fill="#fafafa"/><path data-name="Path 222" d="M70.155 40.778s-36.4 37.485-36.417 37.848.026 2.741 1.181 2.381 35.94-37.041 35.94-37.041z" fill="#ff5949"/><path data-name="Path 223" d="M70.553 44.296l-.084-.312a.49.49 0 00-.822-.217C65.025 48.504 35.314 78.942 35.3 79.261a2.013 2.013 0 00.035 1.428c3.986-3.489 33.348-34.424 35.218-36.393z" fill="#ea463d"/><path data-name="Path 224" d="M78.122 82.569L40.348 79.52s-1.327-.37-1.4-.891a2.873 2.873 0 01.371-2.044s-4.548-.6-5.05 1.844 1.5 3.6 3.069 3.751 41.044 4.159 41.044 4.159 1.045-3.664-.26-3.77z" fill="#ff5949"/><path data-name="Path 225" d="M93.792 85.551a.553.553 0 01-.553-.551v-.144a.553.553 0 01.552-.553h.088q-.025-.282-.065-.563l-.119.023a.556.556 0 01-.642-.45l-.024-.14a.551.551 0 01.447-.639l.086-.017a7.63 7.63 0 00-.162-.542l-.113.042a.558.558 0 01-.71-.331l-.048-.134a.557.557 0 01.33-.71l.08-.029c-.08-.17-.164-.339-.253-.505l-.1.06a.553.553 0 01-.755-.2l-.072-.125a.551.551 0 01.2-.754l.074-.044q-.164-.232-.339-.453l-.091.076a.551.551 0 01-.778-.069l-.093-.107a.557.557 0 01.069-.781l.065-.054a10.815 10.815 0 00-.411-.39l-.077.092a.553.553 0 01-.779.069l-.11-.092a.554.554 0 01-.067-.78l.056-.065q-.232-.162-.474-.313l-.061.107a.554.554 0 01-.754.2l-.125-.073a.553.553 0 01-.2-.756l.043-.074a8.55 8.55 0 00-.519-.225l-.041.114a.554.554 0 01-.709.331l-.134-.048a.557.557 0 01-.332-.709l.03-.08a11.285 11.285 0 00-.55-.132l-.021.118a.552.552 0 01-.642.448l-.139-.024a.55.55 0 01-.448-.64l.014-.084a9.022 9.022 0 00-.564-.034v.12a.555.555 0 01-.554.554h-.141a.55.55 0 01-.553-.552v-.086a8.78 8.78 0 00-.562.064l.021.12a.553.553 0 01-.448.64l-.141.025a.553.553 0 01-.641-.448l-.015-.086c-.183.05-.364.1-.543.162l.041.114a.553.553 0 01-.33.709l-.133.049a.553.553 0 01-.709-.33l-.029-.081c-.172.081-.34.165-.507.255l.06.1a.555.555 0 01-.2.758l-.122.071a.554.554 0 01-.756-.2l-.043-.073a9.839 9.839 0 00-.453.337l.077.092a.553.553 0 01-.069.778l-.109.093a.552.552 0 01-.779-.069l-.055-.065c-.133.134-.263.27-.39.412l.093.076a.55.55 0 01.068.778l-.092.11a.554.554 0 01-.779.069l-.066-.056a9.417 9.417 0 00-.312.473l.1.062a.551.551 0 01.2.756l-.07.121a.555.555 0 01-.756.2l-.075-.042c-.08.169-.155.343-.225.52l.114.041a.552.552 0 01.33.708l-.049.135a.553.553 0 01-.709.33l-.079-.029c-.048.18-.092.365-.131.552l.117.02a.555.555 0 01.45.64l-.026.139a.555.555 0 01-.64.451l-.084-.016c-.016.189-.028.377-.034.566h.12a.553.553 0 01.554.552v.142a.554.554 0 01-.553.554h-.088c.017.188.039.376.066.562l.119-.022a.556.556 0 01.642.451l.024.139a.553.553 0 01-.448.64l-.086.015c.049.183.1.364.161.543l.114-.042a.556.556 0 01.71.332l.048.133a.556.556 0 01-.33.709l-.08.029q.119.256.253.507l.1-.06a.554.554 0 01.756.2l.07.124a.552.552 0 01-.2.755l-.074.044c.109.154.222.306.338.453l.091-.076a.553.553 0 01.78.068l.091.109a.554.554 0 01-.069.78l-.064.054c.133.133.27.262.411.389l.076-.091a.554.554 0 01.78-.069l.109.091a.552.552 0 01.068.778l-.056.068c.155.108.312.212.473.313l.061-.107a.555.555 0 01.755-.2l.124.071a.555.555 0 01.2.756l-.044.076c.171.079.344.155.52.225l.041-.116a.555.555 0 01.71-.329l.133.048a.554.554 0 01.33.709l-.028.08c.181.049.364.092.55.131l.021-.117a.554.554 0 01.64-.45l.141.026a.55.55 0 01.448.64l-.015.084c.19.017.378.028.566.034v-.12a.555.555 0 01.553-.554h.142a.553.553 0 01.553.554v.086c.189-.017.377-.038.563-.066l-.021-.119a.552.552 0 01.448-.64l.14-.026a.555.555 0 01.641.449l.016.086c.183-.048.364-.1.543-.162l-.043-.113a.554.554 0 01.331-.709l.133-.049a.552.552 0 01.709.33l.03.081c.171-.081.34-.165.506-.255l-.06-.1a.554.554 0 01.2-.756l.122-.071a.553.553 0 01.756.2l.042.073c.155-.107.307-.222.455-.338l-.076-.091a.553.553 0 01.067-.779l.109-.092a.551.551 0 01.779.068l.056.066c.132-.134.263-.271.388-.412l-.091-.076a.556.556 0 01-.069-.781l.092-.108a.553.553 0 01.779-.068l.067.055c.107-.155.211-.311.311-.472l-.105-.062a.553.553 0 01-.2-.756l.071-.122a.552.552 0 01.755-.2l.075.042c.08-.171.154-.345.225-.521l-.113-.041a.553.553 0 01-.333-.708l.05-.134a.551.551 0 01.708-.33l.08.027c.049-.181.093-.363.131-.55l-.117-.02a.554.554 0 01-.449-.64l.025-.14a.556.556 0 01.64-.45l.084.015c.016-.189.028-.377.035-.566zM83.14 93.18a7.971 7.971 0 118.336-7.589 7.971 7.971 0 01-8.336 7.589z" fill="#323232"/><path data-name="Path 226" d="M153.288 83.5a1.205 1.205 0 11-1.147-1.261 1.207 1.207 0 011.147 1.261z" fill="#323232"/><path data-name="Path 227" d="M89.159 87.482a.325.325 0 01-.2-.417l.029-.08a.326.326 0 01.42-.2l.046.016c.028-.106.054-.215.078-.324l-.07-.014a.325.325 0 01-.265-.379l.015-.082a.325.325 0 01.379-.264l.048.008a4.79 4.79 0 00.021-.334h-.071a.327.327 0 01-.327-.327v-.078a.329.329 0 01.327-.328h.051a4.594 4.594 0 00-.039-.331l-.07.013a.33.33 0 01-.379-.268l-.015-.082a.326.326 0 01.265-.378l.051-.008a3.632 3.632 0 00-.1-.322l-.067.025a.329.329 0 01-.42-.2l-.028-.08a.328.328 0 01.2-.419l.048-.017c-.048-.1-.1-.2-.151-.3l-.061.035a.326.326 0 01-.447-.118l-.042-.073a.327.327 0 01.12-.447l.044-.026a5.301 5.301 0 00-.2-.267l-.053.043a.326.326 0 01-.461-.038l-.054-.065a.329.329 0 01.04-.462l.038-.031a5.903 5.903 0 00-.242-.232l-.046.057a.328.328 0 01-.462.038l-.063-.054a.327.327 0 01-.041-.461l.033-.039a7.461 7.461 0 00-.279-.184l-.036.063a.332.332 0 01-.448.12l-.072-.043a.327.327 0 01-.12-.447l.025-.044a5.32 5.32 0 00-.306-.133l-.025.068a.327.327 0 01-.419.2l-.08-.029a.328.328 0 01-.2-.418l.018-.049a5.932 5.932 0 00-.326-.076l-.011.069a.328.328 0 01-.379.265l-.084-.015a.325.325 0 01-.265-.379l.008-.049a6.15 6.15 0 00-.335-.019v.07a.327.327 0 01-.326.328h-.084a.324.324 0 01-.327-.326v-.051a7.37 7.37 0 00-.333.038l.012.071a.327.327 0 01-.264.379l-.084.014a.326.326 0 01-.379-.264l-.01-.051c-.107.029-.214.06-.32.1l.024.067a.325.325 0 01-.195.419l-.079.03a.327.327 0 01-.419-.2l-.018-.048c-.1.048-.2.1-.3.15l.035.062a.326.326 0 01-.12.446l-.073.043a.33.33 0 01-.447-.119l-.025-.045c-.091.066-.181.131-.269.2l.046.052a.328.328 0 01-.041.462l-.064.056a.329.329 0 01-.461-.041l-.033-.04a8.842 8.842 0 00-.229.245l.054.044a.328.328 0 01.041.462l-.054.062a.325.325 0 01-.461.041l-.04-.031c-.064.09-.126.183-.184.277l.062.038a.326.326 0 01.119.447l-.041.072a.327.327 0 01-.448.119l-.043-.024c-.048.1-.092.2-.134.3l.068.028a.324.324 0 01.195.417l-.028.08a.327.327 0 01-.42.2l-.046-.018a5.945 5.945 0 00-.078.326l.068.013a.328.328 0 01.268.379l-.016.082a.326.326 0 01-.378.265l-.05-.008c-.01.112-.017.222-.021.334h.072a.328.328 0 01.327.326v.084a.328.328 0 01-.327.329h-.051c.009.11.022.222.038.331l.071-.012a.33.33 0 01.38.267l.013.082a.326.326 0 01-.265.378l-.051.009c.03.109.061.215.1.321l.067-.024a.327.327 0 01.42.2l.029.079a.328.328 0 01-.2.419l-.047.018c.047.1.1.2.15.3l.061-.035a.327.327 0 01.448.119l.041.073a.326.326 0 01-.12.446l-.042.027c.063.091.13.179.2.267l.054-.044a.326.326 0 01.461.039l.054.065a.329.329 0 01-.041.462l-.038.031c.079.079.16.157.244.229l.044-.054a.326.326 0 01.461-.038l.065.053a.328.328 0 01.041.461l-.033.039c.091.064.184.125.28.185l.035-.064a.328.328 0 01.446-.119l.073.043a.326.326 0 01.121.447l-.026.043c.1.047.2.092.308.133l.024-.067a.328.328 0 01.419-.2l.079.03a.327.327 0 01.2.418l-.017.049c.106.028.216.053.325.076l.013-.069a.327.327 0 01.379-.265l.082.012a.328.328 0 01.266.379l-.009.051c.112.009.224.017.334.02v-.071a.33.33 0 01.328-.328h.084a.329.329 0 01.327.328v.051c.111-.009.222-.022.333-.038l-.013-.07a.328.328 0 01.265-.379l.084-.016a.328.328 0 01.378.266l.01.051a4.24 4.24 0 00.321-.1L85.403 91a.328.328 0 01.2-.419l.079-.031a.329.329 0 01.42.2l.017.047c.1-.047.2-.1.3-.151l-.035-.06a.327.327 0 01.119-.447l.073-.043a.333.333 0 01.448.119l.024.045c.091-.065.181-.132.269-.2l-.045-.051a.33.33 0 01.04-.463l.064-.055a.328.328 0 01.461.041l.033.04a5.94 5.94 0 00.23-.245l-.054-.044a.328.328 0 01-.041-.462l.054-.064a.328.328 0 01.461-.041l.039.033a5.42 5.42 0 00.185-.28l-.062-.036a.325.325 0 01-.12-.446l.042-.072a.326.326 0 01.445-.121l.045.026c.048-.1.092-.2.134-.308z" fill="#231f20"/><path data-name="Path 228" d="M87.533 85.407a4.024 4.024 0 11-3.831-4.208 4.026 4.026 0 013.831 4.208z" fill="#404041"/><g data-name="Group 612" fill="#605f5f"><path data-name="Path 229" d="M80.554 83.787s-.72-1.477-1.55-1.584-.982.314-1.861.032-.75-1.41.383-2.6a6.807 6.807 0 013.2-2.078 1.035 1.035 0 01.963 1.456c-.214.608-.187 2.315 1.049 2.762.636.23 2.192.179 3.232 1.5a2.91 2.91 0 01-.74 4.374 3.343 3.343 0 01-4.277-1.074 6.842 6.842 0 01-.399-2.788z"/><path data-name="Path 230" d="M86.913 86.248s.857 1.4 1.694 1.429.947-.407 1.849-.21.882 1.33-.132 2.625a6.829 6.829 0 01-2.986 2.377 1.036 1.036 0 01-1.1-1.358c.155-.627-.035-2.321-1.31-2.649-.654-.169-2.2.03-3.359-1.188a3.031 3.031 0 01.317-4.424 3.345 3.345 0 014.361.66 6.87 6.87 0 01.666 2.738z"/></g><g data-name="Group 613" fill="#605f5f"><path data-name="Path 231" d="M84.718 82.035s1.479-.72 1.586-1.55-.316-.981-.032-1.859 1.41-.752 2.6.381a6.824 6.824 0 012.081 3.2 1.038 1.038 0 01-1.458.963c-.608-.213-2.313-.187-2.762 1.05-.23.636-.18 2.192-1.5 3.231a2.908 2.908 0 01-4.372-.739 3.343 3.343 0 011.073-4.278 6.857 6.857 0 012.784-.399z"/><path data-name="Path 232" d="M82.259 88.393s-1.4.858-1.429 1.7.407.946.209 1.849-1.332.882-2.626-.134a6.8 6.8 0 01-2.376-2.986 1.036 1.036 0 011.358-1.1c.625.156 2.321-.036 2.648-1.309.169-.655-.03-2.2 1.188-3.361a3.03 3.03 0 014.423.318 3.344 3.344 0 01-.659 4.362 6.863 6.863 0 01-2.736.661z"/></g><path data-name="Path 233" d="M38.057 79.565a1.472 1.472 0 11-1.4-1.539 1.47 1.47 0 011.4 1.539z" fill="#323232"/><path data-name="Path 234" d="M137.135 12.796a2.279 2.279 0 00-.84 1.356 5.965 5.965 0 00-.065 1.394s.684.859.839.867a.752.752 0 00.67-.132c.251-.23.413-.576.344-.743s-.4-.621-.6-.64l.078-.736s1.848.293 1.85.253 1.309-1.193 1.347-1.45-.6-.5-.483-.738a2.313 2.313 0 01.673-.559s.381-.485.372-.674a13.761 13.761 0 00-1.681-1.614z" fill="#231f20"/><path data-name="Path 235" d="M145.599 10.178a8.964 8.964 0 01.371 4.568 18.655 18.655 0 01-10.218 13.515c-8.256 4.093-9 1.541-17.386 4.7s-23.534 9.375-27.088 10.172-21.925.74-26.007 1.451-6 1.166-6.11 1.317" fill="none" stroke="#231f20" stroke-miterlimit="10" stroke-width=".239"/><path data-name="Path 236" d="M55.792 49.377l3.227-3.778 1.229.265-1.829 2.62s.659.307.472.591-1.147 1.325-1.147 1.325-1.964-.764-1.952-1.023z" fill="#6d6e71"/><path data-name="Path 237" d="M145.299 9.291a5.228 5.228 0 011.716 2.367c.286 1.254 1 7.387-3.473 14.519s-16.2 11.923-18.192 14.25L91.756 79.673" fill="none" stroke="#231f20" stroke-miterlimit="10" stroke-width=".239"/><path data-name="Path 238" d="M143.862 7.873l.937-1.266s1.8 1.346 1.864 1.4c.233.185 1.521.884 2.126 1.341a.717.717 0 01.179 1.145.688.688 0 01-1.014.316 28.85 28.85 0 01-3.053-2.14z" fill="#231f20"/><path data-name="Path 239" d="M140.066 12.744s6.222-1.07 8.38 1.41 5.429 7.7 3.172 17.263-4.917 14.074-4.917 14.074" fill="none" stroke="#231f20" stroke-miterlimit="10" stroke-width=".239"/><path data-name="Path 240" d="M147.674 44.801l-2.609.451-.22-.84 2.681-.48z" fill="#231f20"/><path data-name="Path 241" d="M56.445 48.597l-5.594 6.3 1.229.994 5.742-6.075a.578.578 0 00-.051-.842l-.523-.438a.579.579 0 00-.803.061z" fill="#6d6e71"/><path data-name="Path 242" d="M52.225 55.985a1.214 1.214 0 11-1.156-1.271 1.213 1.213 0 011.156 1.271z" fill="#6d6e71"/><path data-name="Path 243" d="M136.615 9.907s.184 1.745 1.61 1.694a1.868 1.868 0 001.834-1.652c.041-.276 1.5-3.964 1.5-3.964s-3.032-.781-3.174-.477-1.77 4.399-1.77 4.399z" fill="#bbbdbf"/><path data-name="Path 244" d="M137.905 1.907a15.612 15.612 0 00.57 4.1c.533 1.207 2 1 2.562.765s1.1-.644 1.108-1.007c.025-1.188-.279-4.137-.279-4.137z" fill="#414042"/><path data-name="Path 245" d="M141.899 2.093a2 2 0 11-1.9-2.091 2 2 0 011.9 2.091z" fill="#e6e7e8"/><path data-name="Path 246" d="M149.45 54.888l-.706.121-2.287-10.32 1.162-.2z" fill="#231f20"/><path data-name="Path 247" d="M85.884 85.172a2.1 2.1 0 11-2-2.2 2.1 2.1 0 012 2.2z" fill="#404041"/><path data-name="Path 248" d="M103.157 88.121l-18.5-1.082a1.894 1.894 0 01-1.782-1.98 1.9 1.9 0 012-1.8l18.5 1.08a1.9 1.9 0 011.783 1.982 1.9 1.9 0 01-2.001 1.8z" fill="#231f20"/><path data-name="Path 249" d="M105.311 89.601l-4.978-.232a2 2 0 01-1.9-2.09 2 2 0 012.087-1.9l4.979.233a2 2 0 011.9 2.089 2 2 0 01-2.088 1.9z" fill="#231f20"/><path data-name="Path 250" d="M106.06 88.684l-6.392-.3.08-1.779 1.847.08v-.563l-1.811-.131.022-.449 6.391.3-.022.464-2.2-.109-.019.582 2.186.121z" fill="#d0d2d3"/><path data-name="Path 251" d="M106.037 89.635l-6.429-.3a1.27 1.27 0 01-1.209-1.33 1.27 1.27 0 011.329-1.209l6.428.3a1.272 1.272 0 011.21 1.328 1.271 1.271 0 01-1.329 1.211z" fill="#404041"/><g data-name="Group 614" fill="#323232"><path data-name="Path 252" d="M64.555 64.335l-.558.358.583.955.575-.273z"/><path data-name="Path 253" d="M62.626 66.34l-.242-.4 1.882-1.147.294.483z"/><path data-name="Path 254" d="M62.555 65.644a5.68 5.68 0 01.419.752l-1.277.53s-.261.117-.359-.036a.277.277 0 01.059-.417c.159-.135 1.158-.829 1.158-.829z"/></g><path data-name="Path 255" d="M103.872 88.207a.964.964 0 11-.953-.973.967.967 0 01.953.973z" fill="#231f20"/><g data-name="Group 615" fill="#bbbdbf"><path data-name="Rectangle 118" d="M119.567 31.688l.944-.347.533 1.45-.945.346z"/><path data-name="Rectangle 119" d="M102.803 37.965l.946-.346.53 1.45-.945.346z"/><path data-name="Rectangle 120" d="M86.025 42.923l1.006-.046.07 1.544-1.006.045z"/></g><path data-name="Rectangle 121" fill="#bbbdbf" d="M122.177 43.159l.607-.804 1.233.932-.607.803z"/><path data-name="Rectangle 122" fill="#bbbdbf" d="M99.993 68.952l.607-.804 1.232.931-.607.804z"/><path data-name="Path 256" d="M35.98 79.884l-2.791 36.549a.39.39 0 01-.139.281l-1.651 1.153a.394.394 0 00-.131.387l.062.269a.39.39 0 00.54.269l2.4-1.1a.392.392 0 00.229-.359l-.012-.769 2.519-36.709a.39.39 0 00-.483-.4l-.158.069c-.161.041-.377.188-.385.36z" fill="#323232"/></g></g></svg>