<svg width="43" height="24" viewBox="0 0 43 24" fill="none" xmlns="http://www.w3.org/2000/svg">
<path fill-rule="evenodd" clip-rule="evenodd" d="M20.1714 15.2632V11.638H22.1164C22.9134 11.638 23.5862 11.3811 24.1346 10.8745L24.2662 10.746C25.268 9.69701 25.2021 8.06284 24.1346 7.09232C23.6008 6.57852 22.8696 6.30022 22.1164 6.31449H18.9941V15.2632H20.1714ZM20.1715 10.539V7.41338H22.1461C22.5703 7.41338 22.9725 7.57037 23.2724 7.85582C23.9086 8.45525 23.9233 9.45431 23.3089 10.0752C23.0091 10.382 22.5849 10.5533 22.1461 10.539H20.1715ZM29.7576 9.6185C29.2531 9.16892 28.5658 8.94057 27.6956 8.94057C26.5769 8.94057 25.736 9.34019 25.1802 10.1323L26.2186 10.7674C26.5988 10.2251 27.118 9.9539 27.776 9.9539C28.1928 9.9539 28.595 10.1038 28.9094 10.3749C29.2165 10.6318 29.392 11.0029 29.392 11.3954V11.6594C28.9387 11.4168 28.3683 11.2884 27.6664 11.2884C26.8474 11.2884 26.1893 11.4739 25.6994 11.8521C25.2095 12.2303 24.9609 12.7298 24.9609 13.365C24.9462 13.943 25.2022 14.4925 25.6555 14.8635C26.1162 15.2632 26.7012 15.463 27.3885 15.463C28.2001 15.463 28.8436 15.1133 29.3335 14.414H29.3847V15.2632H30.5108V11.4882C30.5108 10.6961 30.2622 10.0681 29.7576 9.6185ZM26.5624 14.1356C26.3211 13.9644 26.1748 13.6861 26.1748 13.3863C26.1748 13.0509 26.3357 12.7726 26.6502 12.5514C26.972 12.3302 27.3742 12.216 27.8496 12.216C28.5078 12.2089 29.0197 12.3516 29.3854 12.6371C29.3854 13.1223 29.1879 13.5433 28.8003 13.9001C28.4493 14.2427 27.9739 14.4354 27.4766 14.4354C27.1475 14.4425 26.8257 14.3354 26.5624 14.1356ZM33.0408 17.9535L36.9747 9.14037H35.6951L33.8744 13.5362H33.8525L31.9879 9.14037H30.7082L33.2894 14.8707L31.827 17.9535H33.0408Z" fill="white"/>
<path d="M16.1074 10.8529C16.1074 10.5032 16.0781 10.1536 16.0196 9.81104H11.0547V11.7877H13.8991C13.7821 12.4229 13.4019 12.9937 12.8462 13.3506V14.6351H14.5426C15.537 13.743 16.1074 12.4229 16.1074 10.8529Z" fill="#4285F4"/>
<path d="M11.0552 15.8769C12.4738 15.8769 13.673 15.4201 14.5431 14.6352L12.8467 13.3507C12.3714 13.6647 11.7645 13.8431 11.0552 13.8431C9.68054 13.8431 8.51791 12.9368 8.10112 11.7236H6.35352V13.051C7.2456 14.785 9.06632 15.8769 11.0552 15.8769Z" fill="#34A853"/>
<path d="M8.10092 11.7238C7.88152 11.0887 7.88152 10.3965 8.10092 9.75426V8.43408H6.35304C5.59977 9.88271 5.59977 11.5954 6.35304 13.044L8.10092 11.7238Z" fill="#FBBC04"/>
<path d="M11.0552 7.63469C11.8084 7.62042 12.5323 7.89873 13.0734 8.40539L14.5797 6.93535C13.6218 6.06474 12.3641 5.58662 11.0552 5.6009C9.06632 5.6009 7.2456 6.69986 6.35352 8.43394L8.10112 9.76125C8.51791 8.54098 9.68054 7.63469 11.0552 7.63469Z" fill="#EA4335"/>
</svg>
