<svg width="36" height="36" viewBox="0 0 36 36" fill="none" xmlns="http://www.w3.org/2000/svg">
<rect x="0.5" y="0.5" width="35" height="35" rx="3.5" stroke="white"/>
<path d="M24.3979 16.5541C24.419 14.0159 22.2573 11.6892 19.5796 11.3671C19.5217 11.3597 19.4641 11.351 19.4067 11.3408C19.272 11.3155 19.1355 11.3009 18.9986 11.2969C18.4491 11.2969 18.3026 11.683 18.2639 11.9121C18.2265 12.1368 18.2619 12.3232 18.3701 12.4712C18.5518 12.7178 18.8722 12.7617 19.1293 12.7968C19.2039 12.8073 19.275 12.817 19.3347 12.8302C21.7413 13.3682 22.5513 14.2134 22.9472 16.5997C22.9568 16.6576 22.9612 16.7296 22.9665 16.806C22.984 17.0912 23.0191 17.6845 23.6572 17.6845C23.7104 17.6845 23.7672 17.6801 23.8275 17.6713C24.4208 17.5809 24.4023 17.0385 24.3936 16.7779C24.3909 16.7042 24.3883 16.6348 24.3953 16.5883L24.3971 16.5532L24.3979 16.5541Z" fill="white"/>
<path d="M18.8426 10.4359C18.9151 10.4405 18.9801 10.4467 19.0374 10.4543C22.9895 11.0625 24.8072 12.9346 25.3101 16.9174C25.3188 16.985 25.3206 17.0675 25.3215 17.1544C25.3267 17.4659 25.3373 18.1137 26.0324 18.1268H26.0534C26.2723 18.1268 26.4443 18.0616 26.5695 17.9311C26.7854 17.7055 26.7714 17.3694 26.7582 17.0991C26.7553 17.0318 26.7535 16.9704 26.7529 16.9148C26.8038 12.8424 23.2774 9.14833 19.2085 9.01141C19.191 9.01141 19.1746 9.01229 19.1594 9.01404L19.1111 9.01668C19.069 9.01609 19.021 9.01375 18.9672 9.00965C18.904 9.00527 18.8311 9 18.7565 9C18.1088 9 17.986 9.46077 17.9702 9.73548C17.9342 10.37 18.5477 10.4148 18.8426 10.4359ZM25.1196 22.0649C25.0348 22.0005 24.9508 21.9349 24.8677 21.8683C24.4359 21.5207 23.9769 21.2013 23.5337 20.8915L23.2572 20.6984C22.6885 20.299 22.1777 20.1051 21.695 20.1051C21.0437 20.1051 20.4768 20.4649 20.0081 21.1732C19.801 21.4874 19.5491 21.6401 19.2393 21.6401C19.0239 21.6337 18.8125 21.5807 18.6196 21.4848C16.7853 20.6527 15.4741 19.3766 14.7246 17.6924C14.3621 16.8779 14.4797 16.346 15.1169 15.9125C15.4793 15.6667 16.1525 15.2095 16.106 14.3327C16.0516 13.3383 13.8565 10.3446 12.9315 10.0049C12.5361 9.86045 12.1025 9.85921 11.7063 10.0014C10.6434 10.3586 9.88161 10.987 9.49982 11.8164C9.13121 12.6186 9.14876 13.5603 9.54722 14.5398C10.7013 17.372 12.3233 19.8418 14.3691 21.8797C16.3711 23.8746 18.832 25.508 21.6827 26.7358C21.9398 26.8464 22.2093 26.907 22.4067 26.9508C22.4734 26.9658 22.5314 26.9789 22.5735 26.9903C22.5966 26.9968 22.6206 27 22.6446 27H22.6674C24.0085 27 25.619 25.7748 26.1131 24.3784C26.5467 23.155 25.755 22.5502 25.1196 22.0649ZM19.4359 13.6718C19.2068 13.6771 18.7285 13.6894 18.5608 14.1756C18.4818 14.4038 18.4912 14.5995 18.5889 14.7627C18.7311 14.9997 19.004 15.0734 19.2515 15.1138C20.1511 15.2577 20.6137 15.7545 20.7058 16.6787C20.7488 17.1087 21.0393 17.4098 21.4106 17.4098C21.4387 17.4094 21.4669 17.4076 21.4949 17.4045C21.9425 17.3518 22.1592 17.0227 22.1399 16.4268C22.147 15.8054 21.8222 15.0998 21.2684 14.5381C20.7137 13.9746 20.045 13.6569 19.4359 13.6718Z" fill="white"/>
</svg>
