<svg width="33" height="33" viewBox="0 0 33 33" fill="none" xmlns="http://www.w3.org/2000/svg">
<path fill-rule="evenodd" clip-rule="evenodd" d="M15.7733 31.3011H17.2413L18.5666 29.6451C20.3079 27.4691 22.4079 24.6784 24.0826 21.7904C25.7053 18.9904 27.1666 15.7078 27.1666 12.6344C27.1666 6.49444 22.6399 1.96777 16.4999 1.96777C10.3599 1.96777 5.83325 6.49444 5.83325 12.6344C5.83325 15.6918 7.25059 18.9744 8.86125 21.7904C10.5213 24.6931 12.6213 27.4918 14.4306 29.6784L15.7733 31.3011ZM8.49992 12.6344C8.49992 16.5678 11.6813 21.7624 14.7826 25.8344C15.3293 26.5544 15.8893 27.2304 16.4159 27.8664L16.4999 27.9678C17.0359 27.2967 17.5901 26.5807 18.1626 25.8198C21.2373 21.7318 24.4999 16.5664 24.4999 12.6344C24.4999 7.96777 21.1666 4.63444 16.4999 4.63444C11.8333 4.63444 8.49992 7.96777 8.49992 12.6344Z" fill="white"/>
<path d="M16.5001 13.9674C17.2365 13.9674 17.8334 13.3705 17.8334 12.6341C17.8334 11.8977 17.2365 11.3008 16.5001 11.3008C15.7637 11.3008 15.1667 11.8977 15.1667 12.6341C15.1667 13.3705 15.7637 13.9674 16.5001 13.9674Z" fill="white"/>
<path fill-rule="evenodd" clip-rule="evenodd" d="M16.4999 15.3011C17.2072 15.3011 17.8854 15.0202 18.3855 14.5201C18.8856 14.02 19.1666 13.3417 19.1666 12.6344C19.1666 11.9272 18.8856 11.2489 18.3855 10.7488C17.8854 10.2487 17.2072 9.96777 16.4999 9.96777C15.7927 9.96777 15.1144 10.2487 14.6143 10.7488C14.1142 11.2489 13.8333 11.9272 13.8333 12.6344C13.8333 13.3417 14.1142 14.02 14.6143 14.5201C15.1144 15.0202 15.7927 15.3011 16.4999 15.3011Z" fill="white"/>
</svg>
