<svg width="170" height="47" viewBox="0 0 170 47" fill="none" xmlns="http://www.w3.org/2000/svg">
<path d="M39 23.9545C39 22.5364 38.8734 21.1727 38.6382 19.8636H19.898V27.6091H30.6067C30.1364 30.1 28.7254 32.2091 26.609 33.6273V38.6636H33.0668C36.8293 35.1727 39 30.0455 39 23.9545Z" fill="#4285F4"/>
<path d="M19.898 43.5C25.2704 43.5 29.7746 41.7182 33.0668 38.6636L26.609 33.6273C24.8363 34.8273 22.5751 35.5545 19.898 35.5545C14.7245 35.5545 10.3289 32.0455 8.7551 27.3182H2.13451V32.4818C5.40863 39.0091 12.1197 43.5 19.898 43.5Z" fill="#34A853"/>
<path d="M8.7551 27.3C8.35714 26.1 8.12198 24.8273 8.12198 23.5C8.12198 22.1727 8.35714 20.9 8.7551 19.7V14.5364H2.13451C0.777829 17.2273 0 20.2636 0 23.5C0 26.7364 0.777829 29.7727 2.13451 32.4636L7.28989 28.4273L8.7551 27.3Z" fill="#FBBC05"/>
<path d="M19.898 11.4636C22.8284 11.4636 25.4332 12.4818 27.5135 14.4455L33.2115 8.71818C29.7565 5.48182 25.2704 3.5 19.898 3.5C12.1197 3.5 5.40863 7.99091 2.13451 14.5364L8.7551 19.7C10.3288 14.9727 14.7245 11.4636 19.898 11.4636Z" fill="#EA4335"/>
<path d="M68.1 12.072C67.468 12.072 66.88 11.968 66.336 11.76C65.8 11.544 65.332 11.244 64.932 10.86C64.54 10.468 64.232 10.016 64.008 9.504C63.792 8.984 63.684 8.416 63.684 7.8C63.684 7.184 63.792 6.62 64.008 6.108C64.232 5.588 64.54 5.136 64.932 4.752C65.332 4.36 65.8 4.06 66.336 3.852C66.872 3.636 67.46 3.528 68.1 3.528C68.732 3.528 69.316 3.636 69.852 3.852C70.388 4.06 70.852 4.356 71.244 4.74C71.644 5.124 71.952 5.576 72.168 6.096C72.392 6.616 72.504 7.184 72.504 7.8C72.504 8.416 72.392 8.984 72.168 9.504C71.952 10.024 71.644 10.476 71.244 10.86C70.852 11.244 70.388 11.544 69.852 11.76C69.316 11.968 68.732 12.072 68.1 12.072ZM68.1 11.28C68.604 11.28 69.068 11.196 69.492 11.028C69.924 10.852 70.296 10.608 70.608 10.296C70.928 9.976 71.176 9.608 71.352 9.192C71.528 8.768 71.616 8.304 71.616 7.8C71.616 7.296 71.528 6.836 71.352 6.42C71.176 5.996 70.928 5.628 70.608 5.316C70.296 4.996 69.924 4.752 69.492 4.584C69.068 4.408 68.604 4.32 68.1 4.32C67.596 4.32 67.128 4.408 66.696 4.584C66.264 4.752 65.888 4.996 65.568 5.316C65.256 5.628 65.008 5.996 64.824 6.42C64.648 6.836 64.56 7.296 64.56 7.8C64.56 8.296 64.648 8.756 64.824 9.18C65.008 9.604 65.256 9.976 65.568 10.296C65.888 10.608 66.264 10.852 66.696 11.028C67.128 11.196 67.596 11.28 68.1 11.28ZM74.623 12V3.6H81.691V12H80.815V4.128L81.043 4.368H75.271L75.499 4.128V12H74.623ZM84.3814 11.172C84.7894 11.332 85.1734 11.372 85.5334 11.292C85.8934 11.204 86.2254 10.92 86.5294 10.44L86.9374 9.792L87.0214 9.684L90.2374 3.6H91.1254L87.3094 10.632C87.0534 11.12 86.7494 11.484 86.3974 11.724C86.0534 11.964 85.6854 12.092 85.2934 12.108C84.9094 12.124 84.5214 12.052 84.1294 11.892L84.3814 11.172ZM86.9974 10.488L83.3614 3.6H84.3094L87.4774 9.756L86.9974 10.488ZM92.5058 12V3.6H98.6498V4.356H93.3818V7.104H96.1298C97.1218 7.104 97.8738 7.308 98.3858 7.716C98.9058 8.116 99.1658 8.708 99.1658 9.492C99.1658 10.3 98.8858 10.92 98.3258 11.352C97.7738 11.784 96.9778 12 95.9378 12H92.5058ZM93.3818 11.292H95.9258C96.7018 11.292 97.2858 11.144 97.6778 10.848C98.0778 10.544 98.2778 10.104 98.2778 9.528C98.2778 8.384 97.4938 7.812 95.9258 7.812H93.3818V11.292ZM100.378 12.072C100.266 12.072 100.158 12.064 100.054 12.048C99.9502 12.04 99.8342 12.02 99.7062 11.988L99.7782 11.196C99.9142 11.228 100.046 11.244 100.174 11.244C100.534 11.244 100.822 11.104 101.038 10.824C101.262 10.536 101.43 10.096 101.542 9.504C101.654 8.904 101.726 8.136 101.758 7.2L101.878 3.6H107.578V12H106.702V4.128L106.93 4.368H102.442L102.658 4.116L102.55 7.176C102.518 8.016 102.458 8.744 102.37 9.36C102.282 9.968 102.154 10.476 101.986 10.884C101.818 11.284 101.602 11.584 101.338 11.784C101.074 11.976 100.754 12.072 100.378 12.072ZM110.412 12V3.6H111.288V12H110.412ZM119.863 12L116.635 7.812L117.355 7.38L120.883 12H119.863ZM114.115 12V3.6H114.979V12H114.115ZM114.715 8.148V7.368H117.343V8.148H114.715ZM117.427 7.896L116.611 7.752L119.743 3.6H120.703L117.427 7.896ZM125.92 12.072C125.288 12.072 124.7 11.968 124.156 11.76C123.62 11.544 123.152 11.244 122.752 10.86C122.36 10.468 122.052 10.016 121.828 9.504C121.612 8.984 121.504 8.416 121.504 7.8C121.504 7.184 121.612 6.62 121.828 6.108C122.052 5.588 122.36 5.136 122.752 4.752C123.152 4.36 123.62 4.06 124.156 3.852C124.692 3.636 125.28 3.528 125.92 3.528C126.552 3.528 127.136 3.636 127.672 3.852C128.208 4.06 128.672 4.356 129.064 4.74C129.464 5.124 129.772 5.576 129.988 6.096C130.212 6.616 130.324 7.184 130.324 7.8C130.324 8.416 130.212 8.984 129.988 9.504C129.772 10.024 129.464 10.476 129.064 10.86C128.672 11.244 128.208 11.544 127.672 11.76C127.136 11.968 126.552 12.072 125.92 12.072ZM125.92 11.28C126.424 11.28 126.888 11.196 127.312 11.028C127.744 10.852 128.116 10.608 128.428 10.296C128.748 9.976 128.996 9.608 129.172 9.192C129.348 8.768 129.436 8.304 129.436 7.8C129.436 7.296 129.348 6.836 129.172 6.42C128.996 5.996 128.748 5.628 128.428 5.316C128.116 4.996 127.744 4.752 127.312 4.584C126.888 4.408 126.424 4.32 125.92 4.32C125.416 4.32 124.948 4.408 124.516 4.584C124.084 4.752 123.708 4.996 123.388 5.316C123.076 5.628 122.828 5.996 122.644 6.42C122.468 6.836 122.38 7.296 122.38 7.8C122.38 8.296 122.468 8.756 122.644 9.18C122.828 9.604 123.076 9.976 123.388 10.296C123.708 10.608 124.084 10.852 124.516 11.028C124.948 11.196 125.416 11.28 125.92 11.28ZM132.443 12V3.6H135.935C136.823 3.6 137.519 3.784 138.023 4.152C138.535 4.512 138.791 5.044 138.791 5.748C138.791 6.444 138.547 6.972 138.059 7.332C137.571 7.684 136.931 7.86 136.139 7.86L136.343 7.56C137.279 7.56 137.991 7.744 138.479 8.112C138.967 8.48 139.211 9.02 139.211 9.732C139.211 10.452 138.955 11.012 138.443 11.412C137.939 11.804 137.179 12 136.163 12H132.443ZM133.319 11.292H136.163C136.875 11.292 137.415 11.16 137.783 10.896C138.151 10.632 138.335 10.224 138.335 9.672C138.335 9.128 138.151 8.728 137.783 8.472C137.415 8.216 136.875 8.088 136.163 8.088H133.319V11.292ZM133.319 7.404H135.887C136.535 7.404 137.031 7.276 137.375 7.02C137.727 6.756 137.903 6.368 137.903 5.856C137.903 5.344 137.727 4.96 137.375 4.704C137.031 4.44 136.535 4.308 135.887 4.308H133.319V7.404ZM140.196 12L144.036 3.6H144.912L148.752 12H147.816L144.288 4.116H144.648L141.12 12H140.196ZM141.708 9.756L141.972 9.036H146.856L147.12 9.756H141.708ZM156.505 3.6H157.381V12H156.505V3.6ZM151.249 12H150.361V3.6H151.249V12ZM156.589 8.124H151.153V7.344H156.589V8.124ZM163.901 12.072C163.269 12.072 162.681 11.968 162.137 11.76C161.601 11.544 161.133 11.244 160.733 10.86C160.341 10.468 160.033 10.016 159.809 9.504C159.593 8.984 159.485 8.416 159.485 7.8C159.485 7.184 159.593 6.62 159.809 6.108C160.033 5.588 160.341 5.136 160.733 4.752C161.133 4.36 161.601 4.06 162.137 3.852C162.673 3.636 163.261 3.528 163.901 3.528C164.533 3.528 165.117 3.636 165.653 3.852C166.189 4.06 166.653 4.356 167.045 4.74C167.445 5.124 167.753 5.576 167.969 6.096C168.193 6.616 168.305 7.184 168.305 7.8C168.305 8.416 168.193 8.984 167.969 9.504C167.753 10.024 167.445 10.476 167.045 10.86C166.653 11.244 166.189 11.544 165.653 11.76C165.117 11.968 164.533 12.072 163.901 12.072ZM163.901 11.28C164.405 11.28 164.869 11.196 165.293 11.028C165.725 10.852 166.097 10.608 166.409 10.296C166.729 9.976 166.977 9.608 167.153 9.192C167.329 8.768 167.417 8.304 167.417 7.8C167.417 7.296 167.329 6.836 167.153 6.42C166.977 5.996 166.729 5.628 166.409 5.316C166.097 4.996 165.725 4.752 165.293 4.584C164.869 4.408 164.405 4.32 163.901 4.32C163.397 4.32 162.929 4.408 162.497 4.584C162.065 4.752 161.689 4.996 161.369 5.316C161.057 5.628 160.809 5.996 160.625 6.42C160.449 6.836 160.361 7.296 160.361 7.8C160.361 8.296 160.449 8.756 160.625 9.18C160.809 9.604 161.057 9.976 161.369 10.296C161.689 10.608 162.065 10.852 162.497 11.028C162.929 11.196 163.397 11.28 163.901 11.28Z" fill="black"/>
<path d="M71.42 42.16C70.34 42.16 69.3467 41.9867 68.44 41.64C67.5333 41.28 66.7467 40.78 66.08 40.14C65.4133 39.4867 64.8933 38.7267 64.52 37.86C64.1467 36.9933 63.96 36.04 63.96 35C63.96 33.96 64.1467 33.0067 64.52 32.14C64.8933 31.2733 65.4133 30.52 66.08 29.88C66.76 29.2267 67.5533 28.7267 68.46 28.38C69.3667 28.02 70.3667 27.84 71.46 27.84C72.5667 27.84 73.58 28.02 74.5 28.38C75.42 28.74 76.2 29.28 76.84 30L75.6 31.24C75.0267 30.68 74.4 30.2733 73.72 30.02C73.0533 29.7533 72.3267 29.62 71.54 29.62C70.74 29.62 69.9933 29.7533 69.3 30.02C68.62 30.2867 68.0267 30.66 67.52 31.14C67.0267 31.62 66.64 32.1933 66.36 32.86C66.0933 33.5133 65.96 34.2267 65.96 35C65.96 35.76 66.0933 36.4733 66.36 37.14C66.64 37.7933 67.0267 38.3667 67.52 38.86C68.0267 39.34 68.62 39.7133 69.3 39.98C69.98 40.2467 70.72 40.38 71.52 40.38C72.2667 40.38 72.98 40.2667 73.66 40.04C74.3533 39.8 74.9933 39.4067 75.58 38.86L76.72 40.38C76.0267 40.9667 75.2133 41.4133 74.28 41.72C73.36 42.0133 72.4067 42.16 71.42 42.16ZM74.8 40.12V34.92H76.72V40.38L74.8 40.12ZM84.8092 42.12C83.7426 42.12 82.7959 41.8867 81.9692 41.42C81.1426 40.9533 80.4892 40.3133 80.0092 39.5C79.5292 38.6733 79.2892 37.74 79.2892 36.7C79.2892 35.6467 79.5292 34.7133 80.0092 33.9C80.4892 33.0867 81.1426 32.4533 81.9692 32C82.7959 31.5333 83.7426 31.3 84.8092 31.3C85.8626 31.3 86.8026 31.5333 87.6292 32C88.4692 32.4533 89.1226 33.0867 89.5892 33.9C90.0692 34.7 90.3092 35.6333 90.3092 36.7C90.3092 37.7533 90.0692 38.6867 89.5892 39.5C89.1226 40.3133 88.4692 40.9533 87.6292 41.42C86.8026 41.8867 85.8626 42.12 84.8092 42.12ZM84.8092 40.44C85.4892 40.44 86.0959 40.2867 86.6292 39.98C87.1759 39.6733 87.6026 39.24 87.9092 38.68C88.2159 38.1067 88.3692 37.4467 88.3692 36.7C88.3692 35.94 88.2159 35.2867 87.9092 34.74C87.6026 34.18 87.1759 33.7467 86.6292 33.44C86.0959 33.1333 85.4892 32.98 84.8092 32.98C84.1292 32.98 83.5226 33.1333 82.9892 33.44C82.4559 33.7467 82.0292 34.18 81.7092 34.74C81.3892 35.2867 81.2292 35.94 81.2292 36.7C81.2292 37.4467 81.3892 38.1067 81.7092 38.68C82.0292 39.24 82.4559 39.6733 82.9892 39.98C83.5226 40.2867 84.1292 40.44 84.8092 40.44ZM97.5045 42.12C96.4379 42.12 95.4912 41.8867 94.6645 41.42C93.8379 40.9533 93.1845 40.3133 92.7045 39.5C92.2245 38.6733 91.9845 37.74 91.9845 36.7C91.9845 35.6467 92.2245 34.7133 92.7045 33.9C93.1845 33.0867 93.8379 32.4533 94.6645 32C95.4912 31.5333 96.4379 31.3 97.5045 31.3C98.5579 31.3 99.4979 31.5333 100.325 32C101.165 32.4533 101.818 33.0867 102.285 33.9C102.765 34.7 103.005 35.6333 103.005 36.7C103.005 37.7533 102.765 38.6867 102.285 39.5C101.818 40.3133 101.165 40.9533 100.325 41.42C99.4979 41.8867 98.5579 42.12 97.5045 42.12ZM97.5045 40.44C98.1845 40.44 98.7912 40.2867 99.3245 39.98C99.8712 39.6733 100.298 39.24 100.605 38.68C100.911 38.1067 101.065 37.4467 101.065 36.7C101.065 35.94 100.911 35.2867 100.605 34.74C100.298 34.18 99.8712 33.7467 99.3245 33.44C98.7912 33.1333 98.1845 32.98 97.5045 32.98C96.8245 32.98 96.2179 33.1333 95.6845 33.44C95.1512 33.7467 94.7245 34.18 94.4045 34.74C94.0845 35.2867 93.9245 35.94 93.9245 36.7C93.9245 37.4467 94.0845 38.1067 94.4045 38.68C94.7245 39.24 95.1512 39.6733 95.6845 39.98C96.2179 40.2867 96.8245 40.44 97.5045 40.44ZM110.3 46C109.327 46 108.38 45.86 107.46 45.58C106.553 45.3133 105.813 44.9267 105.24 44.42L106.16 42.94C106.653 43.3667 107.26 43.7 107.98 43.94C108.7 44.1933 109.453 44.32 110.24 44.32C111.493 44.32 112.413 44.0267 113 43.44C113.587 42.8533 113.88 41.96 113.88 40.76V38.52L114.08 36.42L113.98 34.3V31.4H115.8V40.56C115.8 42.4267 115.333 43.8 114.4 44.68C113.467 45.56 112.1 46 110.3 46ZM110.06 41.56C109.033 41.56 108.113 41.3467 107.3 40.92C106.5 40.48 105.86 39.8733 105.38 39.1C104.913 38.3267 104.68 37.4333 104.68 36.42C104.68 35.3933 104.913 34.5 105.38 33.74C105.86 32.9667 106.5 32.3667 107.3 31.94C108.113 31.5133 109.033 31.3 110.06 31.3C110.967 31.3 111.793 31.4867 112.54 31.86C113.287 32.22 113.88 32.78 114.32 33.54C114.773 34.3 115 35.26 115 36.42C115 37.5667 114.773 38.52 114.32 39.28C113.88 40.04 113.287 40.6133 112.54 41C111.793 41.3733 110.967 41.56 110.06 41.56ZM110.28 39.88C110.987 39.88 111.613 39.7333 112.16 39.44C112.707 39.1467 113.133 38.74 113.44 38.22C113.76 37.7 113.92 37.1 113.92 36.42C113.92 35.74 113.76 35.14 113.44 34.62C113.133 34.1 112.707 33.7 112.16 33.42C111.613 33.1267 110.987 32.98 110.28 32.98C109.573 32.98 108.94 33.1267 108.38 33.42C107.833 33.7 107.4 34.1 107.08 34.62C106.773 35.14 106.62 35.74 106.62 36.42C106.62 37.1 106.773 37.7 107.08 38.22C107.4 38.74 107.833 39.1467 108.38 39.44C108.94 39.7333 109.573 39.88 110.28 39.88ZM119.468 42V27.16H121.388V42H119.468ZM129.774 42.12C128.641 42.12 127.641 41.8867 126.774 41.42C125.921 40.9533 125.254 40.3133 124.774 39.5C124.308 38.6867 124.074 37.7533 124.074 36.7C124.074 35.6467 124.301 34.7133 124.754 33.9C125.221 33.0867 125.854 32.4533 126.654 32C127.468 31.5333 128.381 31.3 129.394 31.3C130.421 31.3 131.328 31.5267 132.114 31.98C132.901 32.4333 133.514 33.0733 133.954 33.9C134.408 34.7133 134.634 35.6667 134.634 36.76C134.634 36.84 134.628 36.9333 134.614 37.04C134.614 37.1467 134.608 37.2467 134.594 37.34H125.574V35.96H133.594L132.814 36.44C132.828 35.76 132.688 35.1533 132.394 34.62C132.101 34.0867 131.694 33.6733 131.174 33.38C130.668 33.0733 130.074 32.92 129.394 32.92C128.728 32.92 128.134 33.0733 127.614 33.38C127.094 33.6733 126.688 34.0933 126.394 34.64C126.101 35.1733 125.954 35.7867 125.954 36.48V36.8C125.954 37.5067 126.114 38.14 126.434 38.7C126.768 39.2467 127.228 39.6733 127.814 39.98C128.401 40.2867 129.074 40.44 129.834 40.44C130.461 40.44 131.028 40.3333 131.534 40.12C132.054 39.9067 132.508 39.5867 132.894 39.16L133.954 40.4C133.474 40.96 132.874 41.3867 132.154 41.68C131.448 41.9733 130.654 42.12 129.774 42.12Z" fill="#2B7A78"/>
</svg>
