<svg width="36" height="36" viewBox="0 0 36 36" fill="none" xmlns="http://www.w3.org/2000/svg">
<rect x="0.5" y="0.5" width="35" height="35" rx="3.5" stroke="white"/>
<path d="M22.8108 20.0843C22.5497 19.9539 21.2652 19.3256 21.0261 19.2381C20.7861 19.1515 20.612 19.1086 20.437 19.3694C20.2638 19.6293 19.7627 20.2146 19.6106 20.3879C19.4585 20.562 19.3055 20.583 19.0444 20.4535C18.7833 20.3223 17.9411 20.0484 16.9432 19.1629C16.1669 18.4734 15.642 17.622 15.4899 17.3613C15.3378 17.1014 15.4741 16.9605 15.6042 16.831C15.722 16.7146 15.8662 16.5274 15.9963 16.376C16.1265 16.2246 16.1704 16.1153 16.2583 15.9411C16.3454 15.7679 16.3023 15.6165 16.2364 15.4861C16.1704 15.3558 15.6482 14.0756 15.431 13.555C15.2183 13.0484 15.0029 13.1175 14.8429 13.1088C14.6759 13.1022 14.5088 13.0993 14.3417 13.1C14.1677 13.1 13.8846 13.1648 13.6454 13.4255C13.4063 13.6854 12.7311 14.3145 12.7311 15.5946C12.7311 16.8739 13.6674 18.1103 13.7975 18.2844C13.9276 18.4585 15.6403 21.0844 18.2611 22.2105C18.8844 22.4783 19.3706 22.6384 19.7504 22.7574C20.3764 22.956 20.9461 22.928 21.3953 22.8606C21.8974 22.7863 22.9409 22.2315 23.159 21.6243C23.377 21.017 23.377 20.4964 23.3111 20.3879C23.246 20.2794 23.0728 20.2146 22.8108 20.0843ZM18.0439 26.5619H18.0404C16.4841 26.562 14.9563 26.1455 13.6173 25.3561L13.2999 25.1689L10.0109 26.0281L10.8883 22.8361L10.6817 22.5089C9.81173 21.1301 9.35149 19.5345 9.35418 17.9064C9.35506 13.1376 13.2542 9.2579 18.0474 9.2579C20.3685 9.2579 22.5506 10.1592 24.1911 11.7937C25.0007 12.5955 25.6425 13.5494 26.079 14.5998C26.5156 15.6503 26.7385 16.7766 26.7346 17.9134C26.7319 22.6821 22.8337 26.5619 18.0439 26.5619ZM25.4404 10.552C24.4716 9.58178 23.319 8.81245 22.0494 8.28857C20.7798 7.76469 19.4183 7.49667 18.0439 7.50003C12.2809 7.50003 7.59055 12.1681 7.58792 17.9055C7.58792 19.7395 8.06883 21.5298 8.98405 23.1074L7.5 28.5L13.0432 27.0528C14.5764 27.8833 16.294 28.3189 18.0395 28.3198H18.0439C23.806 28.3198 28.4973 23.6516 28.5 17.9134C28.5042 16.546 28.2361 15.1913 27.7109 13.9278C27.1857 12.6642 26.414 11.5168 25.4404 10.552Z" fill="white"/>
</svg>
