<svg width="37" height="37" viewBox="0 0 37 37" fill="none" xmlns="http://www.w3.org/2000/svg">
<rect x="1" y="1.13428" width="35" height="35" rx="3.5" stroke="white"/>
<path d="M23.3108 20.7185C23.0497 20.5882 21.7652 19.9599 21.5261 19.8724C21.2861 19.7858 21.112 19.7429 20.937 20.0037C20.7638 20.2635 20.2627 20.8489 20.1106 21.0222C19.9585 21.1963 19.8055 21.2173 19.5444 21.0878C19.2833 20.9565 18.4411 20.6827 17.4432 19.7972C16.6669 19.1077 16.142 18.2563 15.9899 17.9955C15.8378 17.7357 15.9741 17.5948 16.1042 17.4653C16.222 17.3489 16.3662 17.1617 16.4963 17.0103C16.6265 16.8589 16.6704 16.7495 16.7583 16.5754C16.8454 16.4022 16.8023 16.2508 16.7364 16.1204C16.6704 15.99 16.1482 14.7099 15.931 14.1893C15.7183 13.6827 15.5029 13.7518 15.3429 13.7431C15.1759 13.7365 15.0088 13.7336 14.8417 13.7343C14.6677 13.7343 14.3846 13.799 14.1454 14.0598C13.9063 14.3197 13.2311 14.9488 13.2311 16.2289C13.2311 17.5082 14.1674 18.7445 14.2975 18.9187C14.4276 19.0928 16.1403 21.7187 18.7611 22.8448C19.3844 23.1125 19.8706 23.2727 20.2504 23.3917C20.8764 23.5903 21.4461 23.5623 21.8953 23.4949C22.3974 23.4205 23.4409 22.8658 23.659 22.2585C23.877 21.6513 23.877 21.1307 23.8111 21.0222C23.746 20.9137 23.5728 20.8489 23.3108 20.7185ZM18.5439 27.1962H18.5404C16.9841 27.1963 15.4563 26.7798 14.1173 25.9904L13.7999 25.8032L10.5109 26.6624L11.3883 23.4704L11.1817 23.1432C10.3117 21.7644 9.85149 20.1688 9.85418 18.5407C9.85506 13.7719 13.7542 9.89218 18.5474 9.89218C20.8685 9.89218 23.0506 10.7934 24.6911 12.4279C25.5007 13.2298 26.1425 14.1836 26.579 15.2341C27.0156 16.2846 27.2385 17.4109 27.2346 18.5477C27.2319 23.3164 23.3337 27.1962 18.5439 27.1962ZM25.9404 11.1863C24.9716 10.2161 23.819 9.44673 22.5494 8.92285C21.2798 8.39897 19.9183 8.13095 18.5439 8.13431C12.7809 8.13431 8.09055 12.8024 8.08792 18.5398C8.08792 20.3738 8.56883 22.164 9.48405 23.7417L8 29.1343L13.5432 27.687C15.0764 28.5176 16.794 28.9531 18.5395 28.954H18.5439C24.306 28.954 28.9973 24.2859 29 18.5477C29.0042 17.1803 28.7361 15.8256 28.2109 14.562C27.6857 13.2985 26.914 12.1511 25.9404 11.1863Z" fill="white"/>
</svg>
