<svg width="162" height="160" viewBox="0 0 162 160" fill="none" xmlns="http://www.w3.org/2000/svg">
<path fill-rule="evenodd" clip-rule="evenodd" d="M72.0654 0.26837C63.2239 1.07089 54.4004 3.69651 45.2432 8.2503C25.556 18.039 9.98921 36.6776 4.05159 57.5695C-0.808419 74.6675 0.146161 93.7528 6.67299 110.012C13.7949 127.752 28.2207 143.425 45.3852 152.068C50.3049 154.546 58.7805 157.416 65.1236 158.751C72.8679 160.382 89.214 160.382 96.9584 158.751C130.08 151.777 154.886 125.815 160.207 92.5537C161.069 87.1631 161.295 79.1321 160.614 78.0619C160.395 77.7166 159.584 77.1944 158.811 76.9008C157.685 76.4721 157.156 76.5645 156.135 77.367C154.965 78.2873 154.814 78.9531 154.251 85.6557C152.32 108.604 140.689 128.344 121.505 141.228C116.621 144.509 107.104 148.911 101.632 150.421C94.9156 152.275 91.4115 152.842 84.4728 153.201C58.7446 154.531 34.2787 142.095 19.5567 120.203C14.5942 112.825 9.78013 100.541 8.48184 91.946C6.09011 76.1136 8.43062 61.0098 15.4458 47.01C32.4171 13.1409 73.7665 -2.36042 108.496 12.1267C114.781 14.7492 115.78 14.9112 117.155 13.5359C118.357 12.3337 118.565 10.811 117.738 9.26507C116.708 7.3406 105.569 3.05027 97.2435 1.37131C91.2921 0.171223 79.0447 -0.3652 72.0654 0.26837ZM48.3366 17.8251C47.2368 19.3948 47.2991 21.1878 48.495 22.3837C49.4501 23.3388 49.3651 23.4359 45.1951 26.1682C36.9466 31.5731 27.688 42.0708 23.0883 51.2338C19.2779 58.8251 16.3724 71.2093 16.3666 79.8823C16.3592 91.9202 20.4685 105.571 27.1004 115.539C45.3382 142.948 80.7654 152.451 109.942 137.758C125.093 130.129 136.925 116.36 142.326 100.072C144.28 94.1783 144.335 91.3204 142.521 89.9503C139.979 88.0311 137.965 89.7829 136.972 94.7786C136.326 98.0214 132.804 106.125 130.289 110.151C122.306 122.936 109.865 132.027 94.781 136.1C91.1939 137.069 89.0873 137.248 81.041 137.266C72.2486 137.286 71.1472 137.179 66.3263 135.835C55.988 132.952 47.5166 128.043 40.1292 120.656C32.7344 113.261 27.8179 104.771 24.9599 94.4592C23.65 89.7343 23.5138 88.4102 23.5033 80.2725C23.4959 74.5603 23.7477 70.241 24.1954 68.393C27.1542 56.1815 31.8801 47.538 40.0917 39.3195C43.9745 35.4336 49.6951 30.9068 50.7225 30.9068C50.8978 30.9068 51.3086 31.4944 51.6354 32.2119C52.3339 33.7441 54.3608 34.4036 55.8777 33.5921C56.4664 33.2769 57.941 30.9474 59.1559 28.4147C62.0281 22.4249 61.8617 21.8863 56.2235 18.9133C51.4015 16.3711 49.5351 16.1134 48.3366 17.8251ZM83.3324 31.9744C77.2 35.214 75.4951 44.6341 81.041 44.6341C83.032 44.6341 84.4728 43.1442 84.4728 41.0846C84.4728 38.1364 89.0504 36.592 91.0947 38.8507C93.7208 41.753 91.1733 46.9689 83.3086 54.7908C79.7437 58.3367 77.6091 60.8667 77.6091 61.5468C77.6091 62.1445 78.1926 63.2162 78.9053 63.929C80.1651 65.1893 80.419 65.2252 88.0736 65.2252C95.2382 65.2252 96.0709 65.127 97.3369 64.1307C98.2424 63.419 98.7281 62.5251 98.7281 61.5727C98.7281 59.3451 97.0592 58.1968 93.4421 57.9354L90.308 57.7084L92.6427 55.0395C93.9267 53.5717 95.7604 50.8078 96.7171 48.8981C98.2245 45.8907 98.4573 44.8913 98.4605 41.4278C98.4636 37.9236 98.2804 37.1517 96.9774 35.1823C96.0418 33.7689 94.6712 32.5641 93.2816 31.9326C90.3677 30.6101 85.8799 30.6285 83.3324 31.9744ZM107.409 31.6549C106.484 32.3302 106.367 33.2066 106.215 40.6178C106.046 48.7988 106.051 48.8374 107.379 50.1647C108.65 51.4361 108.994 51.4978 114.808 51.4978H120.903V57.0653C120.903 62.2733 120.987 62.7173 122.199 63.929C123.758 65.4886 124.61 65.5494 126.256 64.2168C127.405 63.288 127.517 62.7558 127.679 57.4698C127.853 51.7576 127.861 51.727 129.395 50.8468C130.631 50.1372 130.935 49.6013 130.935 48.1283C130.935 46.2603 129.838 44.6341 128.578 44.6341C128.051 44.6341 127.833 43.1352 127.687 38.516C127.473 31.7954 127.042 30.9068 124 30.9068C121.512 30.9068 120.903 32.4923 120.903 38.9669V44.6806L117.075 44.5254L113.247 44.3702L112.983 38.5086C112.81 34.6575 112.471 32.3487 111.995 31.7769C111.105 30.7088 108.789 30.6475 107.409 31.6549ZM140.784 31.8725C140.014 32.7235 139.911 34.6142 139.918 47.8437C139.923 56.0965 140.101 63.1106 140.314 63.4301C141.177 64.7226 143.03 65.288 144.266 64.6365C146.069 63.6877 146.229 63.193 146.238 58.5648C146.248 53.5738 147.322 51.4978 149.898 51.4978C152.519 51.4978 153.342 53.1055 153.638 58.8055C153.896 63.7812 153.935 63.9121 155.414 64.618C156.766 65.2643 157.074 65.2305 158.318 64.2991C159.679 63.2801 159.709 63.1244 159.709 57.2454C159.709 51.5026 159.642 51.1346 158.2 49.0095C156.117 45.9388 152.907 44.4325 149.118 44.7471L146.246 44.9852V38.7757C146.246 33.8344 146.076 32.3967 145.416 31.7362C144.296 30.6164 141.856 30.6877 140.784 31.8725ZM78.5405 69.9516C75.9613 70.7695 73.587 72.5514 72.5765 74.4278L71.5876 76.2641L57.9848 76.4204C46.0109 76.5582 44.2749 76.6844 43.4845 77.4753C42.1709 78.7905 42.3309 81.5497 43.7891 82.7307C44.8863 83.6188 46.1555 83.7049 58.2646 83.7085L71.5374 83.7122L72.6789 85.7122C73.3067 86.812 74.6731 88.171 75.7148 88.7322L77.6091 89.7523V107.319C77.6091 124.183 77.6514 124.929 78.6651 125.942C79.2459 126.523 80.315 126.998 81.041 126.998C81.7669 126.998 82.8361 126.523 83.4169 125.942C84.43 124.929 84.4728 124.179 84.477 107.331L84.4807 89.776L86.5335 88.6039C88.9548 87.2217 91.3365 82.9588 91.3365 80.0085C91.3365 76.9948 88.9659 72.8191 86.4015 71.3164C83.8947 69.8476 80.6471 69.2837 78.5405 69.9516ZM83.5071 77.7144C85.6169 79.6236 84.0726 83.1764 81.1328 83.1764C78.0664 83.1764 76.4983 79.999 78.4829 77.8063C79.5716 76.6031 82.2258 76.5545 83.5071 77.7144Z" fill="url(#paint0_linear_1_145)"/>
<defs>
<linearGradient id="paint0_linear_1_145" x1="0.987061" y1="0" x2="160.983" y2="102.431" gradientUnits="userSpaceOnUse">
<stop stop-color="#F06E04"/>
<stop offset="1" stop-color="#ED4E09"/>
</linearGradient>
</defs>
</svg>
