<svg width="349" height="190" viewBox="0 0 349 190" fill="none" xmlns="http://www.w3.org/2000/svg">
<path fill-rule="evenodd" clip-rule="evenodd" d="M118.563 0.40948C111.779 1.72653 107.25 4.02687 102.943 8.34434C98.424 12.8748 96.032 18.0729 95.1459 25.2893C94.9065 27.2358 94.7111 28.9747 94.7111 29.1531C94.7111 29.3315 99.1476 29.4772 104.57 29.4772H114.429L114.697 26.3369C114.982 23.0069 115.92 20.6731 117.573 19.1877C120.503 16.5532 124.694 16.011 127.57 17.8949C130.801 20.0102 131.496 24.0399 129.392 28.4413C127.318 32.7793 124.312 35.3457 106.532 47.9639L94.5 56.502V73.5459H150.648L150.881 60.8057H175.844L175.691 66.9669C175.501 74.6541 175.308 75.0676 168.775 81.7347C162.013 88.6378 160.146 92.6483 160.146 100.279C160.146 104.981 160.905 108.043 163.19 112.565C166.863 119.833 173.408 124.505 181.824 125.866C185.535 126.466 186.262 126.466 189.973 125.866C200.036 124.239 208.057 117.198 210.603 107.76C210.969 106.403 211.622 103.023 212.067 99.444C212.511 95.865 213.55 90.2259 213.55 90.2259C213.339 88.6644 213.396 87.6344 212.511 86.3249C210.834 83.8438 208.312 83.0133 205.169 83.9494C200.724 85.2727 198.447 88.665 196.689 96.5819C196.121 99.1429 195.384 101.882 195.051 102.669C194.223 104.631 192.094 106.943 190.37 107.752C188.439 108.659 184.838 108.594 182.655 107.613C178.407 105.705 176.866 99.4424 179.425 94.4921C179.799 93.7694 182.613 90.6408 185.679 87.5392C193.995 79.1282 194.764 77.4068 194.764 67.2042V60.8057H202.785V44.5462L194.975 44.306L194.756 0.237381L172.6 0.244482L146.004 43.8883L145.733 56.6285H134.154C127.785 56.6285 122.578 56.4874 122.583 56.3153C122.588 56.1432 123.395 55.4493 124.377 54.7735C131.348 49.9765 139.78 43.4013 142.627 40.5412C148.417 34.7254 150.932 29.3051 150.955 22.5921C150.991 11.8606 144.559 3.74199 133.761 0.891519C130.194 -0.0504217 122.233 -0.30272 118.563 0.40948ZM176.189 33.8632V44.5149H169.6C163.693 44.5149 163.039 44.4447 163.274 43.8365C163.582 43.0433 175.88 23.2116 176.064 23.2116C176.133 23.2116 176.189 28.0048 176.189 33.8632Z" fill="url(#paint0_linear_1_248)"/>
<path fill-rule="evenodd" clip-rule="evenodd" d="M202.152 23.6007C202.152 23.6007 202.152 36.5669 202.152 41.3535H232.539L231.046 43.9642C222.6 58.7299 217.047 86.4334 215.018 101.863C214.645 104.703 214.441 107.287 214.565 107.606C214.749 108.082 216.806 108.187 225.926 108.187C235.046 108.187 237.062 108.187 237.062 108.187C237.062 108.187 236.15 119.114 237.576 102.026C239.003 84.9389 244.416 56.1217 252.437 43.3251L254.5 40.0344V23.6007C240.259 23.6007 202.152 23.6007 202.152 23.6007Z" fill="url(#paint1_linear_1_248)"/>
<path d="M8.51872 166.138H26.655V172.919H8.51872V166.138ZM9.16452 181.637H29.6687V188.633H0.5V150.962H28.9691V157.958H9.16452V181.637Z" fill="url(#paint2_linear_1_248)"/>
<path d="M36.7108 188.633V150.962H54.255C58.6322 150.962 62.0405 151.805 64.4802 153.491C66.9199 155.177 68.1398 157.581 68.1398 160.702C68.1398 163.788 66.9917 166.192 64.6955 167.914C62.3993 169.6 59.3497 170.443 55.5467 170.443L56.5692 168.183C60.8028 168.183 64.0856 169.026 66.4177 170.712C68.7497 172.399 69.9158 174.838 69.9158 178.031C69.9158 181.332 68.66 183.933 66.1486 185.835C63.673 187.701 60.0493 188.633 55.2776 188.633H36.7108ZM45.3753 182.175H54.9547C56.9638 182.175 58.4886 181.781 59.5291 180.991C60.5696 180.202 61.0898 178.982 61.0898 177.332C61.0898 175.753 60.5696 174.587 59.5291 173.834C58.4886 173.044 56.9638 172.65 54.9547 172.65H45.3753V182.175ZM45.3753 166.568H53.5016C55.4031 166.568 56.8383 166.192 57.807 165.438C58.7757 164.649 59.26 163.501 59.26 161.994C59.26 160.487 58.7757 159.357 57.807 158.604C56.8383 157.814 55.4031 157.42 53.5016 157.42H45.3753V166.568Z" fill="url(#paint3_linear_1_248)"/>
<path d="M72.5591 188.633L89.3499 150.962H97.9606L114.805 188.633H105.656L91.8793 155.375H95.3236L81.4927 188.633H72.5591ZM80.9545 180.561L83.2686 173.941H102.643L105.011 180.561H80.9545Z" fill="url(#paint4_linear_1_248)"/>
<path d="M144.18 188.633L132.448 170.497L139.498 166.246L154.082 188.633H144.18ZM119.693 188.633V150.962H128.358V188.633H119.693ZM125.829 173.457V166.192H138.96V173.457H125.829ZM140.305 170.766L132.287 169.798L144.503 150.962H153.706L140.305 170.766Z" fill="url(#paint5_linear_1_248)"/>
<path d="M160.089 181.53C162.17 182.139 163.91 182.319 165.309 182.068C166.744 181.781 168.018 180.776 169.13 179.054L170.96 176.309L171.767 175.394L184.253 150.962H192.809L176.772 180.776C175.337 183.467 173.633 185.53 171.659 186.965C169.722 188.4 167.587 189.207 165.255 189.387C162.923 189.602 160.501 189.19 157.99 188.149L160.089 181.53ZM171.606 182.66L154.6 150.962H163.91L176.395 176.256L171.606 182.66Z" fill="url(#paint6_linear_1_248)"/>
<path d="M191.44 188.633L208.23 150.962H216.841L233.686 188.633H224.537L210.76 155.375H214.204L200.373 188.633H191.44ZM199.835 180.561L202.149 173.941H221.523L223.891 180.561H199.835Z" fill="url(#paint7_linear_1_248)"/>
<path d="M244.916 188.633V156.074L246.907 158.065H232.915V150.962H265.582V158.065H251.589L253.527 156.074V188.633H244.916Z" fill="url(#paint8_linear_1_248)"/>
<path d="M288.559 189.279C285.581 189.279 282.818 188.795 280.271 187.826C277.76 186.857 275.571 185.494 273.705 183.736C271.876 181.978 270.441 179.915 269.4 177.547C268.396 175.179 267.893 172.596 267.893 169.798C267.893 166.999 268.396 164.416 269.4 162.048C270.441 159.68 271.894 157.617 273.759 155.859C275.625 154.101 277.813 152.738 280.325 151.769C282.836 150.8 285.563 150.316 288.505 150.316C291.483 150.316 294.21 150.8 296.685 151.769C299.197 152.738 301.367 154.101 303.197 155.859C305.063 157.617 306.516 159.68 307.556 162.048C308.597 164.38 309.117 166.963 309.117 169.798C309.117 172.596 308.597 175.197 307.556 177.601C306.516 179.969 305.063 182.032 303.197 183.79C301.367 185.512 299.197 186.857 296.685 187.826C294.21 188.795 291.501 189.279 288.559 189.279ZM288.505 181.852C290.191 181.852 291.734 181.565 293.133 180.991C294.568 180.417 295.824 179.592 296.901 178.516C297.977 177.439 298.802 176.166 299.376 174.695C299.986 173.224 300.291 171.591 300.291 169.798C300.291 168.004 299.986 166.371 299.376 164.9C298.802 163.429 297.977 162.156 296.901 161.079C295.86 160.003 294.622 159.178 293.187 158.604C291.752 158.03 290.191 157.743 288.505 157.743C286.819 157.743 285.258 158.03 283.823 158.604C282.424 159.178 281.186 160.003 280.11 161.079C279.033 162.156 278.19 163.429 277.58 164.9C277.006 166.371 276.719 168.004 276.719 169.798C276.719 171.556 277.006 173.188 277.58 174.695C278.19 176.166 279.015 177.439 280.056 178.516C281.132 179.592 282.388 180.417 283.823 180.991C285.258 181.565 286.819 181.852 288.505 181.852Z" fill="url(#paint9_linear_1_248)"/>
<path d="M315.833 188.633V150.962H332.14C335.512 150.962 338.418 151.518 340.858 152.63C343.298 153.706 345.181 155.267 346.509 157.312C347.836 159.357 348.5 161.797 348.5 164.631C348.5 167.43 347.836 169.851 346.509 171.896C345.181 173.941 343.298 175.52 340.858 176.632C338.418 177.709 335.512 178.247 332.14 178.247H320.677L324.551 174.318V188.633H315.833ZM324.551 175.287L320.677 171.143H331.655C334.346 171.143 336.355 170.569 337.683 169.421C339.01 168.273 339.674 166.676 339.674 164.631C339.674 162.55 339.01 160.936 337.683 159.788C336.355 158.639 334.346 158.065 331.655 158.065H320.677L324.551 153.922V175.287Z" fill="url(#paint10_linear_1_248)"/>
<defs>
<linearGradient id="paint0_linear_1_248" x1="0.5" y1="0" x2="206.421" y2="242.093" gradientUnits="userSpaceOnUse">
<stop stop-color="#F06E04"/>
<stop offset="1" stop-color="#ED4E09"/>
</linearGradient>
<linearGradient id="paint1_linear_1_248" x1="0.5" y1="0" x2="206.421" y2="242.093" gradientUnits="userSpaceOnUse">
<stop stop-color="#F06E04"/>
<stop offset="1" stop-color="#ED4E09"/>
</linearGradient>
<linearGradient id="paint2_linear_1_248" x1="0.5" y1="0" x2="206.421" y2="242.093" gradientUnits="userSpaceOnUse">
<stop stop-color="#F06E04"/>
<stop offset="1" stop-color="#ED4E09"/>
</linearGradient>
<linearGradient id="paint3_linear_1_248" x1="0.5" y1="0" x2="206.421" y2="242.093" gradientUnits="userSpaceOnUse">
<stop stop-color="#F06E04"/>
<stop offset="1" stop-color="#ED4E09"/>
</linearGradient>
<linearGradient id="paint4_linear_1_248" x1="0.5" y1="0" x2="206.421" y2="242.093" gradientUnits="userSpaceOnUse">
<stop stop-color="#F06E04"/>
<stop offset="1" stop-color="#ED4E09"/>
</linearGradient>
<linearGradient id="paint5_linear_1_248" x1="0.5" y1="0" x2="206.421" y2="242.093" gradientUnits="userSpaceOnUse">
<stop stop-color="#F06E04"/>
<stop offset="1" stop-color="#ED4E09"/>
</linearGradient>
<linearGradient id="paint6_linear_1_248" x1="0.5" y1="0" x2="206.421" y2="242.093" gradientUnits="userSpaceOnUse">
<stop stop-color="#F06E04"/>
<stop offset="1" stop-color="#ED4E09"/>
</linearGradient>
<linearGradient id="paint7_linear_1_248" x1="0.5" y1="0" x2="206.421" y2="242.093" gradientUnits="userSpaceOnUse">
<stop stop-color="#F06E04"/>
<stop offset="1" stop-color="#ED4E09"/>
</linearGradient>
<linearGradient id="paint8_linear_1_248" x1="0.5" y1="0" x2="206.421" y2="242.093" gradientUnits="userSpaceOnUse">
<stop stop-color="#F06E04"/>
<stop offset="1" stop-color="#ED4E09"/>
</linearGradient>
<linearGradient id="paint9_linear_1_248" x1="0.5" y1="0" x2="206.421" y2="242.093" gradientUnits="userSpaceOnUse">
<stop stop-color="#F06E04"/>
<stop offset="1" stop-color="#ED4E09"/>
</linearGradient>
<linearGradient id="paint10_linear_1_248" x1="0.5" y1="0" x2="206.421" y2="242.093" gradientUnits="userSpaceOnUse">
<stop stop-color="#F06E04"/>
<stop offset="1" stop-color="#ED4E09"/>
</linearGradient>
</defs>
</svg>
