<svg width="121" height="25" viewBox="0 0 121 25" fill="none" xmlns="http://www.w3.org/2000/svg">
<path d="M12.5 2.4126L15.59 8.6726L22.5 9.6826L17.5 14.5526L18.68 21.4326L12.5 18.1826L6.32 21.4326L7.5 14.5526L2.5 9.6826L9.41 8.6726L12.5 2.4126Z" fill="#FBBC05" stroke="#FBBC05" stroke-width="2" stroke-linecap="round" stroke-linejoin="round"/>
<path d="M36.5 2.4126L39.59 8.6726L46.5 9.6826L41.5 14.5526L42.68 21.4326L36.5 18.1826L30.32 21.4326L31.5 14.5526L26.5 9.6826L33.41 8.6726L36.5 2.4126Z" fill="#FBBC05" stroke="#FBBC05" stroke-width="2" stroke-linecap="round" stroke-linejoin="round"/>
<path d="M60.5 2.4126L63.59 8.6726L70.5 9.6826L65.5 14.5526L66.68 21.4326L60.5 18.1826L54.32 21.4326L55.5 14.5526L50.5 9.6826L57.41 8.6726L60.5 2.4126Z" fill="#FBBC05" stroke="#FBBC05" stroke-width="2" stroke-linecap="round" stroke-linejoin="round"/>
<path d="M84.5 2.4126L87.59 8.6726L94.5 9.6826L89.5 14.5526L90.68 21.4326L84.5 18.1826L78.32 21.4326L79.5 14.5526L74.5 9.6826L81.41 8.6726L84.5 2.4126Z" fill="#FBBC05" stroke="#FBBC05" stroke-width="2" stroke-linecap="round" stroke-linejoin="round"/>
<path d="M108.5 2.4126L111.59 8.6726L118.5 9.6826L113.5 14.5526L114.68 21.4326L108.5 18.1826L102.32 21.4326L103.5 14.5526L98.5 9.6826L105.41 8.6726L108.5 2.4126Z" fill="#FBBC05" stroke="#FBBC05" stroke-width="2" stroke-linecap="round" stroke-linejoin="round"/>
</svg>
