<svg width="146" height="160" viewBox="0 0 146 160" fill="none" xmlns="http://www.w3.org/2000/svg">
<path fill-rule="evenodd" clip-rule="evenodd" d="M57.3053 0.682202C52.6371 3.17549 50.5493 8.65429 52.4954 13.3031C53.7921 16.4004 58.2187 19.3167 61.6367 19.3253C62.5501 19.3276 62.6448 19.5697 62.5842 21.7447L62.5164 24.1617L58.2528 25.2484C47.6462 27.9521 37.8683 33.4148 29.9052 41.087C19.6208 50.9952 13.1698 63.2878 10.8689 77.3612C6.7431 102.6 18.9883 128.68 41.1982 141.96C53.0805 149.064 67.7844 152.212 81.2206 150.527C93.1806 149.027 104.25 144.513 113.088 137.532C115.428 135.684 115.812 135.158 115.812 133.802C115.812 132.007 114.616 130.657 113.028 130.657C112.45 130.657 110.11 131.997 107.829 133.635C97.314 141.185 87.0348 144.507 74.123 144.528C64.1632 144.545 57.347 143.037 48.6861 138.904C38.4898 134.037 28.7748 124.723 23.2851 114.55C13.15 95.7679 14.2168 73.2188 26.0906 55.2522C33.3123 44.3254 44.1306 36.278 57.5469 31.8533C61.3733 30.5908 62.0915 30.5169 72.3172 30.3307C84.1829 30.1147 86.2588 30.3833 93.6207 33.0893C103.778 36.8233 112.732 43.3325 119.17 51.6622C125.346 59.6528 128.262 66.1208 130.704 77.2427C130.989 78.5413 130.981 78.5455 128.375 78.5455C125.196 78.5455 123.607 79.7394 124.022 81.8162C124.315 83.281 131.205 95.6371 132.51 97.0379C133.878 98.5061 135.933 98.2436 137.268 96.4292C139.87 92.8918 145.184 82.8423 145.184 81.4571C145.184 79.3954 143.725 78.5455 140.186 78.5455H137.294L136.712 75.3478C135.529 68.8561 132.059 59.794 128.58 54.1105L126.742 51.1075L128.739 49.1983C130.763 47.2622 131.627 46.8964 132.156 47.7525C132.704 48.6384 138.183 48.3034 139.859 47.2811C142.821 45.4747 144.218 41.7379 143.263 38.1664C142.822 36.5144 141.551 34.961 136.293 29.6471C132.755 26.0732 129.173 22.8219 128.332 22.4226C126.338 21.4765 123.242 21.4988 121.187 22.4742C117.588 24.1816 115.804 28.9156 117.358 32.634C118.046 34.2812 118.032 34.3338 116.424 36.0885C114.986 37.6571 114.689 37.7954 113.94 37.2449C105.52 31.0541 98.6926 27.6792 89.7564 25.2901L85.7297 24.2138L85.5875 21.8034L85.4454 19.3935L87.5266 19.0813C96.503 17.7349 99.416 6.33344 92.0328 1.44492L90.0644 0.141666L74.3954 0.0322331C60.7882 -0.0625148 58.5394 0.0227573 57.3053 0.682202ZM88.8355 6.93698C90.26 8.09054 90.279 10.4886 88.8753 11.8932C87.8605 12.9085 87.5247 12.935 74.5437 13.0425C63.7197 13.1321 61.0062 13.025 59.9279 12.4679C57.7762 11.3551 57.337 8.86558 58.9819 7.10042C59.9331 6.07904 60.1586 6.06341 73.8521 6.06341C86.6591 6.06341 87.8416 6.13258 88.8355 6.93698ZM79.2418 21.5784C79.1091 23.6439 79.0002 23.8234 77.913 23.7666C77.2616 23.7325 74.9696 23.6789 72.8203 23.6481L68.9119 23.5918V21.4599V19.3281H74.1491H79.3863L79.2418 21.5784ZM35.2764 25.0713C30.5438 28.0601 23.9256 33.5488 20.4081 37.4027C9.06206 49.8331 2.7798 64.1197 1.09708 81.3183C-0.128485 93.8435 2.69405 108.19 8.75318 120.235C15.5272 133.699 27.8449 145.885 41.6719 152.802C51.0496 157.493 59.9848 159.6 71.8529 159.92C79.0869 160.114 81.0766 159.999 86.3019 159.087C97.4059 157.148 105.269 153.973 115.101 147.458C122.918 142.28 131.586 133.203 136.486 125.067C138.272 122.1 138.465 120.728 137.249 119.64C134.946 117.582 133.115 118.529 130.024 123.378C123.418 133.742 114.148 141.934 102.784 147.45C97.7228 149.908 94.2162 151.094 87.7099 152.553C81.2713 153.995 67.1534 154.094 60.8583 152.74C50.8733 150.593 42.3749 146.831 33.9225 140.815C26.3403 135.42 17.6026 124.69 13.4683 115.699C8.50778 104.911 6.29211 92.7245 7.31633 81.8617C8.45283 69.8117 11.9737 59.7798 18.6231 49.6474C22.3661 43.9436 31.0564 35.3689 37.1226 31.3943C42.1854 28.0771 43.1149 27.0477 42.5767 25.3522C41.698 22.5832 39.3591 22.4932 35.2764 25.0713ZM131.625 33.9747C137.074 39.4819 137.627 40.1921 137.152 41.0808C136.126 42.9966 134.823 42.2353 128.787 36.1947C125.559 32.9647 122.918 30.0228 122.918 29.657C122.918 28.7678 123.878 27.8554 124.813 27.8554C125.23 27.8554 128.295 30.6088 131.625 33.9747ZM71.7543 34.014C70.9239 34.8445 70.8069 35.593 70.8069 40.067C70.8069 46.0461 71.3251 47.2787 73.8397 47.2787C76.5088 47.2787 76.9655 46.2678 76.9655 40.3593C76.9655 36.4315 76.7864 34.917 76.2279 34.1197C75.2894 32.7795 73.042 32.7264 71.7543 34.014ZM124.79 44.2061L123.125 45.8722L121.269 43.9716L119.413 42.0709L121.031 40.4019L122.649 38.7325L124.553 40.6364L126.457 42.5404L124.79 44.2061ZM47.2312 40.1902C46.6414 40.427 45.9398 41.1964 45.6726 41.8994C45.2647 42.9724 45.4244 43.6423 46.6642 46.0574C49.4038 51.3946 50.5161 52.7102 52.4239 52.8712C53.766 52.9844 54.299 52.7826 54.8916 51.9365C55.3071 51.3434 55.6472 50.5575 55.6472 50.1908C55.6472 48.8084 50.7947 40.7459 49.6483 40.2238C49.0149 39.9348 48.4535 39.7126 48.4004 39.7288C48.3474 39.7453 47.8215 39.9528 47.2312 40.1902ZM97.2392 41.0017C96.4063 41.9634 92.8935 48.0542 92.4378 49.3262C92.1185 50.2183 92.8206 51.9901 93.7358 52.6012C94.7672 53.29 96.7166 52.9428 97.6873 51.8977C99.1118 50.3637 102.533 43.9038 102.541 42.7332C102.556 40.4844 98.7603 39.2446 97.2392 41.0017ZM27.5332 59.5149C26.4947 60.6623 26.5374 62.7004 27.6227 63.7857C29.1908 65.3538 35.5796 68.597 37.1003 68.597C38.1577 68.597 38.7954 68.254 39.371 67.3762C40.7476 65.2742 39.8423 63.9681 35.0519 61.1446C30.5551 58.494 28.8009 58.1141 27.5332 59.5149ZM113.443 60.7599C111.489 61.9125 109.482 63.1495 108.982 63.509C107.777 64.3769 107.759 67.0796 108.954 67.9537C110.715 69.2408 112.945 68.5501 118.536 64.9838C120.747 63.5735 121.023 63.2167 121.023 61.7676C121.023 58.1018 118.516 57.7683 113.443 60.7599ZM71.9912 78.0202C69.4311 78.681 67.5073 79.962 66.2722 81.8281C64.861 83.9608 64.6217 84.0494 59.9104 84.174C55.84 84.282 55.0441 84.8586 55.2706 87.5357C55.4577 89.7428 56.8235 90.3734 61.4382 90.3819C64.9472 90.3885 65.1253 90.4426 65.7753 91.6918C67.8749 95.7271 73.3404 97.6813 77.5728 95.9095C79.1049 95.2681 82.6504 91.743 82.6504 90.8613C82.6504 90.5562 88.6147 90.389 99.4994 90.389C118.593 90.389 119.102 90.3018 119.121 87.0278C119.137 84.2716 119.026 84.255 100.373 84.219L83.3264 84.1859L81.6853 81.9934C79.1963 78.6673 75.4429 77.1291 71.9912 78.0202ZM26.0551 84.2304C21.033 84.4592 20.8368 84.509 20.1556 85.726C19.2593 87.3263 20.0106 89.2445 21.8 89.9248C23.5571 90.5927 31.0218 90.4899 32.434 89.7779C34.392 88.7911 34.3204 85.2381 32.3269 84.4298C31.7343 84.1901 28.9122 84.1001 26.0551 84.2304ZM76.099 85.0144C77.9812 86.718 76.4823 90.389 73.9047 90.389C72.5095 90.389 70.8069 88.7053 70.8069 87.3258C70.8069 86.7815 71.139 85.8624 71.5445 85.2835C72.4394 84.0059 74.8289 83.8647 76.099 85.0144ZM32.2227 107.681C30.1648 108.853 28.0912 110.166 27.6151 110.597C25.9674 112.088 26.7467 115.156 28.9113 115.699C29.8663 115.939 31.0658 115.497 34.139 113.772C38.9507 111.071 40.0138 110.137 40.0138 108.61C40.0138 107.148 38.4609 105.549 37.0416 105.549C36.4489 105.549 34.2802 106.508 32.2227 107.681ZM108.732 106.807C107.746 108.061 107.775 109.332 108.818 110.637C109.076 110.96 111.21 112.324 113.558 113.668C118.271 116.365 119.735 116.439 120.884 114.041C121.902 111.917 121.183 110.947 116.528 108.17C111.569 105.21 110.179 104.968 108.732 106.807ZM50.2854 122.248C48.5752 123.975 45.1245 131.015 45.4637 132.085C46.198 134.397 49.0935 135.272 50.5408 133.618C51.8739 132.095 55.6472 125.017 55.6472 124.041C55.6472 122.706 53.9948 121.182 52.5466 121.182C51.8834 121.182 50.8658 121.661 50.2854 122.248ZM93.4549 122.011C92.055 123.641 92.1394 124.444 94.1002 128.163C96.989 133.64 97.6518 134.447 99.2634 134.447C100.873 134.447 102.547 132.986 102.547 131.582C102.547 130.377 98.9257 123.691 97.4912 122.248C96.2244 120.973 94.4365 120.868 93.4549 122.011ZM71.8368 127.963C70.9149 128.945 70.8069 129.58 70.8069 134.017C70.8069 139.835 71.3412 141.079 73.8397 141.079C76.5197 141.079 76.9655 140.078 76.9655 134.054C76.9655 129.393 76.8523 128.649 76.018 127.814C74.7602 126.557 73.1031 126.616 71.8368 127.963Z" fill="url(#paint0_linear_1_152)"/>
<defs>
<linearGradient id="paint0_linear_1_152" x1="0.815918" y1="0" x2="153.426" y2="88.1279" gradientUnits="userSpaceOnUse">
<stop stop-color="#F06E04"/>
<stop offset="1" stop-color="#ED4E09"/>
</linearGradient>
</defs>
</svg>
