<svg width="52" height="33" viewBox="0 0 52 33" fill="none" xmlns="http://www.w3.org/2000/svg">
<g clip-path="url(#clip0_528_1289)">
<path d="M47.5134 0.133789L48.0426 0.13482C48.186 0.135851 48.3294 0.13743 48.4736 0.141426C48.7244 0.148321 49.0178 0.162144 49.2912 0.212023C49.529 0.255586 49.7283 0.321834 49.9196 0.420947C50.1085 0.51861 50.2816 0.646594 50.4327 0.800129C50.5844 0.954696 50.7103 1.13108 50.8076 1.3254C50.9044 1.51857 50.9691 1.72047 51.0117 1.96413C51.0606 2.23937 51.0741 2.5387 51.081 2.79548C51.0848 2.94041 51.0867 3.08534 51.0874 3.23372C51.0888 3.41316 51.0888 3.59251 51.0888 3.7723V28.363C51.0888 28.5428 51.0888 28.7218 51.0874 28.9051C51.0867 29.05 51.0848 29.195 51.0809 29.3401C51.0741 29.5965 51.0606 29.8957 51.0111 30.1742C50.9691 30.4145 50.9045 30.6164 50.8071 30.8106C50.7101 31.0044 50.5843 31.1806 50.4333 31.3342C50.2814 31.4889 50.1089 31.6165 49.9177 31.715C49.7278 31.8137 49.5288 31.8798 49.2934 31.923C49.0144 31.9735 48.7088 31.9875 48.4786 31.9938C48.3337 31.9971 48.1896 31.9991 48.0419 31.9998C47.866 32.0012 47.6894 32.0012 47.5134 32.0012H4.4873C4.48495 32.0012 4.48267 32.0012 4.4803 32.0012C4.30633 32.0012 4.13201 32.0012 3.95487 31.9998C3.81044 31.9991 3.66633 31.9972 3.527 31.9939C3.29153 31.9875 2.98567 31.9736 2.70894 31.9233C2.47154 31.8798 2.27252 31.8137 2.08012 31.7137C1.89079 31.616 1.71843 31.4886 1.5664 31.3336C1.41554 31.1804 1.29018 31.0047 1.19325 30.8106C1.09622 30.6167 1.03131 30.4141 0.988627 30.1709C0.939288 29.893 0.925735 29.595 0.918962 29.3404C0.915095 29.1946 0.91348 29.0488 0.912562 28.9039L0.911865 28.476L0.911897 28.363V3.7723L0.911865 3.65933L0.91253 3.23237C0.91348 3.08657 0.915095 2.9408 0.918962 2.79512C0.925735 2.54022 0.939288 2.24211 0.989035 1.96184C1.03134 1.72086 1.09622 1.51831 1.19376 1.32341C1.28992 1.13075 1.41551 0.954889 1.56716 0.800613C1.71821 0.646852 1.89113 0.519029 2.08167 0.420431C2.27201 0.321801 2.47141 0.255586 2.70881 0.212119C2.98234 0.162112 3.27592 0.148321 3.52734 0.141393C3.67066 0.13743 3.81398 0.135851 3.95623 0.134852L4.4873 0.133789H47.5134Z" fill="white" fill-opacity="0.1"/>
<path d="M14.1021 10.4802C14.5509 9.90902 14.8554 9.1421 14.7751 8.3584C14.1181 8.39164 13.3164 8.79942 12.8523 9.37104C12.4356 9.86055 12.0667 10.6596 12.1629 11.4104C12.9003 11.4755 13.6371 11.0354 14.1021 10.4802Z" fill="white"/>
<path d="M14.7666 11.5571C13.6956 11.4922 12.785 12.1756 12.2736 12.1756C11.7618 12.1756 10.9786 11.5898 10.1316 11.6056C9.02902 11.6221 8.006 12.2564 7.44651 13.2652C6.29573 15.2835 7.14282 18.2772 8.26189 19.9209C8.80533 20.7341 9.46027 21.6295 10.3233 21.5974C11.1386 21.5648 11.4582 21.0601 12.4494 21.0601C13.4398 21.0601 13.7277 21.5974 14.5908 21.5811C15.4859 21.5648 16.0455 20.7675 16.5889 19.9535C17.2123 19.0265 17.4675 18.1314 17.4836 18.0822C17.4675 18.066 15.7576 17.3985 15.7418 15.397C15.7256 13.7212 17.0842 12.9241 17.1482 12.8746C16.3809 11.72 15.1822 11.5898 14.7666 11.5571Z" fill="white"/>
<path d="M24.0917 9.28907C26.4195 9.28907 28.0403 10.9218 28.0403 13.2988C28.0403 15.6844 26.3861 17.3256 24.0333 17.3256H21.4561V21.496H19.594V9.28906H24.0917V9.28907ZM21.4561 15.7351H23.5927C25.2139 15.7351 26.1366 14.847 26.1366 13.3073C26.1366 11.7678 25.2139 10.888 23.601 10.888H21.4561V15.7351Z" fill="white"/>
<path d="M28.5269 18.9663C28.5269 17.4096 29.6991 16.4538 31.7776 16.3353L34.1718 16.1916V15.5064C34.1718 14.5166 33.5149 13.9245 32.4178 13.9245C31.3783 13.9245 30.7298 14.4319 30.5721 15.2272H28.8761C28.9759 13.6198 30.3225 12.4355 32.4842 12.4355C34.6041 12.4355 35.9591 13.5776 35.9591 15.3625V21.4956H34.2382V20.0321H34.1968C33.6897 21.0219 32.5839 21.6478 31.4367 21.6478C29.7241 21.6478 28.5269 20.565 28.5269 18.9663ZM34.1718 18.1627V17.4606L32.0185 17.5958C30.946 17.672 30.3392 18.1542 30.3392 18.9156C30.3392 19.6937 30.971 20.2013 31.9354 20.2013C33.1907 20.2013 34.1718 19.3215 34.1718 18.1627Z" fill="white"/>
<path d="M37.5839 24.7699V23.2894C37.7167 23.3232 38.0159 23.3232 38.1657 23.3232C38.997 23.3232 39.446 22.968 39.7202 22.0544C39.7202 22.0374 39.8783 21.513 39.8783 21.5045L36.7192 12.5967H38.6644L40.876 19.838H40.9091L43.1207 12.5967H45.0161L41.7404 21.9612C40.9924 24.1185 40.1278 24.8121 38.3154 24.8121C38.1657 24.8121 37.7167 24.7952 37.5839 24.7699Z" fill="white"/>
</g>
<defs>
<clipPath id="clip0_528_1289">
<rect width="50.2069" height="32" fill="white" transform="translate(0.896484 0.119141)"/>
</clipPath>
</defs>
</svg>
