<svg width="51" height="32" viewBox="0 0 51 32" fill="none" xmlns="http://www.w3.org/2000/svg">
<g clip-path="url(#clip0_706_1332)">
<path d="M47.4096 0.133789L47.9389 0.134802C48.0823 0.135816 48.2257 0.137367 48.3698 0.141294C48.6206 0.14807 48.914 0.161655 49.1875 0.210674C49.4252 0.253486 49.6246 0.318591 49.8159 0.415996C50.0048 0.511975 50.1778 0.637752 50.3289 0.78864C50.4806 0.940542 50.6066 1.11388 50.7038 1.30486C50.8007 1.4947 50.8654 1.69311 50.9079 1.93257C50.9568 2.20306 50.9703 2.49724 50.9772 2.74958C50.9811 2.89202 50.983 3.03445 50.9837 3.18027C50.985 3.35662 50.985 3.53287 50.985 3.70957V27.8763C50.985 28.053 50.985 28.2289 50.9836 28.4091C50.983 28.5515 50.9811 28.6939 50.9772 28.8366C50.9703 29.0885 50.9568 29.3826 50.9073 29.6563C50.8654 29.8924 50.8007 30.0909 50.7033 30.2817C50.6063 30.4722 50.4806 30.6453 50.3296 30.7963C50.1776 30.9483 50.0051 31.0737 49.814 31.1705C49.6241 31.2675 49.4251 31.3325 49.1897 31.3749C48.9107 31.4246 48.605 31.4383 48.3748 31.4445C48.23 31.4478 48.0858 31.4497 47.9382 31.4504C47.7622 31.4518 47.5856 31.4517 47.4096 31.4517H4.38354C4.38119 31.4517 4.37891 31.4517 4.37654 31.4517C4.20257 31.4517 4.02825 31.4517 3.85111 31.4504C3.70668 31.4497 3.56257 31.4478 3.42324 31.4446C3.18777 31.4383 2.88191 31.4246 2.60518 31.3752C2.36778 31.3325 2.16876 31.2675 1.97636 31.1693C1.78703 31.0732 1.61467 30.948 1.46264 30.7957C1.31178 30.6451 1.18642 30.4725 1.08949 30.2817C0.992465 30.0911 0.927549 29.892 0.884867 29.6531C0.835528 29.3799 0.821975 29.0871 0.815202 28.8368C0.811335 28.6935 0.80972 28.5503 0.808802 28.4078L0.808105 27.9873L0.808137 27.8763V3.70957L0.808105 3.59855L0.80877 3.17894C0.80972 3.03566 0.811335 2.8924 0.815202 2.74924C0.821975 2.49873 0.835528 2.20575 0.885275 1.93032C0.927581 1.69349 0.992464 1.49444 1.09 1.3029C1.18617 1.11356 1.31175 0.940732 1.4634 0.789116C1.61445 0.638006 1.78737 0.512387 1.97791 0.415489C2.16825 0.31856 2.36765 0.253486 2.60505 0.210769C2.87858 0.161623 3.17216 0.14807 3.42359 0.141262C3.56691 0.137367 3.71023 0.135816 3.85247 0.134834L4.38354 0.133789H47.4096Z" fill="white" fill-opacity="0.1"/>
<path d="M24.7401 15.8567V20.0452H23.4019V9.70215H26.9495C27.8487 9.70215 28.6154 9.99984 29.2426 10.5952C29.8839 11.1906 30.2045 11.9175 30.2045 12.776C30.2045 13.6552 29.8839 14.3821 29.2426 14.9706C28.6223 15.559 27.8556 15.8498 26.9495 15.8498H24.7401V15.8567ZM24.7401 10.976V14.5829H26.9774C27.5071 14.5829 27.9532 14.4029 28.3017 14.0498C28.6572 13.6967 28.8384 13.2675 28.8384 12.7829C28.8384 12.3052 28.6572 11.8829 28.3017 11.5298C27.9532 11.1629 27.5141 10.9829 26.9774 10.9829H24.7401V10.976Z" fill="white"/>
<path d="M33.7033 12.7344C34.693 12.7344 35.4737 12.9975 36.0452 13.5236C36.6167 14.0498 36.9025 14.7698 36.9025 15.6836V20.0451H35.627V19.062H35.5713C35.0206 19.872 34.2818 20.2736 33.3618 20.2736C32.5742 20.2736 31.919 20.0451 31.3893 19.5813C30.8596 19.1174 30.5947 18.5428 30.5947 17.8505C30.5947 17.1167 30.8735 16.5351 31.4311 16.1059C31.9887 15.6697 32.7345 15.4551 33.6615 15.4551C34.4561 15.4551 35.1112 15.6005 35.62 15.8913V15.5867C35.62 15.1228 35.4388 14.7351 35.0694 14.4098C34.7 14.0844 34.2679 13.9251 33.773 13.9251C33.0272 13.9251 32.4348 14.2367 32.0027 14.8667L30.8247 14.1328C31.4729 13.1982 32.4348 12.7344 33.7033 12.7344ZM31.9748 17.8713C31.9748 18.2174 32.1211 18.5082 32.4208 18.7367C32.7136 18.9651 33.0621 19.0828 33.4594 19.0828C34.0239 19.0828 34.5258 18.8751 34.9649 18.4597C35.404 18.0444 35.627 17.5597 35.627 16.999C35.2088 16.6736 34.6303 16.5074 33.8845 16.5074C33.3409 16.5074 32.8878 16.639 32.5254 16.8951C32.156 17.1651 31.9748 17.4905 31.9748 17.8713Z" fill="white"/>
<path d="M44.1792 12.9629L39.7184 23.1536H38.3384L39.9972 19.5883L37.0559 12.9629H38.5126L40.6315 18.0444H40.6594L42.7225 12.9629H44.1792Z" fill="white"/>
<path d="M19.417 15.0125C19.417 14.5791 19.3779 14.1644 19.3054 13.7656H13.696V16.0502L16.9266 16.0509C16.7956 16.8111 16.3739 17.4591 15.7278 17.8911V19.3733H17.6508C18.7736 18.3411 19.417 16.8152 19.417 15.0125Z" fill="#4285F4"/>
<path d="M15.7285 17.8904C15.1932 18.249 14.5039 18.4587 13.6975 18.4587C12.1397 18.4587 10.8182 17.4161 10.345 16.0107H8.36133V17.5394C9.34409 19.4764 11.364 20.8057 13.6975 20.8057C15.3103 20.8057 16.6653 20.2788 17.6515 19.3719L15.7285 17.8904Z" fill="#34A853"/>
<path d="M10.1581 14.8772C10.1581 14.4826 10.2243 14.1011 10.3449 13.7425V12.2139H8.36128C7.95493 13.0149 7.72632 13.919 7.72632 14.8772C7.72632 15.8353 7.95563 16.7395 8.36128 17.5405L10.3449 16.0119C10.2243 15.6532 10.1581 15.2718 10.1581 14.8772Z" fill="#FABB05"/>
<path d="M13.6975 11.2942C14.5778 11.2942 15.3661 11.5953 15.9885 12.1838L17.6927 10.4925C16.6576 9.53503 15.3082 8.94727 13.6975 8.94727C11.3647 8.94727 9.34409 10.2765 8.36133 12.2136L10.345 13.7422C10.8182 12.3368 12.1397 11.2942 13.6975 11.2942Z" fill="#E94235"/>
</g>
<defs>
<clipPath id="clip0_706_1332">
<rect width="50.2069" height="31.4483" fill="white" transform="translate(0.792969 0.119141)"/>
</clipPath>
</defs>
</svg>
