<svg width="183" height="71" viewBox="0 0 183 71" fill="none" xmlns="http://www.w3.org/2000/svg">
<path d="M10.6272 54.5919V51.1735C10.6356 50.1251 10.8524 49.0888 11.2649 48.125C11.665 47.1565 12.2523 46.2766 12.9932 45.5357C13.7341 44.7948 14.6141 44.2074 15.5825 43.8074C16.5464 43.395 17.5826 43.1782 18.631 43.1696H36.0928C36.7966 43.1663 37.4708 42.8861 37.9697 42.3897C38.4685 41.8932 38.7519 41.2203 38.7586 40.5166C38.7554 40.1811 38.6861 39.8495 38.5545 39.5408C38.2751 38.887 37.7543 38.3661 37.1004 38.0867C36.7814 37.9532 36.4386 37.8859 36.0928 37.889H7.94859C6.90226 37.8806 5.86809 37.6638 4.90649 37.2513C3.94238 36.8512 3.06654 36.2651 2.32899 35.5265C1.59144 34.7878 1.00665 33.9111 0.608012 32.9464C0.105717 31.7345 -0.0900037 30.4175 0.0381829 29.1119C0.166369 27.8064 0.614507 26.5526 1.34291 25.4615C2.07132 24.3705 3.05752 23.4759 4.21417 22.857C5.37083 22.2381 6.66226 21.9139 7.9741 21.9132H25.4423C25.7899 21.9136 26.1343 21.8464 26.4563 21.7155C26.7806 21.5812 27.0737 21.3815 27.3173 21.1288C27.5695 20.8867 27.7693 20.5953 27.9043 20.2728C28.0392 19.9502 28.1064 19.6034 28.1017 19.2538V15.8354H33.4078V19.2538C33.4001 20.3022 33.1833 21.3386 32.7701 22.3022C32.3688 23.2717 31.7804 24.1526 31.0384 24.8946C30.2965 25.6365 29.4156 26.2249 28.4461 26.6262C27.4823 27.0388 26.446 27.2556 25.3976 27.264H7.94859C7.58882 27.2464 7.22921 27.302 6.89159 27.4275C6.55396 27.5531 6.24536 27.7459 5.98449 27.9942C5.72363 28.2426 5.51594 28.5414 5.37403 28.8725C5.23212 29.2036 5.15895 29.56 5.15895 29.9202C5.15895 30.2804 5.23212 30.6369 5.37403 30.968C5.51594 31.299 5.72363 31.5978 5.98449 31.8462C6.24536 32.0946 6.55396 32.2874 6.89159 32.413C7.22921 32.5385 7.58882 32.5941 7.94859 32.5765H36.0928C38.2086 32.5816 40.2361 33.4256 41.7306 34.9234C42.4731 35.6625 43.0621 36.5411 43.4638 37.5086C43.8655 38.4762 44.0719 39.5136 44.0711 40.5612C44.0711 42.6761 43.2314 44.7044 41.7366 46.2005C40.2417 47.6965 38.214 48.5379 36.0992 48.5395H18.5991C18.2535 48.5385 17.9111 48.6057 17.5915 48.7372C17.2687 48.8777 16.9746 49.0766 16.7241 49.324C16.4761 49.5739 16.2771 49.8681 16.1374 50.1913C16.0098 50.5119 15.9448 50.854 15.9461 51.199V54.5919H10.6272Z" fill="#FC850F"/>
<path d="M66.7372 27.2385H52.6619C51.9582 27.2419 51.2844 27.5234 50.7874 28.0216C50.2904 28.5198 50.0105 29.1943 50.0089 29.898V40.5358C50.0105 41.2389 50.2906 41.9127 50.7878 42.4099C51.285 42.9071 51.9588 43.1871 52.6619 43.1888H80.8061C81.5092 43.1871 82.1831 42.9071 82.6803 42.4099C83.1774 41.9127 83.4575 41.2389 83.4592 40.5358H88.7845C88.7811 42.6507 87.9394 44.6781 86.4439 46.1736C84.9484 47.6691 82.9211 48.5107 80.8061 48.5141H52.6619C50.547 48.5107 48.5196 47.6691 47.0241 46.1736C45.5286 44.6781 44.687 42.6507 44.6836 40.5358V29.898C44.6853 27.7819 45.5262 25.7529 47.0219 24.2561C48.5175 22.7592 50.5459 21.9166 52.6619 21.9133H80.8061C82.9222 21.9166 84.9505 22.7592 86.4462 24.2561C87.9419 25.7529 88.7828 27.7819 88.7845 29.898H83.4592C83.4575 29.1943 83.1777 28.5198 82.6807 28.0216C82.1837 27.5234 81.5098 27.2419 80.8061 27.2385H66.7372Z" fill="#849DAA"/>
<path d="M111.82 27.2385H97.7511C97.0473 27.2435 96.3738 27.5253 95.8761 28.023C95.3784 28.5207 95.0966 29.1942 95.0916 29.898V40.5358C95.095 41.2395 95.3765 41.9133 95.8747 42.4103C96.3729 42.9073 97.0474 43.1872 97.7511 43.1888H125.889C126.593 43.1872 127.267 42.9073 127.765 42.4103C128.263 41.9133 128.545 41.2395 128.548 40.5358V38.7437H111.82V33.4184H133.899V40.5358C133.892 42.6508 133.049 44.6772 131.553 46.1721C130.056 47.6671 128.029 48.509 125.914 48.5141H97.7511C95.636 48.509 93.609 47.6671 92.1128 46.1721C90.6167 44.6772 89.7731 42.6508 89.7664 40.5358V29.898C89.7714 27.7819 90.6143 25.7538 92.1106 24.2575C93.6069 22.7612 95.6349 21.9183 97.7511 21.9133H125.889C128.009 21.9116 130.044 22.7515 131.546 24.2485C133.048 25.7456 133.894 27.7774 133.899 29.898H128.574C128.569 29.1942 128.287 28.5207 127.789 28.023C127.292 27.5253 126.618 27.2435 125.914 27.2385H111.82Z" fill="#849DAA"/>
<path d="M141.552 29.1072L141.705 27.8954C141.99 28.0192 142.284 28.1195 142.585 28.1952C142.863 28.2656 143.147 28.3041 143.433 28.31C143.721 28.3221 144.004 28.2367 144.237 28.0676C144.333 28.0007 144.411 27.912 144.465 27.8089C144.519 27.7057 144.548 27.5911 144.55 27.4745C144.555 27.3254 144.52 27.1776 144.448 27.0472C144.376 26.9284 144.281 26.8262 144.167 26.7475C144.024 26.6512 143.872 26.5679 143.714 26.4987L143.14 26.2245C142.834 26.0758 142.539 25.9031 142.26 25.7079C142.031 25.5489 141.846 25.3345 141.722 25.0847C141.599 24.8349 141.54 24.5578 141.552 24.2793C141.56 23.9902 141.62 23.7049 141.731 23.4375C141.861 23.1167 142.082 22.8416 142.368 22.6467C142.778 22.4018 143.251 22.2841 143.727 22.3087C144.404 22.2983 145.079 22.3995 145.723 22.6084L145.576 23.7309C145.094 23.5164 144.574 23.3994 144.046 23.3865C143.751 23.3568 143.457 23.4413 143.223 23.6225C143.154 23.687 143.098 23.7649 143.06 23.8515C143.022 23.9381 143.001 24.0316 143 24.1263C142.988 24.2453 143.004 24.3655 143.049 24.4766C143.093 24.5876 143.164 24.6863 143.255 24.764C143.457 24.9293 143.682 25.0626 143.925 25.1594C144.314 25.3169 144.693 25.498 145.06 25.7015C145.338 25.8571 145.576 26.0755 145.755 26.3393C145.958 26.6705 146.058 27.0545 146.042 27.4426C146.044 27.6987 145.995 27.9527 145.895 28.1888C145.784 28.432 145.623 28.6493 145.423 28.8265C145.179 29.0346 144.895 29.1908 144.588 29.2857C144.196 29.4099 143.787 29.4702 143.376 29.4643C142.754 29.4539 142.138 29.333 141.558 29.1072H141.552Z" fill="#849DAA"/>
<path d="M152.056 29.3814H150.704L149.007 24.3878L148.682 23.3865H148.657L148.676 24.4643V29.3814H147.254V22.3916H149.658L151.055 26.4541L151.361 27.6914H151.393L151.699 26.4541L153.102 22.3916H155.5V29.3814H154.078V24.4643L154.097 23.3865H154.071L153.752 24.3878L152.056 29.3814Z" fill="#849DAA"/>
<path d="M159.135 22.3915H160.755L163.529 29.4069H161.96L161.323 27.8125H158.44L157.847 29.3814H156.348L159.135 22.366V22.3915ZM158.906 26.6518H160.921L159.894 23.7946L158.925 26.6518H158.906Z" fill="#849DAA"/>
<path d="M164.677 22.3915H167.152C167.478 22.3606 167.808 22.3948 168.121 22.4922C168.434 22.5897 168.725 22.7484 168.976 22.9591C169.315 23.3242 169.498 23.8069 169.486 24.3048C169.499 24.5074 169.47 24.7105 169.401 24.9014C169.331 25.0924 169.224 25.267 169.084 25.4145C168.823 25.6743 168.493 25.8555 168.134 25.9375C168.298 25.9728 168.447 26.0574 168.561 26.1798C168.69 26.3273 168.794 26.4954 168.867 26.6773L170.003 29.3814H168.415L167.515 27.1683C167.446 26.9701 167.325 26.7939 167.165 26.6581C167.002 26.5511 166.81 26.4976 166.616 26.5051H166.08V29.3814H164.658V22.366L164.677 22.3915ZM166.1 23.4885V25.4018H166.858C167.023 25.4167 167.189 25.3966 167.345 25.3427C167.501 25.2888 167.644 25.2024 167.764 25.0892C167.933 24.9184 168.033 24.6914 168.045 24.4515C168.04 24.2161 167.952 23.9899 167.796 23.8137C167.67 23.7007 167.521 23.6161 167.359 23.5654C167.197 23.5148 167.027 23.4995 166.858 23.5204L166.1 23.4885Z" fill="#849DAA"/>
<path d="M170.768 22.3916H176.227V23.6288H174.205V29.3814H172.79V23.6288H170.768V22.3916Z" fill="#849DAA"/>
<path d="M146.846 37.2769L146.941 38.4695C146.358 38.6659 145.746 38.7671 145.13 38.7692C144.653 38.7713 144.18 38.6959 143.727 38.546C143.297 38.4 142.9 38.1702 142.56 37.87C142.216 37.5608 141.948 37.1768 141.775 36.7475C141.579 36.2662 141.483 35.7495 141.495 35.2297C141.488 34.7218 141.579 34.2174 141.763 33.7437C141.932 33.3073 142.198 32.9149 142.541 32.5957C142.895 32.2742 143.315 32.0327 143.772 31.8878C144.293 31.7099 144.841 31.6236 145.392 31.6327C145.918 31.6331 146.44 31.7149 146.941 31.8751L146.878 33.0741C146.435 32.8987 145.963 32.81 145.487 32.8126C145.045 32.8058 144.608 32.9041 144.212 33.0996C143.837 33.2786 143.525 33.5678 143.319 33.9287C143.101 34.3415 142.987 34.8012 142.987 35.2679C142.987 35.7347 143.101 36.1944 143.319 36.6072C143.532 36.9467 143.844 37.2136 144.212 37.3725C144.578 37.5312 144.973 37.6116 145.372 37.6085C145.874 37.6127 146.371 37.506 146.826 37.296L146.846 37.2769Z" fill="#849DAA"/>
<path d="M148.032 31.6964H149.454V37.5064H152.228V38.6862H148.032V31.6964Z" fill="#849DAA"/>
<path d="M153.127 38.6862V31.6964H154.55V38.6862H153.127Z" fill="#849DAA"/>
<path d="M160.742 38.6862H159.39L157.694 33.6926L157.375 32.6913H157.343L157.362 33.7755V38.6862H155.946V31.6964H158.344L159.741 35.7589L160.047 37.0025H160.079L160.391 35.7589L161.788 31.6964H164.186V38.6862H162.77V33.7755L162.789 32.6913H162.758L162.439 33.6926L160.742 38.6862Z" fill="#849DAA"/>
<path d="M167.821 31.6964H169.441L172.222 38.7117H170.621L170.028 37.1429H167.145L166.559 38.7117H165.034L167.821 31.6964ZM167.598 35.963H169.614L168.587 33.1059L167.624 35.963H167.598Z" fill="#849DAA"/>
<path d="M172.515 31.6964H177.974V32.9337H175.953V38.6862H174.537V32.9337H172.515V31.6964Z" fill="#849DAA"/>
<path d="M178.823 31.6964H183V32.9337H180.239V34.5153H182.745V35.6633H180.239V37.449H183V38.6862H178.823V31.6964Z" fill="#849DAA"/>
<path d="M147.407 41.2245L147.324 42.5C146.695 42.2237 146.015 42.0845 145.328 42.0918C144.882 42.0805 144.442 42.1883 144.052 42.4043C143.706 42.6099 143.428 42.9141 143.255 43.278C143.07 43.6771 142.98 44.1138 142.994 44.5536C142.986 44.9798 143.073 45.4023 143.249 45.7908C143.419 46.1438 143.686 46.4405 144.02 46.6454C144.409 46.8637 144.851 46.9697 145.296 46.9515C145.614 46.9623 145.932 46.9147 146.233 46.8112V45.0893H144.805V44.0051H147.649V47.7104C146.856 47.9452 146.034 48.0718 145.207 48.0867C144.512 48.1053 143.823 47.9496 143.204 47.6339C142.661 47.3462 142.216 46.9018 141.929 46.3584C141.675 45.823 141.533 45.2416 141.511 44.6496C141.489 44.0575 141.588 43.4672 141.801 42.9145C141.986 42.4807 142.27 42.0963 142.63 41.7921C142.992 41.501 143.408 41.2843 143.855 41.1543C144.347 41.01 144.859 40.9391 145.372 40.9439C146.067 40.9317 146.758 41.0329 147.42 41.2436L147.407 41.2245Z" fill="#849DAA"/>
<path d="M149.326 41.0014H151.801C152.129 40.9644 152.461 40.9945 152.776 41.0899C153.092 41.1852 153.385 41.3439 153.638 41.5562C153.976 41.9213 154.159 42.404 154.148 42.9019C154.161 43.1045 154.132 43.3076 154.062 43.4986C153.993 43.6895 153.886 43.8641 153.746 44.0116C153.487 44.2706 153.16 44.4498 152.802 44.5282C152.965 44.5699 153.113 44.656 153.229 44.7769C153.354 44.924 153.455 45.0897 153.529 45.268L154.671 47.9785H153.083L152.184 45.7591C152.112 45.5621 151.989 45.3881 151.826 45.2552C151.667 45.1479 151.477 45.0943 151.284 45.1022H150.742V47.9785H149.326V40.9631V41.0014ZM150.742 42.092V44.0052H151.501C151.666 44.0211 151.833 44.0021 151.99 43.9493C152.147 43.8966 152.291 43.8113 152.413 43.6991C152.579 43.527 152.677 43.3002 152.687 43.0613C152.683 42.826 152.594 42.6001 152.439 42.4236C152.315 42.3051 152.167 42.2143 152.005 42.1572C151.844 42.1 151.672 42.0778 151.501 42.092H150.742Z" fill="#849DAA"/>
<path d="M159.141 40.9248C159.756 40.912 160.364 41.0546 160.908 41.3394C161.428 41.6157 161.853 42.0425 162.126 42.5639C162.431 43.1547 162.582 43.8126 162.566 44.4771C162.58 45.1415 162.429 45.7989 162.126 46.3904C161.853 46.9118 161.428 47.3385 160.908 47.6149C160.36 47.8874 159.757 48.0291 159.145 48.0291C158.533 48.0291 157.929 47.8874 157.381 47.6149C156.86 47.3386 156.433 46.912 156.157 46.3904C155.866 45.7865 155.715 45.125 155.715 44.4548C155.715 43.7847 155.866 43.1231 156.157 42.5192C156.433 41.9976 156.86 41.571 157.381 41.2947C157.924 41.01 158.529 40.8673 159.141 40.8802V40.9248ZM159.141 41.9197C158.836 41.9211 158.535 41.9932 158.261 42.1302C157.927 42.2978 157.658 42.5714 157.496 42.9083C157.085 43.9314 157.085 45.0739 157.496 46.097C157.652 46.4315 157.911 46.7067 158.236 46.8815C158.509 47.0185 158.81 47.0905 159.116 47.0919C159.333 47.089 159.548 47.0524 159.754 46.9835C159.995 46.9078 160.214 46.7742 160.391 46.5945C160.614 46.3732 160.78 46.1021 160.876 45.8037C161.007 45.3915 161.07 44.9606 161.061 44.5282C161.088 43.9819 160.983 43.4373 160.755 42.9401C160.612 42.6015 160.363 42.3177 160.047 42.1302C159.771 41.9937 159.468 41.9217 159.161 41.9197H159.141Z" fill="#849DAA"/>
<path d="M169.55 41.0014V45.3381C169.567 45.8227 169.473 46.3047 169.275 46.7476C169.116 47.0827 168.872 47.3706 168.568 47.5831C168.287 47.7713 167.973 47.9035 167.643 47.9721C166.858 48.1367 166.044 48.1016 165.277 47.87C164.83 47.7258 164.442 47.4391 164.173 47.0537C163.837 46.5472 163.676 45.9448 163.714 45.3381V41.0014H165.149V45.3381C165.149 46.4287 165.647 46.9772 166.648 46.9772C167.649 46.9772 168.147 46.4287 168.147 45.3381V41.0014H169.55Z" fill="#849DAA"/>
<path d="M170.953 41.0014H173.019C174.046 41.0014 174.754 41.2373 175.13 41.7029C175.492 42.1144 175.695 42.6411 175.704 43.1889C175.705 43.5586 175.613 43.9226 175.436 44.2475C175.245 44.5907 174.96 44.8717 174.614 45.0575C174.203 45.274 173.744 45.3816 173.281 45.37H172.369V47.9976H170.953V40.9822V41.0014ZM172.369 44.2667H173.006C173.166 44.2778 173.327 44.2552 173.477 44.2003C173.628 44.1453 173.765 44.0593 173.88 43.9478C173.983 43.8429 174.064 43.7182 174.118 43.5812C174.172 43.4442 174.197 43.2977 174.193 43.1506C174.197 43.0134 174.174 42.8766 174.125 42.7484C174.075 42.6203 174.001 42.5033 173.906 42.4044C173.785 42.2939 173.643 42.2096 173.488 42.1569C173.333 42.1042 173.169 42.0842 173.006 42.0983H172.369V44.2667Z" fill="#849DAA"/>
<path d="M25.6845 53.7884C25.908 54.0537 26.0751 54.3619 26.1755 54.694C26.3014 55.0963 26.3617 55.5162 26.3541 55.9376C26.3596 56.3522 26.3016 56.7651 26.1819 57.1621C26.082 57.5015 25.9126 57.8164 25.6845 58.0869C25.4631 58.3361 25.1885 58.5323 24.8809 58.6608C24.5621 58.7862 24.2222 58.849 23.8796 58.8458C23.5301 58.8514 23.183 58.7863 22.8592 58.6545C22.5572 58.5288 22.2886 58.3345 22.0748 58.0869C21.8474 57.8183 21.678 57.5056 21.5773 57.1685C21.4572 56.7694 21.3991 56.3543 21.4051 55.9376C21.3964 55.5182 21.4567 55.1002 21.5837 54.7004C21.687 54.3662 21.8561 54.0561 22.0811 53.7884C22.2913 53.5396 22.5582 53.345 22.8592 53.2208C23.1832 53.0896 23.5301 53.0246 23.8796 53.0294C24.2319 53.0237 24.5815 53.0911 24.9064 53.2272C25.2046 53.3534 25.4706 53.5452 25.6845 53.7884ZM25.576 55.9376C25.5867 55.6075 25.5545 55.2774 25.4804 54.9555C25.4094 54.7018 25.295 54.4623 25.1424 54.2476C25.0009 54.064 24.8171 53.9173 24.6067 53.8203C24.3861 53.7216 24.1468 53.6716 23.9051 53.6736C23.6596 53.6669 23.4156 53.7148 23.1908 53.8139C22.9828 53.9149 22.8015 54.0635 22.6615 54.2476C22.4915 54.4584 22.3656 54.7013 22.2916 54.9618C22.2116 55.2808 22.173 55.6088 22.1768 55.9376C22.1371 56.5324 22.2988 57.1233 22.636 57.6149C22.7853 57.8086 22.9793 57.9632 23.2015 58.0654C23.4236 58.1676 23.6673 58.2143 23.9115 58.2017C24.1486 58.2092 24.3841 58.1599 24.5982 58.0578C24.8123 57.9557 24.9989 57.8039 25.1424 57.6149C25.4795 57.1233 25.6413 56.5324 25.6016 55.9376H25.576Z" fill="#647883"/>
<path d="M30.1808 55.1595H28.7459V58.7309H28.0443V55.1595H26.6094V54.5408H30.1808V55.1595Z" fill="#647883"/>
<path d="M34.1412 56.6392C34.1777 57.2276 33.996 57.8088 33.631 58.2718C33.4612 58.4621 33.2513 58.6123 33.0164 58.7116C32.7815 58.8109 32.5274 58.8567 32.2726 58.8458C32.0139 58.8581 31.7559 58.8111 31.5182 58.7083C31.2805 58.6055 31.0696 58.4496 30.9014 58.2527C30.5443 57.7933 30.3653 57.2202 30.3976 56.6392C30.3612 56.0497 30.5453 55.4677 30.9142 55.0065C31.0834 54.8151 31.293 54.6636 31.528 54.5633C31.763 54.4629 32.0173 54.416 32.2726 54.4261C32.528 54.4151 32.7827 54.4616 33.0178 54.562C33.2529 54.6624 33.4624 54.8143 33.631 55.0065C33.9955 55.4698 34.177 56.0508 34.1412 56.6392ZM33.4142 56.6392C33.4507 56.2178 33.3525 55.7957 33.1336 55.4338C33.0358 55.3051 32.9079 55.2023 32.7611 55.1344C32.6143 55.0666 32.4532 55.0358 32.2917 55.0448C32.1294 55.0359 31.9673 55.0667 31.8195 55.1344C31.6718 55.2022 31.5427 55.305 31.4435 55.4338C31.2507 55.8029 31.15 56.2132 31.15 56.6296C31.15 57.046 31.2507 57.4563 31.4435 57.8254C31.5406 57.9577 31.6688 58.0642 31.8167 58.1354C31.9646 58.2065 32.1277 58.2403 32.2917 58.2336C32.4544 58.2416 32.6165 58.2091 32.7634 58.139C32.9104 58.0689 33.0376 57.9633 33.1336 57.8318C33.3577 57.4762 33.4627 57.0585 33.4333 56.6392H33.4142Z" fill="#647883"/>
<path d="M38.1782 58.7309H37.4702V55.1595H35.5697V58.7309H34.8618V54.5408H38.1782V58.7309Z" fill="#647883"/>
<path d="M42.4449 58.731H41.737V55.134H40.2957C40.2957 55.3381 40.2957 55.5422 40.2957 55.7335C40.2957 55.9248 40.2957 56.097 40.2957 56.2501C40.2957 56.6391 40.251 56.9707 40.2128 57.2322C40.1917 57.4491 40.1468 57.663 40.0788 57.87C40.0379 58.0066 39.9755 58.1357 39.8939 58.2526C39.8302 58.3446 39.7576 58.4301 39.677 58.5077C39.594 58.5758 39.5017 58.6317 39.4028 58.6736C39.2967 58.7127 39.1843 58.7321 39.0712 58.731H38.7842V58.0932H38.8735C38.9326 58.1025 38.9929 58.1025 39.052 58.0932C39.1115 58.0774 39.1649 58.0441 39.2051 57.9975C39.3554 57.8161 39.4486 57.5942 39.473 57.3598C39.5431 56.9378 39.5857 56.5118 39.6005 56.0843C39.6005 55.8738 39.6005 55.6315 39.6005 55.3572C39.6005 55.083 39.6005 54.8088 39.6005 54.5536H42.4449V58.7437V58.731Z" fill="#647883"/>
<path d="M45.283 58.8203C44.998 58.8383 44.7124 58.7979 44.4436 58.7013C44.1749 58.6048 43.9288 58.4543 43.7205 58.2591C43.5262 58.0425 43.377 57.7894 43.2818 57.5146C43.1865 57.2397 43.147 56.9486 43.1656 56.6583C43.1335 56.0671 43.3273 55.4857 43.7077 55.032C43.8791 54.8277 44.0941 54.6643 44.3369 54.554C44.5797 54.4436 44.8441 54.389 45.1108 54.3943C45.3455 54.39 45.5789 54.4289 45.7995 54.5091C46.0018 54.5814 46.1834 54.7018 46.3289 54.8598C46.4861 55.0272 46.6037 55.2277 46.6733 55.4466C46.7619 55.7203 46.8029 56.0072 46.7944 56.2948V56.6774H43.8799C43.8535 57.0814 43.9863 57.4797 44.2498 57.7871C44.383 57.92 44.5427 58.0233 44.7185 58.0904C44.8944 58.1574 45.0823 58.1866 45.2702 58.1762C45.4247 58.1757 45.5786 58.1585 45.7294 58.1251C45.8677 58.092 46.0023 58.045 46.1312 57.9848C46.2446 57.9401 46.3535 57.8845 46.4564 57.819C46.5358 57.7756 46.6105 57.7243 46.6796 57.666H46.7179V58.4376L46.4118 58.5588C46.3036 58.6035 46.1929 58.6419 46.0802 58.6736L45.7039 58.7629C45.5638 58.7743 45.423 58.7743 45.283 58.7629V58.8203ZM46.112 56.1736C46.1085 56.0077 46.085 55.8428 46.0419 55.6825C46.0094 55.5549 45.9508 55.4355 45.8697 55.3318C45.7852 55.2273 45.6754 55.1461 45.5508 55.0958C45.399 55.0349 45.236 55.0067 45.0725 55.0129C44.907 55.0075 44.7421 55.0357 44.5878 55.0958C44.4549 55.1539 44.3338 55.2361 44.2307 55.3381C44.1283 55.4459 44.0462 55.5712 43.9883 55.708C43.9285 55.8567 43.8919 56.0138 43.8799 56.1736H46.112Z" fill="#647883"/>
<path d="M50.8185 58.7309H50.1106V56.8559H48.2101V58.7309H47.5022V54.5408H48.2101V56.2373H50.1106V54.5408H50.8185V58.7309Z" fill="#647883"/>
<path d="M55.1425 58.7309H54.4346V55.6059L52.4767 58.7309H51.8325V54.5408H52.5341V57.6148L54.4728 54.5408H55.1425V58.7309Z" fill="#647883"/>
<path d="M58.0063 58.8202C57.7223 58.8381 57.4377 58.7976 57.17 58.701C56.9024 58.6045 56.6574 58.454 56.4502 58.259C56.2559 58.0425 56.1068 57.7894 56.0115 57.5145C55.9162 57.2396 55.8767 56.9485 55.8953 56.6582C55.864 56.0682 56.0552 55.4878 56.4311 55.0319C56.6031 54.8283 56.8182 54.6654 57.0608 54.5551C57.3035 54.4448 57.5676 54.3899 57.8341 54.3942C58.071 54.3891 58.3067 54.428 58.5293 54.509C58.7296 54.5815 58.9091 54.702 59.0522 54.8597C59.2091 55.0285 59.3286 55.2284 59.403 55.4465C59.4885 55.7209 59.5295 56.0073 59.5242 56.2947V56.6774H56.5841C56.5697 56.8776 56.5949 57.0787 56.6584 57.2691C56.7219 57.4595 56.8223 57.6355 56.954 57.787C57.0868 57.9206 57.2464 58.0244 57.4223 58.0914C57.5983 58.1585 57.7865 58.1874 57.9744 58.1761C58.1267 58.1752 58.2785 58.1581 58.4272 58.1251C58.5658 58.1084 58.7025 58.0785 58.8354 58.0358C58.9476 57.9883 59.0563 57.9329 59.1607 57.87C59.2381 57.8266 59.3107 57.7753 59.3775 57.7169H59.4158V58.4886L59.1096 58.6098C59.0022 58.6564 58.8913 58.6948 58.778 58.7245L58.4081 58.8138C58.2659 58.8252 58.123 58.8252 57.9808 58.8138L58.0063 58.8202ZM58.8354 56.1735C58.8337 56.0079 58.8123 55.843 58.7716 55.6824C58.7338 55.5569 58.6756 55.4384 58.5994 55.3317C58.5136 55.2286 58.4043 55.1476 58.2806 55.0957C58.1263 55.0356 57.9614 55.0074 57.7959 55.0128C57.6324 55.0074 57.4696 55.0356 57.3175 55.0957C57.1818 55.1522 57.0584 55.2345 56.954 55.3381C56.8538 55.4474 56.7719 55.5724 56.7117 55.708C56.6541 55.857 56.6197 56.014 56.6096 56.1735H58.8354Z" fill="#647883"/>
<path d="M66.8006 58.731H65.8568L63.8797 56.1799H63.4141V58.731H62.668V53.1442H63.4141V55.6953C63.6641 55.699 63.9083 55.6205 64.1093 55.472C64.2989 55.3144 64.444 55.1099 64.5302 54.8789C64.5749 54.7705 64.6131 54.6621 64.6514 54.56L64.7343 54.3049C64.83 53.9575 65.0304 53.648 65.3083 53.4185C65.6002 53.2433 65.9377 53.1589 66.2777 53.1761H66.5073V53.8139H66.2968C66.0694 53.792 65.842 53.8557 65.659 53.9924C65.4964 54.1891 65.3808 54.4203 65.321 54.6685C65.2532 54.9304 65.1363 55.1771 64.9766 55.3955C64.8436 55.5525 64.689 55.6899 64.5175 55.8037L66.7815 58.7373L66.8006 58.731Z" fill="#647883"/>
<path d="M70.6847 56.6392C70.7211 57.2276 70.5395 57.8088 70.1745 58.2718C70.0047 58.4621 69.7948 58.6123 69.5598 58.7116C69.3249 58.8109 69.0709 58.8567 68.8161 58.8458C68.5574 58.8581 68.2993 58.8111 68.0617 58.7083C67.824 58.6055 67.613 58.4496 67.4449 58.2527C67.0903 57.7919 66.9116 57.2198 66.9411 56.6392C66.9046 56.0497 67.0887 55.4677 67.4576 55.0065C67.6268 54.8151 67.8365 54.6636 68.0715 54.5633C68.3064 54.4629 68.5608 54.416 68.8161 54.4261C69.0715 54.4151 69.3261 54.4616 69.5612 54.562C69.7963 54.6624 70.0059 54.8143 70.1745 55.0065C70.5389 55.4698 70.7205 56.0508 70.6847 56.6392ZM69.9576 56.6392C69.9885 56.2157 69.8835 55.7935 69.6579 55.4338C69.5601 55.3051 69.4322 55.2023 69.2854 55.1344C69.1387 55.0666 68.9775 55.0358 68.8161 55.0448C68.6538 55.0364 68.4919 55.0674 68.3442 55.1352C68.1965 55.2029 68.0674 55.3054 67.9678 55.4338C67.7751 55.8029 67.6744 56.2132 67.6744 56.6296C67.6744 57.046 67.7751 57.4563 67.9678 57.8254C68.0653 57.9573 68.1935 58.0635 68.3414 58.1346C68.4892 58.2057 68.6521 58.2397 68.8161 58.2336C68.9787 58.2416 69.1408 58.2091 69.2877 58.139C69.4347 58.0689 69.5619 57.9633 69.6579 57.8318C69.882 57.4762 69.987 57.0585 69.9576 56.6392Z" fill="#647883"/>
<path d="M74.7216 58.7309H74.0137V56.8559H72.1132V58.7309H71.4053V54.5408H72.1132V56.2373H74.0137V54.5408H74.7216V58.7309Z" fill="#647883"/>
<path d="M79.3324 59.7385H78.6947V58.7245H75.9268V59.7385H75.2891V58.1314H75.5633C75.8377 57.655 76.0357 57.1385 76.15 56.6008C76.3033 55.925 76.3782 55.2338 76.3733 54.5408H78.9243V58.1314H79.3388V59.7385H79.3324ZM78.21 58.1314V55.1339H77.0046C76.9794 55.7114 76.8917 56.2845 76.7431 56.8431C76.6338 57.2911 76.4597 57.7208 76.2266 58.1186L78.21 58.1314Z" fill="#647883"/>
<path d="M83.3378 58.7309H82.6299V55.6059L80.672 58.7309H80.0215V54.5408H80.7294V57.6148L82.6682 54.5408H83.3378V58.7309Z" fill="#647883"/>
<path d="M88.0572 59.7385H87.4067V58.7309H84.3518V54.5408H85.0597V58.1186H86.9347V54.5408H87.6426V58.1186H88.0572V59.7385Z" fill="#647883"/>
<path d="M92.0622 58.7309H91.3543V55.6059L89.3964 58.7309H88.7458V54.5408H89.4538V57.6148L91.3925 54.5408H92.0622V58.7309Z" fill="#647883"/>
<path d="M96.5267 56.6392C96.5631 57.2276 96.3815 57.8088 96.0165 58.2718C95.8467 58.4621 95.6368 58.6123 95.4019 58.7116C95.1669 58.8109 94.9129 58.8567 94.6581 58.8458C94.3994 58.8581 94.1414 58.8111 93.9037 58.7083C93.666 58.6055 93.4551 58.4496 93.2869 58.2527C92.9323 57.7919 92.7537 57.2198 92.7831 56.6392C92.7467 56.0497 92.9308 55.4677 93.2997 55.0065C93.4689 54.8151 93.6785 54.6636 93.9135 54.5633C94.1485 54.4629 94.4028 54.416 94.6581 54.4261C94.9135 54.4151 95.1682 54.4616 95.4033 54.562C95.6383 54.6624 95.8479 54.8143 96.0165 55.0065C96.381 55.4698 96.5625 56.0508 96.5267 56.6392ZM95.7997 56.6392C95.8305 56.2157 95.7255 55.7935 95.4999 55.4338C95.4021 55.3051 95.2743 55.2023 95.1275 55.1344C94.9807 55.0666 94.8195 55.0358 94.6581 55.0448C94.4958 55.0364 94.3339 55.0674 94.1863 55.1352C94.0386 55.2029 93.9094 55.3054 93.8099 55.4338C93.6171 55.8029 93.5164 56.2132 93.5164 56.6296C93.5164 57.046 93.6171 57.4563 93.8099 57.8254C93.9074 57.9573 94.0356 58.0635 94.1834 58.1346C94.3312 58.2057 94.4942 58.2397 94.6581 58.2336C94.8207 58.2416 94.9828 58.2091 95.1298 58.139C95.2767 58.0689 95.4039 57.9633 95.4999 57.8318C95.7241 57.4762 95.8291 57.0585 95.7997 56.6392Z" fill="#647883"/>
<path d="M100.564 58.7309H99.8557V56.8559H97.9552V58.7309H97.2473V54.5408H97.9552V56.2373H99.8557V54.5408H100.564V58.7309Z" fill="#647883"/>
<path d="M104.887 58.7309H104.179V55.6059L102.222 58.7309H101.577V54.5408H102.285V57.6148L104.218 54.5408H104.887V58.7309Z" fill="#647883"/>
<path d="M109.435 56.5244C109.465 57.1228 109.287 57.7131 108.931 58.1953C108.784 58.3948 108.592 58.5566 108.37 58.6675C108.148 58.7783 107.903 58.8351 107.655 58.833C107.468 58.835 107.281 58.8114 107.101 58.7629C106.928 58.7087 106.764 58.6338 106.61 58.5397V60.2935H105.902V54.5537H106.61V54.9937C106.784 54.8362 106.979 54.7032 107.19 54.5983C107.408 54.4909 107.648 54.4363 107.891 54.4389C108.112 54.4304 108.332 54.478 108.529 54.5773C108.726 54.6765 108.895 54.8242 109.02 55.0065C109.315 55.4605 109.458 55.9965 109.428 56.5371L109.435 56.5244ZM108.701 56.6009C108.722 56.2173 108.643 55.8349 108.472 55.4912C108.396 55.3625 108.287 55.2574 108.155 55.1876C108.023 55.1177 107.874 55.086 107.726 55.0958C107.525 55.0961 107.326 55.1419 107.145 55.2297C106.955 55.3217 106.777 55.4374 106.616 55.5741V57.9466C106.767 58.0215 106.925 58.0813 107.088 58.1251C107.236 58.1596 107.388 58.1768 107.541 58.1761C107.705 58.1846 107.869 58.1524 108.018 58.0823C108.167 58.0122 108.297 57.9065 108.395 57.7744C108.622 57.4267 108.729 57.0149 108.701 56.6009Z" fill="#647883"/>
<path d="M113.606 56.6391C113.642 57.2275 113.461 57.8087 113.096 58.2717C112.925 58.461 112.715 58.6105 112.48 58.7097C112.245 58.8088 111.992 58.8553 111.737 58.8457C111.478 58.8581 111.219 58.8111 110.98 58.7083C110.741 58.6056 110.529 58.4497 110.36 58.2526C110.007 57.791 109.831 57.219 109.862 56.6391C109.826 56.0496 110.01 55.4677 110.379 55.0064C110.554 54.8232 110.765 54.6773 110.999 54.5777C111.232 54.4781 111.483 54.4267 111.737 54.4267C111.991 54.4267 112.242 54.4781 112.476 54.5777C112.709 54.6773 112.92 54.8232 113.096 55.0064C113.46 55.4697 113.642 56.0507 113.606 56.6391ZM112.872 56.6391C112.905 56.2163 112.802 55.7942 112.579 55.4337C112.475 55.3113 112.345 55.213 112.199 55.1456C112.054 55.0782 111.895 55.0433 111.734 55.0433C111.573 55.0433 111.414 55.0782 111.269 55.1456C111.123 55.213 110.993 55.3113 110.889 55.4337C110.694 55.802 110.591 56.2126 110.591 56.6295C110.591 57.0464 110.694 57.457 110.889 57.8253C110.991 57.9517 111.119 58.0537 111.265 58.1238C111.412 58.1939 111.572 58.2302 111.734 58.2302C111.896 58.2302 112.056 58.1939 112.203 58.1238C112.349 58.0537 112.477 57.9517 112.579 57.8253C112.801 57.4688 112.903 57.0513 112.872 56.6327V56.6391Z" fill="#647883"/>
<path d="M117.617 57.4618C117.622 57.6476 117.58 57.8317 117.496 57.9975C117.421 58.1517 117.312 58.2869 117.177 58.3929C117.02 58.5194 116.837 58.6107 116.641 58.6607C116.422 58.7103 116.197 58.7338 115.972 58.7309H114.326V54.5408H115.863C116.089 54.5268 116.314 54.5268 116.539 54.5408C116.69 54.5574 116.836 54.6052 116.967 54.6811C117.104 54.7529 117.217 54.8639 117.292 55C117.366 55.146 117.404 55.3081 117.4 55.472C117.402 55.6633 117.344 55.8504 117.235 56.0077C117.124 56.1681 116.972 56.2959 116.795 56.3776C117.016 56.4321 117.216 56.5521 117.369 56.722C117.524 56.9148 117.605 57.1568 117.598 57.4044L117.617 57.4618ZM116.68 55.6186C116.683 55.5335 116.667 55.4487 116.635 55.3699C116.601 55.2988 116.545 55.2407 116.476 55.2041C116.381 55.1594 116.28 55.1313 116.176 55.1212H115.71H115.073V56.25H115.876C115.997 56.2603 116.119 56.2603 116.24 56.25C116.324 56.2263 116.406 56.1921 116.482 56.148C116.562 56.1028 116.623 56.0304 116.654 55.9439C116.692 55.8488 116.71 55.7466 116.705 55.6442L116.68 55.6186ZM116.897 57.4554C116.902 57.3372 116.88 57.2194 116.833 57.111C116.771 57.0071 116.677 56.9263 116.565 56.8814C116.477 56.8376 116.382 56.8095 116.284 56.7985H115.87H115.047V58.1633H115.685C115.88 58.1762 116.076 58.1762 116.272 58.1633C116.398 58.1473 116.519 58.1061 116.629 58.0421C116.724 57.9902 116.804 57.913 116.858 57.8189C116.907 57.7154 116.932 57.6018 116.928 57.4873L116.897 57.4554Z" fill="#647883"/>
<path d="M120.691 57.6977V56.537L120.054 56.6008C119.838 56.6175 119.625 56.6538 119.416 56.7092C119.241 56.7578 119.08 56.8499 118.95 56.9771C118.886 57.0411 118.837 57.118 118.805 57.2027C118.773 57.2874 118.76 57.3779 118.765 57.4681C118.759 57.5678 118.774 57.6677 118.809 57.7612C118.844 57.8547 118.899 57.9396 118.969 58.0102C119.135 58.1431 119.344 58.2091 119.556 58.1952C119.767 58.1972 119.975 58.1468 120.162 58.0485C120.343 57.9515 120.512 57.8338 120.666 57.6977H120.691ZM120.691 58.2845C120.634 58.3227 120.557 58.3865 120.462 58.463C120.375 58.5323 120.281 58.5922 120.181 58.6416C120.064 58.7023 119.943 58.7534 119.818 58.7947C119.659 58.8328 119.496 58.8499 119.333 58.8457C119.165 58.8465 118.998 58.814 118.842 58.75C118.691 58.6836 118.552 58.5907 118.434 58.4758C118.316 58.3536 118.224 58.2081 118.166 58.0485C118.097 57.8785 118.062 57.6964 118.064 57.5128C118.054 57.2536 118.118 56.9969 118.249 56.773C118.387 56.5575 118.587 56.3886 118.823 56.2883C119.088 56.1712 119.37 56.0959 119.658 56.0651C119.977 56.0226 120.321 55.9907 120.691 55.9694V55.8355C120.697 55.6975 120.671 55.56 120.615 55.4337C120.57 55.3342 120.497 55.2499 120.404 55.1914C120.303 55.1295 120.19 55.0903 120.073 55.0766C119.941 55.0668 119.809 55.0668 119.677 55.0766C119.484 55.0809 119.292 55.1044 119.103 55.1467C118.886 55.2028 118.672 55.2753 118.466 55.3635H118.427V54.6238C118.612 54.5737 118.8 54.5333 118.989 54.5026C119.226 54.4571 119.467 54.4336 119.709 54.4324C119.953 54.4292 120.197 54.4527 120.436 54.5026C120.628 54.5449 120.808 54.6275 120.966 54.7449C121.118 54.8608 121.237 55.0148 121.31 55.1914C121.388 55.3949 121.427 55.6112 121.425 55.8291V58.699H120.717V58.2526L120.691 58.2845Z" fill="#647883"/>
<path d="M125.698 58.7309H124.99V56.8559H123.096V58.7309H122.388V54.5408H123.096V56.2373H124.99V54.5408H125.698V58.7309Z" fill="#647883"/>
<path d="M130.028 58.7309H129.32V55.6059L127.362 58.7309H126.711V54.5408H127.419V57.6148L129.358 54.5408H130.028V58.7309Z" fill="#647883"/>
<path d="M132.866 58.8203C132.581 58.8383 132.295 58.7979 132.027 58.7013C131.758 58.6048 131.512 58.4543 131.303 58.2591C131.109 58.0425 130.96 57.7894 130.865 57.5146C130.77 57.2397 130.73 56.9486 130.749 56.6583C130.719 56.0674 130.913 55.487 131.291 55.032C131.462 54.8277 131.677 54.6643 131.92 54.554C132.163 54.4436 132.427 54.389 132.694 54.3943C132.931 54.3903 133.166 54.4292 133.389 54.5091C133.589 54.5816 133.769 54.702 133.912 54.8598C134.069 55.0272 134.187 55.2277 134.256 55.4466C134.345 55.7203 134.386 56.0072 134.377 56.2948V56.6774H131.469C131.441 57.0806 131.572 57.4788 131.833 57.7871C131.966 57.92 132.126 58.0233 132.302 58.0904C132.477 58.1574 132.665 58.1866 132.853 58.1762C133.008 58.1757 133.162 58.1585 133.312 58.1251C133.453 58.092 133.589 58.045 133.721 57.9848C133.831 57.9389 133.938 57.8834 134.039 57.819C134.119 57.7756 134.194 57.7243 134.263 57.666H134.301V58.4376L133.995 58.5588C133.887 58.6035 133.776 58.6419 133.663 58.6736L133.287 58.7629C133.147 58.7743 133.006 58.7743 132.866 58.7629V58.8203ZM133.695 56.1736C133.695 56.0074 133.671 55.8421 133.625 55.6825C133.592 55.5549 133.534 55.4355 133.453 55.3318C133.368 55.2273 133.258 55.1461 133.134 55.0958C132.982 55.0349 132.819 55.0067 132.656 55.0129C132.49 55.0075 132.325 55.0357 132.171 55.0958C132.038 55.1539 131.917 55.2361 131.814 55.3381C131.711 55.4459 131.629 55.5712 131.571 55.708C131.511 55.8562 131.476 56.0137 131.469 56.1736H133.695Z" fill="#647883"/>
<path d="M24.7917 8.53312C24.7917 4.96168 28.4397 2.49357 30.7611 -6.10352e-05C32.9168 2.30862 36.7369 5.25505 36.7369 8.53312C36.6863 10.0834 36.0348 11.5532 34.9203 12.6319C33.8057 13.7106 32.3154 14.3137 30.7643 14.3137C29.2133 14.3137 27.723 13.7106 26.6084 12.6319C25.4939 11.5532 24.8424 10.0834 24.7917 8.53312ZM27.0175 9.69384C27.0574 10.6608 27.4696 11.5749 28.1679 12.245C28.8662 12.9151 29.7965 13.2892 30.7643 13.2892C31.7321 13.2892 32.6625 12.9151 33.3608 12.245C34.0591 11.5749 34.4713 10.6608 34.5112 9.69384C34.5112 7.64026 32.1132 5.79077 30.7611 4.34306C29.3071 5.90556 27.0175 7.45531 27.0175 9.69384Z" fill="#849DAA"/>
<path fill-rule="evenodd" clip-rule="evenodd" d="M25.6462 8.85196C25.6462 10.2093 26.1855 11.5111 27.1453 12.4709C28.1051 13.4307 29.4069 13.97 30.7642 13.97C32.1216 13.97 33.4234 13.4307 34.3832 12.4709C35.343 11.5111 35.8822 10.2093 35.8822 8.85196C35.8822 6.04584 32.6042 3.52032 30.7802 1.54327C28.7904 3.67976 25.6781 5.79711 25.6781 8.85196H25.6462ZM27.0174 9.6938C27.0573 10.6608 27.4695 11.5749 28.1678 12.245C28.8661 12.915 29.7964 13.2892 30.7642 13.2892C31.732 13.2892 32.6624 12.915 33.3607 12.245C34.059 11.5749 34.4712 10.6608 34.5111 9.6938C34.5111 7.64023 32.1131 5.79073 30.761 4.34302C29.307 5.90553 27.0174 7.45528 27.0174 9.6938Z" fill="#F58220"/>
<path d="M7.31079 64.458C7.31079 60.8866 10.9588 58.4185 13.2802 55.9249C15.4358 58.2335 19.256 61.18 19.256 64.458C19.2053 66.0083 18.5539 67.4781 17.4393 68.5568C16.3248 69.6355 14.8345 70.2386 13.2834 70.2386C11.7323 70.2386 10.242 69.6355 9.12745 68.5568C8.01291 67.4781 7.36146 66.0083 7.31079 64.458ZM9.53656 62.3407C9.51572 62.8457 9.5972 63.3498 9.7761 63.8225C9.955 64.2953 10.2276 64.727 10.5776 65.0917C10.9276 65.4564 11.3477 65.7466 11.8127 65.9449C12.2776 66.1431 12.7779 66.2453 13.2834 66.2453C13.7889 66.2453 14.2891 66.1431 14.7541 65.9449C15.2191 65.7466 15.6392 65.4564 15.9891 65.0917C16.3391 64.727 16.6118 64.2953 16.7907 63.8225C16.9696 63.3498 17.051 62.8457 17.0302 62.3407C17.0302 60.2871 14.6322 58.4376 13.2802 56.9899C11.8261 58.5524 9.53656 60.1022 9.53656 62.3407Z" fill="#849DAA"/>
<path fill-rule="evenodd" clip-rule="evenodd" d="M8.16528 63.7755C8.16528 65.1287 8.70282 66.4264 9.65964 67.3832C10.6165 68.3401 11.9142 68.8776 13.2673 68.8776C14.6205 68.8776 15.9182 68.3401 16.875 67.3832C17.8319 66.4264 18.3694 65.1287 18.3694 63.7755C18.3694 60.9694 15.0913 58.4439 13.2673 56.4669C11.2775 58.597 8.16528 60.7143 8.16528 63.7755ZM9.53646 62.3406C9.51562 62.8456 9.5971 63.3497 9.776 63.8224C9.9549 64.2952 10.2275 64.7269 10.5775 65.0916C10.9275 65.4563 11.3476 65.7465 11.8126 65.9448C12.2775 66.143 12.7778 66.2452 13.2833 66.2452C13.7888 66.2452 14.289 66.143 14.754 65.9448C15.219 65.7465 15.6391 65.4563 15.989 65.0916C16.339 64.7269 16.6117 64.2952 16.7906 63.8224C16.9695 63.3497 17.0509 62.8456 17.0301 62.3406C17.0301 60.287 14.6321 58.4375 13.2801 56.9898C11.826 58.5523 9.53646 60.1021 9.53646 62.3406Z" fill="#01BEF8"/>
</svg>
