<svg width="47" height="33" viewBox="0 0 47 33" fill="none" xmlns="http://www.w3.org/2000/svg">
<rect x="0.448242" y="0.119141" width="46.3448" height="32" rx="2.2069" fill="white" fill-opacity="0.1"/>
<path fill-rule="evenodd" clip-rule="evenodd" d="M17.4271 24.8335V26.015V27.1964H16.9099V26.9096C16.7458 27.1223 16.4969 27.2559 16.1585 27.2559C15.4915 27.2559 14.9686 26.737 14.9686 26.015C14.9686 25.2935 15.4915 24.774 16.1585 24.774C16.4969 24.774 16.7458 24.9076 16.9099 25.1203V24.8335H17.4271ZM16.2229 25.2584C15.7752 25.2584 15.5012 25.5996 15.5012 26.0149C15.5012 26.4303 15.7752 26.7715 16.2229 26.7715C16.6507 26.7715 16.9395 26.445 16.9395 26.0149C16.9395 25.5849 16.6507 25.2584 16.2229 25.2584ZM34.9053 26.0149C34.9053 25.5996 35.1793 25.2584 35.627 25.2584C36.0553 25.2584 36.3436 25.5849 36.3436 26.0149C36.3436 26.445 36.0553 26.7715 35.627 26.7715C35.1793 26.7715 34.9053 26.4303 34.9053 26.0149ZM36.8317 23.8845V26.015V27.1964H36.314V26.9096C36.1499 27.1223 35.901 27.2559 35.5626 27.2559C34.8956 27.2559 34.3727 26.737 34.3727 26.015C34.3727 25.2935 34.8956 24.774 35.5626 24.774C35.901 24.774 36.1499 24.9076 36.314 25.1203V23.8845H36.8317ZM23.8474 25.2334C24.1806 25.2334 24.3948 25.4411 24.4495 25.8066H23.2151C23.2703 25.4654 23.4788 25.2334 23.8474 25.2334ZM22.6728 26.015C22.6728 25.2782 23.1604 24.774 23.8576 24.774C24.5241 24.774 24.982 25.2782 24.9872 26.015C24.9872 26.084 24.982 26.1485 24.9769 26.2124H23.2105C23.2851 26.638 23.5887 26.7913 23.922 26.7913C24.1606 26.7913 24.4147 26.7019 24.6141 26.544L24.8675 26.9248C24.5788 27.167 24.2506 27.2559 23.8924 27.2559C23.1803 27.2559 22.6728 26.7664 22.6728 26.015ZM30.1027 26.0149C30.1027 25.5996 30.3767 25.2584 30.8245 25.2584C31.2522 25.2584 31.541 25.5849 31.541 26.0149C31.541 26.445 31.2522 26.7715 30.8245 26.7715C30.3767 26.7715 30.1027 26.4303 30.1027 26.0149ZM32.0289 24.8335V26.015V27.1964H31.5117V26.9096C31.3471 27.1223 31.0987 27.2559 30.7604 27.2559C30.0933 27.2559 29.5704 26.737 29.5704 26.015C29.5704 25.2935 30.0933 24.774 30.7604 24.774C31.0987 24.774 31.3471 24.9076 31.5117 25.1203V24.8335H32.0289ZM27.182 26.015C27.182 26.7319 27.6844 27.2559 28.4511 27.2559C28.8094 27.2559 29.048 27.1766 29.3066 26.9741L29.0583 26.5587C28.864 26.6974 28.6601 26.7715 28.4357 26.7715C28.0227 26.7664 27.7191 26.4699 27.7191 26.015C27.7191 25.56 28.0227 25.2635 28.4357 25.2584C28.6601 25.2584 28.864 25.3325 29.0583 25.4712L29.3066 25.0558C29.048 24.8533 28.8094 24.774 28.4511 24.774C27.6844 24.774 27.182 25.298 27.182 26.015ZM33.2231 25.1202C33.3575 24.9125 33.5518 24.7739 33.8503 24.7739C33.9551 24.7739 34.1043 24.7937 34.2188 24.8384L34.0593 25.3228C33.9499 25.2781 33.8406 25.2633 33.7358 25.2633C33.3974 25.2633 33.2282 25.4806 33.2282 25.8716V27.1963H32.7104V24.8333H33.2231V25.1202ZM19.9853 25.0213C19.7363 24.8584 19.3934 24.774 19.0152 24.774C18.4125 24.774 18.0246 25.0609 18.0246 25.5306C18.0246 25.9159 18.3134 26.1536 18.8454 26.2277L19.0898 26.2622C19.3735 26.3018 19.5073 26.376 19.5073 26.5095C19.5073 26.6923 19.3182 26.7964 18.9651 26.7964C18.6068 26.7964 18.3482 26.6827 18.1739 26.5491L17.9301 26.9492C18.2137 27.1568 18.572 27.2559 18.9599 27.2559C19.6469 27.2559 20.0451 26.9345 20.0451 26.4846C20.0451 26.0693 19.7318 25.852 19.214 25.7779L18.9702 25.7428C18.7463 25.7134 18.5669 25.6692 18.5669 25.5108C18.5669 25.3376 18.7361 25.2341 19.0198 25.2341C19.3234 25.2341 19.6173 25.3478 19.7614 25.4367L19.9853 25.0213ZM26.0324 25.1202C26.1663 24.9125 26.3605 24.7739 26.659 24.7739C26.7638 24.7739 26.9131 24.7937 27.0276 24.8384L26.8681 25.3228C26.7587 25.2781 26.6493 25.2633 26.5445 25.2633C26.2062 25.2633 26.037 25.4806 26.037 25.8716V27.1963H25.5198V24.8333H26.0324V25.1202ZM22.245 24.8335H21.3991V24.1165H20.8762V24.8335H20.3937V25.3031H20.8762V26.3811C20.8762 26.9294 21.0903 27.2559 21.7021 27.2559C21.9266 27.2559 22.1852 27.1868 22.3492 27.0731L22.2 26.6329C22.0456 26.7217 21.8764 26.7664 21.742 26.7664C21.4834 26.7664 21.3991 26.608 21.3991 26.3709V25.3031H22.245V24.8335ZM14.5111 25.7132V27.1963H13.9882V25.8813C13.9882 25.4806 13.819 25.2583 13.4659 25.2583C13.1224 25.2583 12.8837 25.4761 12.8837 25.8863V27.1963H12.3608V25.8813C12.3608 25.4806 12.1871 25.2583 11.8436 25.2583C11.4899 25.2583 11.2609 25.4761 11.2609 25.8863V27.1963H10.7385V24.8333H11.2563V25.1247C11.4506 24.848 11.6989 24.7739 11.953 24.7739C12.3164 24.7739 12.575 24.9323 12.739 25.1943C12.9583 24.8627 13.2716 24.7688 13.5752 24.7739C14.1528 24.779 14.5111 25.1547 14.5111 25.7132Z" fill="white"/>
<path d="M27.6529 20.8169H19.8137V6.82227H27.6529V20.8169Z" fill="#FF5F00"/>
<path d="M20.311 13.8205C20.311 10.9816 21.649 8.4528 23.7327 6.82315C22.209 5.63147 20.2859 4.9202 18.196 4.9202C13.2483 4.9202 9.23755 8.90491 9.23755 13.8205C9.23755 18.736 13.2483 22.7207 18.196 22.7207C20.2859 22.7207 22.209 22.0094 23.7327 20.8178C21.649 19.1881 20.311 16.6593 20.311 13.8205Z" fill="#EB001B"/>
<path d="M38.2284 13.8205C38.2284 18.736 34.2177 22.7207 29.27 22.7207C27.18 22.7207 25.257 22.0094 23.7327 20.8178C25.8169 19.1881 27.155 16.6593 27.155 13.8205C27.155 10.9816 25.8169 8.4528 23.7327 6.82315C25.257 5.63147 27.18 4.9202 29.27 4.9202C34.2177 4.9202 38.2284 8.90491 38.2284 13.8205Z" fill="#F79E1B"/>
</svg>
