<svg width="18" height="19" viewBox="0 0 18 19" fill="none" xmlns="http://www.w3.org/2000/svg">
<path d="M15.6676 8.3468C15.7624 7.71087 15.7313 7.05984 15.5743 6.43385C15.367 5.6069 14.94 4.82375 14.2933 4.17706C13.6466 3.53038 12.8634 3.10336 12.0365 2.89601C11.4105 2.73904 10.7595 2.70795 10.1235 2.80274" stroke="#FC850F" stroke-width="1.3" stroke-linecap="round" stroke-linejoin="round"/>
<path d="M12.8207 8.04562C12.9223 7.36439 12.7109 6.64552 12.1865 6.12112C11.662 5.59672 10.9432 5.38526 10.262 5.48681" stroke="#FC850F" stroke-width="1.3" stroke-linecap="round" stroke-linejoin="round"/>
<path d="M5.39051 3.91724C5.66299 3.91724 5.91401 4.06499 6.04624 4.30321L6.96368 5.95576C7.08379 6.17214 7.08941 6.43385 6.97875 6.65521L6.09495 8.42281C6.09495 8.42281 6.35108 9.73962 7.42298 10.8115C8.49488 11.8834 9.80726 12.1351 9.80726 12.1351L11.5746 11.2515C11.7961 11.1407 12.058 11.1464 12.2745 11.2668L13.9317 12.1882C14.1697 12.3205 14.3173 12.5714 14.3173 12.8436V14.7462C14.3173 15.7151 13.4173 16.4149 12.4993 16.1051C10.6138 15.4689 7.68705 14.2576 5.832 12.4025C3.97691 10.5474 2.76559 7.62069 2.12939 5.73523C1.81963 4.81719 2.51941 3.91724 3.48828 3.91724H5.39051Z" stroke="#FC850F" stroke-width="1.3" stroke-linejoin="round"/>
</svg>
