<svg width="44" height="45" viewBox="0 0 44 45" fill="none" xmlns="http://www.w3.org/2000/svg">
<rect y="0.678711" width="44" height="44" rx="22" fill="white" fill-opacity="0.1"/>
<path d="M30.8901 20.982C31.0165 20.1341 30.9751 19.2661 30.7658 18.4314C30.4893 17.3288 29.9199 16.2846 29.0577 15.4224C28.1954 14.5601 27.1512 13.9908 26.0487 13.7143C25.214 13.505 24.3459 13.4635 23.498 13.5899" stroke="white" stroke-width="1.5" stroke-linecap="round" stroke-linejoin="round"/>
<path d="M27.0943 20.5804C27.2297 19.6721 26.9478 18.7136 26.2486 18.0144C25.5494 17.3152 24.5909 17.0333 23.6826 17.1687" stroke="white" stroke-width="2" stroke-linecap="round" stroke-linejoin="round"/>
<path d="M17.1874 15.0762C17.5507 15.0762 17.8854 15.2732 18.0617 15.5908L19.2849 17.7942C19.4451 18.0827 19.4526 18.4317 19.305 18.7268L18.1266 21.0836C18.1266 21.0836 18.4681 22.8394 19.8973 24.2686C21.3265 25.6978 23.0764 26.0334 23.0764 26.0334L25.4328 24.8552C25.7282 24.7075 26.0774 24.7151 26.366 24.8756L28.5756 26.1041C28.8929 26.2805 29.0897 26.615 29.0897 26.9781V29.5148C29.0897 30.8067 27.8898 31.7397 26.6657 31.3267C24.1518 30.4784 20.2494 28.8633 17.776 26.3899C15.3026 23.9165 13.6875 20.0141 12.8392 17.5002C12.4262 16.2761 13.3592 15.0762 14.651 15.0762H17.1874Z" stroke="white" stroke-width="2" stroke-linejoin="round"/>
</svg>
