<svg width="440" height="170" viewBox="0 0 440 170" fill="none" xmlns="http://www.w3.org/2000/svg">
<path d="M25.5517 131.497V123.278C25.5719 120.758 26.0931 118.266 27.0851 115.949C28.0469 113.62 29.4591 111.505 31.2405 109.723C33.022 107.942 35.1377 106.529 37.4662 105.568C39.7838 104.576 42.2752 104.055 44.7959 104.034H86.7805C88.4727 104.026 90.0937 103.353 91.2931 102.159C92.4926 100.965 93.174 99.3473 93.1901 97.6552C93.1824 96.8485 93.0157 96.0513 92.6994 95.3091C92.0276 93.7371 90.7753 92.4848 89.2033 91.813C88.4362 91.4919 87.6119 91.3302 86.7805 91.3376H19.1114C16.5956 91.3174 14.1091 90.7961 11.797 89.8042C9.47895 88.8423 7.37309 87.4331 5.59976 85.6571C3.82642 83.8812 2.42036 81.7732 1.46189 79.4537C0.254182 76.5399 -0.216402 73.3733 0.0918058 70.2343C0.400014 67.0952 1.4775 64.0806 3.22886 61.4573C4.98022 58.8341 7.3514 56.6832 10.1324 55.195C12.9135 53.7069 16.0185 52.9275 19.1727 52.9258H61.1726C62.0084 52.9267 62.8365 52.7653 63.6107 52.4505C64.3905 52.1277 65.0952 51.6474 65.6808 51.0398C66.2874 50.4577 66.7678 49.7571 67.0922 48.9816C67.4167 48.2061 67.5783 47.3721 67.5669 46.5315V38.3125H80.3248V46.5315C80.3063 49.0524 79.785 51.5443 78.7914 53.8612C77.8266 56.1922 76.4118 58.3102 74.6279 60.0941C72.844 61.878 70.726 63.2929 68.395 64.2577C66.0775 65.2496 63.586 65.7709 61.0653 65.7911H19.1114C18.2463 65.7487 17.3817 65.8825 16.5699 66.1843C15.7582 66.4861 15.0162 66.9497 14.3889 67.5469C13.7617 68.1441 13.2624 68.8626 12.9212 69.6586C12.58 70.4546 12.404 71.3117 12.404 72.1777C12.404 73.0438 12.58 73.9008 12.9212 74.6969C13.2624 75.4929 13.7617 76.2113 14.3889 76.8085C15.0162 77.4057 15.7582 77.8693 16.5699 78.1712C17.3817 78.473 18.2463 78.6068 19.1114 78.5644H86.7805C91.8678 78.5766 96.7426 80.6059 100.336 84.2073C102.121 85.9842 103.537 88.0966 104.503 90.423C105.469 92.7493 105.965 95.2437 105.963 97.7626C105.963 102.848 103.944 107.724 100.35 111.321C96.7561 114.919 91.8808 116.941 86.7958 116.945H44.7192C43.8882 116.943 43.0649 117.105 42.2964 117.421C41.5203 117.759 40.8133 118.237 40.211 118.832C39.6146 119.432 39.1361 120.14 38.8003 120.917C38.4934 121.688 38.3372 122.51 38.3402 123.34V131.497H25.5517Z" fill="#FC850F"/>
<path d="M160.46 65.7317H126.618C124.926 65.7397 123.306 66.4165 122.111 67.6144C120.916 68.8122 120.243 70.434 120.239 72.1259V97.7031C120.243 99.3937 120.917 101.014 122.112 102.209C123.307 103.405 124.928 104.078 126.618 104.082H194.287C195.978 104.078 197.598 103.405 198.793 102.209C199.989 101.014 200.662 99.3937 200.666 97.7031H213.47C213.462 102.788 211.438 107.663 207.843 111.259C204.247 114.854 199.372 116.878 194.287 116.886H126.618C121.533 116.878 116.659 114.854 113.063 111.259C109.467 107.663 107.443 102.788 107.435 97.7031V72.1259C107.439 67.0382 109.461 62.1597 113.057 58.5607C116.654 54.9616 121.53 52.9359 126.618 52.9277H194.287C199.375 52.9359 204.252 54.9616 207.848 58.5607C211.444 62.1597 213.466 67.0382 213.47 72.1259H200.666C200.662 70.434 199.989 68.8122 198.794 67.6144C197.599 66.4165 195.979 65.7397 194.287 65.7317H160.46Z" fill="#849DAA"/>
<path d="M268.857 65.7317H235.03C233.338 65.7437 231.718 66.4213 230.522 67.6178C229.325 68.8144 228.648 70.4338 228.636 72.126V97.7031C228.644 99.3951 229.321 101.015 230.518 102.21C231.716 103.405 233.338 104.078 235.03 104.082H302.684C304.376 104.078 305.997 103.405 307.195 102.21C308.393 101.015 309.07 99.3951 309.078 97.7031V93.3943H268.857V80.5903H321.943V97.7031C321.927 102.788 319.899 107.661 316.301 111.255C312.704 114.849 307.83 116.874 302.745 116.886H235.03C229.945 116.874 225.071 114.849 221.474 111.255C217.876 107.661 215.848 102.788 215.832 97.7031V72.126C215.844 67.038 217.87 62.1619 221.468 58.5642C225.066 54.9665 229.942 52.9399 235.03 52.9277H302.684C307.782 52.9237 312.674 54.9431 316.285 58.5425C319.896 62.142 321.931 67.0274 321.943 72.126H309.139C309.127 70.4338 308.45 68.8144 307.253 67.6178C306.057 66.4213 304.437 65.7437 302.745 65.7317H268.857Z" fill="#849DAA"/>
<path d="M340.343 70.2229L340.711 67.3094C341.396 67.6071 342.104 67.8482 342.827 68.0301C343.495 68.1994 344.179 68.292 344.867 68.3061C345.558 68.3354 346.239 68.1301 346.799 67.7234C347.029 67.5626 347.216 67.3493 347.347 67.1013C347.478 66.8533 347.547 66.5777 347.55 66.2974C347.564 65.9389 347.479 65.5836 347.305 65.27C347.134 64.9843 346.904 64.7386 346.63 64.5493C346.286 64.3178 345.922 64.1176 345.542 63.9513L344.162 63.2919C343.424 62.9345 342.717 62.5192 342.045 62.0499C341.495 61.6675 341.05 61.152 340.753 60.5514C340.455 59.9508 340.314 59.2847 340.343 58.615C340.362 57.9198 340.508 57.2339 340.773 56.5909C341.085 55.8197 341.619 55.1582 342.306 54.6895C343.29 54.1007 344.427 53.8178 345.572 53.8768C347.201 53.8518 348.822 54.0953 350.372 54.5975L350.019 57.2963C348.859 56.7808 347.608 56.4994 346.339 56.4683C345.631 56.3969 344.923 56.6 344.361 57.0356C344.194 57.1909 344.061 57.3782 343.969 57.5864C343.876 57.7946 343.827 58.0193 343.824 58.247C343.795 58.5332 343.835 58.8221 343.942 59.0892C344.049 59.3563 344.219 59.5935 344.438 59.7804C344.923 60.1777 345.466 60.4984 346.048 60.7311C346.983 61.1098 347.895 61.5451 348.777 62.0345C349.446 62.4086 350.018 62.9336 350.448 63.5679C350.937 64.3642 351.177 65.2876 351.139 66.2207C351.145 66.8365 351.025 67.4471 350.786 68.0148C350.519 68.5996 350.132 69.122 349.651 69.5482C349.063 70.0483 348.38 70.4239 347.642 70.6522C346.701 70.9509 345.717 71.0958 344.729 71.0816C343.233 71.0567 341.753 70.7659 340.359 70.2229H340.343Z" fill="#849DAA"/>
<path d="M365.599 70.8823H362.348L358.269 58.8757L357.487 56.4683H357.425L357.471 59.0597V70.8823H354.052V54.0762H359.833L363.191 63.844L363.927 66.8188H364.004L364.74 63.844L368.113 54.0762H373.879V70.8823H370.459V59.0597L370.505 56.4683H370.444L369.677 58.8757L365.599 70.8823Z" fill="#849DAA"/>
<path d="M382.619 54.077H386.514L393.184 70.9444H389.412L387.879 67.1109H380.948L379.522 70.8831H375.918L382.619 54.0156V54.077ZM382.067 64.3201H386.913L384.444 57.4505L382.113 64.3201H382.067Z" fill="#849DAA"/>
<path d="M395.945 54.077H401.895C402.68 54.0025 403.472 54.0848 404.225 54.3191C404.977 54.5534 405.676 54.935 406.28 55.4417C407.095 56.3194 407.535 57.4801 407.507 58.6772C407.538 59.1644 407.468 59.6527 407.302 60.1117C407.135 60.5707 406.876 60.9906 406.541 61.3453C405.912 61.9699 405.12 62.4055 404.256 62.6027C404.65 62.6878 405.008 62.8911 405.284 63.1854C405.594 63.5399 405.843 63.9443 406.02 64.3814L408.749 70.8831H404.931L402.769 65.5622C402.602 65.0855 402.311 64.662 401.925 64.3354C401.535 64.0781 401.074 63.9494 400.607 63.9674H399.319V70.8831H395.899V54.0156L395.945 54.077ZM399.365 56.7144V61.3146H401.189C401.585 61.3506 401.983 61.3022 402.359 61.1727C402.734 61.0431 403.078 60.8354 403.367 60.5633C403.773 60.1526 404.013 59.6066 404.042 59.0299C404.031 58.4638 403.819 57.92 403.443 57.4965C403.14 57.2247 402.782 57.0211 402.393 56.8995C402.004 56.7778 401.594 56.7408 401.189 56.7911L399.365 56.7144Z" fill="#849DAA"/>
<path d="M410.588 54.0762H423.714V57.051H418.853V70.8823H415.449V57.051H410.588V54.0762Z" fill="#849DAA"/>
<path d="M353.071 89.8652L353.301 92.7326C351.897 93.205 350.427 93.4483 348.946 93.4533C347.8 93.4583 346.661 93.2771 345.573 92.9166C344.539 92.5655 343.585 92.013 342.766 91.2912C341.94 90.5478 341.294 89.6245 340.88 88.5924C340.407 87.4351 340.178 86.1929 340.206 84.9429C340.19 83.7218 340.409 82.5089 340.85 81.3701C341.257 80.3208 341.897 79.3773 342.72 78.61C343.573 77.8368 344.583 77.2563 345.68 76.9079C346.933 76.4802 348.251 76.2726 349.575 76.2945C350.839 76.2955 352.096 76.4921 353.301 76.8772L353.148 79.76C352.084 79.3385 350.949 79.125 349.805 79.1313C348.742 79.1149 347.691 79.3514 346.738 79.8214C345.836 80.2517 345.087 80.9472 344.591 81.8148C344.067 82.8074 343.794 83.9127 343.794 85.0349C343.794 86.1572 344.067 87.2625 344.591 88.2551C345.104 89.0714 345.853 89.7129 346.738 90.0952C347.618 90.4767 348.569 90.67 349.529 90.6625C350.735 90.6727 351.929 90.4161 353.025 89.9112L353.071 89.8652Z" fill="#849DAA"/>
<path d="M355.923 76.4482H359.343V90.4176H366.013V93.2543H355.923V76.4482Z" fill="#849DAA"/>
<path d="M368.175 93.2543V76.4482H371.594V93.2543H368.175Z" fill="#849DAA"/>
<path d="M386.484 93.2543H383.233L379.154 81.2478L378.387 78.8403H378.311L378.357 81.4471V93.2543H374.953V76.4482H380.718L384.076 86.216L384.812 89.2062H384.889L385.64 86.216L388.999 76.4482H394.764V93.2543H391.36V81.4471L391.406 78.8403H391.329L390.563 81.2478L386.484 93.2543Z" fill="#849DAA"/>
<path d="M403.506 76.4482H407.401L414.086 93.3157H410.237L408.811 89.5435H401.88L400.469 93.3157H396.805L403.506 76.4482ZM402.969 86.7067H407.815L405.346 79.8371L403.03 86.7067H402.969Z" fill="#849DAA"/>
<path d="M414.791 76.4482H427.917V79.423H423.056V93.2543H419.652V79.423H414.791V76.4482Z" fill="#849DAA"/>
<path d="M429.956 76.4482H439.999V79.423H433.36V83.2259H439.386V85.986H433.36V90.2795H439.999V93.2543H429.956V76.4482Z" fill="#849DAA"/>
<path d="M354.42 99.3577L354.221 102.425C352.709 101.76 351.073 101.426 349.421 101.443C348.35 101.416 347.291 101.675 346.354 102.195C345.521 102.689 344.854 103.42 344.438 104.295C343.993 105.255 343.777 106.305 343.809 107.362C343.791 108.387 344 109.403 344.422 110.337C344.831 111.186 345.475 111.899 346.278 112.392C347.212 112.917 348.274 113.171 349.344 113.128C350.11 113.154 350.874 113.039 351.599 112.79V108.65H348.164V106.043H355.003V114.952C353.095 115.517 351.119 115.821 349.13 115.857C347.459 115.902 345.804 115.527 344.315 114.768C343.008 114.077 341.94 113.008 341.248 111.702C340.638 110.414 340.296 109.016 340.244 107.593C340.191 106.169 340.428 104.75 340.941 103.421C341.386 102.378 342.069 101.454 342.935 100.722C343.806 100.023 344.806 99.5016 345.879 99.1891C347.064 98.8421 348.294 98.6716 349.528 98.683C351.198 98.6537 352.86 98.8972 354.451 99.4037L354.42 99.3577Z" fill="#849DAA"/>
<path d="M359.036 98.8205H364.986C365.774 98.7315 366.572 98.8038 367.331 99.0332C368.09 99.2625 368.795 99.6441 369.402 100.155C370.216 101.032 370.656 102.193 370.629 103.39C370.659 103.877 370.589 104.366 370.423 104.825C370.257 105.284 369.998 105.704 369.663 106.058C369.041 106.681 368.253 107.112 367.393 107.3C367.784 107.4 368.14 107.607 368.421 107.898C368.721 108.252 368.964 108.65 369.141 109.079L371.886 115.596H368.068L365.906 110.26C365.734 109.786 365.437 109.368 365.047 109.048C364.663 108.79 364.206 108.661 363.744 108.68H362.44V115.596H359.036V98.7285V98.8205ZM362.44 101.443V106.043H364.265C364.662 106.081 365.062 106.035 365.44 105.908C365.818 105.782 366.165 105.577 366.458 105.307C366.857 104.893 367.091 104.348 367.117 103.773C367.105 103.208 366.894 102.664 366.519 102.24C366.221 101.955 365.866 101.737 365.478 101.599C365.089 101.462 364.676 101.409 364.265 101.443H362.44Z" fill="#849DAA"/>
<path d="M382.635 98.6376C384.112 98.6068 385.573 98.9496 386.883 99.6343C388.133 100.299 389.154 101.325 389.811 102.578C390.544 103.999 390.908 105.581 390.87 107.179C390.903 108.776 390.54 110.357 389.811 111.779C389.154 113.032 388.133 114.059 386.883 114.723C385.565 115.378 384.114 115.719 382.643 115.719C381.172 115.719 379.72 115.378 378.403 114.723C377.149 114.059 376.123 113.033 375.459 111.779C374.76 110.327 374.397 108.736 374.397 107.125C374.397 105.514 374.76 103.923 375.459 102.471C376.123 101.217 377.149 100.191 378.403 99.527C379.707 98.8423 381.163 98.4993 382.635 98.5302V98.6376ZM382.635 101.03C381.9 101.033 381.176 101.206 380.519 101.536C379.716 101.939 379.069 102.597 378.679 103.406C377.69 105.866 377.69 108.614 378.679 111.073C379.053 111.878 379.677 112.539 380.458 112.96C381.115 113.289 381.839 113.462 382.574 113.466C383.095 113.458 383.613 113.371 384.107 113.205C384.687 113.023 385.213 112.702 385.641 112.27C386.175 111.737 386.574 111.086 386.806 110.368C387.121 109.377 387.271 108.341 387.251 107.301C387.315 105.988 387.062 104.678 386.515 103.483C386.17 102.669 385.573 101.986 384.813 101.536C384.15 101.208 383.421 101.035 382.681 101.03H382.635Z" fill="#849DAA"/>
<path d="M407.661 98.8203V109.247C407.702 110.412 407.476 111.571 407.002 112.636C406.618 113.442 406.031 114.134 405.3 114.645C404.626 115.098 403.871 115.415 403.076 115.58C401.189 115.976 399.233 115.892 397.387 115.335C396.312 114.988 395.38 114.299 394.734 113.372C393.926 112.155 393.539 110.706 393.63 109.247V98.8203H397.081V109.247C397.081 111.87 398.277 113.188 400.684 113.188C403.091 113.188 404.288 111.87 404.288 109.247V98.8203H407.661Z" fill="#849DAA"/>
<path d="M411.034 98.8214H416.002C418.471 98.8214 420.173 99.3887 421.078 100.508C421.947 101.498 422.436 102.764 422.458 104.081C422.459 104.97 422.238 105.845 421.814 106.626C421.354 107.451 420.668 108.127 419.836 108.574C418.849 109.094 417.746 109.353 416.631 109.325H414.438V115.643H411.034V98.7754V98.8214ZM414.438 106.672H415.971C416.356 106.699 416.742 106.645 417.103 106.513C417.465 106.381 417.796 106.174 418.072 105.906C418.32 105.653 418.515 105.354 418.644 105.024C418.773 104.695 418.834 104.343 418.824 103.989C418.834 103.659 418.779 103.33 418.66 103.022C418.542 102.714 418.363 102.433 418.134 102.195C417.844 101.929 417.502 101.726 417.13 101.6C416.758 101.473 416.363 101.425 415.971 101.459H414.438V106.672Z" fill="#849DAA"/>
<path d="M61.7545 129.564C62.2921 130.202 62.6938 130.943 62.9352 131.741C63.2378 132.708 63.3828 133.718 63.3646 134.731C63.3778 135.728 63.2382 136.721 62.9505 137.676C62.7104 138.492 62.3031 139.249 61.7545 139.899C61.2223 140.498 60.5619 140.97 59.8224 141.279C59.056 141.581 58.2386 141.732 57.415 141.724C56.5745 141.737 55.74 141.581 54.9615 141.264C54.2353 140.962 53.5895 140.494 53.0754 139.899C52.5287 139.253 52.1215 138.502 51.8794 137.691C51.5906 136.731 51.451 135.733 51.4654 134.731C51.4444 133.723 51.5895 132.718 51.8947 131.757C52.1431 130.953 52.5498 130.208 53.0908 129.564C53.5961 128.966 54.2377 128.498 54.9615 128.199C55.7405 127.884 56.5747 127.727 57.415 127.739C58.2619 127.725 59.1025 127.887 59.8837 128.214C60.6008 128.518 61.2402 128.979 61.7545 129.564ZM61.4938 134.731C61.5194 133.938 61.4421 133.144 61.2638 132.37C61.0931 131.76 60.8182 131.184 60.4511 130.668C60.111 130.226 59.6691 129.874 59.163 129.641C58.6326 129.403 58.0573 129.283 57.4763 129.288C56.8859 129.272 56.2993 129.387 55.7589 129.625C55.2587 129.868 54.8227 130.225 54.4862 130.668C54.0773 131.175 53.7748 131.759 53.5968 132.385C53.4044 133.152 53.3116 133.941 53.3208 134.731C53.2253 136.162 53.6142 137.582 54.4248 138.764C54.7838 139.23 55.2503 139.602 55.7845 139.847C56.3187 140.093 56.9045 140.205 57.4916 140.175C58.0617 140.193 58.6279 140.075 59.1427 139.829C59.6576 139.584 60.1062 139.219 60.4511 138.764C61.2618 137.582 61.6507 136.162 61.5552 134.731H61.4938Z" fill="#647883"/>
<path d="M72.5656 132.863H69.1154V141.45H67.4287V132.863H63.9785V131.376H72.5656V132.863Z" fill="#647883"/>
<path d="M82.0882 136.418C82.1757 137.833 81.739 139.231 80.8614 140.344C80.4532 140.802 79.9484 141.163 79.3836 141.401C78.8187 141.64 78.2079 141.75 77.5953 141.724C76.9734 141.754 76.3529 141.641 75.7814 141.393C75.21 141.146 74.7027 140.772 74.2985 140.298C73.4397 139.193 73.0094 137.815 73.0871 136.418C72.9994 135.001 73.4422 133.602 74.3291 132.493C74.7359 132.033 75.2401 131.669 75.805 131.427C76.3699 131.186 76.9815 131.073 77.5953 131.098C78.2094 131.071 78.8216 131.183 79.3869 131.424C79.9522 131.666 80.456 132.031 80.8614 132.493C81.7377 133.607 82.1743 135.004 82.0882 136.418ZM80.3401 136.418C80.4279 135.405 80.1916 134.391 79.6654 133.52C79.4302 133.211 79.1227 132.964 78.7698 132.801C78.4169 132.637 78.0294 132.563 77.6413 132.585C77.251 132.564 76.8613 132.638 76.5059 132.801C76.1506 132.964 75.8403 133.211 75.6019 133.52C75.1383 134.408 74.8962 135.394 74.8962 136.395C74.8962 137.397 75.1383 138.383 75.6019 139.271C75.8353 139.589 76.1434 139.845 76.4991 140.016C76.8547 140.187 77.247 140.268 77.6413 140.252C78.0323 140.271 78.422 140.193 78.7753 140.025C79.1287 139.856 79.4345 139.602 79.6654 139.286C80.2043 138.431 80.4568 137.427 80.3861 136.418H80.3401Z" fill="#647883"/>
<path d="M91.7952 141.45H90.0932V132.863H85.5236V141.45H83.8215V131.376H91.7952V141.45Z" fill="#647883"/>
<path d="M102.054 141.449H100.352V132.801H96.8864C96.8864 133.291 96.8864 133.782 96.8864 134.242C96.8864 134.702 96.8864 135.116 96.8864 135.484C96.8864 136.419 96.779 137.217 96.687 137.846C96.6363 138.367 96.5283 138.881 96.365 139.379C96.2667 139.707 96.1166 140.018 95.9203 140.299C95.7672 140.52 95.5925 140.726 95.399 140.912C95.1994 141.076 94.9773 141.21 94.7396 141.311C94.4844 141.405 94.2142 141.452 93.9422 141.449H93.2522V139.916H93.4669C93.6091 139.938 93.754 139.938 93.8962 139.916C94.0392 139.878 94.1675 139.798 94.2642 139.686C94.6257 139.249 94.8498 138.716 94.9083 138.152C95.0769 137.138 95.1793 136.113 95.215 135.085C95.215 134.579 95.215 133.997 95.215 133.337C95.215 132.678 95.215 132.019 95.215 131.405H102.054V141.48V141.449Z" fill="#647883"/>
<path d="M108.877 141.664C108.192 141.708 107.505 141.61 106.859 141.378C106.213 141.146 105.621 140.784 105.12 140.315C104.653 139.794 104.295 139.186 104.065 138.525C103.836 137.864 103.741 137.164 103.786 136.466C103.709 135.044 104.175 133.647 105.09 132.556C105.502 132.064 106.019 131.672 106.602 131.406C107.186 131.141 107.822 131.01 108.463 131.022C109.027 131.012 109.589 131.106 110.119 131.298C110.605 131.472 111.042 131.762 111.392 132.142C111.77 132.544 112.053 133.026 112.22 133.552C112.433 134.211 112.532 134.9 112.511 135.592V136.512H105.504C105.44 137.483 105.759 138.441 106.393 139.18C106.713 139.5 107.097 139.748 107.52 139.909C107.943 140.07 108.395 140.141 108.846 140.115C109.218 140.114 109.588 140.073 109.95 139.993C110.283 139.913 110.607 139.8 110.916 139.655C111.189 139.548 111.451 139.414 111.699 139.257C111.889 139.152 112.069 139.029 112.235 138.889H112.327V140.744L111.591 141.035C111.331 141.143 111.065 141.235 110.794 141.311L109.889 141.526C109.552 141.553 109.214 141.553 108.877 141.526V141.664ZM110.87 135.301C110.862 134.902 110.805 134.505 110.702 134.12C110.624 133.813 110.483 133.526 110.288 133.276C110.085 133.025 109.821 132.83 109.521 132.709C109.156 132.563 108.764 132.495 108.371 132.51C107.973 132.497 107.577 132.564 107.206 132.709C106.886 132.849 106.595 133.046 106.347 133.292C106.101 133.551 105.903 133.852 105.764 134.181C105.62 134.539 105.533 134.916 105.504 135.301H110.87Z" fill="#647883"/>
<path d="M122.187 141.45H120.485V136.942H115.915V141.45H114.213V131.376H115.915V135.455H120.485V131.376H122.187V141.45Z" fill="#647883"/>
<path d="M132.584 141.45H130.882V133.937L126.174 141.45H124.625V131.376H126.312V138.767L130.974 131.376H132.584V141.45Z" fill="#647883"/>
<path d="M139.469 141.664C138.786 141.707 138.102 141.61 137.458 141.378C136.815 141.146 136.226 140.784 135.727 140.315C135.26 139.794 134.902 139.186 134.673 138.525C134.444 137.864 134.349 137.164 134.393 136.466C134.318 135.047 134.778 133.652 135.681 132.556C136.095 132.066 136.612 131.675 137.196 131.41C137.779 131.144 138.414 131.012 139.055 131.023C139.624 131.01 140.191 131.104 140.726 131.299C141.208 131.473 141.64 131.763 141.984 132.142C142.361 132.548 142.648 133.028 142.827 133.553C143.033 134.212 143.131 134.901 143.118 135.592V136.512H136.049C136.015 136.994 136.075 137.477 136.228 137.935C136.381 138.393 136.622 138.816 136.939 139.18C137.258 139.501 137.642 139.751 138.065 139.912C138.488 140.073 138.94 140.143 139.392 140.116C139.758 140.114 140.123 140.072 140.481 139.993C140.814 139.953 141.143 139.881 141.462 139.778C141.732 139.664 141.994 139.531 142.244 139.38C142.43 139.275 142.605 139.152 142.766 139.012H142.858V140.867L142.122 141.158C141.863 141.271 141.597 141.363 141.324 141.434L140.435 141.649C140.093 141.676 139.749 141.676 139.408 141.649L139.469 141.664ZM141.462 135.301C141.458 134.902 141.407 134.506 141.309 134.12C141.218 133.818 141.078 133.533 140.895 133.277C140.689 133.029 140.426 132.834 140.128 132.709C139.757 132.565 139.361 132.497 138.963 132.51C138.57 132.497 138.178 132.565 137.813 132.709C137.486 132.845 137.19 133.043 136.939 133.292C136.698 133.555 136.501 133.855 136.356 134.181C136.218 134.54 136.135 134.917 136.111 135.301H141.462Z" fill="#647883"/>
<path d="M160.613 141.45H158.344L153.59 135.317H152.471V141.45H150.677V128.018H152.471V134.151C153.071 134.16 153.659 133.972 154.142 133.615C154.598 133.235 154.947 132.744 155.154 132.188C155.261 131.928 155.353 131.667 155.445 131.422L155.645 130.808C155.875 129.973 156.357 129.229 157.025 128.677C157.727 128.256 158.538 128.053 159.356 128.094H159.908V129.628H159.402C158.855 129.575 158.308 129.728 157.868 130.057C157.477 130.53 157.199 131.086 157.055 131.682C156.892 132.312 156.611 132.905 156.227 133.43C155.907 133.808 155.536 134.138 155.123 134.412L160.567 141.466L160.613 141.45Z" fill="#647883"/>
<path d="M169.952 136.418C170.039 137.833 169.603 139.231 168.725 140.344C168.317 140.802 167.812 141.163 167.247 141.401C166.682 141.64 166.071 141.75 165.459 141.724C164.837 141.754 164.216 141.641 163.645 141.393C163.074 141.146 162.566 140.772 162.162 140.298C161.309 139.19 160.88 137.815 160.951 136.418C160.863 135.001 161.306 133.602 162.193 132.493C162.599 132.033 163.104 131.669 163.669 131.427C164.233 131.186 164.845 131.073 165.459 131.098C166.073 131.071 166.685 131.183 167.25 131.424C167.816 131.666 168.32 132.031 168.725 132.493C169.601 133.607 170.038 135.004 169.952 136.418ZM168.204 136.418C168.278 135.4 168.025 134.385 167.483 133.52C167.248 133.211 166.94 132.964 166.587 132.801C166.234 132.637 165.847 132.563 165.459 132.585C165.069 132.565 164.679 132.639 164.324 132.802C163.969 132.965 163.659 133.212 163.419 133.52C162.956 134.408 162.714 135.394 162.714 136.395C162.714 137.397 162.956 138.383 163.419 139.271C163.654 139.588 163.962 139.843 164.317 140.014C164.673 140.185 165.065 140.267 165.459 140.252C165.85 140.271 166.24 140.193 166.593 140.025C166.946 139.856 167.252 139.602 167.483 139.286C168.022 138.431 168.274 137.427 168.204 136.418Z" fill="#647883"/>
<path d="M179.659 141.45H177.957V136.942H173.387V141.45H171.685V131.376H173.387V135.455H177.957V131.376H179.659V141.45Z" fill="#647883"/>
<path d="M190.745 143.873H189.212V141.435H182.557V143.873H181.024V140.009H181.683C182.343 138.864 182.819 137.622 183.094 136.329C183.462 134.704 183.642 133.042 183.63 131.376H189.764V140.009H190.761V143.873H190.745ZM188.047 140.009V132.802H185.149C185.088 134.191 184.877 135.568 184.52 136.912C184.257 137.989 183.838 139.022 183.278 139.978L188.047 140.009Z" fill="#647883"/>
<path d="M200.376 141.45H198.673V133.937L193.966 141.45H192.402V131.376H194.104V138.767L198.765 131.376H200.376V141.45Z" fill="#647883"/>
<path d="M211.722 143.873H210.158V141.45H202.812V131.376H204.515V139.978H209.023V131.376H210.725V139.978H211.722V143.873Z" fill="#647883"/>
<path d="M221.352 141.45H219.65V133.937L214.942 141.45H213.378V131.376H215.08V138.767L219.742 131.376H221.352V141.45Z" fill="#647883"/>
<path d="M232.086 136.418C232.174 137.833 231.737 139.231 230.859 140.344C230.451 140.802 229.946 141.163 229.381 141.401C228.817 141.64 228.206 141.75 227.593 141.724C226.971 141.754 226.351 141.641 225.779 141.393C225.208 141.146 224.701 140.772 224.296 140.298C223.444 139.19 223.014 137.815 223.085 136.418C222.997 135.001 223.44 133.602 224.327 132.493C224.734 132.033 225.238 131.669 225.803 131.427C226.368 131.186 226.979 131.073 227.593 131.098C228.207 131.071 228.819 131.183 229.385 131.424C229.95 131.666 230.454 132.031 230.859 132.493C231.736 133.607 232.172 135.004 232.086 136.418ZM230.338 136.418C230.412 135.4 230.159 134.385 229.617 133.52C229.382 133.211 229.075 132.964 228.722 132.801C228.369 132.637 227.981 132.563 227.593 132.585C227.203 132.565 226.814 132.639 226.459 132.802C226.103 132.965 225.793 133.212 225.554 133.52C225.09 134.408 224.848 135.394 224.848 136.395C224.848 137.397 225.09 138.383 225.554 139.271C225.788 139.588 226.096 139.843 226.452 140.014C226.807 140.185 227.199 140.267 227.593 140.252C227.984 140.271 228.374 140.193 228.727 140.025C229.08 139.856 229.386 139.602 229.617 139.286C230.156 138.431 230.409 137.427 230.338 136.418Z" fill="#647883"/>
<path d="M241.791 141.45H240.089V136.942H235.52V141.45H233.818V131.376H235.52V135.455H240.089V131.376H241.791V141.45Z" fill="#647883"/>
<path d="M252.188 141.45H250.486V133.937L245.779 141.45H244.23V131.376H245.932V138.767L250.578 131.376H252.188V141.45Z" fill="#647883"/>
<path d="M263.122 136.143C263.194 137.581 262.766 139.001 261.91 140.16C261.556 140.64 261.094 141.029 260.561 141.295C260.028 141.562 259.439 141.698 258.843 141.693C258.393 141.698 257.944 141.641 257.509 141.525C257.095 141.395 256.699 141.214 256.329 140.988V145.205H254.626V131.404H256.329V132.462C256.748 132.084 257.218 131.764 257.724 131.512C258.248 131.253 258.826 131.122 259.411 131.128C259.942 131.108 260.469 131.222 260.944 131.461C261.418 131.7 261.825 132.055 262.125 132.493C262.834 133.585 263.178 134.873 263.106 136.173L263.122 136.143ZM261.358 136.327C261.409 135.404 261.219 134.485 260.806 133.658C260.625 133.349 260.361 133.096 260.044 132.928C259.727 132.76 259.37 132.684 259.012 132.708C258.529 132.708 258.051 132.818 257.617 133.03C257.159 133.251 256.732 133.529 256.344 133.858V139.562C256.707 139.742 257.087 139.886 257.479 139.991C257.836 140.074 258.201 140.116 258.567 140.114C258.963 140.134 259.357 140.057 259.716 139.888C260.074 139.72 260.385 139.466 260.622 139.148C261.167 138.312 261.425 137.322 261.358 136.327Z" fill="#647883"/>
<path d="M273.15 136.42C273.237 137.835 272.801 139.232 271.923 140.346C271.513 140.801 271.008 141.16 270.443 141.398C269.879 141.637 269.269 141.749 268.657 141.726C268.033 141.755 267.41 141.642 266.836 141.395C266.262 141.148 265.752 140.773 265.345 140.299C264.498 139.19 264.074 137.814 264.149 136.42C264.061 135.003 264.504 133.603 265.391 132.494C265.813 132.054 266.32 131.703 266.881 131.464C267.443 131.224 268.047 131.101 268.657 131.101C269.267 131.101 269.871 131.224 270.433 131.464C270.994 131.703 271.501 132.054 271.923 132.494C272.799 133.608 273.236 135.005 273.15 136.42ZM271.387 136.42C271.465 135.404 271.218 134.388 270.681 133.522C270.431 133.228 270.119 132.991 269.768 132.829C269.418 132.667 269.036 132.583 268.649 132.583C268.263 132.583 267.881 132.667 267.53 132.829C267.18 132.991 266.868 133.228 266.618 133.522C266.148 134.407 265.902 135.395 265.902 136.397C265.902 137.399 266.148 138.387 266.618 139.272C266.862 139.576 267.171 139.821 267.523 139.99C267.875 140.158 268.259 140.246 268.649 140.246C269.039 140.246 269.424 140.158 269.776 139.99C270.128 139.821 270.437 139.576 270.681 139.272C271.214 138.415 271.461 137.411 271.387 136.405V136.42Z" fill="#647883"/>
<path d="M282.796 138.399C282.807 138.846 282.707 139.288 282.504 139.687C282.324 140.058 282.062 140.383 281.738 140.638C281.359 140.942 280.92 141.161 280.45 141.282C279.921 141.401 279.381 141.457 278.839 141.45H274.883V131.376H278.579C279.12 131.342 279.663 131.342 280.204 131.376C280.566 131.416 280.916 131.531 281.232 131.713C281.562 131.886 281.835 132.153 282.014 132.48C282.193 132.831 282.282 133.221 282.274 133.615C282.277 134.075 282.138 134.525 281.876 134.903C281.609 135.289 281.243 135.596 280.818 135.792C281.35 135.923 281.831 136.212 282.198 136.62C282.571 137.084 282.767 137.666 282.75 138.261L282.796 138.399ZM280.542 133.967C280.549 133.763 280.512 133.559 280.434 133.369C280.353 133.199 280.218 133.059 280.051 132.971C279.824 132.863 279.58 132.796 279.33 132.771H278.211H276.677V135.486H278.609C278.9 135.51 279.193 135.51 279.484 135.486C279.687 135.429 279.883 135.346 280.066 135.24C280.259 135.132 280.406 134.957 280.48 134.749C280.572 134.521 280.614 134.275 280.603 134.029L280.542 133.967ZM281.063 138.384C281.076 138.1 281.023 137.816 280.91 137.556C280.762 137.306 280.535 137.112 280.266 137.004C280.054 136.898 279.826 136.831 279.591 136.804H278.594H276.616V140.086H278.149C278.619 140.117 279.09 140.117 279.56 140.086C279.863 140.047 280.155 139.948 280.419 139.794C280.649 139.669 280.84 139.484 280.971 139.258C281.089 139.009 281.147 138.736 281.14 138.46L281.063 138.384Z" fill="#647883"/>
<path d="M290.187 138.965V136.174L288.653 136.328C288.135 136.368 287.622 136.455 287.12 136.588C286.699 136.705 286.313 136.927 286.001 137.232C285.847 137.386 285.728 137.571 285.651 137.775C285.575 137.978 285.542 138.196 285.556 138.413C285.54 138.653 285.576 138.893 285.661 139.118C285.745 139.342 285.877 139.547 286.047 139.716C286.445 140.036 286.948 140.195 287.457 140.161C287.965 140.166 288.465 140.045 288.914 139.808C289.349 139.575 289.756 139.292 290.126 138.965H290.187ZM290.187 140.376C290.049 140.468 289.865 140.621 289.635 140.805C289.426 140.972 289.2 141.116 288.96 141.234C288.679 141.38 288.387 141.503 288.086 141.602C287.705 141.694 287.313 141.735 286.921 141.725C286.516 141.727 286.115 141.649 285.74 141.495C285.376 141.335 285.044 141.112 284.759 140.836C284.475 140.542 284.255 140.192 284.115 139.808C283.948 139.4 283.865 138.962 283.869 138.52C283.845 137.897 283.999 137.28 284.314 136.742C284.647 136.223 285.127 135.817 285.694 135.576C286.332 135.295 287.009 135.114 287.703 135.04C288.469 134.937 289.297 134.861 290.187 134.81V134.487C290.201 134.156 290.138 133.825 290.003 133.521C289.895 133.282 289.719 133.08 289.497 132.939C289.254 132.79 288.982 132.696 288.699 132.663C288.383 132.639 288.065 132.639 287.749 132.663C287.284 132.673 286.822 132.73 286.369 132.831C285.845 132.966 285.333 133.141 284.835 133.353H284.743V131.574C285.188 131.454 285.638 131.356 286.093 131.283C286.664 131.173 287.244 131.117 287.825 131.114C288.413 131.106 288.999 131.163 289.574 131.283C290.034 131.384 290.468 131.583 290.846 131.865C291.212 132.144 291.498 132.514 291.674 132.939C291.861 133.428 291.955 133.948 291.95 134.472V141.372H290.248V140.299L290.187 140.376Z" fill="#647883"/>
<path d="M302.223 141.45H300.521V136.942H295.967V141.45H294.265V131.376H295.967V135.455H300.521V131.376H302.223V141.45Z" fill="#647883"/>
<path d="M312.635 141.45H310.933V133.937L306.225 141.45H304.661V131.376H306.363V138.767L311.025 131.376H312.635V141.45Z" fill="#647883"/>
<path d="M319.46 141.664C318.775 141.708 318.088 141.61 317.442 141.378C316.796 141.146 316.204 140.784 315.703 140.315C315.236 139.794 314.877 139.186 314.648 138.525C314.419 137.864 314.324 137.164 314.369 136.466C314.298 135.045 314.763 133.65 315.672 132.556C316.084 132.064 316.601 131.672 317.185 131.406C317.769 131.141 318.405 131.01 319.046 131.022C319.615 131.013 320.181 131.106 320.717 131.298C321.199 131.473 321.63 131.762 321.975 132.142C322.353 132.544 322.635 133.026 322.803 133.552C323.016 134.211 323.114 134.9 323.094 135.592V136.512H316.102C316.034 137.481 316.348 138.439 316.976 139.18C317.296 139.5 317.68 139.748 318.103 139.909C318.525 140.07 318.977 140.141 319.429 140.115C319.801 140.114 320.171 140.073 320.533 139.993C320.871 139.913 321.199 139.8 321.515 139.655C321.781 139.545 322.038 139.411 322.281 139.257C322.472 139.152 322.652 139.029 322.818 138.889H322.91V140.744L322.174 141.035C321.914 141.143 321.648 141.235 321.377 141.311L320.472 141.526C320.135 141.553 319.797 141.553 319.46 141.526V141.664ZM321.453 135.301C321.452 134.901 321.396 134.504 321.285 134.12C321.206 133.813 321.065 133.526 320.871 133.276C320.667 133.025 320.403 132.83 320.104 132.709C319.739 132.563 319.347 132.495 318.954 132.51C318.556 132.497 318.159 132.564 317.788 132.709C317.469 132.849 317.178 133.046 316.93 133.292C316.684 133.551 316.486 133.852 316.347 134.181C316.201 134.537 316.118 134.916 316.102 135.301H321.453Z" fill="#647883"/>
<path d="M59.6082 20.7552C59.6082 12.1682 68.3792 6.23389 73.9608 0.238281C79.1437 5.7892 88.3288 12.8735 88.3288 20.7552C88.207 24.4826 86.6407 28.0166 83.9609 30.6102C81.2811 33.2038 77.6978 34.6539 73.9685 34.6539C70.2391 34.6539 66.6559 33.2038 63.9761 30.6102C61.2963 28.0166 59.73 24.4826 59.6082 20.7552ZM64.9597 23.546C65.0557 25.871 66.0468 28.0688 67.7257 29.6799C69.4047 31.2911 71.6415 32.1907 73.9685 32.1907C76.2954 32.1907 78.5323 31.2911 80.2112 29.6799C81.8902 28.0688 82.8813 25.871 82.9772 23.546C82.9772 18.6085 77.2116 14.1616 73.9608 10.6808C70.4647 14.4376 64.9597 18.1638 64.9597 23.546Z" fill="#849DAA"/>
<path fill-rule="evenodd" clip-rule="evenodd" d="M61.6633 21.522C61.6633 24.7857 62.9598 27.9156 65.2676 30.2234C67.5753 32.5311 70.7053 33.8276 73.9689 33.8276C77.2325 33.8276 80.3625 32.5311 82.6702 30.2234C84.978 27.9156 86.2745 24.7857 86.2745 21.522C86.2745 14.775 78.3928 8.70277 74.0072 3.94922C69.223 9.08612 61.74 14.177 61.74 21.522H61.6633ZM64.9602 23.5461C65.0561 25.8711 66.0472 28.0689 67.7261 29.68C69.4051 31.2912 71.642 32.1908 73.9689 32.1908C76.2958 32.1908 78.5327 31.2912 80.2116 29.68C81.8906 28.0689 82.8817 25.8711 82.9776 23.5461C82.9776 18.6086 77.212 14.1617 73.9612 10.6809C70.4651 14.4377 64.9602 18.1639 64.9602 23.5461Z" fill="#F58220"/>
<path d="M17.5784 155.22C17.5784 146.633 26.3494 140.699 31.931 134.703C37.1139 140.254 46.299 147.338 46.299 155.22C46.1772 158.947 44.6109 162.481 41.9311 165.075C39.2513 167.669 35.6681 169.119 31.9387 169.119C28.2093 169.119 24.6261 167.669 21.9463 165.075C19.2665 162.481 17.7002 158.947 17.5784 155.22ZM22.9299 150.129C22.8798 151.343 23.0757 152.555 23.5059 153.692C23.936 154.829 24.5915 155.867 25.433 156.744C26.2745 157.621 27.2846 158.318 28.4026 158.795C29.5205 159.272 30.7233 159.517 31.9387 159.517C33.154 159.517 34.3568 159.272 35.4748 158.795C36.5928 158.318 37.6029 157.621 38.4444 156.744C39.2858 155.867 39.9414 154.829 40.3715 153.692C40.8016 152.555 40.9975 151.343 40.9474 150.129C40.9474 145.192 35.1818 140.745 31.931 137.264C28.4349 141.021 22.9299 144.747 22.9299 150.129Z" fill="#849DAA"/>
<path fill-rule="evenodd" clip-rule="evenodd" d="M19.6321 153.58C19.6321 156.833 20.9245 159.953 23.2251 162.254C25.5256 164.554 28.6458 165.847 31.8993 165.847C35.1528 165.847 38.273 164.554 40.5736 162.254C42.8741 159.953 44.1665 156.833 44.1665 153.58C44.1665 146.833 36.2848 140.76 31.8993 136.007C27.1151 141.128 19.6321 146.219 19.6321 153.58ZM22.9289 150.129C22.8788 151.344 23.0747 152.556 23.5048 153.692C23.935 154.829 24.5905 155.867 25.432 156.744C26.2734 157.621 27.2835 158.319 28.4015 158.795C29.5195 159.272 30.7223 159.518 31.9376 159.518C33.153 159.518 34.3558 159.272 35.4738 158.795C36.5918 158.319 37.6018 157.621 38.4433 156.744C39.2848 155.867 39.9403 154.829 40.3704 153.692C40.8006 152.556 40.9965 151.344 40.9464 150.129C40.9464 145.192 35.1808 140.745 31.93 137.264C28.4338 141.021 22.9289 144.747 22.9289 150.129Z" fill="#01BEF8"/>
</svg>
