<svg width="44" height="45" viewBox="0 0 44 45" fill="none" xmlns="http://www.w3.org/2000/svg">
<path d="M22 44.6787C34.1503 44.6787 44 34.829 44 22.6787C44 10.5284 34.1503 0.678711 22 0.678711C9.84974 0.678711 0 10.5284 0 22.6787C0 34.829 9.84974 44.6787 22 44.6787Z" fill="url(#paint0_linear_528_1199)"/>
<path d="M9.88842 22.1934C16.2861 19.3475 20.5522 17.4712 22.6868 16.5647C28.7814 13.9765 30.0479 13.5269 30.8733 13.5119C31.0548 13.5088 31.4608 13.5547 31.7237 13.7725C31.9457 13.9565 32.0068 14.205 32.036 14.3794C32.0653 14.5537 32.1017 14.951 32.0727 15.2614C31.7425 18.8046 30.3134 27.4028 29.5864 31.3711C29.2787 33.0503 28.673 33.6133 28.0866 33.6684C26.8121 33.7881 25.8444 32.8084 24.61 31.9823C22.6785 30.6895 21.5873 29.8848 19.7124 28.6233C17.5456 27.1654 18.9502 26.3642 20.1851 25.0547C20.5082 24.712 26.1235 19.4971 26.2321 19.0241C26.2457 18.9649 26.2584 18.7444 26.13 18.6279C26.0017 18.5115 25.8123 18.5513 25.6756 18.5829C25.4819 18.6278 22.3963 20.7102 16.4187 24.83C15.5429 25.4441 14.7495 25.7433 14.0388 25.7276C13.2552 25.7103 11.7479 25.2753 10.6273 24.9034C9.25298 24.4472 8.16066 24.2061 8.25577 23.4314C8.30532 23.0279 8.84953 22.6152 9.88842 22.1934Z" fill="white"/>
<defs>
<linearGradient id="paint0_linear_528_1199" x1="22" y1="0.678711" x2="22" y2="44.3522" gradientUnits="userSpaceOnUse">
<stop stop-color="#2AABEE"/>
<stop offset="1" stop-color="#229ED9"/>
</linearGradient>
</defs>
</svg>
