<svg width="44" height="45" viewBox="0 0 44 45" fill="none" xmlns="http://www.w3.org/2000/svg">
<path d="M22 0.678711C34.1503 0.678711 44 10.5284 44 22.6787C44 34.829 34.1503 44.6787 22 44.6787C9.84974 44.6787 0 34.829 0 22.6787C0 10.5284 9.84974 0.678711 22 0.678711Z" fill="#7360F2"/>
<path d="M31.2263 12.349C30.6018 11.7605 28.0781 9.88954 22.4568 9.86412C22.4568 9.86412 15.8279 9.45588 12.5964 12.4831C10.7976 14.3205 10.1648 17.0092 10.098 20.3425C10.0313 23.6759 9.9449 29.9228 15.8411 31.6166H15.8468L15.843 34.2013C15.843 34.2013 15.8053 35.2477 16.4799 35.4611C17.296 35.7199 17.7749 34.9246 18.5541 34.0673C18.9817 33.5966 19.5723 32.9053 20.0173 32.3769C24.0498 32.7235 27.1512 31.9313 27.5034 31.8142C28.3176 31.5446 32.9248 30.9415 33.6741 24.6954C34.4476 18.257 33.3001 14.1846 31.2263 12.349ZM31.9096 24.2336C31.2772 29.4491 27.5404 29.7768 26.8514 30.0025C26.5584 30.0988 23.8344 30.7909 20.4091 30.5625C20.4091 30.5625 17.8568 33.7072 17.0596 34.5248C16.9351 34.6527 16.7888 34.7043 16.6911 34.6789C16.5538 34.6446 16.5161 34.4786 16.5176 34.236C16.5199 33.8893 16.5395 29.9409 16.5395 29.9409C16.5365 29.9409 16.5395 29.9409 16.5395 29.9409C11.5518 28.5267 11.8425 23.2099 11.8991 20.4257C11.9557 17.6416 12.4678 15.3608 13.9891 13.8268C16.7224 11.2984 22.3531 11.6762 22.3531 11.6762C27.1082 11.6974 29.3867 13.1597 29.9151 13.6496C31.6694 15.1836 32.5632 18.8544 31.9096 24.232V24.2336Z" fill="white"/>
<path fill-rule="evenodd" clip-rule="evenodd" d="M22.5534 18.174C22.5626 17.9949 22.7121 17.8573 22.8875 17.8667C23.5435 17.9016 24.0892 18.1044 24.478 18.5149C24.8652 18.9237 25.055 19.495 25.0883 20.181C25.097 20.3601 24.9619 20.5125 24.7866 20.5213C24.6112 20.5302 24.462 20.3922 24.4533 20.2132C24.4248 19.6259 24.267 19.2261 24.0209 18.9663C23.7763 18.708 23.4031 18.5444 22.8543 18.5151C22.679 18.5058 22.5443 18.353 22.5534 18.174Z" fill="white"/>
<path fill-rule="evenodd" clip-rule="evenodd" d="M22.0717 16.425C22.0845 16.2462 22.2368 16.1118 22.4119 16.1249C23.747 16.2247 24.8215 16.6905 25.6042 17.5631L25.6043 17.5632C26.3786 18.4272 26.7465 19.502 26.7198 20.7627C26.716 20.942 26.5706 21.0842 26.3951 21.0803C26.2196 21.0764 26.0804 20.9279 26.0841 20.7487C26.1077 19.6369 25.7876 18.7295 25.1353 18.0016C24.485 17.2767 23.576 16.863 22.3655 16.7725C22.1904 16.7594 22.0588 16.6038 22.0717 16.425Z" fill="white"/>
<path fill-rule="evenodd" clip-rule="evenodd" d="M21.5103 14.7619C21.5115 14.5826 21.6548 14.4382 21.8304 14.4395C23.6753 14.4526 25.2348 15.0798 26.4868 16.3264C27.7494 17.5833 28.3738 19.2946 28.3896 21.4199C28.3909 21.5992 28.2497 21.7457 28.0741 21.747C27.8985 21.7484 27.7551 21.6041 27.7538 21.4248C27.739 19.4333 27.1588 17.9022 26.043 16.7913C24.9167 15.6701 23.5184 15.1008 21.8259 15.0888C21.6504 15.0875 21.509 14.9412 21.5103 14.7619Z" fill="white"/>
<path d="M22.9342 24.5451C22.9342 24.5451 23.381 24.5836 23.6216 24.2809L24.0908 23.6781C24.317 23.3793 24.8631 23.1886 25.3979 23.4929C25.7986 23.7263 26.1876 23.98 26.5635 24.2532C26.9184 24.5197 27.6451 25.139 27.6474 25.139C27.9935 25.4375 28.0735 25.8757 27.8378 26.3379C27.8378 26.3406 27.8359 26.3452 27.8359 26.3475C27.5763 26.8071 27.2467 27.2216 26.8596 27.5753C26.855 27.5777 26.855 27.58 26.8509 27.5823C26.5145 27.8693 26.184 28.0325 25.8594 28.0718C25.8117 28.0803 25.7631 28.0834 25.7146 28.081C25.5715 28.0824 25.4291 28.0601 25.293 28.0148L25.2825 27.999C24.7824 27.855 23.9475 27.4945 22.557 26.7111C21.7524 26.2631 20.9864 25.7463 20.2672 25.1663C19.9067 24.8758 19.5628 24.5643 19.2373 24.2335L19.2026 24.1981L19.1679 24.1627L19.1332 24.1272C19.1215 24.1157 19.1102 24.1037 19.0985 24.0918C18.7746 23.7593 18.4697 23.4081 18.1851 23.04C17.6173 22.3055 17.1113 21.5234 16.6725 20.7018C15.9055 19.2814 15.5525 18.4295 15.4115 17.918L15.396 17.9073C15.3518 17.7683 15.33 17.6228 15.3315 17.4767C15.3289 17.4272 15.3318 17.3776 15.3402 17.3288C15.3807 16.9978 15.5407 16.6601 15.8203 16.3155C15.8225 16.3113 15.8248 16.3113 15.827 16.3066C16.1733 15.9112 16.5792 15.5747 17.0293 15.3099C17.0315 15.3099 17.0361 15.3076 17.0387 15.3076C17.4913 15.0669 17.9204 15.1485 18.2123 15.5002C18.2146 15.5025 18.8198 16.2446 19.0797 16.607C19.3471 16.9913 19.5956 17.389 19.8241 17.7987C20.122 18.3444 19.9353 18.9032 19.6427 19.1335L19.0525 19.6126C18.7546 19.8584 18.7938 20.3147 18.7938 20.3147C18.7938 20.3147 19.668 23.6936 22.9342 24.5451Z" fill="white"/>
</svg>
