<svg width="47" height="33" viewBox="0 0 47 33" fill="none" xmlns="http://www.w3.org/2000/svg">
<rect x="0.103271" y="0.119141" width="46.3448" height="32" rx="2.2069" fill="white" fill-opacity="0.1"/>
<path d="M20.6802 22.0658H17.5947L19.5246 10.8652H22.61L20.6802 22.0658Z" fill="white"/>
<path d="M31.8653 11.139C31.2567 10.9123 30.2914 10.6621 29.0979 10.6621C26.0508 10.6621 23.9051 12.1872 23.8919 14.3677C23.8666 15.9764 25.4282 16.8699 26.5961 17.4063C27.7899 17.9544 28.1957 18.3122 28.1957 18.8007C28.1835 19.5511 27.2311 19.897 26.3427 19.897C25.1108 19.897 24.4508 19.7187 23.4477 19.3012L23.0414 19.1222L22.6096 21.6365C23.3333 21.946 24.6666 22.2206 26.0508 22.2326C29.2883 22.2326 31.3961 20.7311 31.4211 18.4075C31.4334 17.1325 30.6088 16.1555 28.8311 15.3571C27.7519 14.8447 27.091 14.4991 27.091 13.9747C27.1037 13.498 27.65 13.0098 28.8682 13.0098C29.8713 12.9859 30.6083 13.2122 31.1666 13.4387L31.4457 13.5576L31.8653 11.139Z" fill="white"/>
<path fill-rule="evenodd" clip-rule="evenodd" d="M37.3887 10.8652H39.7754L42.2646 22.0656H39.4077C39.4077 22.0656 39.1281 20.7787 39.0395 20.3855H35.078C34.9634 20.6832 34.4304 22.0656 34.4304 22.0656H31.1929L35.776 11.7946C36.0936 11.0676 36.6527 10.8652 37.3887 10.8652ZM37.1989 14.9641C37.1989 14.9641 36.2211 17.4545 35.967 18.0979H38.5317C38.4048 17.5379 37.8205 14.8569 37.8205 14.8569L37.6049 13.8918C37.514 14.1403 37.3827 14.482 37.2942 14.7124C37.2341 14.8686 37.1937 14.9738 37.1989 14.9641Z" fill="white"/>
<path fill-rule="evenodd" clip-rule="evenodd" d="M4.22559 10.8652H9.18988C9.86277 10.8888 10.4088 11.0914 10.5864 11.8067L11.6649 16.951C11.6652 16.952 11.6655 16.953 11.6659 16.9541L11.9961 18.5031L15.0178 10.8654H18.2805L13.4306 22.0541H10.1677L7.41762 12.3218C6.46869 11.801 5.38568 11.3822 4.1748 11.0915L4.22559 10.8652Z" fill="white"/>
</svg>
