<svg width="44" height="45" viewBox="0 0 44 45" fill="none" xmlns="http://www.w3.org/2000/svg">
<path d="M22 44.6787C34.1503 44.6787 44 34.829 44 22.6787C44 10.5284 34.1503 0.678711 22 0.678711C9.84974 0.678711 0 10.5284 0 22.6787C0 34.829 9.84974 44.6787 22 44.6787Z" fill="#25D366"/>
<path fill-rule="evenodd" clip-rule="evenodd" d="M22.725 34.9183H22.7196C20.5302 34.9175 18.3789 34.3682 16.4681 33.3259L9.5332 35.1451L11.3891 28.3662C10.2443 26.3823 9.6419 24.1318 9.64288 21.8262C9.64575 14.6133 15.5143 8.74512 22.7249 8.74512C26.2245 8.74663 29.509 10.109 31.9789 12.5817C34.4487 15.0544 35.8082 18.3411 35.8068 21.8365C35.8039 29.0477 29.9377 34.9153 22.725 34.9183ZM16.7894 30.9577L17.1865 31.1934C18.8559 32.184 20.7695 32.7082 22.7206 32.709H22.725C28.718 32.709 33.5956 27.8312 33.598 21.8358C33.5992 18.9304 32.4693 16.1986 30.4164 14.1434C28.3636 12.0881 25.6335 10.9557 22.7293 10.9547C16.7317 10.9547 11.854 15.832 11.8516 21.827C11.8508 23.8815 12.4256 25.8823 13.5141 27.6135L13.7726 28.0249L12.6742 32.0372L16.7894 30.9577ZM28.8679 24.6531C29.0959 24.7633 29.2499 24.8377 29.3156 24.9474C29.3973 25.0837 29.3973 25.7381 29.125 26.5018C28.8525 27.2653 27.5467 27.9622 26.9186 28.056C26.3555 28.1402 25.6428 28.1753 24.8598 27.9265C24.3851 27.7758 23.7763 27.5747 22.9964 27.2379C19.932 25.9147 17.8612 22.9447 17.4698 22.3834C17.4423 22.3441 17.4232 22.3166 17.4125 22.3023L17.4098 22.2987C17.2368 22.0679 16.0778 20.5214 16.0778 18.9209C16.0778 17.4152 16.8174 16.626 17.1578 16.2628C17.1811 16.2379 17.2026 16.215 17.2218 16.194C17.5214 15.8668 17.8756 15.785 18.0935 15.785C18.3113 15.785 18.5295 15.787 18.7199 15.7965C18.7434 15.7977 18.7679 15.7976 18.7931 15.7974C18.9836 15.7963 19.2211 15.7949 19.4554 16.3576C19.5455 16.5742 19.6774 16.8953 19.8165 17.2339C20.0977 17.9187 20.4085 18.6752 20.4632 18.7847C20.5449 18.9483 20.5994 19.1391 20.4904 19.3574C20.4741 19.3901 20.4589 19.421 20.4445 19.4505C20.3627 19.6176 20.3025 19.7405 20.1636 19.9026C20.109 19.9664 20.0525 20.0351 19.9961 20.1039C19.8836 20.2408 19.7712 20.3778 19.6733 20.4753C19.5096 20.6383 19.3393 20.8152 19.5299 21.1424C19.7206 21.4697 20.3766 22.54 21.3484 23.4068C22.3929 24.3385 23.3008 24.7323 23.761 24.9319C23.8508 24.9709 23.9236 25.0025 23.977 25.0292C24.3038 25.1929 24.4944 25.1655 24.6851 24.9474C24.8758 24.7292 25.5022 23.9929 25.7201 23.6657C25.938 23.3386 26.156 23.3931 26.4556 23.5021C26.7552 23.6113 28.3623 24.402 28.6892 24.5656C28.753 24.5975 28.8126 24.6263 28.8679 24.6531Z" fill="#FDFDFD"/>
</svg>
