<svg width="162" height="160" viewBox="0 0 162 160" fill="none" xmlns="http://www.w3.org/2000/svg">
<path fill-rule="evenodd" clip-rule="evenodd" d="M70.4877 0.337342C50.8853 3.04936 31.5545 14.1828 18.7945 30.1104C6.9048 44.9509 0.947021 61.6379 0.947021 80.0972C0.947021 88.3643 1.82795 94.5055 4.13148 102.292C12.5672 130.809 38.4439 154.08 67.2636 159.067C73.6367 160.17 88.37 160.17 94.7431 159.067C123.48 154.094 149.409 130.763 157.878 102.258C160.197 94.4537 161.061 88.3506 161.053 79.833C161.04 66.8109 158.692 56.9447 152.759 44.9858C144.761 28.8643 132.072 16.2221 115.881 8.24511C103.197 1.99563 96.6403 0.353724 83.1172 0.0408797C78.1761 -0.0732661 72.4926 0.0599039 70.4877 0.337342ZM92.4042 7.48889C108.16 10.1671 121.554 17.2346 133.32 29.0799C148.344 44.2042 156.319 65.9136 154.246 86.0381C152.318 104.74 145.047 119.559 131.335 132.731C120.755 142.893 109.252 148.983 94.8425 152.049C87.2259 153.67 74.7808 153.67 67.1642 152.049C52.7544 148.983 41.2521 142.893 30.672 132.731C17.0146 119.612 9.76795 104.922 7.78414 86.333C6.07935 70.3615 10.6727 53.2429 20.5077 38.9112C32.0861 22.0398 50.2633 10.5692 70.6985 7.23946C75.6031 6.44044 87.005 6.5715 92.4042 7.48889ZM71.8273 13.7949C63.3779 15.2825 51.7762 19.9953 45.6911 24.4115C42.6979 26.5835 42.3386 28.5969 44.6231 30.3936C46.3057 31.7169 46.6413 31.6291 52.3036 28.3807C62.3844 22.5979 70.7223 20.2209 81.0034 20.2003C88.6966 20.185 92.4491 20.7795 99.4527 23.1242C119.076 29.6939 133.88 45.6168 139.402 66.0932C141.004 72.0352 141.398 82.898 140.25 89.4789C135.89 114.474 115.786 134.69 90.9927 139.014C62.5672 143.971 33.8247 126.735 24.2011 98.9609C18.4092 82.2449 20.6329 64.7134 30.5235 49.1178C32.3878 46.178 32.5321 44.5731 31.0646 43.1055C29.2684 41.3093 27.5974 41.7432 25.5745 44.5308C23.0591 47.9969 19.1792 55.9829 17.3328 61.4941C8.72109 87.1981 18.8594 116.824 42.1346 133.969C47.0143 137.563 56.3061 142.32 61.7148 143.991C71.1768 146.916 83.894 147.567 93.4627 145.617C128.322 138.513 152.274 104.977 147.083 70.5407C142.907 42.8397 121.18 20.0386 93.4616 14.2689C87.7163 13.0731 77.2318 12.8432 71.8273 13.7949ZM103.991 52.6579C102.258 53.441 97.527 57.8071 86.5415 68.763L71.4701 83.7938L65.9319 78.2091C62.8859 75.1377 59.7649 72.2915 58.996 71.884C53.3246 68.8803 45.9273 70.6739 42.476 75.8897C39.8665 79.8319 39.5457 84.9733 41.6516 89.0809C42.1732 90.0982 47.6739 95.9513 53.8747 102.088C65.9224 114.01 66.8567 114.662 71.8025 114.601C76.9972 114.538 77.9447 113.769 99.5447 92.0984C112.628 78.9727 120.021 71.1664 120.67 69.7924C122.073 66.8209 121.984 61.5232 120.484 58.6193C117.375 52.6029 110.009 49.9406 103.991 52.6579ZM111.912 59.2202C112.752 59.6546 113.81 60.5397 114.264 61.1876C115.152 62.4559 115.355 65.6467 114.621 66.8051C114.174 67.5111 90.877 90.986 79.7969 101.896C74.06 107.544 74.0125 107.577 71.4643 107.577H68.9007L58.1187 96.8307C47.6702 86.417 47.3277 86.009 47.0603 83.6336C46.8051 81.3682 46.925 81.0416 48.6478 79.3188C50.2606 77.706 50.852 77.455 53.0361 77.455H55.561L63.5486 85.3833L71.5367 93.3112L88.1602 76.675C97.303 67.5248 105.497 59.6821 106.369 59.2466C108.393 58.2357 109.993 58.2283 111.912 59.2202Z" fill="url(#paint0_linear_1_159)"/>
<defs>
<linearGradient id="paint0_linear_1_159" x1="0.947021" y1="0" x2="160.93" y2="102.524" gradientUnits="userSpaceOnUse">
<stop stop-color="#F06E04"/>
<stop offset="1" stop-color="#ED4E09"/>
</linearGradient>
</defs>
</svg>
