<svg width="39" height="41" viewBox="0 0 39 41" fill="none" xmlns="http://www.w3.org/2000/svg">
<path d="M39 20.9545C39 19.5364 38.8734 18.1727 38.6382 16.8636H19.898V24.6091H30.6067C30.1364 27.1 28.7254 29.2091 26.609 30.6273V35.6636H33.0668C36.8293 32.1727 39 27.0455 39 20.9545Z" fill="#4285F4"/>
<path d="M19.898 40.5C25.2704 40.5 29.7746 38.7182 33.0668 35.6636L26.609 30.6273C24.8363 31.8273 22.5751 32.5545 19.898 32.5545C14.7245 32.5545 10.3289 29.0455 8.7551 24.3182H2.13451V29.4818C5.40863 36.0091 12.1197 40.5 19.898 40.5Z" fill="#34A853"/>
<path d="M8.7551 24.3C8.35714 23.1 8.12198 21.8273 8.12198 20.5C8.12198 19.1727 8.35714 17.9 8.7551 16.7V11.5364H2.13451C0.777829 14.2273 0 17.2636 0 20.5C0 23.7364 0.777829 26.7727 2.13451 29.4636L7.28989 25.4273L8.7551 24.3Z" fill="#FBBC05"/>
<path d="M19.898 8.46364C22.8284 8.46364 25.4332 9.48182 27.5135 11.4455L33.2115 5.71818C29.7565 2.48182 25.2704 0.5 19.898 0.5C12.1197 0.5 5.40863 4.99091 2.13451 11.5364L8.7551 16.7C10.3288 11.9727 14.7245 8.46364 19.898 8.46364Z" fill="#EA4335"/>
</svg>
