<svg width="320" height="42" viewBox="0 0 320 42" fill="none" xmlns="http://www.w3.org/2000/svg">
<path fill-rule="evenodd" clip-rule="evenodd" d="M7.91187 0.136152C5.68114 0.57407 4.19204 1.33893 2.77609 2.77449C1.29019 4.28089 0.503722 6.00923 0.212371 8.40868C0.133669 9.0559 0.0694024 9.6341 0.0694024 9.6934C0.0694024 9.75271 1.5281 9.80118 3.31091 9.80118H6.55255L6.6407 8.75701C6.73425 7.64979 7.04281 6.87381 7.58609 6.37992C8.54954 5.50395 9.92745 5.32367 10.8733 5.95006C11.9354 6.6534 12.1641 7.99326 11.4723 9.45674C10.7904 10.8991 9.80211 11.7524 3.95593 15.948L0 18.7869V24.454H18.461L18.5376 20.2179H26.7453L26.6952 22.2665C26.6326 24.8225 26.569 24.96 24.4213 27.1768C22.1978 29.4721 21.5841 30.8056 21.5841 33.3429C21.5841 34.9061 21.8336 35.9243 22.5849 37.4279C23.7925 39.8445 25.9444 41.3979 28.7115 41.8503C29.9316 42.0499 30.1709 42.0499 31.391 41.8503C34.6995 41.3093 37.3369 38.9685 38.1741 35.8302C38.2944 35.3789 38.509 34.2552 38.6552 33.0651C38.8013 31.8751 39.1429 30.0001 39.1429 30.0001C39.0734 29.4809 39.0924 29.1385 38.8013 28.703C38.2499 27.8781 37.4208 27.6019 36.3872 27.9132C34.9259 28.3532 34.1772 29.4811 33.5992 32.1135C33.4122 32.965 33.1699 33.8758 33.0606 34.1375C32.7883 34.7897 32.0883 35.5585 31.5216 35.8275C30.8865 36.129 29.7025 36.1075 28.9846 35.7814C27.5881 35.147 27.0814 33.0646 27.9228 31.4186C28.0456 31.1783 28.9709 30.1381 29.9792 29.1068C32.7132 26.3101 32.9661 25.7378 32.9661 22.3454V20.2179H35.6034V14.8116L33.0355 14.7318L32.9636 0.0789293L25.6789 0.0812901L16.9342 14.5929L16.8452 18.829H13.0379C10.9438 18.829 9.2319 18.782 9.23343 18.7248C9.23509 18.6676 9.50063 18.4369 9.82335 18.2122C12.1153 16.6172 14.8876 14.4309 15.8237 13.4799C17.7276 11.5462 18.5544 9.74396 18.5619 7.51187C18.574 3.94366 16.4592 1.24421 12.9088 0.29643C11.7359 -0.0167652 9.11836 -0.100654 7.91187 0.136152ZM26.8587 11.2595V14.8012H24.6924C22.7502 14.8012 22.5351 14.7779 22.6125 14.5756C22.7137 14.3119 26.7572 7.71784 26.8178 7.71784C26.8402 7.71784 26.8587 9.3116 26.8587 11.2595Z" fill="url(#paint0_linear_1_299)"/>
<path fill-rule="evenodd" clip-rule="evenodd" d="M35.3952 7.84725C35.3952 7.84725 35.3952 12.1585 35.3952 13.75H45.3865L44.8955 14.6181C42.1185 19.5277 40.2928 28.7391 39.6257 33.8696C39.503 34.8136 39.4358 35.673 39.4766 35.7791C39.5373 35.9373 40.2135 35.9723 43.2121 35.9723C46.2107 35.9723 46.8735 35.9723 46.8735 35.9723C46.8735 35.9723 46.5736 39.6053 47.0426 33.9237C47.5116 28.2422 49.2914 18.6605 51.9288 14.4056L52.607 13.3114V7.84725C47.9245 7.84725 35.3952 7.84725 35.3952 7.84725Z" fill="url(#paint1_linear_1_299)"/>
<path d="M70.2435 19.1281H83.5668V24.1657H70.2435V19.1281ZM70.7179 30.6425H85.7807V35.84H64.3528V7.85362H85.2668V13.0511H70.7179V30.6425Z" fill="url(#paint2_linear_1_299)"/>
<path d="M90.9539 35.84V7.85362H103.842C107.058 7.85362 109.562 8.47998 111.354 9.73271C113.146 10.9854 114.042 12.7712 114.042 15.0901C114.042 17.3823 113.199 19.1681 111.512 20.4475C109.825 21.7002 107.585 22.3266 104.791 22.3266L105.542 20.6474C108.652 20.6474 111.064 21.2737 112.777 22.5265C114.49 23.7792 115.347 25.5916 115.347 27.9638C115.347 30.416 114.424 32.3484 112.579 33.761C110.761 35.147 108.099 35.84 104.593 35.84H90.9539ZM97.319 31.0423H104.356C105.832 31.0423 106.952 30.7491 107.717 30.1628C108.481 29.5764 108.863 28.6701 108.863 27.4441C108.863 26.2713 108.481 25.4051 107.717 24.8453C106.952 24.259 105.832 23.9658 104.356 23.9658H97.319V31.0423ZM97.319 19.448H103.289C104.686 19.448 105.74 19.1681 106.452 18.6084C107.163 18.022 107.519 17.1691 107.519 16.0496C107.519 14.9302 107.163 14.0906 106.452 13.5309C105.74 12.9445 104.686 12.6513 103.289 12.6513H97.319V19.448Z" fill="url(#paint3_linear_1_299)"/>
<path d="M117.289 35.84L129.624 7.85362H135.949L148.324 35.84H141.603L131.482 11.132H134.012L123.852 35.84H117.289ZM123.456 29.8429L125.156 24.9253H139.389L141.128 29.8429H123.456Z" fill="url(#paint4_linear_1_299)"/>
<path d="M169.903 35.84L161.284 22.3665L166.463 19.2081L177.177 35.84H169.903ZM151.914 35.84V7.85362H158.28V35.84H151.914ZM156.421 24.5655V19.1681H166.068V24.5655H156.421ZM167.056 22.5665L161.166 21.8468L170.14 7.85362H176.9L167.056 22.5665Z" fill="url(#paint5_linear_1_299)"/>
<path d="M181.59 30.5626C183.118 31.0157 184.397 31.1489 185.425 30.9624C186.479 30.7491 187.415 30.0028 188.232 28.7234L189.576 26.6844L190.169 26.0048L199.341 7.85362H205.627L193.846 30.0028C192.791 32.0019 191.539 33.5344 190.09 34.6006C188.666 35.6667 187.098 36.2664 185.385 36.3997C183.672 36.5596 181.893 36.2531 180.048 35.4802L181.59 30.5626ZM190.05 31.4021L177.557 7.85362H184.397L193.569 26.6445L190.05 31.4021Z" fill="url(#paint6_linear_1_299)"/>
<path d="M204.621 35.84L216.955 7.85362H223.281L235.655 35.84H228.935L218.814 11.132H221.344L211.183 35.84H204.621ZM210.788 29.8429L212.488 24.9253H226.721L228.46 29.8429H210.788Z" fill="url(#paint7_linear_1_299)"/>
<path d="M243.905 35.84V11.6518L245.368 13.1311H235.089V7.85362H259.087V13.1311H248.808L250.231 11.6518V35.84H243.905Z" fill="url(#paint8_linear_1_299)"/>
<path d="M275.966 36.3197C273.779 36.3197 271.749 35.9599 269.878 35.2403C268.033 34.5206 266.425 33.5078 265.055 32.2018C263.71 30.8957 262.656 29.3631 261.892 27.604C261.154 25.8449 260.785 23.9258 260.785 21.8468C260.785 19.7678 261.154 17.8488 261.892 16.0896C262.656 14.3305 263.724 12.7979 265.094 11.4918C266.465 10.1858 268.072 9.17298 269.917 8.45333C271.762 7.73368 273.765 7.37386 275.927 7.37386C278.114 7.37386 280.117 7.73368 281.936 8.45333C283.781 9.17298 285.375 10.1858 286.72 11.4918C288.09 12.7979 289.158 14.3305 289.922 16.0896C290.686 17.8221 291.069 19.7412 291.069 21.8468C291.069 23.9258 290.686 25.8582 289.922 27.644C289.158 29.4031 288.09 30.9357 286.72 32.2417C285.375 33.5211 283.781 34.5206 281.936 35.2403C280.117 35.9599 278.127 36.3197 275.966 36.3197ZM275.927 30.8024C277.165 30.8024 278.299 30.5892 279.327 30.1628C280.381 29.7363 281.303 29.1233 282.094 28.3236C282.885 27.524 283.491 26.5778 283.913 25.485C284.361 24.3922 284.585 23.1795 284.585 21.8468C284.585 20.5141 284.361 19.3014 283.913 18.2086C283.491 17.1158 282.885 16.1696 282.094 15.37C281.33 14.5703 280.42 13.9573 279.366 13.5309C278.312 13.1044 277.165 12.8912 275.927 12.8912C274.688 12.8912 273.541 13.1044 272.487 13.5309C271.459 13.9573 270.55 14.5703 269.759 15.37C268.969 16.1696 268.349 17.1158 267.901 18.2086C267.479 19.3014 267.269 20.5141 267.269 21.8468C267.269 23.1528 267.479 24.3656 267.901 25.485C268.349 26.5778 268.955 27.524 269.72 28.3236C270.51 29.1233 271.433 29.7363 272.487 30.1628C273.541 30.5892 274.688 30.8024 275.927 30.8024Z" fill="url(#paint9_linear_1_299)"/>
<path d="M296.002 35.84V7.85362H307.981C310.459 7.85362 312.594 8.26675 314.386 9.09302C316.178 9.89263 317.562 11.0521 318.537 12.5713C319.512 14.0906 320 15.903 320 18.0087C320 20.0877 319.512 21.8868 318.537 23.406C317.562 24.9253 316.178 26.0981 314.386 26.9243C312.594 27.7239 310.459 28.1237 307.981 28.1237H299.56L302.407 25.2052V35.84H296.002ZM302.407 25.9248L299.56 22.8463H307.626C309.602 22.8463 311.078 22.4199 312.053 21.5669C313.029 20.714 313.516 19.5279 313.516 18.0087C313.516 16.4628 313.029 15.2633 312.053 14.4104C311.078 13.5575 309.602 13.1311 307.626 13.1311H299.56L302.407 10.0526V25.9248Z" fill="url(#paint10_linear_1_299)"/>
<defs>
<linearGradient id="paint0_linear_1_299" x1="0" y1="0" x2="18.2051" y2="88.7715" gradientUnits="userSpaceOnUse">
<stop stop-color="#F06E04"/>
<stop offset="1" stop-color="#ED4E09"/>
</linearGradient>
<linearGradient id="paint1_linear_1_299" x1="0" y1="0" x2="18.2051" y2="88.7715" gradientUnits="userSpaceOnUse">
<stop stop-color="#F06E04"/>
<stop offset="1" stop-color="#ED4E09"/>
</linearGradient>
<linearGradient id="paint2_linear_1_299" x1="0" y1="0" x2="18.2051" y2="88.7715" gradientUnits="userSpaceOnUse">
<stop stop-color="#F06E04"/>
<stop offset="1" stop-color="#ED4E09"/>
</linearGradient>
<linearGradient id="paint3_linear_1_299" x1="0" y1="0" x2="18.2051" y2="88.7715" gradientUnits="userSpaceOnUse">
<stop stop-color="#F06E04"/>
<stop offset="1" stop-color="#ED4E09"/>
</linearGradient>
<linearGradient id="paint4_linear_1_299" x1="0" y1="0" x2="18.2051" y2="88.7715" gradientUnits="userSpaceOnUse">
<stop stop-color="#F06E04"/>
<stop offset="1" stop-color="#ED4E09"/>
</linearGradient>
<linearGradient id="paint5_linear_1_299" x1="0" y1="0" x2="18.2051" y2="88.7715" gradientUnits="userSpaceOnUse">
<stop stop-color="#F06E04"/>
<stop offset="1" stop-color="#ED4E09"/>
</linearGradient>
<linearGradient id="paint6_linear_1_299" x1="0" y1="0" x2="18.2051" y2="88.7715" gradientUnits="userSpaceOnUse">
<stop stop-color="#F06E04"/>
<stop offset="1" stop-color="#ED4E09"/>
</linearGradient>
<linearGradient id="paint7_linear_1_299" x1="0" y1="0" x2="18.2051" y2="88.7715" gradientUnits="userSpaceOnUse">
<stop stop-color="#F06E04"/>
<stop offset="1" stop-color="#ED4E09"/>
</linearGradient>
<linearGradient id="paint8_linear_1_299" x1="0" y1="0" x2="18.2051" y2="88.7715" gradientUnits="userSpaceOnUse">
<stop stop-color="#F06E04"/>
<stop offset="1" stop-color="#ED4E09"/>
</linearGradient>
<linearGradient id="paint9_linear_1_299" x1="0" y1="0" x2="18.2051" y2="88.7715" gradientUnits="userSpaceOnUse">
<stop stop-color="#F06E04"/>
<stop offset="1" stop-color="#ED4E09"/>
</linearGradient>
<linearGradient id="paint10_linear_1_299" x1="0" y1="0" x2="18.2051" y2="88.7715" gradientUnits="userSpaceOnUse">
<stop stop-color="#F06E04"/>
<stop offset="1" stop-color="#ED4E09"/>
</linearGradient>
</defs>
</svg>
