<svg width="33" height="32" viewBox="0 0 33 32" fill="none" xmlns="http://www.w3.org/2000/svg">
<path fill-rule="evenodd" clip-rule="evenodd" d="M15.7733 30.6668H17.2413L18.5666 29.0108C20.3079 26.8348 22.4079 24.0442 24.0826 21.1562C25.7053 18.3562 27.1666 15.0735 27.1666 12.0002C27.1666 5.86016 22.6399 1.3335 16.4999 1.3335C10.3599 1.3335 5.83325 5.86016 5.83325 12.0002C5.83325 15.0575 7.25059 18.3402 8.86125 21.1562C10.5213 24.0588 12.6213 26.8575 14.4306 29.0442L15.7733 30.6668ZM8.49992 12.0002C8.49992 15.9335 11.6813 21.1282 14.7826 25.2002C15.3293 25.9202 15.8893 26.5962 16.4159 27.2322L16.4999 27.3335C17.0359 26.6624 17.5901 25.9464 18.1626 25.1855C21.2373 21.0975 24.4999 15.9322 24.4999 12.0002C24.4999 7.3335 21.1666 4.00016 16.4999 4.00016C11.8333 4.00016 8.49992 7.3335 8.49992 12.0002Z" fill="white"/>
<path d="M16.5001 13.3332C17.2365 13.3332 17.8334 12.7362 17.8334 11.9998C17.8334 11.2635 17.2365 10.6665 16.5001 10.6665C15.7637 10.6665 15.1667 11.2635 15.1667 11.9998C15.1667 12.7362 15.7637 13.3332 16.5001 13.3332Z" fill="white"/>
<path fill-rule="evenodd" clip-rule="evenodd" d="M16.4999 14.6668C17.2072 14.6668 17.8854 14.3859 18.3855 13.8858C18.8856 13.3857 19.1666 12.7074 19.1666 12.0002C19.1666 11.2929 18.8856 10.6146 18.3855 10.1145C17.8854 9.61445 17.2072 9.3335 16.4999 9.3335C15.7927 9.3335 15.1144 9.61445 14.6143 10.1145C14.1142 10.6146 13.8333 11.2929 13.8333 12.0002C13.8333 12.7074 14.1142 13.3857 14.6143 13.8858C15.1144 14.3859 15.7927 14.6668 16.4999 14.6668Z" fill="white"/>
</svg>
