<svg width="33" height="32" viewBox="0 0 33 32" fill="none" xmlns="http://www.w3.org/2000/svg">
<path d="M21.8333 2.6665H11.1667C10.4594 2.6665 9.78115 2.94746 9.28105 3.44755C8.78095 3.94765 8.5 4.62593 8.5 5.33317V26.6665C8.5 27.3737 8.78095 28.052 9.28105 28.5521C9.78115 29.0522 10.4594 29.3332 11.1667 29.3332H21.8333C22.5406 29.3332 23.2189 29.0522 23.719 28.5521C24.219 28.052 24.5 27.3737 24.5 26.6665V5.33317C24.5 4.62593 24.219 3.94765 23.719 3.44755C23.2189 2.94746 22.5406 2.6665 21.8333 2.6665ZM17.8333 27.9998H15.1667V26.6665H17.8333V27.9998ZM21.8333 25.3332H11.1667V6.6665H21.8333V25.3332Z" fill="white"/>
</svg>
