<svg width="12" height="12" viewBox="0 0 12 12" fill="none" xmlns="http://www.w3.org/2000/svg">
<path d="M11.2111 8.53765C11.1513 8.49244 11.092 8.44646 11.0334 8.39972C10.7286 8.15589 10.4046 7.93175 10.0918 7.7144L9.89665 7.57893C9.49524 7.29877 9.13472 7.16268 8.79402 7.16268C8.33438 7.16268 7.93421 7.41514 7.60342 7.91205C7.45723 8.13249 7.27945 8.23963 7.06078 8.23963C6.90879 8.23511 6.7596 8.19793 6.62344 8.13064C5.32878 7.54691 4.40331 6.65161 3.87429 5.46999C3.61846 4.89858 3.70146 4.52544 4.15119 4.22126C4.40702 4.04885 4.88215 3.72804 4.84932 3.11291C4.81091 2.41527 3.26165 0.314954 2.60874 0.0766597C2.32965 -0.0247001 2.02365 -0.0255716 1.74398 0.0741968C0.993818 0.324806 0.456129 0.765682 0.186665 1.34756C-0.0735064 1.91036 -0.0611173 2.57105 0.220116 3.25823C1.0347 5.24525 2.17946 6.97796 3.62341 8.40773C5.03639 9.80732 6.77335 10.9532 8.78535 11.8147C8.96685 11.8922 9.15702 11.9347 9.2964 11.9655C9.34348 11.976 9.38436 11.9852 9.41409 11.9932C9.43043 11.9977 9.44731 12 9.46427 12H9.48038C10.4269 12 11.5636 11.1404 11.9124 10.1608C12.2184 9.30241 11.6596 8.87816 11.2111 8.53765Z" fill="white"/>
</svg>
