<svg width="160" height="160" viewBox="0 0 160 160" fill="none" xmlns="http://www.w3.org/2000/svg">
<path fill-rule="evenodd" clip-rule="evenodd" d="M90.5053 159.662C110.095 156.949 129.413 145.808 142.164 129.87C154.046 115.019 160 98.3214 160 79.8498C160 71.5772 159.12 65.432 156.818 57.6401C148.388 29.1044 122.528 5.81801 93.7273 0.827708C87.3584 -0.275903 72.6348 -0.275903 66.2659 0.827708C37.5482 5.80374 11.6363 29.1504 3.17238 57.6745C0.855596 65.4838 -0.00786759 71.591 5.39551e-05 80.1142C0.0127284 93.145 2.35909 103.018 8.28811 114.984C16.281 131.117 28.9618 143.767 45.1418 151.749C57.8179 158.003 64.37 159.646 77.8842 159.959C82.822 160.073 88.5017 159.94 90.5053 159.662ZM68.6033 152.506C52.8579 149.826 39.4731 142.754 27.7144 130.901C12.7004 115.767 4.73028 94.0429 6.80256 73.905C8.72908 55.1912 15.9958 40.3615 29.6985 27.1816C40.2716 17.0122 51.7663 10.9188 66.1666 7.85074C73.7782 6.22837 86.215 6.22837 93.8266 7.85074C108.227 10.9188 119.722 17.0122 130.295 27.1816C143.943 40.3092 151.185 55.0088 153.167 73.6099C154.871 89.5919 150.281 106.722 140.452 121.063C128.882 137.946 110.716 149.424 90.2946 152.756C85.3933 153.555 73.9989 153.424 68.6033 152.506ZM89.1666 146.196C97.6104 144.707 109.204 139.992 115.286 135.572C118.277 133.399 118.636 131.384 116.353 129.586C114.671 128.262 114.336 128.35 108.677 131.601C98.6033 137.387 90.2709 139.766 79.9966 139.786C72.3085 139.802 68.5584 139.207 61.5595 136.861C41.9489 130.286 27.1546 114.353 21.637 93.8631C20.0358 87.9172 19.6418 77.0472 20.7894 70.462C25.1467 45.4507 45.2374 25.2208 70.0139 20.8942C98.4205 15.934 127.144 33.1814 136.761 60.9737C142.549 77.7008 140.327 95.2438 130.443 110.85C128.58 113.792 128.436 115.397 129.902 116.866C131.697 118.663 133.367 118.229 135.389 115.44C137.903 111.971 141.78 103.98 143.625 98.4652C152.231 72.7443 142.099 43.0991 118.84 25.9427C113.963 22.3457 104.678 17.586 99.2724 15.9134C89.8167 12.987 77.1079 12.3355 67.5455 14.2868C32.7097 21.395 8.77291 54.9538 13.961 89.4127C18.1335 117.132 39.8465 139.948 67.5466 145.722C73.2881 146.918 83.7657 147.148 89.1666 146.196Z" fill="url(#paint0_linear_1_166)"/>
<path d="M80.736 41.6C85.216 41.6 89.184 42.4 92.64 44C96.16 45.536 98.912 47.712 100.896 50.528C102.88 53.344 103.872 56.64 103.872 60.416C103.872 63.168 103.232 65.76 101.952 68.192C100.672 70.56 98.496 72.64 95.424 74.432L83.328 73.664C88 72.96 91.36 71.52 93.408 69.344C95.456 67.168 96.48 64.48 96.48 61.28C96.48 57.184 95.04 54.08 92.16 51.968C89.344 49.792 85.568 48.704 80.832 48.704C77.888 48.768 75.36 49.184 73.248 49.952C71.136 50.72 69.344 51.776 67.872 53.12C66.464 54.4 65.248 55.776 64.224 57.248C63.712 58.144 62.944 58.752 61.92 59.072C60.96 59.392 60 59.328 59.04 58.88C58.144 58.368 57.568 57.632 57.312 56.672C57.12 55.712 57.344 54.72 57.984 53.696C59.392 51.52 61.184 49.536 63.36 47.744C65.536 45.888 68.064 44.416 70.944 43.328C73.888 42.176 77.152 41.6 80.736 41.6ZM55.392 72.32H104.544C105.312 72.32 105.92 72.576 106.368 73.088C106.88 73.6 107.136 74.272 107.136 75.104C107.136 75.872 106.88 76.544 106.368 77.12C105.92 77.632 105.312 77.888 104.544 77.888H55.392C54.624 77.888 53.984 77.632 53.472 77.12C53.024 76.544 52.8 75.872 52.8 75.104C52.8 74.272 53.024 73.6 53.472 73.088C53.984 72.576 54.624 72.32 55.392 72.32ZM55.392 84.416H104.544C105.312 84.416 105.92 84.704 106.368 85.28C106.88 85.792 107.136 86.432 107.136 87.2C107.136 88.032 106.88 88.704 106.368 89.216C105.92 89.728 105.312 89.984 104.544 89.984H55.392C54.624 89.984 53.984 89.728 53.472 89.216C53.024 88.704 52.8 88.032 52.8 87.2C52.8 86.432 53.024 85.792 53.472 85.28C53.984 84.704 54.624 84.416 55.392 84.416ZM81.408 118.496C76.48 118.496 72.16 117.728 68.448 116.192C64.8 114.592 61.952 112.288 59.904 109.28C57.856 106.272 56.832 102.656 56.832 98.432C56.832 96.704 57.152 95.136 57.792 93.728C58.496 92.256 59.648 91.008 61.248 89.984C62.912 88.896 65.152 88.064 67.968 87.488L71.424 88.928C69.056 89.632 67.328 90.816 66.24 92.48C65.152 94.144 64.608 96.032 64.608 98.144C64.608 102.304 66.08 105.568 69.024 107.936C71.968 110.24 76.128 111.392 81.504 111.392C85.92 111.392 89.664 110.496 92.736 108.704C95.872 106.848 98.176 104.416 99.648 101.408C100.096 100.512 100.736 99.84 101.568 99.392C102.464 98.944 103.36 98.848 104.256 99.104C105.472 99.424 106.304 100.032 106.752 100.928C107.2 101.76 107.2 102.688 106.752 103.712C104.768 108.128 101.6 111.712 97.248 114.464C92.896 117.152 87.616 118.496 81.408 118.496Z" fill="url(#paint1_linear_1_166)"/>
<defs>
<linearGradient id="paint0_linear_1_166" x1="0" y1="0" x2="160" y2="102.4" gradientUnits="userSpaceOnUse">
<stop stop-color="#F06E04"/>
<stop offset="1" stop-color="#ED4E09"/>
</linearGradient>
<linearGradient id="paint1_linear_1_166" x1="0" y1="0" x2="160" y2="102.4" gradientUnits="userSpaceOnUse">
<stop stop-color="#F06E04"/>
<stop offset="1" stop-color="#ED4E09"/>
</linearGradient>
</defs>
</svg>
