<svg width="18" height="18" viewBox="0 0 18 18" fill="none" xmlns="http://www.w3.org/2000/svg">
<path d="M15.3979 7.55408C15.419 5.01588 13.2573 2.68919 10.5796 2.36709C10.5217 2.35975 10.4641 2.35097 10.4067 2.34076C10.272 2.31553 10.1355 2.30086 9.99855 2.29688C9.44914 2.29688 9.30257 2.68305 9.26395 2.91212C9.2265 3.1368 9.2619 3.32316 9.37015 3.47119C9.55182 3.71781 9.87217 3.7617 10.1293 3.7968C10.2039 3.80733 10.275 3.81699 10.3347 3.83015C12.7413 4.36816 13.5513 5.21335 13.9472 7.59972C13.9568 7.65764 13.9612 7.72961 13.9665 7.80597C13.984 8.09121 14.0191 8.68451 14.6572 8.68451C14.7104 8.68451 14.7672 8.68012 14.8275 8.67134C15.4208 8.58095 15.4023 8.03855 15.3936 7.77788C15.3909 7.70416 15.3883 7.63482 15.3953 7.58831L15.3971 7.5532L15.3979 7.55408Z" fill="white"/>
<path d="M9.84255 1.43586C9.91511 1.44054 9.98005 1.44668 10.0374 1.45429C13.9895 2.06251 15.8072 3.93457 16.3101 7.9174C16.3188 7.98498 16.3206 8.06748 16.3215 8.15437C16.3267 8.46594 16.3373 9.11366 17.0324 9.12682H17.0534C17.2723 9.12682 17.4443 9.06158 17.5695 8.9311C17.7854 8.70554 17.7714 8.3694 17.7582 8.09908C17.7553 8.03179 17.7535 7.97035 17.7529 7.91477C17.8038 3.84241 14.2774 0.148325 10.2085 0.0114096C10.191 0.0114096 10.1746 0.0122873 10.1594 0.0140426L10.1111 0.0166756C10.069 0.0160905 10.021 0.0137501 9.96718 0.0096543C9.90399 0.00526598 9.83114 0 9.75654 0C9.10883 0 8.98595 0.460773 8.97015 0.735482C8.93417 1.37003 9.54766 1.41479 9.84255 1.43586ZM16.1196 13.0649C16.0348 13.0005 15.9508 12.9349 15.8677 12.8683C15.4359 12.5207 14.9769 12.2013 14.5337 11.8915L14.2572 11.6984C13.6885 11.299 13.1777 11.1051 12.695 11.1051C12.0437 11.1051 11.4768 11.4649 11.0081 12.1732C10.801 12.4874 10.5491 12.6401 10.2393 12.6401C10.0239 12.6337 9.81253 12.5807 9.61963 12.4848C7.78531 11.6527 6.47408 10.3766 5.72455 8.69238C5.36208 7.87791 5.47969 7.34604 6.11687 6.91248C6.47935 6.66673 7.15251 6.20947 7.106 5.33268C7.05158 4.33829 4.85655 1.34458 3.93149 1.00492C3.53607 0.86045 3.10251 0.859208 2.70627 1.00141C1.64342 1.35862 0.881608 1.98703 0.499824 2.81642C0.131206 3.61861 0.148759 4.56034 0.547218 5.53981C1.70135 8.37203 3.32327 10.8418 5.3691 12.8797C7.37105 14.8746 9.83202 16.508 12.6827 17.7358C12.9398 17.8464 13.2093 17.907 13.4067 17.9508C13.4734 17.9658 13.5314 17.9789 13.5735 17.9903C13.5966 17.9968 13.6206 18 13.6446 18H13.6674C15.0085 18 16.619 16.7748 17.1131 15.3784C17.5467 14.155 16.755 13.5502 16.1196 13.0649ZM10.4359 4.6718C10.2068 4.67707 9.72846 4.68936 9.56082 5.17558C9.48183 5.40377 9.49119 5.59949 9.58891 5.76274C9.73109 5.99971 10.004 6.07343 10.2515 6.1138C11.1511 6.25774 11.6137 6.7545 11.7058 7.67868C11.7488 8.10873 12.0393 8.40977 12.4106 8.40977C12.4387 8.40937 12.4669 8.40761 12.4949 8.4045C12.9425 8.35185 13.1592 8.02272 13.1399 7.42679C13.147 6.8054 12.8222 6.09976 12.2684 5.53806C11.7137 4.9746 11.045 4.65688 10.4359 4.6718Z" fill="white"/>
</svg>
