<svg width="22" height="22" viewBox="0 0 22 22" fill="none" xmlns="http://www.w3.org/2000/svg">
<path d="M15.8108 13.0843C15.5497 12.9539 14.2652 12.3256 14.0261 12.2381C13.7861 12.1515 13.612 12.1086 13.437 12.3694C13.2638 12.6293 12.7627 13.2146 12.6106 13.3879C12.4585 13.562 12.3055 13.583 12.0444 13.4535C11.7833 13.3223 10.9411 13.0484 9.94321 12.1629C9.1669 11.4734 8.64203 10.622 8.48993 10.3613C8.33784 10.1014 8.47411 9.96052 8.60423 9.83102C8.72203 9.71464 8.86622 9.52739 8.99634 9.37602C9.12645 9.22464 9.17041 9.11527 9.25833 8.94114C9.34537 8.76789 9.30229 8.61652 9.23635 8.48614C9.17041 8.35577 8.64818 7.07565 8.43103 6.55502C8.21827 6.0484 8.00287 6.11752 7.84286 6.10877C7.6759 6.10221 7.50882 6.09929 7.34173 6.10002C7.16765 6.10002 6.88456 6.16477 6.64543 6.42552C6.40629 6.6854 5.73108 7.31452 5.73108 8.59464C5.73108 9.87389 6.6674 11.1103 6.79752 11.2844C6.92764 11.4585 8.64027 14.0844 11.2611 15.2105C11.8844 15.4783 12.3706 15.6384 12.7504 15.7574C13.3764 15.956 13.9461 15.928 14.3953 15.8606C14.8974 15.7863 15.9409 15.2315 16.159 14.6243C16.377 14.017 16.377 13.4964 16.3111 13.3879C16.246 13.2794 16.0728 13.2146 15.8108 13.0843ZM11.0439 19.5619H11.0404C9.48407 19.562 7.95634 19.1455 6.61729 18.3561L6.29991 18.1689L3.01092 19.0281L3.88834 15.8361L3.68173 15.5089C2.81173 14.1301 2.35149 12.5345 2.35418 10.9064C2.35506 6.13765 6.25419 2.2579 11.0474 2.2579C13.3685 2.2579 15.5506 3.15915 17.1911 4.79365C18.0007 5.59554 18.6425 6.54936 19.079 7.59984C19.5156 8.65033 19.7385 9.77659 19.7346 10.9134C19.7319 15.6821 15.8337 19.5619 11.0439 19.5619ZM18.4404 3.55203C17.4716 2.58178 16.319 1.81245 15.0494 1.28857C13.7798 0.764689 12.4183 0.49667 11.0439 0.500031C5.28095 0.500031 0.590555 5.16815 0.587917 10.9055C0.587917 12.7395 1.06883 14.5298 1.98405 16.1074L0.5 21.5L6.04319 20.0528C7.57636 20.8833 9.29397 21.3189 11.0395 21.3198H11.0439C16.806 21.3198 21.4973 16.6516 21.5 10.9134C21.5042 9.546 21.2361 8.19134 20.7109 6.92777C20.1857 5.66421 19.414 4.51683 18.4404 3.55203Z" fill="white"/>
</svg>
