<svg width="43" height="24" viewBox="0 0 43 24" fill="none" xmlns="http://www.w3.org/2000/svg">
<path fill-rule="evenodd" clip-rule="evenodd" d="M9.95136 7.91403C10.5362 7.96148 11.121 7.6293 11.4865 7.20813C11.8459 6.7751 12.0835 6.19378 12.0226 5.60059C11.5048 5.62431 10.8651 5.93277 10.4996 6.3658C10.1646 6.73951 9.87826 7.34456 9.95136 7.91403ZM16.9083 15.5544V6.30653H20.472C22.3118 6.30653 23.5972 7.54037 23.5972 9.34366C23.5972 11.147 22.2874 12.3927 20.4233 12.3927H18.3825V15.5544H16.9083ZM12.0165 8.02668C11.5013 7.99781 11.0312 8.17756 10.6514 8.32275C10.4071 8.41618 10.2002 8.4953 10.0427 8.4953C9.86606 8.4953 9.65059 8.41195 9.40866 8.31837L9.40866 8.31837L9.40866 8.31837C9.09166 8.19574 8.72924 8.05555 8.34919 8.06228C7.47805 8.07414 6.66783 8.55462 6.22313 9.31984C5.30935 10.8503 5.98554 13.1162 6.86886 14.3619C7.30139 14.9789 7.81919 15.6551 8.50148 15.6314C8.80165 15.6203 9.01757 15.5311 9.24103 15.4388C9.49829 15.3325 9.76554 15.2221 10.1828 15.2221C10.5857 15.2221 10.8412 15.3296 11.0866 15.4329C11.3198 15.531 11.5438 15.6253 11.8764 15.6195C12.583 15.6076 13.0277 15.0026 13.4603 14.3857C13.927 13.7236 14.1321 13.0774 14.1633 12.9793L14.1669 12.9679C14.1662 12.9672 14.1604 12.9647 14.1502 12.9601L14.1502 12.9601C13.9942 12.8906 12.8016 12.3589 12.7902 10.9333C12.7787 9.73671 13.7361 9.13045 13.8868 9.03501C13.896 9.0292 13.9022 9.02528 13.905 9.02324C13.2958 8.14532 12.3454 8.05041 12.0165 8.02668ZM26.2898 15.6254C27.2158 15.6254 28.0747 15.1687 28.4646 14.445H28.4951V15.5543H29.8596V10.9511C29.8596 9.61644 28.7631 8.75631 27.0757 8.75631C25.51 8.75631 24.3526 9.6283 24.31 10.8265H25.638C25.7476 10.2571 26.2898 9.88337 27.033 9.88337C27.9346 9.88337 28.4402 10.2927 28.4402 11.046V11.5562L26.6005 11.6629C24.8887 11.7638 23.9627 12.446 23.9627 13.6323C23.9627 14.8306 24.9191 15.6254 26.2898 15.6254ZM26.6857 14.5281C25.8999 14.5281 25.4003 14.1603 25.4003 13.5968C25.4003 13.0154 25.8816 12.6773 26.8015 12.6239L28.4402 12.5231V13.0451C28.4402 13.9111 27.6848 14.5281 26.6857 14.5281ZM34.3859 15.9161C33.795 17.5355 33.1188 18.0693 31.6811 18.0693C31.5715 18.0693 31.2059 18.0575 31.1207 18.0338V16.9245C31.212 16.9364 31.4374 16.9482 31.5532 16.9482C32.205 16.9482 32.5705 16.6813 32.7959 15.9873L32.9299 15.578L30.4323 8.84526H31.9735L33.7097 14.3085H33.7402L35.4763 8.84526H36.9749L34.3859 15.9161ZM18.3824 7.51658H20.082C21.3613 7.51658 22.0923 8.18095 22.0923 9.34953C22.0923 10.5181 21.3613 11.1884 20.0759 11.1884H18.3824V7.51658Z" fill="white"/>
</svg>
