<svg width="22" height="16" viewBox="0 0 22 16" fill="none" xmlns="http://www.w3.org/2000/svg">
<path fill-rule="evenodd" clip-rule="evenodd" d="M2.26249 15.0573C1.87023 14.9413 1.51232 14.7348 1.21896 14.4553C0.925599 14.1759 0.705403 13.8317 0.576947 13.4517C-0.157079 11.4879 -0.374569 3.28742 1.03911 1.66856C1.50961 1.14194 2.17389 0.817707 2.88777 0.766247C6.68024 0.368168 18.3975 0.421246 19.7432 0.898941C20.1217 1.01881 20.4675 1.22074 20.7547 1.48961C21.0419 1.75848 21.263 2.0873 21.4015 2.45145C22.2035 4.48166 22.2307 11.8594 21.2928 13.81C21.044 14.3177 20.6275 14.729 20.1102 14.9777C18.6965 15.6677 4.13833 15.6544 2.26249 15.0573ZM8.28422 11.2092L15.0808 7.75918L8.28422 4.28262V11.2092Z" fill="white"/>
</svg>
