<svg width="24" height="24" viewBox="0 0 24 24" fill="none" xmlns="http://www.w3.org/2000/svg">
<g clip-path="url(#clip0_254_351)">
<path d="M18.75 15C17.7117 15 16.6966 14.6921 15.8333 14.1152C14.9699 13.5383 14.297 12.7184 13.8996 11.7591C13.5023 10.7998 13.3983 9.74418 13.6009 8.72578C13.8035 7.70738 14.3035 6.77192 15.0377 6.03769C15.7719 5.30347 16.7074 4.80345 17.7258 4.60088C18.7442 4.39831 19.7998 4.50227 20.7591 4.89963C21.7184 5.29699 22.5383 5.9699 23.1152 6.83326C23.6921 7.69662 24 8.71165 24 9.75L24.024 10.5C24.024 11.8789 23.7524 13.2443 23.2247 14.5182C22.6971 15.7921 21.9236 16.9496 20.9486 17.9246C19.9736 18.8996 18.8161 19.6731 17.5422 20.2007C16.2683 20.7284 14.9029 21 13.524 21V18C14.5093 18.0027 15.4854 17.8099 16.3959 17.433C17.3063 17.0561 18.1329 16.5024 18.828 15.804C19.0982 15.5344 19.3474 15.2446 19.5735 14.937C19.3011 14.9795 19.0257 15.0011 18.75 15.0015V15ZM5.25 15C4.21165 15 3.19662 14.6921 2.33326 14.1152C1.4699 13.5383 0.796995 12.7184 0.399635 11.7591C0.00227478 10.7998 -0.101693 9.74418 0.10088 8.72578C0.303452 7.70738 0.803466 6.77192 1.53769 6.03769C2.27192 5.30347 3.20738 4.80345 4.22578 4.60088C5.24418 4.39831 6.29978 4.50227 7.25909 4.89963C8.2184 5.29699 9.03834 5.9699 9.61522 6.83326C10.1921 7.69662 10.5 8.71165 10.5 9.75L10.524 10.5C10.524 13.2848 9.41776 15.9555 7.44862 17.9246C5.47949 19.8938 2.80878 21 0.0240024 21V18C1.00935 18.0027 1.98545 17.8099 2.89585 17.433C3.80626 17.0561 4.63291 16.5024 5.328 15.804C5.5982 15.5344 5.84743 15.2446 6.0735 14.937C5.80105 14.9795 5.52575 15.0011 5.25 15.0015V15Z" fill="black"/>
</g>
<defs>
<clipPath id="clip0_254_351">
<rect width="24" height="24" fill="white"/>
</clipPath>
</defs>
</svg>
