<svg width="100" height="98" viewBox="0 0 100 98" fill="none" xmlns="http://www.w3.org/2000/svg">
<g clip-path="url(#clip0_254_178)">
<path d="M64.5947 31.292C64.4106 31.2552 64.2265 31.1816 63.932 31.0711C64.5579 30.7766 65.0733 30.5925 65.5518 30.3348C69.7855 28.126 70.1905 23.0088 68.2761 20.0636C66.7299 17.6707 64.4106 16.5662 61.6863 16.5294C56.9741 16.4558 52.2987 16.4926 47.5864 16.4926C47.5496 16.4926 47.5128 16.4926 47.476 16.4926H46.9974V32.286L46.7397 33.7586C46.2243 36.2988 45.0094 42.005 45.0094 42.005C44.3467 40.0538 41.9538 33.0223 41.2911 31.1816H37.9778C38.4196 32.4332 38.8246 33.6481 39.2663 34.8262C40.6285 38.8021 42.2483 43.4776 43.6104 47.4535C42.6165 50.9509 41.1807 55.6631 40.1499 59.1605C40.1499 59.1605 39.6345 57.6511 39.4504 57.0621C37.3152 50.9509 35.2168 44.8397 33.0815 38.6917C32.3452 36.5933 31.2776 33.4641 30.4677 31.1816H27.228C27.3385 31.4761 27.4121 31.697 27.4857 31.9178C28.5533 35.0103 29.621 38.0659 30.6886 41.1583C32.7134 47.0118 35.0695 53.8961 37.0943 59.8232H40.4444C41.1439 57.7616 43.3159 51.7608 44.2363 49.147C44.5308 49.9569 44.7885 50.6564 45.0094 51.3559C45.7457 53.4911 47.2919 58.0929 47.8809 59.8232H48.2859H51.1942C52.0041 57.5039 54.7284 49.6256 55.9065 46.165C57.4527 46.2018 59.5879 46.2387 61.0973 46.1282C62.2754 46.0546 63.4902 45.9441 64.6315 45.6496C67.8343 44.8029 70.0432 41.8577 70.0432 38.6181C70.0432 35.0839 67.9448 32.2492 64.5947 31.292ZM50.2002 19.3641V17.0816H52.4091H58.4467C58.9621 17.0816 59.367 17.1184 59.8088 17.1184C63.932 17.3393 66.7667 21.168 66.1041 25.3281C65.7359 27.6474 64.6315 29.3777 62.4226 30.298C61.2446 30.7766 59.9929 30.887 58.7412 30.9239C56.6428 30.9239 54.5443 30.9239 52.4091 30.9239H50.1634V30.5925V28.4573V24.7022C50.2002 22.9351 50.2002 21.168 50.2002 19.3641ZM50.9365 59.0869C49.4271 54.7428 47.3655 48.8157 45.8193 44.3611C46.077 43.588 46.9974 40.9006 46.9974 40.9006V41.6V42.5572V46.2018H47.4391H50.3843C51.0838 46.2018 51.7833 46.2018 52.4827 46.2018H52.7772C53.1822 46.2018 53.5503 46.2018 53.9553 46.2018C54.1394 46.2018 54.3603 46.2018 54.7284 46.2018C53.4767 50.4723 52.1514 54.89 50.9365 59.0869ZM54.8757 45.6128H50.2002V31.8442V31.3656H52.1514C53.9185 31.3656 56.1642 31.3656 57.9681 31.3656C57.784 32.4332 57.5631 33.6849 57.3422 34.6789C56.5691 38.0659 55.6119 42.2259 54.8757 45.6128ZM66.8035 39.4648C66.5826 41.2319 66.0672 42.8149 64.6683 44.0298C63.7479 44.8397 62.6435 45.3183 61.4286 45.4287C59.6983 45.576 57.9681 45.576 56.0905 45.6496C56.4955 44.4347 56.8268 43.4039 57.195 42.3731C58.373 38.9494 59.772 34.9734 60.9132 31.5129C64.7051 32.3964 67.2453 35.9306 66.8035 39.4648Z" fill="white"/>
<path d="M34.7749 69.8372H34.7381L33.6337 65.6035H32.9342L31.8298 69.8372H31.793L30.6885 65.6035H30.0627L31.4616 70.7944H32.1243L33.2655 66.6711H33.3024L34.4436 70.7944H35.1063L36.5052 65.6035H35.8794L34.7749 69.8372Z" fill="white"/>
<path d="M39.3403 67.1132C39.0826 66.9291 38.7513 66.8555 38.4199 66.8555C38.0518 66.8555 37.7573 66.9291 37.4996 67.1132C37.2419 67.2972 37.021 67.5181 36.8737 67.8126C36.7265 68.1072 36.6528 68.4753 36.6528 68.8803C36.6528 69.2852 36.7265 69.6165 36.8737 69.9479C37.021 70.2424 37.2419 70.4633 37.4996 70.6473C37.7573 70.8314 38.0518 70.9051 38.4199 70.9051C38.7881 70.9051 39.0826 70.8314 39.3403 70.6473C39.598 70.4633 39.8189 70.2424 39.9661 69.9479C40.1134 69.6534 40.187 69.2852 40.187 68.8803C40.187 68.4753 40.1134 68.1072 39.9661 67.8126C39.8189 67.4813 39.6348 67.2604 39.3403 67.1132ZM39.4875 69.5797C39.4139 69.8006 39.2667 69.9847 39.1194 70.1319C38.9353 70.2792 38.7144 70.3528 38.4567 70.3528C38.199 70.3528 37.9782 70.2792 37.7941 70.1319C37.61 69.9847 37.4996 69.8006 37.4259 69.5797C37.3523 69.3588 37.3155 69.1011 37.3155 68.8434C37.3155 68.5857 37.3523 68.328 37.4259 68.1072C37.4996 67.8863 37.6468 67.7022 37.7941 67.5549C37.9782 67.4077 38.199 67.3341 38.4567 67.3341C38.7144 67.3341 38.9353 67.4077 39.1194 67.5549C39.3035 67.7022 39.4139 67.8863 39.4875 68.1072C39.5612 68.328 39.598 68.5857 39.598 68.8434C39.598 69.1011 39.5612 69.3588 39.4875 69.5797Z" fill="white"/>
<path d="M43.574 67.0027C43.3899 66.8923 43.1322 66.8555 42.8745 66.8555C42.58 66.8555 42.3591 66.9291 42.175 67.0395C41.991 67.15 41.8437 67.3341 41.7701 67.5181H41.7333V66.9291H41.1074V70.7946H41.6965V68.4753C41.6965 68.2544 41.7333 68.0703 41.8437 67.8863C41.9173 67.739 42.0646 67.5918 42.2119 67.5181C42.3591 67.4445 42.5432 67.4077 42.7273 67.4077C43.0218 67.4077 43.2058 67.4813 43.3899 67.6654C43.5372 67.8495 43.6108 68.0703 43.6108 68.3649V70.7946H44.1998V68.328C44.1998 67.9967 44.163 67.739 44.0526 67.5181C43.9053 67.2604 43.7581 67.1132 43.574 67.0027Z" fill="white"/>
<path d="M47.9546 67.5182H47.9178C47.881 67.4445 47.8074 67.3709 47.7337 67.2605C47.6601 67.15 47.5497 67.0764 47.4024 66.9659C47.2552 66.8923 47.0711 66.8555 46.8134 66.8555C46.4821 66.8555 46.1875 66.9291 45.9667 67.1132C45.709 67.2605 45.5249 67.5182 45.3776 67.8127C45.2304 68.1072 45.1567 68.4753 45.1567 68.8803C45.1567 69.2853 45.2304 69.6534 45.3776 69.9479C45.5249 70.2424 45.709 70.4633 45.9667 70.6474C46.2244 70.7946 46.4821 70.9051 46.8134 70.9051C47.0711 70.9051 47.2552 70.8683 47.4024 70.7946C47.5497 70.721 47.6601 70.6106 47.7337 70.5001C47.8074 70.3897 47.881 70.3161 47.9178 70.2424H47.9914V70.8315H48.5805V65.6406H47.9914V67.5182H47.9546ZM47.8074 69.6166C47.7337 69.8375 47.5865 70.0215 47.4392 70.132C47.292 70.2424 47.0711 70.3161 46.8502 70.3161C46.5925 70.3161 46.4084 70.2424 46.2244 70.132C46.0403 69.9847 45.9298 69.8375 45.8562 69.5798C45.7826 69.3589 45.7458 69.1012 45.7458 68.8435C45.7458 68.5858 45.7826 68.3281 45.8562 68.1072C45.9298 67.8863 46.0771 67.7022 46.2244 67.5918C46.4084 67.4445 46.5925 67.4077 46.8502 67.4077C47.1079 67.4077 47.292 67.4813 47.476 67.5918C47.6233 67.7022 47.7706 67.8863 47.8442 68.1072C47.9178 68.3281 47.9546 68.5858 47.9546 68.8803C47.9546 69.138 47.9178 69.3957 47.8074 69.6166Z" fill="white"/>
<path d="M52.3356 69.7267C52.2988 69.874 52.2252 69.9844 52.1148 70.058C52.0043 70.1317 51.9307 70.2053 51.7834 70.2421C51.673 70.2789 51.5257 70.3157 51.3416 70.3157C51.0839 70.3157 50.8999 70.2789 50.7158 70.1685C50.5317 70.058 50.3845 69.9108 50.274 69.6899C50.2004 69.5058 50.1268 69.2849 50.1268 69.0272H52.9247V68.7695C52.9247 68.4014 52.8879 68.1069 52.7774 67.8492C52.667 67.5915 52.5565 67.4074 52.3725 67.2601C52.2252 67.1129 52.0411 67.0024 51.8202 66.9288C51.6362 66.8552 51.4153 66.8184 51.2312 66.8184C50.8631 66.8184 50.5685 66.892 50.3108 67.0761C50.0531 67.2601 49.8323 67.481 49.685 67.7755C49.5377 68.0701 49.4641 68.4382 49.4641 68.8432C49.4641 69.2481 49.5377 69.5794 49.685 69.874C49.8323 70.1685 50.0531 70.3894 50.3108 70.5734C50.5685 70.7575 50.8999 70.8311 51.268 70.8311C51.5257 70.8311 51.7834 70.7943 51.9675 70.7207C52.1884 70.6471 52.3725 70.5366 52.4829 70.3894C52.5933 70.2421 52.7406 70.058 52.7774 69.874L52.3356 69.7267ZM50.679 67.5546C50.8631 67.4442 51.0471 67.3706 51.3048 67.3706C51.5257 67.3706 51.7098 67.4074 51.857 67.5178C52.0043 67.6283 52.1516 67.7387 52.2252 67.9228C52.2988 68.1069 52.3725 68.2909 52.3725 68.5118H50.1636C50.1636 68.3278 50.2004 68.1437 50.274 67.9964C50.3845 67.8123 50.4949 67.6651 50.679 67.5546Z" fill="white"/>
<path d="M54.4709 68.328C54.4709 68.144 54.5077 67.9967 54.5813 67.8495C54.6549 67.7022 54.7654 67.5918 54.9126 67.5181C55.0599 67.4445 55.244 67.4077 55.428 67.4077C55.5017 67.4077 55.5753 67.4077 55.6489 67.4077C55.7226 67.4077 55.7594 67.4445 55.7962 67.4445V66.8555C55.7594 66.8555 55.7226 66.8555 55.6489 66.8555C55.5753 66.8555 55.5385 66.8555 55.5017 66.8555C55.2808 66.8555 55.0599 66.9291 54.8758 67.0395C54.6918 67.15 54.5445 67.2972 54.5077 67.5181H54.4709V66.9291H53.8818V70.7946H54.4709V68.328Z" fill="white"/>
<path d="M57.1212 65.6035H56.5322V70.7944H57.1212V65.6035Z" fill="white"/>
<path d="M61.1709 70.7949V68.2547C61.1709 67.9602 61.134 67.7025 61.0236 67.5184C60.9132 67.3344 60.8027 67.1871 60.6555 67.1135C60.5082 67.0398 60.3609 66.9662 60.1769 66.9294C60.0296 66.8926 59.8824 66.8926 59.7351 66.8926C59.551 66.8926 59.3301 66.9294 59.1461 66.9662C58.962 67.003 58.7411 67.1135 58.5938 67.2607C58.4098 67.408 58.2993 67.5921 58.1889 67.8129L58.7411 67.997C58.8147 67.8498 58.9252 67.7393 59.0724 67.5921C59.2197 67.4816 59.4406 67.408 59.7351 67.408C59.9928 67.408 60.2137 67.4816 60.3609 67.6289C60.5082 67.7761 60.5818 67.9602 60.5818 68.2179V68.2547C60.5818 68.3652 60.545 68.402 60.4714 68.4388C60.3978 68.4756 60.2873 68.5124 60.1401 68.5124C59.9928 68.5124 59.8087 68.5492 59.551 68.586C59.367 68.6229 59.1829 68.6597 58.9988 68.6965C58.8147 68.7333 58.6675 68.8069 58.5202 68.8806C58.373 68.9542 58.2625 69.0646 58.1521 69.2119C58.0784 69.3591 58.0048 69.5432 58.0048 69.7641C58.0048 70.0218 58.0785 70.2427 58.1889 70.4268C58.2993 70.6108 58.4834 70.7581 58.6675 70.8317C58.8515 70.9422 59.1093 70.979 59.3301 70.979C59.551 70.979 59.7351 70.9422 59.9192 70.8685C60.0664 70.7949 60.2137 70.7213 60.2873 70.6108C60.3978 70.5004 60.4346 70.4268 60.4714 70.3531H60.5082V70.8685H61.1709V70.7949ZM60.4346 69.8377C60.3609 69.985 60.2137 70.0954 60.0664 70.2059C59.9192 70.3163 59.6983 70.3531 59.4774 70.3531C59.2565 70.3531 59.0356 70.3163 58.8884 70.2059C58.7411 70.0954 58.6675 69.9482 58.6675 69.7273C58.6675 69.58 58.7043 69.4696 58.7779 69.3591C58.8516 69.2855 58.962 69.2119 59.1093 69.1751C59.2565 69.1383 59.4038 69.1014 59.551 69.0646C59.6247 69.0646 59.6983 69.0278 59.8087 69.0278C59.9192 69.0278 60.0296 68.991 60.1401 68.991C60.2505 68.991 60.3609 68.9542 60.4346 68.9174C60.5082 68.8806 60.5818 68.8806 60.5818 68.8437V69.396C60.5818 69.5432 60.5082 69.6905 60.4346 69.8377Z" fill="white"/>
<path d="M65.3309 70.7949V68.3283C65.3309 67.997 65.2941 67.7393 65.1836 67.5184C65.0732 67.2975 64.9259 67.1503 64.7418 67.0398C64.5578 66.9294 64.3001 66.8926 64.0424 66.8926C63.7479 66.8926 63.527 66.9662 63.3429 67.0767C63.1588 67.1871 63.0116 67.3712 62.9379 67.5552H62.8275V66.9662H62.2385V70.8317H62.8275V68.5124C62.8275 68.2915 62.8643 68.1075 62.9748 67.9234C63.0484 67.7761 63.1956 67.6289 63.3429 67.5552C63.4902 67.4816 63.6742 67.4448 63.8583 67.4448C64.1528 67.4448 64.3369 67.5184 64.521 67.7025C64.6682 67.8866 64.7418 68.1075 64.7418 68.402V70.8317H65.3309V70.7949Z" fill="white"/>
<path d="M69.0858 65.6035V67.5179H69.049C69.0122 67.4442 68.9385 67.3706 68.8649 67.2602C68.7913 67.1497 68.6808 67.0761 68.5336 66.9656C68.3863 66.892 68.2023 66.8552 67.9446 66.8552C67.6132 66.8552 67.3187 66.9288 67.0978 67.1129C66.8401 67.2602 66.656 67.5179 66.5088 67.8124C66.3615 68.1069 66.2879 68.475 66.2879 68.88C66.2879 69.285 66.3615 69.6531 66.5088 69.9476C66.656 70.2421 66.8401 70.463 67.0978 70.6471C67.3555 70.7943 67.6132 70.9048 67.9446 70.9048C68.2023 70.9048 68.3863 70.868 68.5336 70.7944C68.6808 70.7207 68.7913 70.6103 68.8649 70.4998C68.9385 70.3894 69.0122 70.3158 69.049 70.2421H69.1226V70.8312H69.7116V65.6403H69.0858V65.6035ZM68.9754 69.6163C68.9017 69.8372 68.7545 70.0212 68.6072 70.1317C68.4599 70.2421 68.2391 70.3158 68.0182 70.3158C67.7605 70.3158 67.5764 70.2421 67.3923 70.1317C67.2083 69.9844 67.0978 69.8372 67.0242 69.5795C66.9506 69.3586 66.9137 69.1009 66.9137 68.8432C66.9137 68.5855 66.9506 68.3278 67.0242 68.1069C67.0978 67.886 67.2451 67.7019 67.3923 67.5915C67.5764 67.4442 67.7605 67.4074 68.0182 67.4074C68.2759 67.4074 68.46 67.4811 68.644 67.5915C68.7913 67.7019 68.9385 67.886 69.0122 68.1069C69.0858 68.3278 69.1226 68.5855 69.1226 68.88C69.0858 69.1377 69.049 69.3954 68.9754 69.6163Z" fill="white"/>
<path d="M35.2538 78.0468C35.1066 77.9364 34.9225 77.8996 34.7753 77.8628V77.8259C34.9225 77.7891 35.0698 77.7155 35.1802 77.6419C35.2907 77.5682 35.4011 77.4578 35.4747 77.3105C35.5484 77.1633 35.5852 76.9792 35.5852 76.7583C35.5852 76.5006 35.5115 76.2797 35.4011 76.0589C35.2907 75.838 35.1066 75.6907 34.8857 75.5434C34.6648 75.433 34.3703 75.3594 34.0021 75.3594H32.1982V80.5502H34.0758C34.4807 80.5502 34.8121 80.4766 35.0698 80.3661C35.3275 80.2557 35.5115 80.0716 35.622 79.8875C35.7324 79.6667 35.8061 79.4458 35.8061 79.1881C35.8061 78.9304 35.7692 78.6727 35.6588 78.4886C35.5484 78.3045 35.4011 78.1573 35.2538 78.0468ZM32.8609 75.9484H34.039C34.3703 75.9484 34.628 76.022 34.7753 76.1693C34.9225 76.3165 34.9961 76.5374 34.9961 76.7583C34.9961 76.9424 34.9593 77.0897 34.8489 77.2369C34.7384 77.3842 34.628 77.4578 34.4807 77.5682C34.3335 77.6419 34.1494 77.6787 33.9653 77.6787H32.7873V75.9484H32.8609ZM34.9593 79.7771C34.7753 79.9244 34.4807 79.998 34.0758 79.998H32.8241V78.1941H34.1126C34.3335 78.1941 34.5176 78.2309 34.7016 78.3413C34.8489 78.415 34.9961 78.5622 35.0698 78.7095C35.1434 78.8567 35.217 79.004 35.217 79.1881C35.217 79.409 35.1434 79.593 34.9593 79.7771Z" fill="white"/>
<path d="M39.1555 76.8683C39.0083 76.7947 38.861 76.7211 38.6769 76.6843C38.5297 76.6475 38.3824 76.6475 38.2352 76.6475C38.0511 76.6475 37.8302 76.6843 37.6461 76.7211C37.4621 76.7579 37.2412 76.8683 37.0939 77.0156C36.9098 77.1629 36.7994 77.3469 36.689 77.5678L37.2412 77.7519C37.3148 77.6046 37.4252 77.4942 37.5725 77.3469C37.7198 77.2365 37.9406 77.1629 38.2352 77.1629C38.4929 77.1629 38.7137 77.2365 38.861 77.3837C39.0083 77.531 39.0819 77.7151 39.0819 77.9728V78.0096C39.0819 78.12 39.0451 78.1569 38.9715 78.1937C38.8978 78.2305 38.7874 78.2673 38.6401 78.2673C38.4929 78.2673 38.3088 78.3041 38.0511 78.3409C37.867 78.3777 37.6829 78.4146 37.4989 78.4514C37.3148 78.4882 37.1675 78.5618 37.0203 78.6354C36.873 78.7091 36.7626 78.8195 36.6521 78.9668C36.5785 79.114 36.5049 79.2981 36.5049 79.519C36.5049 79.7767 36.5785 79.9976 36.689 80.1816C36.7994 80.3657 36.9835 80.513 37.1675 80.5866C37.3516 80.697 37.6093 80.7339 37.8302 80.7339C38.0511 80.7339 38.2352 80.697 38.4192 80.6234C38.5665 80.5498 38.7137 80.4762 38.7874 80.3657C38.8978 80.2553 38.9346 80.1816 38.9715 80.108H39.0083V80.6234H39.5973V78.0832C39.5973 77.7887 39.5605 77.531 39.45 77.3469C39.45 77.0892 39.3028 76.942 39.1555 76.8683ZM39.1187 79.1508C39.1187 79.2981 39.0819 79.4822 39.0083 79.6294C38.9346 79.7767 38.7874 79.8871 38.6401 79.9976C38.4929 80.108 38.272 80.1448 38.0511 80.1448C37.8302 80.1448 37.6093 80.108 37.4621 79.9976C37.3148 79.8871 37.2412 79.7399 37.2412 79.519C37.2412 79.3717 37.278 79.2613 37.3516 79.1508C37.4252 79.0772 37.5357 79.0036 37.6829 78.9668C37.8302 78.93 37.9775 78.8931 38.1247 78.8563C38.1983 78.8563 38.272 78.8195 38.3824 78.8195C38.4929 78.8195 38.6033 78.7827 38.7137 78.7827C38.8242 78.7827 38.9346 78.7459 39.0083 78.7091C39.0819 78.6723 39.1555 78.6723 39.1555 78.6354L39.1187 79.1508Z" fill="white"/>
<path d="M43.9049 76.685H43.1687L41.4752 78.4153H41.4016V75.3965H40.8125V80.5505H41.4016V79.1147L41.8065 78.7098L43.2791 80.5505H44.0154L42.2483 78.3416L43.9049 76.685Z" fill="white"/>
<path d="M47.218 77.0531C47.0708 76.9058 46.8867 76.7954 46.6658 76.7218C46.4817 76.6481 46.2609 76.6113 46.0768 76.6113C45.7086 76.6113 45.4141 76.685 45.1564 76.869C44.8987 77.0531 44.6778 77.274 44.5306 77.5685C44.3833 77.863 44.3097 78.2312 44.3097 78.6361C44.3097 79.0411 44.3833 79.3724 44.5306 79.6669C44.6778 79.9614 44.8987 80.1823 45.1564 80.3664C45.4141 80.5505 45.7455 80.6241 46.1136 80.6241C46.3713 80.6241 46.629 80.5873 46.8131 80.5137C47.034 80.44 47.218 80.3296 47.3285 80.1823C47.4757 80.0351 47.5862 79.851 47.623 79.6669L47.034 79.5197C46.9971 79.6669 46.9235 79.7774 46.8131 79.851C46.7026 79.9246 46.629 79.9983 46.4817 80.0351C46.3713 80.0719 46.224 80.1087 46.04 80.1087C45.7823 80.1087 45.5982 80.0719 45.4141 79.9614C45.2301 79.851 45.0828 79.7037 44.9724 79.4828C44.8987 79.2988 44.8251 79.0779 44.8251 78.8202H47.623V78.5625C47.623 78.1943 47.5862 77.8998 47.4757 77.6421C47.5125 77.4212 47.4021 77.2004 47.218 77.0531ZM44.9355 78.3048C44.9355 78.1207 44.9724 77.9366 45.046 77.7894C45.1564 77.6053 45.2669 77.4581 45.4509 77.3476C45.635 77.2372 45.8191 77.1635 46.0768 77.1635C46.2977 77.1635 46.4817 77.2004 46.629 77.3108C46.7763 77.4212 46.9235 77.5317 46.9971 77.7158C47.0708 77.8998 47.1444 78.0839 47.1444 78.3048H44.9355Z" fill="white"/>
<path d="M51.1575 76.7954C50.9734 76.685 50.7157 76.6482 50.458 76.6482C50.1635 76.6482 49.9058 76.7218 49.7217 76.8322C49.5377 76.9427 49.3904 77.1268 49.3168 77.3108H49.2799V75.3965H48.6909V80.5873H49.2799V78.268C49.2799 78.0471 49.3168 77.863 49.4272 77.679C49.5008 77.5317 49.6481 77.3845 49.7954 77.3108C49.9426 77.2372 50.1267 77.2004 50.3108 77.2004C50.6053 77.2004 50.8262 77.274 50.9734 77.4581C51.1207 77.6422 51.1943 77.8631 51.1943 78.1576V80.5873H51.7833V78.0839C51.7833 77.7526 51.7097 77.4581 51.6361 77.274C51.5256 77.0531 51.3784 76.9059 51.1575 76.7954Z" fill="white"/>
<path d="M55.3911 76.869C55.1334 76.685 54.8021 76.6113 54.4707 76.6113C54.1026 76.6113 53.8081 76.685 53.5504 76.869C53.2927 77.0531 53.0718 77.274 52.9245 77.5685C52.7773 77.863 52.7036 78.2312 52.7036 78.6361C52.7036 79.0411 52.7773 79.3724 52.9245 79.7037C53.0718 79.9983 53.2927 80.2191 53.5504 80.4032C53.8081 80.5873 54.1026 80.6609 54.4707 80.6609C54.8389 80.6609 55.1334 80.5873 55.3911 80.4032C55.6488 80.2191 55.8697 79.9983 56.0169 79.7037C56.1642 79.4092 56.2378 79.0411 56.2378 78.6361C56.2378 78.2312 56.1642 77.863 56.0169 77.5685C55.8697 77.274 55.6488 77.0531 55.3911 76.869ZM55.5015 79.3724C55.4279 79.5933 55.2807 79.7774 55.1334 79.9246C54.9493 80.0719 54.7284 80.1455 54.4707 80.1455C54.213 80.1455 53.9921 80.0719 53.8081 79.9246C53.624 79.7774 53.5136 79.5933 53.4399 79.3724C53.3663 79.1515 53.3295 78.8938 53.3295 78.6361C53.3295 78.3784 53.3663 78.1207 53.4399 77.8998C53.5136 77.6789 53.6608 77.4949 53.8081 77.3476C53.9921 77.2004 54.213 77.1267 54.4707 77.1267C54.7284 77.1267 54.9493 77.2004 55.1334 77.3476C55.3175 77.4949 55.4279 77.6789 55.5015 77.8998C55.5752 78.1207 55.612 78.3784 55.612 78.6361C55.6488 78.8938 55.612 79.1515 55.5015 79.3724Z" fill="white"/>
<path d="M59.588 78.9674C59.588 79.2251 59.5512 79.4092 59.4407 79.5565C59.3303 79.7037 59.2198 79.8142 59.0358 79.8878C58.8885 79.9614 58.7413 79.9983 58.594 79.9983C58.3363 79.9983 58.1522 79.9246 57.9681 79.7406C57.8209 79.5565 57.7473 79.3356 57.7473 79.0779V76.6481H57.1582V79.1147C57.1582 79.446 57.195 79.7037 57.3055 79.9246C57.4159 80.1455 57.5632 80.2928 57.7473 80.4032C57.9313 80.5137 58.1522 80.5505 58.4099 80.5505C58.7044 80.5505 58.9621 80.4768 59.1462 80.3296C59.3303 80.1823 59.4775 80.0351 59.588 79.8142H59.6248V80.4768H60.2138V76.6113H59.6248L59.588 78.9674Z" fill="white"/>
<path d="M63.0851 78.4152L62.496 78.268C62.2752 78.1943 62.0911 78.1207 61.9806 78.0471C61.8702 77.9735 61.8334 77.8262 61.8334 77.6789C61.8334 77.4949 61.907 77.3844 62.0543 77.274C62.2015 77.1635 62.4224 77.1267 62.6433 77.1267C62.8274 77.1267 62.9746 77.1635 63.0851 77.2004C63.1955 77.274 63.2691 77.3108 63.3428 77.4212C63.4164 77.4949 63.4532 77.6053 63.49 77.6789L64.0422 77.5317C63.9318 77.2372 63.7845 77.0163 63.5637 76.869C63.3428 76.685 63.0483 76.6113 62.6433 76.6113C62.3856 76.6113 62.1279 76.6481 61.907 76.7586C61.6861 76.869 61.5389 76.9795 61.3916 77.1635C61.2812 77.3476 61.2075 77.5317 61.2075 77.7526C61.2075 78.0103 61.2812 78.2312 61.4652 78.4152C61.6493 78.5993 61.907 78.7098 62.2383 78.8202L62.901 78.9674C63.0851 79.0043 63.2323 79.0779 63.3428 79.1883C63.4532 79.262 63.49 79.4092 63.49 79.5197C63.49 79.7037 63.4164 79.8142 63.2323 79.9614C63.0851 80.0719 62.8642 80.1455 62.5697 80.1455C62.312 80.1455 62.1279 80.1087 61.9806 79.9983C61.8334 79.8878 61.7229 79.7406 61.6861 79.5197L61.1339 79.6669C61.2075 79.9983 61.3548 80.256 61.6125 80.4032C61.8702 80.5873 62.2015 80.6609 62.6065 80.6609C62.901 80.6609 63.1587 80.6241 63.4164 80.5137C63.6373 80.4032 63.8214 80.2928 63.9318 80.1087C64.0422 79.9246 64.1159 79.7406 64.1159 79.5197C64.1159 79.262 64.0422 79.0411 63.8582 78.857C63.7109 78.6361 63.4532 78.5257 63.0851 78.4152Z" fill="white"/>
<path d="M67.724 77.0531C67.5768 76.9058 67.3927 76.7954 67.1718 76.7218C66.9877 76.6481 66.7668 76.6113 66.5828 76.6113C66.2146 76.6113 65.9201 76.685 65.6624 76.869C65.4047 77.0531 65.1838 77.274 65.0366 77.5685C64.8893 77.863 64.8157 78.2312 64.8157 78.6361C64.8157 79.0411 64.8893 79.3724 65.0366 79.6669C65.1838 79.9614 65.4047 80.1823 65.6624 80.3664C65.9201 80.5505 66.2514 80.6241 66.6196 80.6241C66.8773 80.6241 67.135 80.5873 67.3191 80.5137C67.5399 80.44 67.724 80.3296 67.8345 80.1823C67.9817 80.0351 68.0922 79.851 68.129 79.6669L67.5399 79.5197C67.5031 79.6669 67.4295 79.7774 67.3191 79.851C67.2086 79.9246 67.0982 79.9983 66.9877 80.0351C66.8773 80.0719 66.73 80.1087 66.546 80.1087C66.2882 80.1087 66.1042 80.0719 65.9201 79.9614C65.736 79.851 65.5888 79.7037 65.4783 79.4828C65.4047 79.2988 65.3311 79.0779 65.3311 78.8202H68.129V78.5625C68.129 78.1943 68.0922 77.8998 67.9817 77.6421C68.0185 77.4212 67.9081 77.2004 67.724 77.0531ZM65.4783 78.3048C65.4783 78.1207 65.5151 77.9366 65.5888 77.7894C65.6992 77.6053 65.8097 77.4581 65.9937 77.3476C66.1778 77.2372 66.3619 77.1635 66.6196 77.1635C66.8405 77.1635 67.0245 77.2004 67.1718 77.3108C67.3191 77.4212 67.4663 77.5317 67.5399 77.7158C67.6136 77.8998 67.6872 78.0839 67.6872 78.3048H65.4783Z" fill="white"/>
<path d="M99.6788 49.8467C99.6788 49.5522 99.6788 49.2577 99.642 49C98.2063 22.4568 77.9583 0 50.0898 0C24.0988 0 0.169434 20.2479 0.169434 49.0736C0.169434 76.169 22.0004 98 49.8689 98C62.3122 98 74.5714 92.5146 83.7382 84.5259C74.9395 92.1833 63.1957 96.8219 51.0102 96.8219C24.4301 96.8219 3.59318 76.5372 3.59318 49.8099C3.59318 23.3772 27.228 2.65064 51.2679 2.68745C60.2506 2.68745 66.1777 4.41773 72.2153 7.21563C66.2881 4.19684 59.6247 2.50338 52.4827 2.39294H52.5195C52.5195 2.39294 47.6232 2.31931 43.3528 2.76108C45.6353 2.42975 47.9546 2.13524 50.3107 2.09842C62.2754 1.95116 71.0372 5.1172 78.8787 10.7866C82.3392 13.1796 85.4316 16.0143 88.1191 19.1435C79.2836 8.39369 66.0304 1.61983 50.4211 1.61983C28.4429 1.61983 7.71639 16.7874 2.34148 38.0661C7.4955 15.6093 28.1116 0.66266 50.2739 0.66266C68.3129 0.66266 83.1491 9.64538 91.5797 23.6349C91.8373 24.0766 92.1687 24.6288 92.4264 25.0706L93.2363 26.4696C97.0282 33.3539 99.2739 41.4899 99.6788 49.8467Z" fill="white"/>
</g>
<defs>
<clipPath id="clip0_254_178">
<rect width="100" height="98" fill="white"/>
</clipPath>
</defs>
</svg>
