<svg width="123" height="120" viewBox="0 0 123 120" fill="none" xmlns="http://www.w3.org/2000/svg">
<g clip-path="url(#clip0_254_562)">
<path d="M79.5496 38.3171C79.3242 38.272 79.0988 38.1818 78.7382 38.0466C79.5045 37.686 80.1357 37.4606 80.7217 37.145C85.9058 34.4403 86.4016 28.1743 84.0575 24.568C82.1642 21.6379 79.3242 20.2855 75.9884 20.2404C70.2183 20.1503 64.4933 20.1954 58.7232 20.1954C58.6781 20.1954 58.633 20.1954 58.5879 20.1954H58.0019V39.5342L57.6864 41.3373C57.0553 44.4478 55.5677 51.435 55.5677 51.435C54.7562 49.0458 51.8261 40.4358 51.0147 38.1818H46.9576C47.4985 39.7145 47.9944 41.2021 48.5353 42.6446C50.2033 47.5132 52.1867 53.2382 53.8547 58.1067C52.6375 62.3892 50.8795 68.1593 49.6172 72.4418C49.6172 72.4418 48.9861 70.5935 48.7607 69.8723C46.1462 62.3892 43.5767 54.9061 40.9621 47.3779C40.0605 44.8084 38.7532 40.9767 37.7615 38.1818H33.7946C33.9298 38.5425 34.0199 38.8129 34.1101 39.0834C35.4174 42.87 36.7247 46.6116 38.032 50.3982C40.5113 57.5658 43.3964 65.9955 45.8757 73.2532H49.9779C50.8344 70.7288 53.494 63.3809 54.621 60.1803C54.9816 61.1721 55.2972 62.0286 55.5677 62.8851C56.4692 65.4996 58.3626 71.1345 59.0838 73.2532H59.5797H63.1409C64.1326 70.4132 67.4685 60.7663 68.911 56.5289C70.8043 56.574 73.4189 56.6191 75.2671 56.4839C76.7097 56.3937 78.1973 56.2585 79.5947 55.8978C83.5166 54.861 86.2213 51.2547 86.2213 47.2878C86.2213 42.9602 83.6518 39.4891 79.5496 38.3171ZM61.9238 23.7115V20.9166H64.6285H72.0215C72.6526 20.9166 73.1484 20.9617 73.6894 20.9617C78.7382 21.2322 82.2093 25.9204 81.3979 31.0143C80.9471 33.8543 79.5947 35.973 76.89 37.0999C75.4474 37.686 73.9148 37.8212 72.3821 37.8663C69.8126 37.8663 67.2431 37.8663 64.6285 37.8663H61.8787V37.4606V34.846V30.2479C61.9238 28.0842 61.9238 25.9204 61.9238 23.7115ZM62.8254 72.3516C60.9771 67.0323 58.4527 59.7746 56.5594 54.3201C56.8749 53.3734 58.0019 50.0827 58.0019 50.0827V50.9392V52.1112V56.574H58.5429H62.1492C63.0057 56.574 63.8622 56.574 64.7187 56.574H65.0793C65.5752 56.574 66.026 56.574 66.5218 56.574C66.7472 56.574 67.0177 56.574 67.4685 56.574C65.9358 61.8032 64.313 67.2126 62.8254 72.3516ZM67.6488 55.8527H61.9238V38.9932V38.4072H64.313C66.4767 38.4072 69.2266 38.4072 71.4354 38.4072C71.21 39.7145 70.9396 41.2472 70.6691 42.4643C69.7224 46.6116 68.5504 51.7055 67.6488 55.8527ZM82.2544 48.3246C81.9839 50.4884 81.3528 52.4268 79.6398 53.9144C78.5128 54.9061 77.1604 55.4921 75.6728 55.6274C73.5541 55.8077 71.4354 55.8077 69.1364 55.8978C69.6323 54.4102 70.038 53.148 70.4888 51.8858C71.9313 47.6935 73.6443 42.825 75.0417 38.5875C79.6849 39.6694 82.7953 43.997 82.2544 48.3246Z" fill="white"/>
<path d="M43.0357 85.5146H42.9906L41.6383 80.3306H40.7818L39.4294 85.5146H39.3843L38.032 80.3306H37.2656L38.9786 86.6867H39.79L41.1875 81.6379H41.2326L42.63 86.6867H43.4414L45.1544 80.3306H44.3881L43.0357 85.5146Z" fill="white"/>
<path d="M48.6255 82.1788C48.31 81.9534 47.9043 81.8633 47.4986 81.8633C47.0478 81.8633 46.6871 81.9534 46.3716 82.1788C46.056 82.4042 45.7856 82.6747 45.6053 83.0353C45.4249 83.396 45.3348 83.8468 45.3348 84.3426C45.3348 84.8385 45.4249 85.2442 45.6053 85.6499C45.7856 86.0105 46.056 86.281 46.3716 86.5064C46.6871 86.7318 47.0478 86.822 47.4986 86.822C47.9494 86.822 48.31 86.7318 48.6255 86.5064C48.9411 86.281 49.2116 86.0105 49.3919 85.6499C49.5722 85.2893 49.6624 84.8385 49.6624 84.3426C49.6624 83.8468 49.5722 83.396 49.3919 83.0353C49.2116 82.6296 48.9862 82.3591 48.6255 82.1788ZM48.8059 85.1991C48.7157 85.4696 48.5354 85.695 48.3551 85.8753C48.1297 86.0556 47.8592 86.1458 47.5436 86.1458C47.2281 86.1458 46.9576 86.0556 46.7322 85.8753C46.5068 85.695 46.3716 85.4696 46.2814 85.1991C46.1913 84.9286 46.1462 84.6131 46.1462 84.2975C46.1462 83.982 46.1913 83.6664 46.2814 83.396C46.3716 83.1255 46.5519 82.9001 46.7322 82.7198C46.9576 82.5395 47.2281 82.4493 47.5436 82.4493C47.8592 82.4493 48.1297 82.5395 48.3551 82.7198C48.5805 82.9001 48.7157 83.1255 48.8059 83.396C48.896 83.6664 48.9411 83.982 48.9411 84.2975C48.9411 84.6131 48.896 84.9286 48.8059 85.1991Z" fill="white"/>
<path d="M53.8096 82.0436C53.5842 81.9084 53.2686 81.8633 52.9531 81.8633C52.5925 81.8633 52.322 81.9534 52.0966 82.0887C51.8712 82.2239 51.6909 82.4493 51.6007 82.6747H51.5556V81.9534H50.7893V86.6867H51.5106V83.8467C51.5106 83.5763 51.5556 83.3509 51.6909 83.1255C51.781 82.9452 51.9614 82.7649 52.1417 82.6747C52.322 82.5845 52.5474 82.5395 52.7728 82.5395C53.1334 82.5395 53.3588 82.6296 53.5842 82.855C53.7645 83.0804 53.8547 83.3509 53.8547 83.7115V86.6867H54.5759V83.6664C54.5759 83.2607 54.5309 82.9452 54.3956 82.6747C54.2153 82.3591 54.035 82.1788 53.8096 82.0436Z" fill="white"/>
<path d="M59.174 82.6746H59.1289C59.0838 82.5845 58.9937 82.4943 58.9035 82.3591C58.8133 82.2238 58.6781 82.1337 58.4978 81.9984C58.3175 81.9083 58.0921 81.8632 57.7765 81.8632C57.3708 81.8632 57.0102 81.9534 56.7397 82.1788C56.4242 82.3591 56.1988 82.6746 56.0185 83.0353C55.8381 83.3959 55.748 83.8467 55.748 84.3426C55.748 84.8384 55.8381 85.2892 56.0185 85.6498C56.1988 86.0105 56.4242 86.2809 56.7397 86.5063C57.0553 86.6867 57.3708 86.8219 57.7765 86.8219C58.0921 86.8219 58.3175 86.7768 58.4978 86.6867C58.6781 86.5965 58.8133 86.4613 58.9035 86.326C58.9937 86.1908 59.0838 86.1006 59.1289 86.0105H59.2191V86.7317H59.9403V80.3756H59.2191V82.6746H59.174ZM58.9937 85.2441C58.9035 85.5146 58.7232 85.74 58.5429 85.8752C58.3626 86.0105 58.0921 86.1006 57.8216 86.1006C57.5061 86.1006 57.2807 86.0105 57.0553 85.8752C56.8299 85.6949 56.6946 85.5146 56.6045 85.199C56.5143 84.9286 56.4693 84.613 56.4693 84.2975C56.4693 83.9819 56.5143 83.6664 56.6045 83.3959C56.6946 83.1254 56.875 82.9 57.0553 82.7648C57.2807 82.5845 57.5061 82.5394 57.8216 82.5394C58.1372 82.5394 58.3626 82.6296 58.588 82.7648C58.7683 82.9 58.9486 83.1254 59.0387 83.3959C59.1289 83.6664 59.174 83.9819 59.174 84.3426C59.174 84.6581 59.1289 84.9737 58.9937 85.2441Z" fill="white"/>
<path d="M64.5384 85.3793C64.4934 85.5597 64.4032 85.6949 64.268 85.7851C64.1327 85.8752 64.0426 85.9654 63.8622 86.0105C63.727 86.0555 63.5467 86.1006 63.3213 86.1006C63.0058 86.1006 62.7804 86.0555 62.555 85.9203C62.3296 85.7851 62.1493 85.6047 62.014 85.3343C61.9239 85.1089 61.8337 84.8384 61.8337 84.5228H65.2597V84.2073C65.2597 83.7565 65.2146 83.3959 65.0794 83.0803C64.9441 82.7648 64.8089 82.5394 64.5835 82.3591C64.4032 82.1787 64.1778 82.0435 63.9073 81.9534C63.6819 81.8632 63.4115 81.8181 63.1861 81.8181C62.7353 81.8181 62.3746 81.9083 62.0591 82.1337C61.7435 82.3591 61.4731 82.6295 61.2928 82.9902C61.1124 83.3508 61.0223 83.8016 61.0223 84.2975C61.0223 84.7933 61.1124 85.199 61.2928 85.5597C61.4731 85.9203 61.7435 86.1908 62.0591 86.4162C62.3746 86.6416 62.7804 86.7317 63.2311 86.7317C63.5467 86.7317 63.8622 86.6866 64.0876 86.5965C64.3581 86.5063 64.5835 86.3711 64.7188 86.1908C64.854 86.0105 65.0343 85.7851 65.0794 85.5597L64.5384 85.3793ZM62.5099 82.7197C62.7353 82.5845 62.9607 82.4943 63.2762 82.4943C63.5467 82.4943 63.7721 82.5394 63.9524 82.6746C64.1327 82.8098 64.313 82.9451 64.4032 83.1705C64.4934 83.3959 64.5835 83.6213 64.5835 83.8917H61.8788C61.8788 83.6664 61.9239 83.441 62.014 83.2606C62.1493 83.0352 62.2845 82.8549 62.5099 82.7197Z" fill="white"/>
<path d="M67.153 83.6664C67.153 83.441 67.198 83.2607 67.2882 83.0804C67.3784 82.9001 67.5136 82.7649 67.6939 82.6747C67.8742 82.5845 68.0996 82.5395 68.325 82.5395C68.4152 82.5395 68.5053 82.5395 68.5955 82.5395C68.6856 82.5395 68.7307 82.5845 68.7758 82.5845V81.8633C68.7307 81.8633 68.6856 81.8633 68.5955 81.8633C68.5053 81.8633 68.4603 81.8633 68.4152 81.8633C68.1447 81.8633 67.8742 81.9534 67.6488 82.0887C67.4234 82.2239 67.2431 82.4042 67.198 82.6747H67.153V81.9534H66.4317V86.6867H67.153V83.6664Z" fill="white"/>
<path d="M70.3986 80.3306H69.6774V86.6867H70.3986V80.3306Z" fill="white"/>
<path d="M75.3573 86.6867V83.5762C75.3573 83.2156 75.3122 82.9001 75.177 82.6747C75.0418 82.4493 74.9065 82.269 74.7262 82.1788C74.5459 82.0886 74.3656 81.9985 74.1402 81.9534C73.9599 81.9083 73.7796 81.9083 73.5992 81.9083C73.3738 81.9083 73.1034 81.9534 72.878 81.9985C72.6526 82.0436 72.3821 82.1788 72.2018 82.3591C71.9764 82.5394 71.8412 82.7648 71.7059 83.0353L72.3821 83.2607C72.4723 83.0804 72.6075 82.9451 72.7878 82.7648C72.9681 82.6296 73.2386 82.5394 73.5992 82.5394C73.9148 82.5394 74.1853 82.6296 74.3656 82.8099C74.5459 82.9902 74.6361 83.2156 74.6361 83.5312V83.5762C74.6361 83.7115 74.591 83.7566 74.5008 83.8016C74.4107 83.8467 74.2754 83.8918 74.0951 83.8918C73.9148 83.8918 73.6894 83.9369 73.3738 83.982C73.1484 84.027 72.9231 84.0721 72.6977 84.1172C72.4723 84.1623 72.2919 84.2524 72.1116 84.3426C71.9313 84.4327 71.7961 84.568 71.6608 84.7483C71.5707 84.9286 71.4805 85.154 71.4805 85.4245C71.4805 85.74 71.5707 86.0105 71.7059 86.2359C71.8412 86.4613 72.0665 86.6416 72.2919 86.7318C72.5173 86.867 72.8329 86.9121 73.1034 86.9121C73.3738 86.9121 73.5992 86.867 73.8246 86.7768C74.0049 86.6867 74.1853 86.5965 74.2754 86.4613C74.4107 86.3261 74.4557 86.2359 74.5008 86.1457H74.5459V86.7768H75.3573V86.6867ZM74.4557 85.5146C74.3656 85.695 74.1853 85.8302 74.0049 85.9654C73.8246 86.1007 73.5542 86.1457 73.2837 86.1457C73.0132 86.1457 72.7427 86.1007 72.5624 85.9654C72.3821 85.8302 72.2919 85.6499 72.2919 85.3794C72.2919 85.1991 72.337 85.0638 72.4272 84.9286C72.5173 84.8385 72.6526 84.7483 72.8329 84.7032C73.0132 84.6581 73.1935 84.6131 73.3738 84.568C73.464 84.568 73.5542 84.5229 73.6894 84.5229C73.8246 84.5229 73.9599 84.4778 74.0951 84.4778C74.2303 84.4778 74.3656 84.4327 74.4557 84.3877C74.5459 84.3426 74.6361 84.3426 74.6361 84.2975V84.9737C74.6361 85.154 74.5459 85.3343 74.4557 85.5146Z" fill="white"/>
<path d="M80.4512 86.6867V83.6664C80.4512 83.2607 80.4062 82.9451 80.2709 82.6747C80.1357 82.4042 79.9554 82.2239 79.73 82.0886C79.5046 81.9534 79.189 81.9083 78.8735 81.9083C78.5128 81.9083 78.2424 81.9985 78.017 82.1337C77.7916 82.269 77.6113 82.4944 77.5211 82.7197H77.3859V81.9985H76.6646V86.7318H77.3859V83.8918C77.3859 83.6213 77.431 83.3959 77.5662 83.1705C77.6563 82.9902 77.8367 82.8099 78.017 82.7197C78.1973 82.6296 78.4227 82.5845 78.6481 82.5845C79.0087 82.5845 79.2341 82.6747 79.4595 82.9001C79.6398 83.1255 79.73 83.3959 79.73 83.7566V86.7318H80.4512V86.6867Z" fill="white"/>
<path d="M85.0492 80.3306V82.6747H85.0041C84.9591 82.5845 84.8689 82.4944 84.7788 82.3591C84.6886 82.2239 84.5534 82.1337 84.373 81.9985C84.1927 81.9083 83.9673 81.8633 83.6518 81.8633C83.2461 81.8633 82.8854 81.9534 82.615 82.1788C82.2994 82.3591 82.074 82.6747 81.8937 83.0353C81.7134 83.3959 81.6232 83.8467 81.6232 84.3426C81.6232 84.8385 81.7134 85.2892 81.8937 85.6499C82.074 86.0105 82.2994 86.281 82.615 86.5064C82.9305 86.6867 83.2461 86.8219 83.6518 86.8219C83.9673 86.8219 84.1927 86.7768 84.373 86.6867C84.5534 86.5965 84.6886 86.4613 84.7788 86.3261C84.8689 86.1908 84.9591 86.1007 85.0041 86.0105H85.0943V86.7318H85.8156V80.3756H85.0492V80.3306ZM84.914 85.2442C84.8238 85.5146 84.6435 85.74 84.4632 85.8753C84.2829 86.0105 84.0124 86.1007 83.7419 86.1007C83.4264 86.1007 83.201 86.0105 82.9756 85.8753C82.7502 85.695 82.615 85.5146 82.5248 85.1991C82.4346 84.9286 82.3896 84.6131 82.3896 84.2975C82.3896 83.982 82.4346 83.6664 82.5248 83.3959C82.615 83.1255 82.7953 82.9001 82.9756 82.7648C83.201 82.5845 83.4264 82.5394 83.7419 82.5394C84.0575 82.5394 84.2829 82.6296 84.5083 82.7648C84.6886 82.9001 84.8689 83.1255 84.9591 83.3959C85.0492 83.6664 85.0943 83.982 85.0943 84.3426C85.0492 84.6581 85.0041 84.9737 84.914 85.2442Z" fill="white"/>
<path d="M43.6217 95.5672C43.4414 95.432 43.216 95.3869 43.0357 95.3419V95.2968C43.216 95.2517 43.3963 95.1615 43.5316 95.0714C43.6668 94.9812 43.8021 94.846 43.8922 94.6657C43.9824 94.4854 44.0274 94.26 44.0274 93.9895C44.0274 93.6739 43.9373 93.4035 43.802 93.133C43.6668 92.8625 43.4414 92.6822 43.1709 92.5019C42.9005 92.3666 42.5398 92.2765 42.0891 92.2765H39.8802V98.6326H42.1792C42.6751 98.6326 43.0808 98.5425 43.3963 98.4072C43.7119 98.272 43.9373 98.0466 44.0725 97.8212C44.2078 97.5507 44.2979 97.2802 44.2979 96.9647C44.2979 96.6491 44.2528 96.3336 44.1176 96.1082C43.9824 95.8828 43.8021 95.7025 43.6217 95.5672ZM40.6916 92.9978H42.1341C42.5398 92.9978 42.8554 93.0879 43.0357 93.2682C43.216 93.4485 43.3062 93.719 43.3062 93.9895C43.3062 94.2149 43.2611 94.3952 43.1259 94.5755C42.9906 94.7558 42.8554 94.846 42.6751 94.9812C42.4948 95.0714 42.2694 95.1165 42.044 95.1165H40.6014V92.9978H40.6916ZM43.2611 97.686C43.0357 97.8663 42.6751 97.9564 42.1792 97.9564H40.6465V95.7476H42.2243C42.4948 95.7476 42.7202 95.7926 42.9456 95.9279C43.1259 96.018 43.3062 96.1984 43.3963 96.3787C43.4865 96.559 43.5767 96.7393 43.5767 96.9647C43.5767 97.2352 43.4865 97.4606 43.2611 97.686Z" fill="white"/>
<path d="M48.4002 94.1247C48.2198 94.0346 48.0395 93.9444 47.8141 93.8993C47.6338 93.8543 47.4535 93.8542 47.2732 93.8542C47.0478 93.8542 46.7773 93.8993 46.5519 93.9444C46.3265 93.9895 46.0561 94.1247 45.8757 94.305C45.6504 94.4854 45.5151 94.7107 45.3799 94.9812L46.0561 95.2066C46.1462 95.0263 46.2815 94.8911 46.4618 94.7108C46.6421 94.5755 46.9126 94.4854 47.2732 94.4854C47.5887 94.4854 47.8592 94.5755 48.0395 94.7558C48.2198 94.9361 48.31 95.1615 48.31 95.4771V95.5222C48.31 95.6574 48.2649 95.7025 48.1748 95.7476C48.0846 95.7926 47.9494 95.8377 47.7691 95.8377C47.5887 95.8377 47.3633 95.8828 47.0478 95.9279C46.8224 95.973 46.597 96.018 46.3716 96.0631C46.1462 96.1082 45.9659 96.1984 45.7856 96.2885C45.6053 96.3787 45.47 96.5139 45.3348 96.6942C45.2446 96.8745 45.1545 97.0999 45.1545 97.3704C45.1545 97.686 45.2446 97.9564 45.3799 98.1818C45.5151 98.4072 45.7405 98.5875 45.9659 98.6777C46.1913 98.8129 46.5068 98.858 46.7773 98.858C47.0478 98.858 47.2732 98.8129 47.4986 98.7228C47.6789 98.6326 47.8592 98.5425 47.9494 98.4072C48.0846 98.272 48.1297 98.1818 48.1748 98.0917H48.2198V98.7228H48.9411V95.6123C48.9411 95.2517 48.896 94.9361 48.7608 94.7108C48.7608 94.3952 48.5805 94.2149 48.4002 94.1247ZM48.3551 96.9196C48.3551 97.0999 48.31 97.3253 48.2198 97.5056C48.1297 97.686 47.9494 97.8212 47.7691 97.9564C47.5887 98.0917 47.3183 98.1367 47.0478 98.1367C46.7773 98.1367 46.5068 98.0917 46.3265 97.9564C46.1462 97.8212 46.0561 97.6409 46.0561 97.3704C46.0561 97.1901 46.1011 97.0549 46.1913 96.9196C46.2815 96.8295 46.4167 96.7393 46.597 96.6942C46.7773 96.6491 46.9576 96.6041 47.138 96.559C47.2281 96.559 47.3183 96.5139 47.4535 96.5139C47.5887 96.5139 47.724 96.4688 47.8592 96.4688C47.9944 96.4688 48.1297 96.4237 48.2198 96.3787C48.31 96.3336 48.4002 96.3336 48.4002 96.2885L48.3551 96.9196Z" fill="white"/>
<path d="M54.2153 93.8993H53.3137L51.2401 96.018H51.1499V92.3215H50.4286V98.6326H51.1499V96.8745L51.6458 96.3786L53.4489 98.6326H54.3505L52.1867 95.9278L54.2153 93.8993Z" fill="white"/>
<path d="M58.2724 94.3501C58.0921 94.1698 57.8667 94.0346 57.5962 93.9444C57.3708 93.8543 57.1004 93.8092 56.875 93.8092C56.4242 93.8092 56.0635 93.8994 55.748 94.1248C55.4324 94.3501 55.162 94.6206 54.9817 94.9813C54.8013 95.3419 54.7112 95.7927 54.7112 96.2885C54.7112 96.7844 54.8013 97.1901 54.9817 97.5507C55.162 97.9114 55.4324 98.1819 55.748 98.4072C56.0635 98.6326 56.4693 98.7228 56.92 98.7228C57.2356 98.7228 57.5511 98.6777 57.7765 98.5876C58.047 98.4974 58.2724 98.3622 58.4077 98.1819C58.588 98.0015 58.7232 97.7761 58.7683 97.5507L58.047 97.3704C58.0019 97.5507 57.9118 97.686 57.7765 97.7761C57.6413 97.8663 57.5512 97.9565 57.3708 98.0015C57.2356 98.0466 57.0553 98.0917 56.8299 98.0917C56.5143 98.0917 56.2889 98.0466 56.0635 97.9114C55.8382 97.7761 55.6578 97.5958 55.5226 97.3254C55.4324 97.1 55.3423 96.8295 55.3423 96.5139H58.7683V96.1984C58.7683 95.7476 58.7232 95.387 58.588 95.0714C58.633 94.8009 58.4978 94.5305 58.2724 94.3501ZM55.4775 95.8828C55.4775 95.6574 55.5226 95.432 55.6128 95.2517C55.748 95.0263 55.8832 94.846 56.1086 94.7108C56.334 94.5755 56.5594 94.4854 56.875 94.4854C57.1454 94.4854 57.3708 94.5305 57.5511 94.6657C57.7315 94.8009 57.9118 94.9362 58.0019 95.1616C58.0921 95.387 58.1823 95.6124 58.1823 95.8828H55.4775Z" fill="white"/>
<path d="M63.0959 94.0345C62.8705 93.8993 62.555 93.8542 62.2394 93.8542C61.8788 93.8542 61.5632 93.9444 61.3378 94.0796C61.1124 94.2148 60.9321 94.4402 60.842 94.6656H60.7969V92.3215H60.0756V98.6777H60.7969V95.8377C60.7969 95.5672 60.842 95.3418 60.9772 95.1164C61.0674 94.9361 61.2477 94.7558 61.428 94.6656C61.6083 94.5755 61.8337 94.5304 62.0591 94.5304C62.4197 94.5304 62.6902 94.6206 62.8705 94.8459C63.0508 95.0713 63.141 95.3418 63.141 95.7024V98.6777H63.8622V95.6123C63.8622 95.2066 63.7721 94.8459 63.6819 94.6206C63.5467 94.3501 63.3664 94.1698 63.0959 94.0345Z" fill="white"/>
<path d="M68.28 94.1248C67.9644 93.8994 67.5587 93.8092 67.153 93.8092C66.7022 93.8092 66.3416 93.8994 66.026 94.1248C65.7105 94.3501 65.44 94.6206 65.2597 94.9813C65.0794 95.3419 64.9892 95.7927 64.9892 96.2885C64.9892 96.7844 65.0794 97.1901 65.2597 97.5958C65.44 97.9565 65.7105 98.2269 66.026 98.4523C66.3416 98.6777 66.7022 98.7679 67.153 98.7679C67.6038 98.7679 67.9644 98.6777 68.28 98.4523C68.5955 98.2269 68.866 97.9565 69.0463 97.5958C69.2266 97.2352 69.3168 96.7844 69.3168 96.2885C69.3168 95.7927 69.2266 95.3419 69.0463 94.9813C68.866 94.6206 68.5955 94.3501 68.28 94.1248ZM68.4152 97.1901C68.325 97.4606 68.1447 97.686 67.9644 97.8663C67.739 98.0466 67.4685 98.1368 67.153 98.1368C66.8374 98.1368 66.567 98.0466 66.3416 97.8663C66.1162 97.686 65.9809 97.4606 65.8908 97.1901C65.8006 96.9196 65.7555 96.6041 65.7555 96.2885C65.7555 95.973 65.8006 95.6574 65.8908 95.387C65.9809 95.1165 66.1612 94.8911 66.3416 94.7108C66.567 94.5305 66.8374 94.4403 67.153 94.4403C67.4685 94.4403 67.739 94.5305 67.9644 94.7108C68.1898 94.8911 68.325 95.1165 68.4152 95.387C68.5054 95.6574 68.5504 95.973 68.5504 96.2885C68.5955 96.6041 68.5504 96.9196 68.4152 97.1901Z" fill="white"/>
<path d="M73.4189 96.6942C73.4189 97.0098 73.3739 97.2352 73.2386 97.4155C73.1034 97.5958 72.9681 97.7311 72.7427 97.8212C72.5624 97.9114 72.3821 97.9565 72.2018 97.9565C71.8862 97.9565 71.6609 97.8663 71.4355 97.6409C71.2551 97.4155 71.165 97.145 71.165 96.8295V93.8543H70.4437V96.8746C70.4437 97.2803 70.4888 97.5958 70.624 97.8663C70.7593 98.1368 70.9396 98.3171 71.165 98.4523C71.3904 98.5876 71.6609 98.6326 71.9764 98.6326C72.337 98.6326 72.6526 98.5425 72.878 98.3622C73.1034 98.1819 73.2837 98.0015 73.4189 97.7311H73.464V98.5425H74.1853V93.8092H73.464L73.4189 96.6942Z" fill="white"/>
<path d="M77.7014 96.0181L76.9801 95.8378C76.7096 95.7476 76.4842 95.6574 76.349 95.5673C76.2138 95.4771 76.1687 95.2968 76.1687 95.1165C76.1687 94.8911 76.2589 94.7559 76.4392 94.6206C76.6195 94.4854 76.89 94.4403 77.1604 94.4403C77.3858 94.4403 77.5661 94.4854 77.7014 94.5305C77.8366 94.6206 77.9268 94.6657 78.0169 94.8009C78.1071 94.8911 78.1522 95.0263 78.1972 95.1165L78.8734 94.9362C78.7382 94.5755 78.5579 94.3051 78.2874 94.1248C78.0169 93.8994 77.6563 93.8092 77.1604 93.8092C76.8449 93.8092 76.5293 93.8543 76.2588 93.9895C75.9884 94.1248 75.8081 94.26 75.6277 94.4854C75.4925 94.7108 75.4024 94.9362 75.4024 95.2066C75.4024 95.5222 75.4925 95.7927 75.7179 96.0181C75.9433 96.2435 76.2589 96.3787 76.6646 96.5139L77.476 96.6943C77.7014 96.7393 77.8817 96.8295 78.0169 96.9647C78.1522 97.0549 78.1972 97.2352 78.1972 97.3704C78.1972 97.5958 78.1071 97.7311 77.8817 97.9114C77.7014 98.0466 77.4309 98.1368 77.0703 98.1368C76.7547 98.1368 76.5293 98.0917 76.349 97.9565C76.1687 97.8212 76.0335 97.6409 75.9884 97.3704L75.3122 97.5507C75.4024 97.9565 75.5827 98.272 75.8982 98.4523C76.2138 98.6777 76.6195 98.7679 77.1154 98.7679C77.476 98.7679 77.7915 98.7228 78.1071 98.5876C78.3776 98.4523 78.6029 98.3171 78.7382 98.0917C78.8734 97.8663 78.9636 97.6409 78.9636 97.3704C78.9636 97.0549 78.8734 96.7844 78.648 96.559C78.4677 96.2885 78.1522 96.1533 77.7014 96.0181Z" fill="white"/>
<path d="M83.3814 94.3501C83.201 94.1698 82.9756 94.0346 82.7052 93.9444C82.4798 93.8543 82.2093 93.8092 81.9839 93.8092C81.5331 93.8092 81.1725 93.8994 80.8569 94.1248C80.5414 94.3501 80.2709 94.6206 80.0906 94.9813C79.9103 95.3419 79.8201 95.7927 79.8201 96.2885C79.8201 96.7844 79.9103 97.1901 80.0906 97.5507C80.2709 97.9114 80.5414 98.1819 80.8569 98.4072C81.1725 98.6326 81.5782 98.7228 82.029 98.7228C82.3445 98.7228 82.6601 98.6777 82.8855 98.5876C83.156 98.4974 83.3814 98.3622 83.5166 98.1819C83.6969 98.0015 83.8321 97.7761 83.8772 97.5507L83.156 97.3704C83.1109 97.5507 83.0207 97.686 82.8855 97.7761C82.7503 97.8663 82.615 97.9565 82.4798 98.0015C82.3445 98.0466 82.1642 98.0917 81.9388 98.0917C81.6233 98.0917 81.3979 98.0466 81.1725 97.9114C80.9471 97.7761 80.7668 97.5958 80.6315 97.3254C80.5414 97.1 80.4512 96.8295 80.4512 96.5139H83.8772V96.1984C83.8772 95.7476 83.8321 95.387 83.6969 95.0714C83.742 94.8009 83.6068 94.5305 83.3814 94.3501ZM80.6315 95.8828C80.6315 95.6574 80.6766 95.432 80.7668 95.2517C80.902 95.0263 81.0373 94.846 81.2627 94.7108C81.488 94.5755 81.7134 94.4854 82.029 94.4854C82.2995 94.4854 82.5249 94.5305 82.7052 94.6657C82.8855 94.8009 83.0658 94.9362 83.156 95.1616C83.2461 95.387 83.3363 95.6124 83.3363 95.8828H80.6315Z" fill="white"/>
<path d="M122.51 61.0368C122.51 60.6762 122.51 60.3156 122.465 60C120.707 27.4981 95.9133 0 61.7886 0C29.9629 0 0.661621 24.7934 0.661621 60.0902C0.661621 93.2682 27.3934 120 61.5181 120C76.7548 120 91.7661 113.283 102.991 103.501C92.2168 112.878 77.8367 118.557 62.9156 118.557C30.3686 118.557 4.85396 93.719 4.85396 60.9917C4.85396 28.6251 33.7946 3.24568 63.2311 3.29076C74.2304 3.29076 81.4881 5.40947 88.881 8.83546C81.6233 5.13899 73.464 3.06536 64.7187 2.93013H64.7638C64.7638 2.93013 58.7683 2.83997 53.5392 3.38092C56.334 2.97521 59.174 2.61458 62.0591 2.5695C76.7097 2.38918 87.4385 6.26596 97.0403 13.2081C101.278 16.1382 105.064 19.6093 108.355 23.441C97.5361 10.278 81.3077 1.98347 62.1943 1.98347C35.2822 1.98347 9.90279 20.556 3.32128 46.6116C9.63232 19.1134 34.8765 0.81142 62.014 0.81142C84.1026 0.81142 102.269 11.8107 112.592 28.9406C112.908 29.4816 113.314 30.1578 113.629 30.6987L114.621 32.4117C119.264 40.8415 122.014 50.8039 122.51 61.0368Z" fill="white"/>
</g>
<defs>
<clipPath id="clip0_254_562">
<rect width="121.848" height="120" fill="white" transform="translate(0.661621)"/>
</clipPath>
</defs>
</svg>
