<svg width="116" height="20" viewBox="0 0 116 20" fill="none" xmlns="http://www.w3.org/2000/svg">
<path d="M10.0025 2.5L11.9608 7.3L17.1358 7.68333L13.1691 11.0333L14.4108 16.0667L10.0025 13.3333L5.59414 16.0667L6.83581 11.0333L2.86914 7.68333L8.04414 7.3L10.0025 2.5Z" fill="#FFE32E"/>
<path d="M10.0025 2.5L8.04414 7.3L2.86914 7.68333L6.83581 11.0333L5.59414 16.0667L10.0025 13.3333M10.0025 2.5L11.9608 7.3L17.1358 7.68333L13.1691 11.0333L14.4108 16.0667L10.0025 13.3333" stroke="#FFE32E" stroke-width="2.85714" stroke-linecap="round" stroke-linejoin="round"/>
<path d="M34.0025 2.5L35.9608 7.3L41.1358 7.68333L37.1691 11.0333L38.4108 16.0667L34.0025 13.3333L29.5941 16.0667L30.8358 11.0333L26.8691 7.68333L32.0441 7.3L34.0025 2.5Z" fill="#FFE32E"/>
<path d="M34.0025 2.5L32.0441 7.3L26.8691 7.68333L30.8358 11.0333L29.5941 16.0667L34.0025 13.3333M34.0025 2.5L35.9608 7.3L41.1358 7.68333L37.1691 11.0333L38.4108 16.0667L34.0025 13.3333" stroke="#FFE32E" stroke-width="2.85714" stroke-linecap="round" stroke-linejoin="round"/>
<path d="M58.0022 2.5L59.9606 7.3L65.1356 7.68333L61.1689 11.0333L62.4106 16.0667L58.0022 13.3333L53.5939 16.0667L54.8356 11.0333L50.8689 7.68333L56.0439 7.3L58.0022 2.5Z" fill="#FFE32E"/>
<path d="M58.0022 2.5L56.0439 7.3L50.8689 7.68333L54.8356 11.0333L53.5939 16.0667L58.0022 13.3333M58.0022 2.5L59.9606 7.3L65.1356 7.68333L61.1689 11.0333L62.4106 16.0667L58.0022 13.3333" stroke="#FFE32E" stroke-width="2.85714" stroke-linecap="round" stroke-linejoin="round"/>
<path d="M81.9986 2.5L83.9569 7.3L89.1319 7.68333L85.1652 11.0333L86.4069 16.0667L81.9986 13.3333L77.5902 16.0667L78.8319 11.0333L74.8652 7.68333L80.0402 7.3L81.9986 2.5Z" fill="#FFE32E"/>
<path d="M81.9986 2.5L80.0402 7.3L74.8652 7.68333L78.8319 11.0333L77.5902 16.0667L81.9986 13.3333M81.9986 2.5L83.9569 7.3L89.1319 7.68333L85.1652 11.0333L86.4069 16.0667L81.9986 13.3333" stroke="#FFE32E" stroke-width="2.85714" stroke-linecap="round" stroke-linejoin="round"/>
<path d="M106.002 2.5L107.961 7.3L113.136 7.68333L109.169 11.0333L110.411 16.0667L106.002 13.3333L101.594 16.0667L102.836 11.0333L98.8691 7.68333L104.044 7.3L106.002 2.5Z" fill="#EDEDED"/>
<path d="M106.002 2.5L104.044 7.3L98.8691 7.68333L102.836 11.0333L101.594 16.0667L106.002 13.3333M106.002 2.5L107.961 7.3L113.136 7.68333L109.169 11.0333L110.411 16.0667L106.002 13.3333" stroke="#EDEDED" stroke-width="2.85714" stroke-linecap="round" stroke-linejoin="round"/>
</svg>
