<svg width="90" height="50" viewBox="0 0 90 50" fill="none" xmlns="http://www.w3.org/2000/svg">
<g clip-path="url(#clip0)">
<path d="M73.8548 50H16.1936C15.1013 50 14.0537 49.5661 13.2813 48.7937C12.5089 48.0213 12.075 46.9737 12.075 45.8813V4.69466C12.075 3.60232 12.5089 2.55472 13.2813 1.78232C14.0537 1.00992 15.1013 0.575989 16.1936 0.575989H73.8548C74.9472 0.575989 75.9948 1.00992 76.7672 1.78232C77.5396 2.55472 77.9735 3.60232 77.9735 4.69466V45.8813C77.9735 46.9737 77.5396 48.0213 76.7672 48.7937C75.9948 49.5661 74.9472 50 73.8548 50Z" fill="#EFF1F4"/>
<path d="M20.3123 50H16.1936C15.1013 50 14.0537 49.5661 13.2813 48.7937C12.5089 48.0213 12.075 46.9737 12.075 45.8813V4.69466C12.075 4.15378 12.1815 3.61821 12.3885 3.11851C12.5954 2.61881 12.8988 2.16477 13.2813 1.78232C13.6637 1.39986 14.1178 1.09649 14.6175 0.889503C15.1172 0.682521 15.6528 0.575989 16.1936 0.575989C16.7345 0.575989 17.2701 0.682521 17.7698 0.889503C18.2695 1.09649 18.7235 1.39986 19.106 1.78232C19.4884 2.16477 19.7918 2.61881 19.9988 3.11851C20.2058 3.61821 20.3123 4.15378 20.3123 4.69466V50Z" fill="#DAE2EB"/>
<path d="M69.7367 50H73.8554C74.9477 50 75.9953 49.5661 76.7677 48.7937C77.5401 48.0213 77.974 46.9737 77.974 45.8813V4.69466C77.974 3.60232 77.5401 2.55472 76.7677 1.78232C75.9953 1.00992 74.9477 0.575989 73.8554 0.575989C72.763 0.575989 71.7154 1.00992 70.943 1.78232C70.1706 2.55472 69.7367 3.60232 69.7367 4.69466V50Z" fill="#CBD4DF"/>
<path d="M76.2147 8.07195C76.6582 7.76221 77.0364 7.36815 77.3276 6.91226C77.6188 6.45638 77.8174 5.94759 77.912 5.41496C78.0066 4.88234 77.9953 4.33629 77.8789 3.808C77.7625 3.27972 77.5431 2.77954 77.2334 2.33603C76.9236 1.89252 76.5296 1.51435 76.0737 1.22313C75.6178 0.93191 75.109 0.733334 74.5764 0.63874C74.0437 0.544147 73.4977 0.555389 72.9694 0.671825C72.4411 0.78826 71.9409 1.00761 71.4974 1.31735L45.0281 20.5886L45.0253 20.5899L45.0226 20.5886L18.5532 1.31735C17.6575 0.691803 16.55 0.4477 15.4743 0.63874C14.3986 0.82978 13.4428 1.44031 12.8173 2.33603C12.1917 3.23174 11.9476 4.33927 12.1387 5.41496C12.3297 6.49066 12.9403 7.4464 13.836 8.07195L13.7261 7.99095L45.0253 30.7795L76.2147 8.07195ZM76.3259 7.99095L45.0253 30.7795L76.3259 7.99095Z" fill="#DAE2EB"/>
<path d="M73.8553 0.575994C72.978 0.575994 72.1639 0.850572 71.4967 1.31735L45.0274 20.5886L45.0246 20.59L45.0219 20.5886L18.5526 1.31735C17.8613 0.833553 17.0377 0.574672 16.194 0.575994H73.8553Z" fill="#EFF1F4"/>
<path d="M20.3143 14.5629L13.373 7.6875L13.3702 7.69299C13.5158 7.83028 13.6709 7.95658 13.8356 8.07191L13.7258 7.99091L20.3157 12.7892L20.3143 14.6124" fill="#CBD4DF"/>
<path d="M40.4503 34.3367L20.3129 50L20.3142 14.3914L40.4462 34.3312" fill="#E5E9EF"/>
<path d="M40.4496 34.3366L45.0241 30.7795L20.3135 12.7892V14.3913L40.4455 34.3311L40.4496 34.3366Z" fill="url(#paint0_linear)"/>
<path d="M56.0912 50H69.7363V12.7878L45.0243 30.7796L40.4457 34.3312L56.0912 50Z" fill="url(#paint1_linear)"/>
</g>
<defs>
<linearGradient id="paint0_linear" x1="20.3135" y1="23.5636" x2="45.0241" y2="23.5636" gradientUnits="userSpaceOnUse">
<stop stop-color="#D0D4DB"/>
<stop offset="1" stop-color="#DADFE7"/>
</linearGradient>
<linearGradient id="paint1_linear" x1="40.4457" y1="31.3932" x2="69.7363" y2="31.3932" gradientUnits="userSpaceOnUse">
<stop stop-color="#DADFE7"/>
<stop offset="1" stop-color="#E5E9EF"/>
</linearGradient>
<clipPath id="clip0">
<rect width="89.67" height="50" fill="white"/>
</clipPath>
</defs>
</svg>
