<svg width="164" height="82" viewBox="0 0 164 82" fill="none" xmlns="http://www.w3.org/2000/svg">
<g clip-path="url(#clip0)">
<path d="M57.5235 41.6941V41.6935V41.6941ZM132.534 48.4949L132.572 48.4954C134.831 48.4954 136.42 46.9306 136.438 44.6912C136.446 43.5823 136.126 42.5671 135.536 41.8338C134.912 41.0575 134.038 40.6437 133.009 40.6355H132.988C131.6 40.6355 130.31 41.6892 129.046 43.8572L128.945 44.0303L128.881 43.8417C128.562 42.9126 128.277 42.1385 128.107 41.6752C127.988 41.3521 127.936 41.207 127.923 41.16C127.862 40.9255 127.662 40.7798 127.399 40.7798C127.237 40.7798 127.066 40.8347 126.903 40.938C126.742 41.0405 126.653 41.1657 126.62 41.333L126.612 41.3582C125.347 45.3043 124.304 47.22 123.42 47.22C123.291 47.2189 123.191 47.1771 123.116 47.0935C122.884 46.8377 122.941 46.2292 123.02 45.3868C123.078 44.768 123.143 44.0674 123.116 43.324C123.064 41.8947 122.282 41.0364 121.025 41.0271C119.427 41.0266 118.392 42.7284 117.915 43.7427L117.772 44.045L117.741 43.7115C117.622 42.4564 117.2 40.9572 115.87 40.9473C114.319 40.9473 113.137 42.7677 112.416 44.2957L112.223 44.7051L112.242 44.253C112.327 42.2153 112.398 41.0121 112.451 40.6784C112.503 40.3435 112.476 40.1189 112.366 39.9901C112.262 39.8696 112.067 39.825 111.78 39.8431C111.283 39.8745 111.029 40.1768 110.647 41.1901C110.019 42.8541 108.421 46.7256 107.145 46.7256C106.892 46.7237 106.692 46.6376 106.545 46.4689C106.01 45.8558 106.224 44.1978 106.52 41.9037L106.543 41.7302C106.683 40.6439 106.444 40.4121 105.854 40.3036C105.795 40.2925 105.735 40.2867 105.674 40.2861C105.203 40.2861 104.983 40.7374 104.543 41.9915C103.76 44.223 102.753 46.5698 101.575 46.5698C101.532 46.5698 101.489 46.5665 101.446 46.5597C100.822 46.4533 100.836 45.5278 100.853 44.355C100.862 43.7208 100.872 43.0017 100.775 42.3525C100.599 41.1876 99.9126 40.4603 98.983 40.4529C97.1287 40.4529 95.8782 42.8276 95.2965 44.2435L95.1648 44.5638L95.1208 44.2199C95.0065 43.3111 94.9315 42.3978 94.8958 41.4825L94.8942 41.4484L94.9152 41.4216C98.3857 37.0529 99.9432 33.9003 99.964 31.1992C99.9774 29.4737 99.1812 28.4372 97.8344 28.4265C96.8496 28.4265 94.5082 29.2468 93.6945 36.8443C93.5425 38.2706 93.4604 39.7035 93.4485 41.1378L93.448 41.1663L93.4319 41.1892C91.8441 43.4874 88.4553 47.4406 85.1375 47.4406C82.1399 47.4406 79.7482 45.0153 79.7482 40.7344C79.7482 34.9955 83.8102 31.472 86.8672 31.472H86.8926C87.5568 31.4769 88.1264 31.6625 88.5397 32.0085C88.9689 32.3677 89.1938 32.8712 89.1892 33.4643C89.1832 34.2567 88.9249 34.664 88.6753 35.0573C88.6116 35.1587 88.5474 35.2593 88.4889 35.3659C88.4298 35.4736 88.376 35.6296 88.4544 35.7633C88.5348 35.9002 88.7401 35.9863 88.9902 35.9883C89.7178 35.9883 90.8182 34.9348 90.8303 33.3479C90.8428 31.6868 89.4436 29.9752 86.9473 29.9752C83.1695 29.9752 78.0814 34.1255 78.0814 40.8517C78.0814 45.6096 81.0646 48.898 85.1056 48.898C87.9731 48.898 90.8098 46.8448 93.322 43.4153L93.4759 43.2075L93.4868 43.4655C93.5401 44.721 93.6311 45.7099 93.6975 46.4323C93.7404 46.8967 93.7716 47.2321 93.7705 47.4171C93.7672 47.8225 93.8331 48.1045 93.9733 48.2773C94.113 48.4503 94.3349 48.532 94.6717 48.5342C95.2359 48.5342 95.349 48.1496 95.5723 47.2006L95.6366 46.9298C95.9143 45.7799 96.9398 42.0264 98.4822 42.0264C98.7342 42.0289 98.9286 42.1033 99.0666 42.2495C99.4072 42.6108 99.37 43.3524 99.3268 44.2115C99.2995 44.7475 99.2722 45.301 99.3257 45.8403C99.4709 47.296 100.1 48.0081 101.247 48.0163C102.426 48.0168 103.656 46.7472 104.305 45.5675L104.428 45.3453L104.475 45.5951C104.595 46.2265 105.131 48.2989 106.808 48.2989C108.329 48.2989 109.633 46.698 111.062 43.403L111.25 42.9727L111.238 43.442C111.208 44.6906 111.14 46.2153 111.14 47.3942C111.139 48.306 111.231 48.6539 111.653 48.6539L111.748 48.6583C112.153 48.6583 112.427 48.417 112.564 47.9397C113.64 44.1904 114.57 42.4444 115.491 42.4444C116.393 42.4512 116.477 44.1005 116.55 47.0148L116.555 47.2192C116.576 48.2385 116.613 48.6895 117.246 48.6941C117.727 48.6941 117.846 48.3167 118.095 47.3873C118.142 47.2102 118.194 47.0159 118.255 46.8059C119.123 43.7925 119.843 42.563 120.74 42.563C121.507 42.5687 121.55 43.36 121.564 43.62C121.594 44.1768 121.536 44.7598 121.481 45.3226C121.429 45.8457 121.376 46.3869 121.396 46.8896C121.443 48.0682 122.088 48.7223 123.213 48.7308C124.674 48.7308 125.992 47.023 127.146 43.6561L127.226 43.4215L127.318 43.6525C127.527 44.1817 127.8 44.8981 128.052 45.7528L128.062 45.7853L128.048 45.8162C126.93 48.2981 126.141 51.0626 126.13 52.5396C126.115 54.485 126.995 55.7491 128.373 55.7598H128.396C129.146 55.7598 130.892 55.4588 130.926 52.6752C130.94 51.5343 130.67 49.9211 130.125 47.8796L130.063 47.6459L130.264 47.7798C130.961 48.2415 131.746 48.4883 132.534 48.4949ZM94.8999 39.0542C94.9311 38.3567 94.9899 37.6775 95.0732 37.0351C95.6139 32.8963 96.7416 30.0061 97.8172 30.0061H97.8221C98.3349 30.0099 98.5913 30.3978 98.5861 31.1582C98.5713 33.027 97.3873 35.7024 95.0672 39.11L94.8857 39.3768L94.8999 39.0542ZM129.196 53.9336C129.025 54.1616 128.786 54.2772 128.488 54.2772C128.145 54.2742 127.888 54.155 127.713 53.9208C127.222 53.2651 127.36 51.7235 128.161 48.9254C128.257 48.5908 128.36 48.2549 128.47 47.9261L128.563 47.647L128.645 47.9293C129.578 51.1593 129.763 53.1792 129.196 53.9336ZM129.486 45.6585L129.469 45.6276L129.435 45.5202L129.451 45.4882C130.515 43.2961 131.734 42.0396 132.795 42.0396H132.806C134.003 42.0486 134.832 43.1266 134.82 44.6597C134.812 45.6831 134.361 46.2724 133.984 46.5865C133.554 46.9451 132.982 47.1501 132.413 47.1501C131.011 47.1394 130.049 46.3328 129.486 45.6585ZM132.795 42.1317V42.1303V42.1317ZM61.6352 48.1324C63.2774 48.0012 64.5801 45.7678 65.0639 44.8133L65.1886 44.5674L65.2358 44.839C65.4682 46.1811 66.1982 48.4361 68.482 48.4541H68.5011C69.4889 48.4541 70.6096 47.8498 71.7423 46.707L71.8254 46.6231L71.8858 46.7239C72.6484 47.9993 73.6712 48.6769 74.7602 48.6211C76.3633 48.5378 77.3363 47.4018 77.4219 46.6127C77.4437 46.4115 77.3907 46.2221 77.2756 46.0945C77.1316 45.9337 76.9222 45.9152 76.7686 46.0625L76.6951 46.1319C76.322 46.4902 75.6266 47.158 74.8689 47.1974C73.9412 47.2427 73.2552 46.6881 72.8118 45.5434L72.7935 45.4953L72.8247 45.4549C75.3757 42.1183 77.1658 37.0272 76.9889 33.6125C76.9075 32.032 76.448 30.148 74.7219 30.148L74.5931 30.1512C73.932 30.1854 73.3306 30.5006 72.8061 31.0874C71.2046 32.8791 70.3666 37.289 70.6708 42.3225C70.7337 43.3682 70.9154 44.3457 71.2104 45.2266L71.227 45.2761L71.1934 45.316C70.2469 46.4222 69.3129 47.0314 68.5634 47.0314C66.7602 47.0314 66.8209 44.0078 66.9633 41.5008C66.9942 40.9602 67.0398 40.6158 66.8799 40.4201C66.7657 40.2799 66.5744 40.2107 66.2956 40.2085L66.263 40.2082C65.6212 40.2082 65.487 40.3403 65.1588 41.2926C64.4757 43.2709 63.1273 46.5911 61.7711 46.5911C61.3952 46.5876 61.1082 46.4594 60.9117 46.209C60.2538 45.3693 60.7534 43.275 61.1547 41.5916C61.2269 41.289 61.296 40.9984 61.3553 40.7295C61.4431 40.3304 61.4163 40.0393 61.2752 39.863C61.1336 39.6873 60.8513 39.6162 60.4787 39.6457C59.8979 39.6922 59.5264 39.9355 59.3469 41.04L59.3108 41.2696L59.1758 41.1061C58.9221 40.7317 58.4276 40.2856 57.5095 40.2856C57.4292 40.2856 57.3458 40.2889 57.2597 40.2957C56.2801 40.3761 55.1646 41.0586 54.3481 42.0773C53.395 43.2666 52.9396 44.7718 53.0665 46.3164C53.073 46.3981 53.0848 46.4766 53.0965 46.5545L53.1031 46.5974L53.0736 46.6299C52.5034 47.2509 51.9223 47.5664 51.3467 47.5664C50.4581 47.5598 49.9483 46.8994 49.9483 45.7993C49.9483 43.9477 51.2032 38.3654 51.2032 36.3447C51.2032 34.1941 50.2449 33.0234 48.5808 33.0106H48.5557C46.1257 33.0106 44.2321 35.7677 42.4199 41.4404C42.2477 41.985 42.0806 42.5311 41.9186 43.0788L41.6641 43.9319L41.7393 43.0452C41.9032 41.1436 42.0177 39.2381 42.0828 37.3306C42.173 34.5891 41.8027 32.8247 40.9496 31.9369C40.4896 31.458 39.8811 31.2222 39.0885 31.2161H39.0682C36.0949 31.2161 34.6706 36.2307 33.6333 39.769C33.3203 40.8372 32.7034 43.2466 32.2915 44.8937L32.5356 44.4971C32.7184 42.4231 33.2484 37.2278 33.2137 34.4092C33.176 31.3856 32.1696 30.0302 29.9487 30.0132H29.9214C28.7351 30.0132 27.9121 30.6028 27.4308 31.0972C26.6578 31.891 26.1762 33.051 26.203 34.0528C26.2194 34.6618 26.593 35.2038 26.8762 35.2038C27.0607 35.2038 27.1629 34.9575 27.2072 34.8107C27.8944 32.5396 28.7835 31.4354 29.9244 31.4354C30.3975 31.4389 30.7499 31.5783 31.0134 31.8618C31.905 32.8181 31.7426 35.4006 31.4488 40.0891C31.3537 41.6001 31.2465 43.3119 31.156 45.2594C31.1403 45.5808 31.1215 45.9019 31.0997 46.2229C31.0131 47.5751 30.9442 48.6438 31.4573 48.7234C32.1247 48.8275 32.5591 48.5564 32.7816 47.896C33.1112 46.9158 33.8506 44.2369 35.2812 39.3418C36.6539 34.6443 37.6909 32.9351 39.0177 32.9351C40.5505 32.9351 40.6648 35.5671 40.3838 41.1212C40.3239 42.2987 40.2438 43.6323 40.1823 45.0834C40.1739 45.2873 40.1643 45.4852 40.1545 45.6754C40.0954 46.8773 40.049 47.8249 40.3923 48.1885C40.4994 48.3016 40.6448 48.3577 40.8375 48.3587C41.502 48.3587 41.7018 47.7763 42.0328 46.8106C42.0913 46.6403 42.1534 46.4583 42.2225 46.268C44.4994 39.9871 46.1828 34.5377 48.4425 34.5377C49.1201 34.5377 49.6476 35.0882 49.6476 36.1618C49.6476 38.6401 48.4357 43.4286 48.4357 45.8569C48.4357 46.7269 48.686 47.5076 49.1589 48.0564C49.6443 48.6201 50.3236 48.9202 51.1231 48.927H51.1406C51.8966 48.927 52.6841 48.5596 53.4822 47.8353L53.5571 47.7675L53.6172 47.8487C54.1429 48.555 54.9907 48.9347 55.9064 48.8641C57.3108 48.7548 58.4891 47.5043 58.9276 46.3252L59.0134 46.0945L59.0989 46.3252C59.4248 47.2001 60.1294 48.2546 61.6352 48.1324ZM74.5759 31.721L74.6 31.7204C74.7604 31.7204 74.9015 31.8008 75.0185 31.9599C75.5761 32.7137 75.5845 35.4654 74.6254 38.5961C74.0774 40.3854 73.3402 42.0756 72.4945 43.4836L72.3595 43.7077L72.325 43.4483C72.2255 42.6912 72.1763 41.9029 72.1419 41.2321C71.8973 36.4999 73.3287 31.7858 74.5759 31.721ZM58.9937 42.7808C58.5023 44.7584 57.5598 47.1457 55.8605 47.2824L55.7222 47.2881C55.0173 47.2881 54.622 46.8267 54.5474 45.916C54.4539 44.7767 54.9451 43.4426 55.7984 42.5163C56.3416 41.9264 56.9544 41.6017 57.5237 41.6017H57.5352C58.2538 41.6072 58.7576 42.1842 58.9891 42.7224L59.0014 42.7502L58.9937 42.7808ZM66.8753 35.5307C66.248 35.5307 65.7415 36.0249 65.7366 36.6325C65.7317 37.2445 66.2351 37.7463 66.8583 37.751L66.8674 37.842V37.751C67.4856 37.751 67.9919 37.2571 67.9968 36.6497C68.0017 36.0375 67.4985 35.5356 66.8753 35.5307ZM106.315 35.5307C105.688 35.5307 105.182 36.0249 105.177 36.6325C105.172 37.2445 105.675 37.7463 106.298 37.751L106.307 37.842V37.751C106.926 37.751 107.432 37.2571 107.437 36.6497C107.442 36.0375 106.939 35.5356 106.315 35.5307Z" fill="#010101"/>
<path d="M137.029 47.2419C136.825 47.2423 136.629 47.3236 136.485 47.4681C136.34 47.6126 136.259 47.8085 136.259 48.0127C136.259 48.2168 136.341 48.4124 136.485 48.5566C136.629 48.7008 136.825 48.7819 137.029 48.7822C137.233 48.7819 137.429 48.7009 137.573 48.5566C137.718 48.4124 137.799 48.2168 137.8 48.0127C137.8 47.8084 137.718 47.6125 137.574 47.468C137.429 47.3234 137.233 47.2422 137.029 47.2419ZM137.029 48.6709C136.664 48.6709 136.371 48.3776 136.371 48.013C136.371 47.6484 136.664 47.3543 137.029 47.3543C137.394 47.3543 137.688 47.6484 137.688 48.013C137.688 48.3776 137.394 48.6709 137.029 48.6709ZM137.371 47.8116C137.371 47.6525 137.292 47.5656 137.091 47.5656H136.749V48.4533H136.861V48.0647H137.021L137.286 48.4533H137.412L137.147 48.0647C137.267 48.0436 137.371 47.9753 137.371 47.8116ZM137.005 47.9646H136.862V47.6642H137.061C137.156 47.6642 137.26 47.6973 137.26 47.811C137.259 47.9589 137.127 47.9646 137.005 47.9646Z" fill="#020202"/>
</g>
<defs>
<clipPath id="clip0">
<rect width="164" height="82" fill="white"/>
</clipPath>
</defs>
</svg>
