<svg width="143" height="69" viewBox="0 0 143 69" fill="none" xmlns="http://www.w3.org/2000/svg">
<path d="M71.5 0L88.3874 9.75V29.25L71.5 39L54.6126 29.25V9.75L71.5 0Z" fill="white"/>
<path d="M81.1032 19.9761C81.1032 18.2372 78.3018 16.7995 74.105 16.3572C74.1195 16.127 74.1794 15.9018 74.2815 15.6943C74.8088 14.5365 75.9396 12.8541 75.8276 11.5253C75.7858 9.30459 73.9274 7.43879 71.684 7.36425C68.4777 7.19479 66.1972 10.7415 67.7096 13.5281L68.7743 15.6629C68.8808 15.8795 68.9414 16.1153 68.9526 16.3559C61.7505 16.9979 58.9134 21.1909 66.3225 23.1418C65.6056 26.3344 68.203 29.4707 71.5362 29.4335C74.8637 29.4699 77.4622 26.3385 76.7463 23.1457C79.4785 22.4637 81.1021 21.2899 81.1021 19.9751L81.1032 19.9761ZM68.2553 13.2559C66.9804 10.9156 68.8437 7.91104 71.536 7.96649C73.5063 7.95953 75.1819 9.58882 75.2156 11.5361C75.2247 12.1376 75.0911 12.737 74.8128 13.2611L73.7327 15.4271C72.8588 16.9202 74.7404 18.8969 73.6604 19.9769C73.193 20.4979 72.3795 20.8213 71.537 20.8213C70.1716 20.8213 69.0609 19.9771 69.0609 18.9392C68.9957 18.6702 69.4708 17.3494 69.5606 16.5947C69.5896 16.1814 69.5077 15.7679 69.3231 15.3959L68.2553 13.2552V13.2559ZM71.537 28.83C68.9367 28.83 66.8214 26.7597 66.8214 24.2155C66.8214 23.8991 66.8642 23.5878 66.9285 23.2816C67.165 23.3319 67.4141 23.3794 67.677 23.4235C67.6221 23.6834 67.5843 23.9465 67.5843 24.2155C67.8015 29.3538 75.2749 29.3518 75.4897 24.2155C75.4897 23.9473 75.4521 23.6834 75.3971 23.4237C75.6529 23.3804 75.9009 23.334 76.1416 23.2837C76.2059 23.5888 76.2487 23.9001 76.2487 24.2155C76.2487 26.7594 74.1345 28.83 71.537 28.83ZM74.7924 23.5163C75.284 25.5211 73.6319 27.5082 71.537 27.4839C69.4424 27.5082 67.79 25.5204 68.2816 23.5163C70.3243 23.8085 72.7495 23.8085 74.7924 23.5163ZM76.3108 22.6316C73.2901 23.3007 69.776 23.3077 66.7601 22.6278C64.2229 22.0444 62.5828 21.0036 62.5828 19.9761C62.5828 18.6259 65.2079 17.3889 68.8782 16.9736C68.5936 17.9287 68.449 18.5908 68.449 18.9403C68.449 20.3114 69.835 21.4266 71.537 21.4266C72.5497 21.4266 73.5379 21.0248 74.1183 20.3779C75.0605 19.3251 74.4671 18.2973 74.1682 16.9716C80.7552 17.6798 83.2712 20.9291 76.3108 22.6304V22.6316Z" fill="#1E1E1E"/>
<path d="M22.7551 58.5625V59.3348C21.8282 59.3657 21.2722 60.0145 21.2722 61.5901V65.112C19.2949 66.6258 16.7616 68.2323 13.1161 68.2323C6.16499 68.2323 1.5 63.2584 1.5 56.8324C1.5 50.4064 6.50483 45 12.4365 45C16.1438 45 19.6039 46.761 20.9323 49.3561L21.0559 52.3837L19.3567 52.3528C18.9551 49.1707 15.8966 47.1935 13.3942 47.1935C8.45115 47.1935 5.51622 51.0861 5.51622 56.1218C5.51622 61.1576 7.1845 66.2242 12.7763 66.2242C17.2559 66.2242 17.7811 63.4437 17.7811 63.4437L17.8429 61.4356C17.812 59.9527 17.2559 59.3348 16.36 59.3039L16.3909 58.5625H22.7551ZM38.5149 68.3868C32.2125 68.3868 27.7329 63.1348 27.7329 56.6779C27.7329 50.53 32.2125 45.278 38.5149 45.278C44.7864 45.278 49.266 50.53 49.266 56.6779C49.266 63.1348 44.7864 68.3868 38.5149 68.3868ZM38.6384 66.6876C42.84 66.6876 45.2807 61.9299 45.2807 56.6779C45.2807 51.7658 42.84 47.0081 38.6384 47.0081C34.4369 47.0081 31.9962 51.7658 31.9962 56.6779C31.9962 61.9299 34.4369 66.6876 38.6384 66.6876ZM77.3834 46.7301C76.6728 46.7301 76.024 46.9772 76.0549 47.5951V66.0697C76.024 66.6876 76.6728 66.9347 77.3834 66.9347V67.738H71.5444V66.9347C72.255 66.9347 72.9037 66.6876 72.8729 66.0697V50.0048L66.6323 61.3738H65.0876L58.3836 49.9121V66.0697C58.3527 66.6876 59.0015 66.9347 59.712 66.9347V67.738H54.2438V66.9347C54.9543 66.9347 55.6031 66.6876 55.5722 66.0697V47.5951C55.6031 46.9772 54.9543 46.7301 54.2438 46.7301V45.9268H59.6193L65.9835 57.2649L72.0387 45.9268H77.3834V46.7301ZM103.493 66.3169C103.709 66.7494 104.296 66.9347 104.883 66.9347V67.738H98.9204V66.9347C99.5382 66.9347 99.7545 66.7185 99.6618 66.2242L97.3757 59.9836H88.2001L85.7904 66.3169C85.7286 66.7494 85.9449 66.9347 86.5319 66.9347V67.738H81.5888V66.9347C82.1449 66.9347 82.7319 66.7803 82.9791 66.3786L83.0717 66.1315V66.0697V66.1006L90.7952 46.5756L95.4293 45.0618L103.4 66.1315L103.493 66.3169ZM88.5091 58.5007H96.974L92.896 47.4097L88.5091 58.5007ZM115.02 46.4829C114.34 46.4829 113.692 46.7301 113.692 47.3479V66.0697C113.692 66.6876 114.34 66.9347 115.02 66.9347V67.738H108.934V66.9347C109.614 66.9347 110.262 66.6876 110.262 66.0697V47.3479C110.262 46.7301 109.614 46.4829 108.934 46.4829V45.6797H115.02V46.4829ZM139.986 50.3756C140.882 52.1674 141.5 54.2064 141.5 56.6779C141.5 59.1494 140.851 61.621 139.801 63.2892C138.318 65.6681 133.962 67.738 130.78 67.738H121.234V66.9347C121.944 66.9347 122.593 66.6876 122.562 66.0697V47.3788C122.562 46.761 121.913 46.5138 121.234 46.5138V45.7106H131.181C135.29 45.7106 138.75 47.8731 139.986 50.3756ZM130.038 65.6681C134.549 65.6681 137.762 62.3624 137.762 56.4617C137.762 50.5609 133.468 47.6569 129.977 47.6878L125.497 47.7187V65.7299C127.073 65.699 128.092 65.6681 130.038 65.6681Z" fill="white"/>
</svg>
