<svg width="91" height="49" viewBox="0 0 91 49" fill="none" xmlns="http://www.w3.org/2000/svg">
<path d="M23.6387 0H27.8211V25.8461H23.6387V0Z" fill="white"/>
<path d="M42.3684 17.6554C42.3684 21.6597 39.0952 22.0238 38.0041 22.0238C35.4583 22.0238 35.0946 19.6576 35.0946 18.3834V8.37262H30.9121V18.2014C30.9121 20.5676 31.6395 22.7518 33.0943 24.0259C34.3672 25.3 36.0038 25.8461 38.0041 25.8461C39.4589 25.8461 41.2773 25.482 42.3684 24.3899V25.8461H46.5509V8.37262H42.3684V17.6554Z" fill="white"/>
<path d="M54.7348 2.00214H50.5523V8.37266H47.4609V12.377H50.5523V25.8461H54.7348V12.377H57.8262V8.37266H54.7348V2.00214Z" fill="white"/>
<path d="M70.9202 20.5677C70.011 21.2958 68.7381 21.8418 67.4652 21.8418C64.5556 21.8418 62.5553 19.6576 62.5553 16.7454C62.5553 13.8331 64.5556 11.831 67.4652 11.831C68.7381 11.831 70.011 12.195 70.9202 13.1051L71.4658 13.6511L74.3753 10.9209L73.6479 10.3749C72.0113 8.91874 69.8292 8.00867 67.4652 8.00867C62.3735 8.00867 58.5547 11.831 58.5547 16.9274C58.5547 22.0238 62.3735 25.8461 67.4652 25.8461C69.8292 25.8461 72.0113 24.9361 73.6479 23.4799L74.3753 22.9339L71.4658 20.0217L70.9202 20.5677Z" fill="white"/>
<path d="M89.1042 9.82882C87.8313 8.55471 86.5584 8.00867 84.5581 8.00867C83.1033 8.00867 81.6485 8.37269 80.5575 9.46478V0H76.375V25.8461H80.5575V16.1993C80.5575 12.195 83.2852 11.831 84.3762 11.831C86.9221 11.831 86.7402 14.1972 86.7402 15.4713V25.6641H90.9227V15.6533C90.9227 13.2871 90.3772 11.1029 89.1042 9.82882Z" fill="white"/>
<path d="M67.2846 19.8397C68.8915 19.8397 70.1942 18.5358 70.1942 16.9274C70.1942 15.3191 68.8915 14.0152 67.2846 14.0152C65.6777 14.0152 64.3751 15.3191 64.3751 16.9274C64.3751 18.5358 65.6777 19.8397 67.2846 19.8397Z" fill="white"/>
<path d="M17.8209 19.4756C16.3662 20.9317 14.184 21.8418 11.82 21.8418C7.27385 21.8418 4.00062 18.2015 4.00062 13.2871C4.00062 8.37268 7.27385 4.73238 12.0019 4.73238C14.184 4.73238 16.3662 5.64245 18.0028 7.28059L18.5483 7.82663L21.276 5.09641L20.7305 4.55036C18.3665 2.18417 15.2751 0.91006 12.0019 0.91006C5.09169 0.728045 0 6.1885 0 13.2871C0 20.3857 5.09169 25.8461 11.82 25.8461C15.0932 25.8461 18.3665 24.572 20.5486 22.2058L21.0942 21.6598L18.3665 18.9296L17.8209 19.4756Z" fill="white"/>
<path d="M6.97257 35.0268L8.43452 39.5262H13.1655L9.33805 42.307L10.8 46.8064L6.97257 44.0256L3.14513 46.8064L4.60708 42.307L0.779639 39.5262H5.51061L6.97257 35.0268Z" fill="#00E56D"/>
<path d="M20.9944 35.0268L22.4564 39.5262H27.1873L23.3599 42.307L24.8218 46.8064L20.9944 44.0256L17.167 46.8064L18.6289 42.307L14.8015 39.5262H19.5324L20.9944 35.0268Z" fill="#00E56D"/>
<path d="M35.0165 35.0268L36.4784 39.5262H41.2094L37.382 42.307L38.8439 46.8064L35.0165 44.0256L31.189 46.8064L32.651 42.307L28.8236 39.5262H33.5545L35.0165 35.0268Z" fill="#00E56D"/>
<path d="M49.0384 35.0268L50.5004 39.5262H55.2314L51.4039 42.307L52.8659 46.8064L49.0384 44.0256L45.211 46.8064L46.6729 42.307L42.8455 39.5262H47.5765L49.0384 35.0268Z" fill="#00E56D"/>
<path d="M63.0605 35.0268L64.5225 39.5262H69.2535L65.426 42.307L66.888 46.8064L63.0605 44.0256L59.2331 46.8064L60.6951 42.307L56.8676 39.5262H61.5986L63.0605 35.0268Z" fill="#00E56D"/>
<path d="M73.8324 44.1113V42.6825L77.7707 37.0932H80.0341V42.6765H81.2048V44.1113H80.0341V46.0385H78.299V44.1113H73.8324ZM78.299 42.6765V38.8582H78.287L75.6155 42.6645V42.6765H78.299ZM81.181 47.9056L81.6252 44.5796H83.3242L82.4177 47.9056H81.181ZM87.1127 46.1825C86.5204 46.1825 85.9961 46.0705 85.5398 45.8463C85.0875 45.6222 84.7253 45.316 84.4531 44.9278C84.181 44.5396 84.0189 44.0993 83.9669 43.607H85.6899C85.7539 43.9552 85.912 44.2334 86.1642 44.4415C86.4163 44.6496 86.7385 44.7537 87.1307 44.7537C87.7671 44.7537 88.2394 44.4975 88.5476 43.9852C88.8557 43.4729 89.0098 42.7985 89.0098 41.962H88.9978C88.7777 42.3022 88.4855 42.5604 88.1213 42.7365C87.7571 42.9086 87.3428 42.9947 86.8786 42.9947C86.3022 42.9947 85.7879 42.8666 85.3357 42.6104C84.8874 42.3503 84.5332 41.9961 84.273 41.5478C84.0169 41.0995 83.8888 40.5872 83.8888 40.0109C83.8888 39.4025 84.0289 38.8682 84.3091 38.408C84.5932 37.9477 84.9835 37.5895 85.4798 37.3333C85.98 37.0772 86.5524 36.9491 87.1968 36.9491C88.3134 36.9491 89.1799 37.3333 89.7963 38.1018C90.4127 38.8702 90.7208 39.9489 90.7208 41.3377C90.7208 42.3183 90.5828 43.1728 90.3066 43.9012C90.0344 44.6256 89.6302 45.188 89.0939 45.5882C88.5576 45.9844 87.8972 46.1825 87.1127 46.1825ZM87.1908 41.6018C87.4869 41.6018 87.7531 41.5318 87.9892 41.3917C88.2294 41.2516 88.4175 41.0615 88.5536 40.8214C88.6936 40.5812 88.7637 40.3091 88.7637 40.0049C88.7637 39.7007 88.6956 39.4286 88.5596 39.1884C88.4235 38.9443 88.2374 38.7522 88.0012 38.6121C87.7651 38.472 87.5009 38.402 87.2088 38.402C86.7645 38.402 86.3923 38.556 86.0921 38.8642C85.7919 39.1684 85.6418 39.5506 85.6418 40.0109C85.6418 40.4672 85.7899 40.8474 86.0861 41.1516C86.3823 41.4517 86.7505 41.6018 87.1908 41.6018Z" fill="white"/>
</svg>
