<svg width="10" height="11" viewBox="0 0 10 11" fill="none" xmlns="http://www.w3.org/2000/svg">
<path d="M0.344727 11L4.00195 5.79102L0.631836 0.814453H2.69629L3.9541 2.70117C4.13184 2.97917 4.30957 3.25716 4.4873 3.53516C4.66504 3.80859 4.84049 4.08431 5.01367 4.3623C5.19141 4.08431 5.36914 3.80859 5.54688 3.53516C5.72461 3.25716 5.9069 2.97917 6.09375 2.70117L7.37207 0.814453H9.38184L6.03906 5.73633L9.64844 11H7.5498L5.99121 8.68945C5.82259 8.4388 5.65397 8.18815 5.48535 7.9375C5.32129 7.68229 5.15723 7.42936 4.99316 7.17871C4.8291 7.42936 4.66276 7.68229 4.49414 7.9375C4.32552 8.18815 4.15462 8.4388 3.98145 8.68945L2.39551 11H0.344727Z" fill="white"/>
</svg>
