<svg width="534" height="291" viewBox="0 0 534 291" fill="none" xmlns="http://www.w3.org/2000/svg">
<path d="M35.4 22.44V68.52H41.4C55 68.52 61.8 60.76 61.8 45.24C61.8 36.44 60.24 30.44 57.12 27.24C54 24.04 48.56 22.44 40.8 22.44H35.4ZM7.08 88.68V2.28H45C59.32 2.28 70.4 5.72 78.24 12.6C86.16 19.48 90.12 29.84 90.12 43.68C90.12 73.68 74.84 88.68 44.28 88.68H7.08Z" fill="white"/>
<path d="M131.494 2.28V88.68H103.174V2.28H131.494Z" fill="white"/>
<path d="M230.731 32.04H203.851C201.771 24.76 196.931 21.12 189.331 21.12C183.891 21.12 179.771 23.4 176.971 27.96C174.251 32.44 172.891 38.6 172.891 46.44C172.891 62.04 178.931 69.84 191.011 69.84C194.051 69.84 197.051 68.92 200.011 67.08C202.971 65.16 204.811 62.76 205.531 59.88H193.051V41.16H231.811V88.68H213.571L212.491 80.4C206.491 87.44 197.811 90.96 186.451 90.96C180.851 90.96 175.571 90.04 170.611 88.2C165.651 86.36 161.211 83.68 157.291 80.16C153.371 76.56 150.251 71.88 147.931 66.12C145.691 60.36 144.571 53.84 144.571 46.56C144.571 32.64 148.651 21.4 156.811 12.84C164.971 4.28 175.971 0 189.811 0C200.531 0 209.611 2.76 217.051 8.28C224.491 13.8 229.051 21.72 230.731 32.04Z" fill="white"/>
<path d="M276.337 2.28V88.68H248.018V2.28H276.337Z" fill="white"/>
<path d="M342.215 22.44V88.68H313.895V22.44H288.455V2.28H367.655V22.44H342.215Z" fill="white"/>
<path d="M401.868 59.28H419.748L410.628 28.32L401.868 59.28ZM396.468 2.28H425.268L456.228 88.68H428.028L424.668 77.28H396.468L393.228 88.68H365.508L396.468 2.28Z" fill="white"/>
<path d="M494.306 2.28V68.52H533.186V88.68H465.986V2.28H494.306Z" fill="white"/>
<path d="M36.36 159.28H54.24L45.12 128.32L36.36 159.28ZM30.96 102.28H59.76L90.72 188.68H62.52L59.16 177.28H30.96L27.72 188.68H0L30.96 102.28Z" fill="white"/>
<path d="M96.0253 102.28H124.345V154C124.345 159.04 125.225 162.96 126.985 165.76C128.825 168.48 132.385 169.84 137.665 169.84C142.465 169.84 145.865 168.48 147.865 165.76C149.865 162.96 150.865 159.04 150.865 154V102.28H179.185V151.12C179.185 164.96 175.865 175.08 169.225 181.48C162.585 187.8 152.065 190.96 137.665 190.96C123.745 190.96 113.305 187.92 106.345 181.84C99.4653 175.68 96.0253 165.4 96.0253 151V102.28Z" fill="white"/>
<path d="M195.986 102.28H266.426V122.44H224.306V134.8H259.946V154.96H224.306V168.52H268.106V188.68H195.986V102.28Z" fill="white"/>
<path d="M281.885 102.28H308.405L339.245 149.44L338.165 129.76V102.28H365.285V188.68H338.765L307.925 141.64L309.005 161.32V188.68H281.885V102.28Z" fill="white"/>
<path d="M78.96 227.36H52.08C51.2 222.4 47.4 219.92 40.68 219.92C34.68 219.92 31.68 221.56 31.68 224.84C31.68 226.6 32.6 228.08 34.44 229.28C36.28 230.48 38.64 231.48 41.52 232.28C44.48 233.08 47.72 233.88 51.24 234.68C54.76 235.48 58.28 236.52 61.8 237.8C65.32 239.08 68.52 240.64 71.4 242.48C74.36 244.32 76.76 246.84 78.6 250.04C80.44 253.24 81.36 256.96 81.36 261.2C81.36 270.88 77.68 278.28 70.32 283.4C63.04 288.44 53.24 290.96 40.92 290.96C29.8 290.96 20.72 288.16 13.68 282.56C6.64 276.96 2.96 270.12 2.64 262.04H29.76C29.76 264.44 31.12 266.56 33.84 268.4C36.64 270.16 39.52 271.04 42.48 271.04C46.08 271.04 48.92 270.48 51 269.36C53.16 268.24 54.24 266.68 54.24 264.68C54.24 262.92 53.32 261.44 51.48 260.24C49.64 259.04 47.24 258.08 44.28 257.36C41.4 256.56 38.2 255.8 34.68 255.08C31.16 254.28 27.64 253.24 24.12 251.96C20.6 250.6 17.36 249 14.4 247.16C11.52 245.24 9.16 242.64 7.32 239.36C5.48 236 4.56 232.08 4.56 227.6C4.56 218.72 8 211.92 14.88 207.2C21.76 202.4 30.8 200 42 200C53.36 200 62.08 202.52 68.16 207.56C74.24 212.6 77.84 219.2 78.96 227.36Z" fill="white"/>
<path d="M143.465 222.44V288.68H115.145V222.44H89.7047V202.28H168.905V222.44H143.465Z" fill="white"/>
<path d="M180.986 202.28H209.306V254C209.306 259.04 210.186 262.96 211.946 265.76C213.786 268.48 217.346 269.84 222.626 269.84C227.426 269.84 230.826 268.48 232.826 265.76C234.826 262.96 235.826 259.04 235.826 254V202.28H264.146V251.12C264.146 264.96 260.826 275.08 254.186 281.48C247.546 287.8 237.026 290.96 222.626 290.96C208.706 290.96 198.266 287.92 191.306 281.84C184.426 275.68 180.986 265.4 180.986 251V202.28Z" fill="white"/>
<path d="M309.267 222.44V268.52H315.267C328.867 268.52 335.667 260.76 335.667 245.24C335.667 236.44 334.107 230.44 330.987 227.24C327.867 224.04 322.427 222.44 314.667 222.44H309.267ZM280.947 288.68V202.28H318.867C333.187 202.28 344.267 205.72 352.107 212.6C360.027 219.48 363.987 229.84 363.987 243.68C363.987 273.68 348.707 288.68 318.147 288.68H280.947Z" fill="white"/>
<path d="M405.361 202.28V288.68H377.041V202.28H405.361Z" fill="white"/>
<path d="M463.438 221.12C459.438 221.12 456.118 222.4 453.478 224.96C450.838 227.52 449.038 230.48 448.078 233.84C447.198 237.2 446.758 240.92 446.758 245C446.758 248.04 446.998 250.92 447.478 253.64C448.038 256.28 448.918 258.88 450.118 261.44C451.318 264 453.078 266.04 455.398 267.56C457.718 269.08 460.478 269.84 463.678 269.84C469.518 269.84 473.798 267.6 476.518 263.12C479.318 258.64 480.718 252.6 480.718 245C480.718 238.36 479.278 232.72 476.398 228.08C473.598 223.44 469.278 221.12 463.438 221.12ZM463.678 200C471.118 200 477.798 201.28 483.718 203.84C489.638 206.32 494.398 209.72 497.998 214.04C501.598 218.28 504.318 223.04 506.158 228.32C508.078 233.6 509.038 239.16 509.038 245C509.038 259.32 504.758 270.56 496.198 278.72C487.718 286.88 476.878 290.96 463.678 290.96C449.918 290.96 438.918 286.88 430.678 278.72C422.518 270.56 418.438 259.24 418.438 244.76C418.438 231.24 422.598 220.4 430.918 212.24C439.238 204.08 450.158 200 463.678 200Z" fill="white"/>
</svg>
