<svg width="376" height="55" viewBox="0 0 376 55" fill="none" xmlns="http://www.w3.org/2000/svg">
<path d="M0 0H8.20926L11.8674 12.9332L15.5256 0H23.7348V20.7392H17.6283V14.4022C17.6283 12.4051 17.7723 10.0815 18.0604 7.43154H18.0028L14.2294 20.7392H9.50545L5.73208 7.43154H5.67447C5.96251 10.0239 6.10653 12.1171 6.10653 13.7109V20.7392H0V0Z" fill="white"/>
<path d="M34.7919 13.6821H39.0838L36.8946 6.25056L34.7919 13.6821ZM33.4957 0H40.4088L47.8403 20.7392H41.0713L40.2647 18.0028H33.4957L32.718 20.7392H26.0642L33.4957 0Z" fill="white"/>
<path d="M49.1169 0H56.7501L59.6881 5.30001L62.655 0H70.2882L63.2887 9.96632L70.3458 20.7392H62.7126L59.3713 14.9207L56.03 20.7392H48.3968L55.7419 9.96632L49.1169 0Z" fill="white"/>
<path d="M79.63 13.6821H83.9219L81.7327 6.25056L79.63 13.6821ZM78.3338 0H85.2469L92.6784 20.7392H85.9094L85.1028 18.0028H78.3338L77.5561 20.7392H70.9023L78.3338 0Z" fill="white"/>
<path d="M101.819 12.069V15.9H104.325C105.266 15.9 105.986 15.7656 106.485 15.4968C107.003 15.2279 107.263 14.7287 107.263 13.9989C107.263 13.1732 106.955 12.6451 106.341 12.4147C105.746 12.1843 104.805 12.069 103.518 12.069H101.819ZM95.0208 0H111.67V4.5511H101.819V7.60436H105.102C107.829 7.60436 109.922 8.14205 111.382 9.21741C112.86 10.2928 113.6 11.8962 113.6 14.0277C113.6 16.2937 112.851 17.9836 111.353 19.0973C109.874 20.1919 107.772 20.7392 105.045 20.7392H95.0208V0Z" fill="white"/>
<path d="M123.534 12.069V15.9H126.04C126.981 15.9 127.701 15.7656 128.201 15.4968C128.719 15.2279 128.978 14.7287 128.978 13.9989C128.978 13.1732 128.671 12.6451 128.057 12.4147C127.461 12.1843 126.521 12.069 125.234 12.069H123.534ZM116.737 0H133.386V4.5511H123.534V7.60436H126.818C129.545 7.60436 131.638 8.14205 133.098 9.21741C134.576 10.2928 135.315 11.8962 135.315 14.0277C135.315 16.2937 134.567 17.9836 133.069 19.0973C131.59 20.1919 129.487 20.7392 126.761 20.7392H116.737V0Z" fill="white"/>
<path d="M145.481 13.6821H149.773L147.583 6.25056L145.481 13.6821ZM144.185 0H151.098L158.529 20.7392H151.76L150.954 18.0028H144.185L143.407 20.7392H136.753L144.185 0Z" fill="white"/>
<path d="M170.937 4.83914V20.7392H164.139V4.83914H158.032V0H177.043V4.83914H170.937Z" fill="white"/>
<path d="M216.323 15.0359H187.519V11.6946H216.323V15.0359Z" fill="white"/>
<path d="M241.844 0.172826V4.66631H234.298V8.32447H239.338V12.818H234.298V20.7392H228.709V12.818H226.203V8.32447H228.709V0.172826H241.844Z" fill="white"/>
<path d="M258.238 0H264.603V20.7392H258.094V14.143L258.439 8.84295L250.95 20.7392H244.584V0H251.094V6.59621L250.748 11.8962L258.238 0Z" fill="white"/>
<path d="M275.433 12.069V15.9H277.939C278.88 15.9 279.6 15.7656 280.099 15.4968C280.617 15.2279 280.877 14.7287 280.877 13.9989C280.877 13.1732 280.569 12.6451 279.955 12.4147C279.36 12.1843 278.419 12.069 277.132 12.069H275.433ZM268.635 0H285.284V4.5511H275.433V7.60436H278.716C281.443 7.60436 283.536 8.14205 284.996 9.21741C286.474 10.2928 287.214 11.8962 287.214 14.0277C287.214 16.2937 286.465 17.9836 284.967 19.0973C283.488 20.1919 281.386 20.7392 278.659 20.7392H268.635V0Z" fill="white"/>
<path d="M297.379 13.6821H301.671L299.482 6.25056L297.379 13.6821ZM296.083 0H302.996L310.427 20.7392H303.658L302.852 18.0028H296.083L295.305 20.7392H288.651L296.083 0Z" fill="white"/>
<path d="M314.988 0H332.357V15.9H334.171V25.5207H327.662V20.7392H317.983V25.5207H311.474V15.9H313.115C313.807 14.5558 314.287 13.0676 314.556 11.4353C314.844 9.7839 314.988 7.74839 314.988 5.32881V0ZM325.559 4.83914H321.497V7.08588C321.497 11.1185 320.931 14.0566 319.798 15.9H325.559V4.83914Z" fill="white"/>
<path d="M343.961 13.6821H348.253L346.064 6.25056L343.961 13.6821ZM342.665 0H349.578L357.009 20.7392H350.24L349.434 18.0028H342.665L341.887 20.7392H335.233L342.665 0Z" fill="white"/>
<path d="M369.417 4.83914V20.7392H362.619V4.83914H356.513V0H375.524V4.83914H369.417Z" fill="white"/>
<path d="M0.651224 54.8596V38.48H7.32006C9.06721 38.48 10.596 38.831 11.9063 39.533C13.2323 40.2194 14.2619 41.1787 14.9951 42.4111C15.7282 43.6435 16.0948 45.063 16.0948 46.6698C16.0948 48.2766 15.7282 49.6961 14.9951 50.9285C14.2619 52.1609 13.2323 53.128 11.9063 53.83C10.596 54.5164 9.06721 54.8596 7.32006 54.8596H0.651224ZM2.38278 53.362H7.22646C8.67722 53.362 9.93299 53.0812 10.9938 52.5197C12.0701 51.9425 12.9047 51.1547 13.4975 50.1563C14.0903 49.1423 14.3867 47.9802 14.3867 46.6698C14.3867 45.3438 14.0903 44.1817 13.4975 43.1833C12.9047 42.1849 12.0701 41.4049 10.9938 40.8434C9.93299 40.2662 8.67722 39.9776 7.22646 39.9776H2.38278V53.362Z" fill="white"/>
<path d="M26.067 54.8596V38.48H27.7986V54.8596H26.067Z" fill="white"/>
<path d="M46.3954 55C45.1475 55 43.9931 54.7972 42.9323 54.3916C41.8871 53.9704 40.9746 53.3854 40.1946 52.6367C39.4302 51.8879 38.8296 51.0065 38.3928 49.9925C37.9716 48.9786 37.761 47.871 37.761 46.6698C37.761 45.4686 37.9716 44.3611 38.3928 43.3471C38.8296 42.3331 39.438 41.4517 40.218 40.703C40.998 39.9542 41.9105 39.377 42.9557 38.9714C44.0165 38.5502 45.1709 38.3396 46.4188 38.3396C47.6668 38.3396 48.8056 38.5346 49.8351 38.9246C50.8803 39.3146 51.7695 39.9074 52.5027 40.703L51.4263 41.8027C50.7399 41.1163 49.9833 40.625 49.1566 40.3286C48.3298 40.0322 47.4406 39.884 46.489 39.884C45.4751 39.884 44.5391 40.0556 43.6811 40.3988C42.8387 40.7264 42.0977 41.2021 41.4582 41.8261C40.8342 42.4345 40.3428 43.1521 39.984 43.9789C39.6408 44.7901 39.4692 45.687 39.4692 46.6698C39.4692 47.637 39.6408 48.534 39.984 49.3607C40.3428 50.1875 40.8342 50.9129 41.4582 51.5369C42.0977 52.1453 42.8387 52.6211 43.6811 52.9642C44.5391 53.2918 45.4673 53.4556 46.4656 53.4556C47.4016 53.4556 48.283 53.3152 49.1098 53.0344C49.9521 52.7537 50.7243 52.2779 51.4263 51.6071L52.4091 52.9174C51.6291 53.6038 50.7165 54.1264 49.6713 54.4852C48.6262 54.8284 47.5342 55 46.3954 55ZM52.4091 52.9174L50.7477 52.7069V46.6698H52.4091V52.9174Z" fill="white"/>
<path d="M63.3936 54.8596V38.48H65.1252V54.8596H63.3936Z" fill="white"/>
<path d="M79.7208 54.8596V39.9776H73.9645V38.48H87.2086V39.9776H81.4523V54.8596H79.7208Z" fill="white"/>
<path d="M92.6153 54.8596L100.103 38.48H101.811L109.299 54.8596H107.474L100.594 39.4862H101.296L94.4171 54.8596H92.6153ZM95.5636 50.4839L96.0784 49.0799H105.602L106.117 50.4839H95.5636Z" fill="white"/>
<path d="M118.092 54.8596V38.48H119.824V53.362H128.997V54.8596H118.092Z" fill="white"/>
<path d="M147.543 54.8596L155.03 38.48H156.739L164.226 54.8596H162.401L155.522 39.4862H156.224L149.344 54.8596H147.543ZM150.491 50.4839L151.006 49.0799H160.529L161.044 50.4839H150.491Z" fill="white"/>
<path d="M179.276 55C177.185 55 175.54 54.3994 174.338 53.1982C173.137 51.9971 172.537 50.2187 172.537 47.8632V38.48H174.268V47.793C174.268 49.7273 174.705 51.1547 175.579 52.0751C176.452 52.9954 177.685 53.4556 179.276 53.4556C180.883 53.4556 182.123 52.9954 182.996 52.0751C183.87 51.1547 184.307 49.7273 184.307 47.793V38.48H185.991V47.8632C185.991 50.2187 185.391 51.9971 184.19 53.1982C183.004 54.3994 181.366 55 179.276 55Z" fill="white"/>
<path d="M197.293 54.8596V38.48H208.525V39.9776H199.025V53.362H208.876V54.8596H197.293ZM198.837 47.2782V45.804H207.495V47.2782H198.837Z" fill="white"/>
<path d="M219.03 54.8596V38.48H220.457L231.759 52.7069H231.01V38.48H232.719V54.8596H231.291L220.013 40.6328H220.761V54.8596H219.03Z" fill="white"/>
<path d="M260.873 55C259.656 55 258.486 54.805 257.363 54.415C256.255 54.0094 255.397 53.4946 254.789 52.8707L255.467 51.5369C256.045 52.0985 256.817 52.5743 257.784 52.9642C258.767 53.3386 259.796 53.5258 260.873 53.5258C261.902 53.5258 262.737 53.401 263.376 53.1514C264.032 52.8863 264.507 52.5353 264.804 52.0985C265.116 51.6617 265.272 51.1781 265.272 50.6477C265.272 50.0081 265.084 49.4933 264.71 49.1033C264.351 48.7134 263.876 48.4092 263.283 48.1908C262.69 47.9568 262.035 47.754 261.317 47.5824C260.6 47.4108 259.882 47.2314 259.164 47.0442C258.447 46.8414 257.784 46.5762 257.175 46.2486C256.583 45.921 256.099 45.492 255.725 44.9617C255.366 44.4157 255.187 43.7059 255.187 42.8323C255.187 42.0211 255.397 41.2801 255.818 40.6094C256.255 39.923 256.918 39.377 257.807 38.9714C258.696 38.5502 259.835 38.3396 261.224 38.3396C262.144 38.3396 263.057 38.4722 263.961 38.7374C264.866 38.987 265.646 39.338 266.301 39.7904L265.716 41.1709C265.014 40.703 264.266 40.3598 263.47 40.1414C262.69 39.923 261.933 39.8138 261.2 39.8138C260.217 39.8138 259.406 39.9464 258.767 40.2116C258.127 40.4768 257.651 40.8356 257.339 41.2879C257.043 41.7247 256.895 42.2239 256.895 42.7855C256.895 43.4251 257.074 43.9399 257.433 44.3299C257.807 44.7199 258.291 45.0241 258.884 45.2424C259.492 45.4608 260.155 45.6558 260.873 45.8274C261.59 45.999 262.3 46.1862 263.002 46.389C263.72 46.5918 264.375 46.857 264.967 47.1846C265.576 47.4966 266.059 47.9178 266.418 48.4482C266.793 48.9785 266.98 49.6727 266.98 50.5307C266.98 51.3263 266.761 52.0673 266.325 52.7537C265.888 53.4244 265.217 53.9704 264.312 54.3916C263.423 54.7972 262.277 55 260.873 55Z" fill="white"/>
<path d="M279.79 54.8596V39.9776H274.034V38.48H287.278V39.9776H281.522V54.8596H279.79Z" fill="white"/>
<path d="M302.407 55C300.317 55 298.671 54.3994 297.47 53.1982C296.268 51.9971 295.668 50.2187 295.668 47.8632V38.48H297.399V47.793C297.399 49.7273 297.836 51.1547 298.71 52.0751C299.583 52.9954 300.816 53.4556 302.407 53.4556C304.014 53.4556 305.254 52.9954 306.127 52.0751C307.001 51.1547 307.438 49.7273 307.438 47.793V38.48H309.123V47.8632C309.123 50.2187 308.522 51.9971 307.321 53.1982C306.135 54.3994 304.497 55 302.407 55Z" fill="white"/>
<path d="M320.424 54.8596V38.48H327.093C328.84 38.48 330.369 38.831 331.679 39.533C333.005 40.2194 334.035 41.1787 334.768 42.4111C335.501 43.6435 335.868 45.063 335.868 46.6698C335.868 48.2766 335.501 49.6961 334.768 50.9285C334.035 52.1609 333.005 53.128 331.679 53.83C330.369 54.5164 328.84 54.8596 327.093 54.8596H320.424ZM322.156 53.362H327C328.45 53.362 329.706 53.0812 330.767 52.5197C331.843 51.9425 332.678 51.1547 333.271 50.1563C333.863 49.1423 334.16 47.9802 334.16 46.6698C334.16 45.3438 333.863 44.1817 333.271 43.1833C332.678 42.1849 331.843 41.4049 330.767 40.8434C329.706 40.2662 328.45 39.9776 327 39.9776H322.156V53.362Z" fill="white"/>
<path d="M345.84 54.8596V38.48H347.572V54.8596H345.84Z" fill="white"/>
<path d="M366.145 55C364.913 55 363.766 54.7972 362.705 54.3916C361.66 53.9704 360.748 53.3854 359.968 52.6367C359.203 51.8723 358.603 50.9909 358.166 49.9925C357.745 48.9786 357.534 47.871 357.534 46.6698C357.534 45.4686 357.745 44.3689 358.166 43.3705C358.603 42.3565 359.203 41.4751 359.968 40.7264C360.748 39.962 361.66 39.377 362.705 38.9714C363.751 38.5502 364.897 38.3396 366.145 38.3396C367.377 38.3396 368.516 38.5502 369.561 38.9714C370.607 39.377 371.511 39.9542 372.276 40.703C373.056 41.4517 373.656 42.3331 374.078 43.3471C374.514 44.3611 374.733 45.4686 374.733 46.6698C374.733 47.871 374.514 48.9786 374.078 49.9925C373.656 51.0065 373.056 51.8879 372.276 52.6367C371.511 53.3854 370.607 53.9704 369.561 54.3916C368.516 54.7972 367.377 55 366.145 55ZM366.145 53.4556C367.128 53.4556 368.033 53.2918 368.859 52.9642C369.702 52.6211 370.427 52.1453 371.036 51.5369C371.66 50.9129 372.143 50.1953 372.486 49.3841C372.829 48.5574 373.001 47.6526 373.001 46.6698C373.001 45.687 372.829 44.7901 372.486 43.9789C372.143 43.1521 371.66 42.4345 371.036 41.8261C370.427 41.2021 369.702 40.7264 368.859 40.3988C368.033 40.0556 367.128 39.884 366.145 39.884C365.162 39.884 364.25 40.0556 363.407 40.3988C362.565 40.7264 361.832 41.2021 361.208 41.8261C360.599 42.4345 360.116 43.1521 359.757 43.9789C359.414 44.7901 359.242 45.687 359.242 46.6698C359.242 47.637 359.414 48.534 359.757 49.3607C360.116 50.1875 360.599 50.9129 361.208 51.5369C361.832 52.1453 362.565 52.6211 363.407 52.9642C364.25 53.2918 365.162 53.4556 366.145 53.4556Z" fill="white"/>
</svg>
