<svg width="40" height="40" viewBox="0 0 40 40" fill="none" xmlns="http://www.w3.org/2000/svg">
<path d="M21.713 3.33325C23.588 3.33825 24.5396 3.34825 25.3613 3.37159L25.6846 3.38325C26.058 3.39659 26.4263 3.41325 26.8713 3.43325C28.6446 3.51659 29.8546 3.79659 30.9163 4.20825C32.0163 4.63159 32.943 5.20492 33.8696 6.12992C34.7175 6.96281 35.3733 7.97071 35.7913 9.08325C36.203 10.1449 36.483 11.3549 36.5663 13.1299C36.5863 13.5733 36.603 13.9416 36.6163 14.3166L36.6263 14.6399C36.6513 15.4599 36.6613 16.4116 36.6646 18.2866L36.6663 19.5299V21.7133C36.6704 22.9289 36.6576 24.1446 36.628 25.3599L36.618 25.6833C36.6046 26.0583 36.588 26.4266 36.568 26.8699C36.4846 28.6449 36.2013 29.8533 35.7913 30.9166C35.3733 32.0291 34.7175 33.037 33.8696 33.8699C33.0368 34.7177 32.0289 35.3736 30.9163 35.7916C29.8546 36.2033 28.6446 36.4833 26.8713 36.5666L25.6846 36.6166L25.3613 36.6266C24.5396 36.6499 23.588 36.6616 21.713 36.6649L20.4696 36.6666H18.288C17.0717 36.6709 15.8555 36.6581 14.6396 36.6283L14.3163 36.6183C13.9207 36.6033 13.5251 36.586 13.1296 36.5666C11.3563 36.4833 10.1463 36.2033 9.08298 35.7916C7.97103 35.3733 6.96372 34.7175 6.13131 33.8699C5.28289 33.0372 4.62649 32.0293 4.20798 30.9166C3.79631 29.8549 3.51631 28.6449 3.43298 26.8699L3.38298 25.6833L3.37465 25.3599C3.34392 24.1446 3.33003 22.9289 3.33298 21.7133V18.2866C3.32837 17.0709 3.34059 15.8552 3.36965 14.6399L3.38131 14.3166C3.39465 13.9416 3.41131 13.5733 3.43131 13.1299C3.51465 11.3549 3.79465 10.1466 4.20631 9.08325C4.6258 7.97025 5.28335 6.96231 6.13298 6.12992C6.9649 5.2825 7.97163 4.62671 9.08298 4.20825C10.1463 3.79659 11.3546 3.51659 13.1296 3.43325C13.573 3.41325 13.943 3.39659 14.3163 3.38325L14.6396 3.37325C15.855 3.34364 17.0706 3.33086 18.2863 3.33492L21.713 3.33325ZM19.9996 11.6666C17.7895 11.6666 15.6699 12.5446 14.1071 14.1074C12.5443 15.6702 11.6663 17.7898 11.6663 19.9999C11.6663 22.2101 12.5443 24.3297 14.1071 25.8925C15.6699 27.4553 17.7895 28.3333 19.9996 28.3333C22.2098 28.3333 24.3294 27.4553 25.8922 25.8925C27.455 24.3297 28.333 22.2101 28.333 19.9999C28.333 17.7898 27.455 15.6702 25.8922 14.1074C24.3294 12.5446 22.2098 11.6666 19.9996 11.6666ZM19.9996 14.9999C20.6563 14.9998 21.3065 15.129 21.9131 15.3802C22.5198 15.6314 23.0711 15.9996 23.5354 16.4638C23.9998 16.928 24.3682 17.4791 24.6196 18.0857C24.8709 18.6923 25.0004 19.3425 25.0005 19.9991C25.0006 20.6557 24.8714 21.3059 24.6202 21.9126C24.369 22.5192 24.0008 23.0705 23.5366 23.5349C23.0724 23.9992 22.5213 24.3676 21.9147 24.619C21.3081 24.8704 20.6579 24.9998 20.0013 24.9999C18.6752 24.9999 17.4035 24.4731 16.4658 23.5355C15.5281 22.5978 15.0013 21.326 15.0013 19.9999C15.0013 18.6738 15.5281 17.4021 16.4658 16.4644C17.4035 15.5267 18.6752 14.9999 20.0013 14.9999M28.7513 9.16658C28.1988 9.16658 27.6689 9.38608 27.2782 9.77678C26.8875 10.1675 26.668 10.6974 26.668 11.2499C26.668 11.8025 26.8875 12.3324 27.2782 12.7231C27.6689 13.1138 28.1988 13.3333 28.7513 13.3333C29.3038 13.3333 29.8337 13.1138 30.2245 12.7231C30.6152 12.3324 30.8346 11.8025 30.8346 11.2499C30.8346 10.6974 30.6152 10.1675 30.2245 9.77678C29.8337 9.38608 29.3038 9.16658 28.7513 9.16658Z" fill="#199478"/>
</svg>
