<svg width="30" height="30" viewBox="0 0 30 30" fill="none" xmlns="http://www.w3.org/2000/svg">
<path d="M16.2857 2.5C17.692 2.50375 18.4057 2.51125 19.022 2.52875L19.2645 2.5375C19.5445 2.5475 19.8207 2.56 20.1545 2.575C21.4845 2.6375 22.392 2.8475 23.1882 3.15625C24.0132 3.47375 24.7082 3.90375 25.4032 4.5975C26.0391 5.22217 26.5309 5.97809 26.8445 6.8125C27.1532 7.60875 27.3632 8.51625 27.4257 9.8475C27.4407 10.18 27.4532 10.4563 27.4632 10.7375L27.4707 10.98C27.4895 11.595 27.497 12.3088 27.4995 13.715L27.5007 14.6475V16.285C27.5038 17.1968 27.4942 18.1085 27.472 19.02L27.4645 19.2625C27.4545 19.5437 27.442 19.82 27.427 20.1525C27.3645 21.4837 27.152 22.39 26.8445 23.1875C26.5309 24.0219 26.0391 24.7778 25.4032 25.4025C24.7785 26.0384 24.0226 26.5302 23.1882 26.8438C22.392 27.1525 21.4845 27.3625 20.1545 27.425L19.2645 27.4625L19.022 27.47C18.4057 27.4875 17.692 27.4963 16.2857 27.4988L15.3532 27.5H13.717C12.8048 27.5032 11.8926 27.4936 10.9807 27.4712L10.7382 27.4638C10.4415 27.4525 10.1448 27.4396 9.84821 27.425C8.51821 27.3625 7.61071 27.1525 6.81321 26.8438C5.97925 26.5301 5.22376 26.0382 4.59946 25.4025C3.96314 24.778 3.47085 24.022 3.15696 23.1875C2.84821 22.3912 2.63821 21.4837 2.57571 20.1525L2.53821 19.2625L2.53196 19.02C2.50892 18.1085 2.4985 17.1968 2.50071 16.285V13.715C2.49725 12.8033 2.50642 11.8915 2.52821 10.98L2.53696 10.7375C2.54696 10.4563 2.55946 10.18 2.57446 9.8475C2.63696 8.51625 2.84696 7.61 3.15571 6.8125C3.47033 5.97775 3.96349 5.2218 4.60071 4.5975C5.22465 3.96194 5.9797 3.47009 6.81321 3.15625C7.61071 2.8475 8.51696 2.6375 9.84821 2.575C10.1807 2.56 10.4582 2.5475 10.7382 2.5375L10.9807 2.53C11.8922 2.50779 12.804 2.49821 13.7157 2.50125L16.2857 2.5ZM15.0007 8.75C13.3431 8.75 11.7534 9.40848 10.5813 10.5806C9.40919 11.7527 8.75071 13.3424 8.75071 15C8.75071 16.6576 9.40919 18.2473 10.5813 19.4194C11.7534 20.5915 13.3431 21.25 15.0007 21.25C16.6583 21.25 18.248 20.5915 19.4201 19.4194C20.5922 18.2473 21.2507 16.6576 21.2507 15C21.2507 13.3424 20.5922 11.7527 19.4201 10.5806C18.248 9.40848 16.6583 8.75 15.0007 8.75ZM15.0007 11.25C15.4932 11.2499 15.9808 11.3468 16.4358 11.5352C16.8908 11.7236 17.3043 11.9997 17.6525 12.3479C18.0008 12.6961 18.2771 13.1094 18.4656 13.5644C18.6542 14.0193 18.7513 14.5069 18.7513 14.9994C18.7514 15.4918 18.6545 15.9795 18.4661 16.4345C18.2777 16.8895 18.0016 17.3029 17.6534 17.6512C17.3053 17.9995 16.8919 18.2758 16.437 18.4643C15.982 18.6528 15.4944 18.7499 15.002 18.75C14.0074 18.75 13.0536 18.3549 12.3503 17.6517C11.647 16.9484 11.252 15.9946 11.252 15C11.252 14.0054 11.647 13.0516 12.3503 12.3483C13.0536 11.6451 14.0074 11.25 15.002 11.25M21.5645 6.875C21.1501 6.875 20.7526 7.03962 20.4596 7.33265C20.1666 7.62567 20.002 8.0231 20.002 8.4375C20.002 8.8519 20.1666 9.24933 20.4596 9.54235C20.7526 9.83538 21.1501 10 21.5645 10C21.9789 10 22.3763 9.83538 22.6693 9.54235C22.9623 9.24933 23.127 8.8519 23.127 8.4375C23.127 8.0231 22.9623 7.62567 22.6693 7.33265C22.3763 7.03962 21.9789 6.875 21.5645 6.875Z" fill="#404040"/>
</svg>
