<svg width="203" height="30" viewBox="0 0 203 30" fill="none" xmlns="http://www.w3.org/2000/svg">
<path d="M0 0H4.429L6.40263 6.97762L8.37626 0H12.8053V11.1891H9.5107V7.77018C9.5107 6.69272 9.58841 5.43913 9.74381 4.00941H9.71273L7.67694 11.1891H5.12832L3.09253 4.00941H3.06145C3.21686 5.40805 3.29456 6.53731 3.29456 7.39721V11.1891H0V0Z" fill="#199478"/>
<path d="M18.7707 7.38167H21.0862L19.9051 3.37226L18.7707 7.38167ZM18.0714 0H21.8011L25.8105 11.1891H22.1585L21.7234 9.71273H18.0714L17.6518 11.1891H14.062L18.0714 0Z" fill="#199478"/>
<path d="M26.4992 0H30.6174L32.2026 2.85943L33.8032 0H37.9214L34.1451 5.37697L37.9525 11.1891H33.8343L32.0316 8.04991L30.2289 11.1891H26.1107L30.0735 5.37697L26.4992 0Z" fill="#199478"/>
<path d="M42.9615 7.38167H45.277L44.0959 3.37226L42.9615 7.38167ZM42.2621 0H45.9918L50.0013 11.1891H46.3493L45.9141 9.71273H42.2621L41.8426 11.1891H38.2527L42.2621 0Z" fill="#199478"/>
<path d="M54.9325 6.51141V8.57828H56.2845C56.7922 8.57828 57.1807 8.50576 57.4501 8.36072C57.7298 8.21567 57.8697 7.94631 57.8697 7.55262C57.8697 7.10713 57.7039 6.82222 57.3724 6.6979C57.0512 6.57358 56.5435 6.51141 55.8494 6.51141H54.9325ZM51.265 0H60.2473V2.45538H54.9325V4.10266H56.7041C58.1753 4.10266 59.3045 4.39274 60.0919 4.97292C60.8897 5.55309 61.2885 6.41817 61.2885 7.56816C61.2885 8.79067 60.8845 9.70237 60.0764 10.3033C59.2786 10.8938 58.1442 11.1891 56.673 11.1891H51.265V0Z" fill="#199478"/>
<path d="M66.6485 6.51141V8.57828H68.0005C68.5082 8.57828 68.8967 8.50576 69.166 8.36072C69.4458 8.21567 69.5856 7.94631 69.5856 7.55262C69.5856 7.10713 69.4199 6.82222 69.0883 6.6979C68.7672 6.57358 68.2595 6.51141 67.5654 6.51141H66.6485ZM62.981 0H71.9633V2.45538H66.6485V4.10266H68.4201C69.8913 4.10266 71.0205 4.39274 71.8079 4.97292C72.6056 5.55309 73.0045 6.41817 73.0045 7.56816C73.0045 8.79067 72.6005 9.70237 71.7924 10.3033C70.9946 10.8938 69.8602 11.1891 68.389 11.1891H62.981V0Z" fill="#199478"/>
<path d="M78.4888 7.38167H80.8043L79.6233 3.37226L78.4888 7.38167ZM77.7895 0H81.5192L85.5286 11.1891H81.8766L81.4415 9.71273H77.7895L77.3699 11.1891H73.7801L77.7895 0Z" fill="#199478"/>
<path d="M92.2226 2.61078V11.1891H88.5551V2.61078H85.2605V0H95.5172V2.61078H92.2226Z" fill="#199478"/>
<path d="M116.709 8.11207H101.169V6.30939H116.709V8.11207Z" fill="#199478"/>
<path d="M130.478 0.0932419V2.51754H126.407V4.49117H129.126V6.91546H126.407V11.1891H123.392V6.91546H122.04V4.49117H123.392V0.0932419H130.478Z" fill="#199478"/>
<path d="M139.323 0H142.757V11.1891H139.245V7.63032L139.431 4.77089L135.391 11.1891H131.957V0H135.469V3.55874L135.282 6.41817L139.323 0Z" fill="#199478"/>
<path d="M148.6 6.51141V8.57828H149.952C150.459 8.57828 150.848 8.50576 151.117 8.36072C151.397 8.21567 151.537 7.94631 151.537 7.55262C151.537 7.10713 151.371 6.82222 151.039 6.6979C150.718 6.57358 150.211 6.51141 149.517 6.51141H148.6ZM144.932 0H153.914V2.45538H148.6V4.10266H150.371C151.842 4.10266 152.972 4.39274 153.759 4.97292C154.557 5.55309 154.956 6.41817 154.956 7.56816C154.956 8.79067 154.552 9.70237 153.744 10.3033C152.946 10.8938 151.811 11.1891 150.34 11.1891H144.932V0Z" fill="#199478"/>
<path d="M160.44 7.38167H162.755L161.574 3.37226L160.44 7.38167ZM159.741 0H163.47L167.48 11.1891H163.828L163.393 9.71273H159.741L159.321 11.1891H155.731L159.741 0Z" fill="#199478"/>
<path d="M169.94 0H179.311V8.57828H180.29V13.7688H176.778V11.1891H171.556V13.7688H168.044V8.57828H168.93C169.303 7.85307 169.562 7.05015 169.707 6.16953C169.862 5.27854 169.94 4.18036 169.94 2.87497V0ZM175.643 2.61078H173.452V3.82293C173.452 5.99858 173.147 7.5837 172.535 8.57828H175.643V2.61078Z" fill="#199478"/>
<path d="M185.572 7.38167H187.887L186.706 3.37226L185.572 7.38167ZM184.872 0H188.602L192.611 11.1891H188.959L188.524 9.71273H184.872L184.453 11.1891H180.863L184.872 0Z" fill="#199478"/>
<path d="M199.305 2.61078V11.1891H195.638V2.61078H192.343V0H202.6V2.61078H199.305Z" fill="#199478"/>
<path d="M0.351344 29.5975V20.7605H3.94927C4.89188 20.7605 5.71667 20.9499 6.42363 21.3286C7.13901 21.6989 7.69448 22.2165 8.09004 22.8814C8.4856 23.5463 8.68338 24.3121 8.68338 25.179C8.68338 26.0459 8.4856 26.8117 8.09004 27.4766C7.69448 28.1415 7.13901 28.6633 6.42363 29.042C5.71667 29.4123 4.89188 29.5975 3.94927 29.5975H0.351344ZM1.28554 28.7895H3.89877C4.68148 28.7895 5.35898 28.6381 5.93128 28.3351C6.512 28.0237 6.96227 27.5986 7.28208 27.06C7.6019 26.513 7.76181 25.886 7.76181 25.179C7.76181 24.4636 7.6019 23.8366 7.28208 23.298C6.96227 22.7593 6.512 22.3385 5.93128 22.0355C5.35898 21.7241 4.68148 21.5684 3.89877 21.5684H1.28554V28.7895Z" fill="black"/>
<path d="M14.0635 29.5975V20.7605H14.9977V29.5975H14.0635Z" fill="black"/>
<path d="M25.031 29.6732C24.3577 29.6732 23.7349 29.5638 23.1626 29.345C22.5987 29.1178 22.1063 28.8022 21.6855 28.3982C21.2731 27.9942 20.9491 27.5187 20.7134 26.9716C20.4862 26.4246 20.3726 25.827 20.3726 25.179C20.3726 24.5309 20.4862 23.9334 20.7134 23.3863C20.9491 22.8393 21.2773 22.3638 21.6981 21.9598C22.119 21.5558 22.6113 21.2444 23.1752 21.0256C23.7475 20.7984 24.3703 20.6847 25.0436 20.6847C25.7169 20.6847 26.3313 20.7899 26.8867 21.0004C27.4506 21.2108 27.9303 21.5306 28.3259 21.9598L27.7452 22.5531C27.3749 22.1828 26.9667 21.9177 26.5206 21.7578C26.0746 21.5979 25.5948 21.5179 25.0815 21.5179C24.5344 21.5179 24.0294 21.6105 23.5665 21.7957C23.1121 21.9724 22.7123 22.2291 22.3672 22.5658C22.0306 22.894 21.7655 23.2811 21.5719 23.7272C21.3867 24.1648 21.2942 24.6488 21.2942 25.179C21.2942 25.7008 21.3867 26.1847 21.5719 26.6308C21.7655 27.0768 22.0306 27.4682 22.3672 27.8048C22.7123 28.1331 23.1121 28.3898 23.5665 28.5749C24.0294 28.7517 24.5302 28.84 25.0688 28.84C25.5738 28.84 26.0493 28.7643 26.4954 28.6128C26.9499 28.4613 27.3665 28.2046 27.7452 27.8427L28.2754 28.5497C27.8546 28.92 27.3622 29.2019 26.7984 29.3955C26.2345 29.5807 25.6453 29.6732 25.031 29.6732ZM28.2754 28.5497L27.3791 28.4361V25.179H28.2754V28.5497Z" fill="black"/>
<path d="M34.2017 29.5975V20.7605H35.1359V29.5975H34.2017Z" fill="black"/>
<path d="M43.0104 29.5975V21.5684H39.9048V20.7605H47.0502V21.5684H43.9446V29.5975H43.0104Z" fill="black"/>
<path d="M49.9672 29.5975L54.007 20.7605H54.9286L58.9683 29.5975H57.9836L54.2721 21.3033H54.6508L50.9393 29.5975H49.9672ZM51.5579 27.2368L51.8356 26.4793H56.9737L57.2514 27.2368H51.5579Z" fill="black"/>
<path d="M63.7125 29.5975V20.7605H64.6467V28.7895H69.5954V29.5975H63.7125Z" fill="black"/>
<path d="M79.6013 29.5975L83.641 20.7605H84.5626L88.6024 29.5975H87.6177L83.9062 21.3033H84.2849L80.5733 29.5975H79.6013ZM81.1919 27.2368L81.4697 26.4793H86.6077L86.8855 27.2368H81.1919Z" fill="black"/>
<path d="M96.7217 29.6732C95.5939 29.6732 94.706 29.3492 94.058 28.7012C93.4099 28.0531 93.0859 27.0937 93.0859 25.8228V20.7605H94.0201V25.785C94.0201 26.8286 94.2557 27.5986 94.727 28.0952C95.1984 28.5918 95.8632 28.84 96.7217 28.84C97.5886 28.84 98.2576 28.5918 98.7289 28.0952C99.2003 27.5986 99.4359 26.8286 99.4359 25.785V20.7605H100.345V25.8228C100.345 27.0937 100.021 28.0531 99.3728 28.7012C98.7332 29.3492 97.8495 29.6732 96.7217 29.6732Z" fill="black"/>
<path d="M106.442 29.5975V20.7605H112.502V21.5684H107.376V28.7895H112.691V29.5975H106.442ZM107.275 25.5072V24.7119H111.946V25.5072H107.275Z" fill="black"/>
<path d="M118.17 29.5975V20.7605H118.94L125.037 28.4361H124.633V20.7605H125.555V29.5975H124.785L118.7 21.9219H119.104V29.5975H118.17Z" fill="black"/>
<path d="M140.744 29.6732C140.088 29.6732 139.457 29.568 138.851 29.3576C138.253 29.1388 137.79 28.8611 137.462 28.5244L137.828 27.8048C138.139 28.1078 138.556 28.3645 139.078 28.5749C139.608 28.7769 140.164 28.8779 140.744 28.8779C141.3 28.8779 141.75 28.8106 142.095 28.6759C142.449 28.5329 142.705 28.3435 142.865 28.1078C143.033 27.8722 143.118 27.6113 143.118 27.3251C143.118 26.9801 143.017 26.7023 142.815 26.4919C142.621 26.2815 142.364 26.1174 142.045 25.9996C141.725 25.8733 141.371 25.7639 140.984 25.6713C140.597 25.5788 140.21 25.482 139.823 25.381C139.436 25.2716 139.078 25.1285 138.75 24.9518C138.43 24.775 138.169 24.5436 137.967 24.2574C137.773 23.9629 137.677 23.5799 137.677 23.1086C137.677 22.671 137.79 22.2712 138.017 21.9093C138.253 21.539 138.611 21.2444 139.09 21.0256C139.57 20.7984 140.185 20.6847 140.934 20.6847C141.43 20.6847 141.923 20.7563 142.411 20.8994C142.899 21.034 143.32 21.2234 143.673 21.4675L143.358 22.2123C142.979 21.9598 142.575 21.7746 142.146 21.6568C141.725 21.539 141.317 21.4801 140.921 21.4801C140.391 21.4801 139.953 21.5516 139.608 21.6947C139.263 21.8378 139.006 22.0313 138.838 22.2754C138.678 22.5111 138.598 22.7804 138.598 23.0834C138.598 23.4284 138.695 23.7062 138.889 23.9166C139.09 24.127 139.351 24.2911 139.671 24.4089C139.999 24.5267 140.357 24.6319 140.744 24.7245C141.131 24.8171 141.514 24.9181 141.893 25.0275C142.28 25.1369 142.634 25.28 142.954 25.4567C143.282 25.6251 143.543 25.8523 143.736 26.1384C143.938 26.4246 144.039 26.7991 144.039 27.262C144.039 27.6912 143.921 28.091 143.686 28.4613C143.45 28.8232 143.088 29.1178 142.6 29.345C142.12 29.5638 141.502 29.6732 140.744 29.6732Z" fill="black"/>
<path d="M150.951 29.5975V21.5684H147.845V20.7605H154.99V21.5684H151.885V29.5975H150.951Z" fill="black"/>
<path d="M163.153 29.6732C162.025 29.6732 161.137 29.3492 160.489 28.7012C159.841 28.0531 159.517 27.0937 159.517 25.8228V20.7605H160.451V25.785C160.451 26.8286 160.687 27.5986 161.158 28.0952C161.629 28.5918 162.294 28.84 163.153 28.84C164.019 28.84 164.689 28.5918 165.16 28.0952C165.631 27.5986 165.867 26.8286 165.867 25.785V20.7605H166.776V25.8228C166.776 27.0937 166.452 28.0531 165.804 28.7012C165.164 29.3492 164.28 29.6732 163.153 29.6732Z" fill="black"/>
<path d="M172.873 29.5975V20.7605H176.471C177.414 20.7605 178.239 20.9499 178.946 21.3286C179.661 21.6989 180.216 22.2165 180.612 22.8814C181.007 23.5463 181.205 24.3121 181.205 25.179C181.205 26.0459 181.007 26.8117 180.612 27.4766C180.216 28.1415 179.661 28.6633 178.946 29.042C178.239 29.4123 177.414 29.5975 176.471 29.5975H172.873ZM173.807 28.7895H176.421C177.203 28.7895 177.881 28.6381 178.453 28.3351C179.034 28.0237 179.484 27.5986 179.804 27.06C180.124 26.513 180.284 25.886 180.284 25.179C180.284 24.4636 180.124 23.8366 179.804 23.298C179.484 22.7593 179.034 22.3385 178.453 22.0355C177.881 21.7241 177.203 21.5684 176.421 21.5684H173.807V28.7895Z" fill="black"/>
<path d="M186.585 29.5975V20.7605H187.52V29.5975H186.585Z" fill="black"/>
<path d="M197.54 29.6732C196.875 29.6732 196.257 29.5638 195.684 29.345C195.121 29.1178 194.628 28.8022 194.207 28.3982C193.795 27.9858 193.471 27.5103 193.235 26.9716C193.008 26.4246 192.894 25.827 192.894 25.179C192.894 24.5309 193.008 23.9376 193.235 23.399C193.471 22.8519 193.795 22.3764 194.207 21.9724C194.628 21.56 195.121 21.2444 195.684 21.0256C196.248 20.7984 196.867 20.6847 197.54 20.6847C198.205 20.6847 198.819 20.7984 199.383 21.0256C199.947 21.2444 200.435 21.5558 200.848 21.9598C201.269 22.3638 201.593 22.8393 201.82 23.3863C202.056 23.9334 202.173 24.5309 202.173 25.179C202.173 25.827 202.056 26.4246 201.82 26.9716C201.593 27.5187 201.269 27.9942 200.848 28.3982C200.435 28.8022 199.947 29.1178 199.383 29.345C198.819 29.5638 198.205 29.6732 197.54 29.6732ZM197.54 28.84C198.07 28.84 198.559 28.7517 199.005 28.5749C199.459 28.3898 199.85 28.1331 200.179 27.8048C200.515 27.4682 200.776 27.0811 200.961 26.6434C201.147 26.1974 201.239 25.7092 201.239 25.179C201.239 24.6488 201.147 24.1648 200.961 23.7272C200.776 23.2811 200.515 22.894 200.179 22.5658C199.85 22.2291 199.459 21.9724 199.005 21.7957C198.559 21.6105 198.07 21.5179 197.54 21.5179C197.01 21.5179 196.518 21.6105 196.063 21.7957C195.609 21.9724 195.213 22.2291 194.876 22.5658C194.548 22.894 194.287 23.2811 194.094 23.7272C193.909 24.1648 193.816 24.6488 193.816 25.179C193.816 25.7008 193.909 26.1847 194.094 26.6308C194.287 27.0768 194.548 27.4682 194.876 27.8048C195.213 28.1331 195.609 28.3898 196.063 28.5749C196.518 28.7517 197.01 28.84 197.54 28.84Z" fill="black"/>
</svg>
