<svg width="85" height="34" viewBox="0 0 85 34" fill="none" xmlns="http://www.w3.org/2000/svg">
<rect width="84.6882" height="34.0036" rx="5" fill="#D9D9D9"/>
<g clip-path="url(#clip0_151_3376)">
<path d="M32.1196 29.4578V27.7973C32.1196 27.1621 31.7344 26.7461 31.073 26.7461C30.7423 26.7461 30.3828 26.8557 30.1356 27.2169C29.9429 26.9138 29.6668 26.7461 29.2527 26.7461C28.9766 26.7461 28.7005 26.8299 28.4822 27.133V26.8009H27.9043V29.4578H28.4822V27.9907C28.4822 27.52 28.7294 27.2975 29.1146 27.2975C29.4999 27.2975 29.6925 27.5458 29.6925 27.9907V29.4578H30.2704V27.9907C30.2704 27.52 30.5465 27.2975 30.9029 27.2975C31.2881 27.2975 31.4807 27.5458 31.4807 27.9907V29.4578H32.1196ZM40.6915 26.8009H39.7541V25.998H39.1762V26.8009H38.6529V27.3265H39.1762V28.5453C39.1762 29.1547 39.4234 29.5127 40.0848 29.5127C40.332 29.5127 40.6081 29.4288 40.8007 29.3192L40.6337 28.8194C40.4668 28.929 40.2742 28.9581 40.1361 28.9581C39.86 28.9581 39.7509 28.7904 39.7509 28.5163V27.3265H40.6883V26.8009H40.6915ZM45.5971 26.7429C45.2664 26.7429 45.0449 26.9105 44.9069 27.1298V26.7977H44.329V29.4546H44.9069V27.9585C44.9069 27.5167 45.0995 27.2652 45.4591 27.2652C45.5682 27.2652 45.7063 27.2943 45.8186 27.32L45.9856 26.7654C45.87 26.7429 45.7063 26.7429 45.5971 26.7429ZM38.1842 27.0202C37.9081 26.8267 37.5228 26.7429 37.1087 26.7429C36.4473 26.7429 36.0075 27.075 36.0075 27.6006C36.0075 28.0423 36.3382 28.2938 36.916 28.3744L37.1921 28.4035C37.4939 28.4583 37.6609 28.5421 37.6609 28.6808C37.6609 28.8742 37.4393 29.0129 37.0541 29.0129C36.6688 29.0129 36.3638 28.8742 36.1712 28.7356L35.8951 29.1773C36.1969 29.3998 36.611 29.5094 37.0252 29.5094C37.7957 29.5094 38.2387 29.1483 38.2387 28.6517C38.2387 28.181 37.8792 27.9327 37.3302 27.8489L37.0541 27.8198C36.8069 27.7908 36.6143 27.736 36.6143 27.5716C36.6143 27.3781 36.8069 27.2685 37.1119 27.2685C37.4426 27.2685 37.7732 27.4071 37.9402 27.4909L38.1842 27.0202ZM53.559 26.7429C53.2284 26.7429 53.0068 26.9105 52.8688 27.1298V26.7977H52.2909V29.4546H52.8688V27.9585C52.8688 27.5167 53.0614 27.2652 53.421 27.2652C53.5301 27.2652 53.6682 27.2943 53.7806 27.32L53.9475 26.7719C53.8351 26.7429 53.6714 26.7429 53.559 26.7429ZM46.175 28.1294C46.175 28.9323 46.7272 29.5127 47.5812 29.5127C47.9664 29.5127 48.2425 29.4288 48.5186 29.2096L48.2425 28.7388C48.021 28.9065 47.8027 28.9871 47.5523 28.9871C47.0835 28.9871 46.7529 28.655 46.7529 28.1294C46.7529 27.6296 47.0835 27.2975 47.5523 27.2717C47.7995 27.2717 48.021 27.3555 48.2425 27.52L48.5186 27.0492C48.2425 26.8267 47.9664 26.7461 47.5812 26.7461C46.7272 26.7429 46.175 27.3265 46.175 28.1294ZM51.5204 28.1294V26.8009H50.9425V27.133C50.7499 26.8848 50.4738 26.7461 50.1142 26.7461C49.3694 26.7461 48.7915 27.3265 48.7915 28.1294C48.7915 28.9323 49.3694 29.5127 50.1142 29.5127C50.4995 29.5127 50.7756 29.374 50.9425 29.1257V29.4578H51.5204V28.1294ZM49.3983 28.1294C49.3983 27.6586 49.7001 27.2717 50.1977 27.2717C50.6664 27.2717 50.9971 27.6328 50.9971 28.1294C50.9971 28.6001 50.6664 28.9871 50.1977 28.9871C49.7033 28.9581 49.3983 28.5969 49.3983 28.1294ZM42.483 26.7429C41.7125 26.7429 41.1603 27.2975 41.1603 28.1262C41.1603 28.9581 41.7125 29.5094 42.5119 29.5094C42.8971 29.5094 43.2824 29.3998 43.5874 29.1483L43.3113 28.7323C43.0897 28.9 42.8136 29.0096 42.5408 29.0096C42.1812 29.0096 41.8248 28.842 41.7414 28.3744H43.6965C43.6965 28.2906 43.6965 28.2358 43.6965 28.1519C43.7222 27.2975 43.2246 26.7429 42.483 26.7429ZM42.483 27.2427C42.8425 27.2427 43.0897 27.4651 43.1443 27.8779H41.767C41.8216 27.52 42.0688 27.2427 42.483 27.2427ZM56.8401 28.1294V25.7498H56.2622V27.133C56.0696 26.8848 55.7935 26.7461 55.4339 26.7461C54.6891 26.7461 54.1112 27.3265 54.1112 28.1294C54.1112 28.9323 54.6891 29.5127 55.4339 29.5127C55.8192 29.5127 56.0953 29.374 56.2622 29.1257V29.4578H56.8401V28.1294ZM54.718 28.1294C54.718 27.6586 55.0198 27.2717 55.5174 27.2717C55.9861 27.2717 56.3168 27.6328 56.3168 28.1294C56.3168 28.6001 55.9861 28.9871 55.5174 28.9871C55.0198 28.9581 54.718 28.5969 54.718 28.1294ZM35.3718 28.1294V26.8009H34.7939V27.133C34.6013 26.8848 34.3252 26.7461 33.9656 26.7461C33.2208 26.7461 32.6429 27.3265 32.6429 28.1294C32.6429 28.9323 33.2208 29.5127 33.9656 29.5127C34.3509 29.5127 34.627 29.374 34.7939 29.1257V29.4578H35.3718V28.1294ZM33.224 28.1294C33.224 27.6586 33.5258 27.2717 34.0234 27.2717C34.4921 27.2717 34.8228 27.6328 34.8228 28.1294C34.8228 28.6001 34.4921 28.9871 34.0234 28.9871C33.5258 28.9581 33.224 28.5969 33.224 28.1294Z" fill="black"/>
<path d="M46.6713 6.62256H37.9902V22.2868H46.6713V6.62256Z" fill="#FF5A00"/>
<path d="M38.5686 14.4547C38.5686 11.2722 40.0583 8.44757 42.3441 6.62255C40.6618 5.29409 38.5397 4.49121 36.225 4.49121C30.7415 4.49121 26.3047 8.94736 26.3047 14.4547C26.3047 19.962 30.7415 24.4181 36.225 24.4181C38.5397 24.4181 40.6618 23.6152 42.3441 22.2868C40.0551 20.4876 38.5686 17.6372 38.5686 14.4547Z" fill="#EB001B"/>
<path d="M58.3832 14.4547C58.3832 19.962 53.9463 24.4181 48.4629 24.4181C46.1481 24.4181 44.026 23.6152 42.3438 22.2868C44.6585 20.4585 46.1192 17.6372 46.1192 14.4547C46.1192 11.2722 44.6296 8.44757 42.3438 6.62255C44.0228 5.29409 46.1449 4.49121 48.4597 4.49121C53.9463 4.49121 58.3832 8.97638 58.3832 14.4547Z" fill="#F79E1B"/>
</g>
<defs>
<clipPath id="clip0_151_3376">
<rect width="32.0789" height="25.0215" fill="white" transform="translate(26.3047 4.49121)"/>
</clipPath>
</defs>
</svg>
