<svg width="72" height="72" viewBox="0 0 72 72" fill="none" xmlns="http://www.w3.org/2000/svg">
<path d="M47.625 18C47.625 19.0342 48.4658 19.875 49.5 19.875C50.5342 19.875 51.375 19.0342 51.375 18V16.125H49.5C48.4658 16.125 47.625 16.9658 47.625 18Z" fill="#199478"/>
<path d="M51 1.875C43.7622 1.875 37.875 7.7622 37.875 15C37.875 22.2378 43.7622 28.125 51 28.125C58.2378 28.125 64.125 22.2378 64.125 15C64.125 7.7622 58.2378 1.875 51 1.875ZM56.5063 11.0024C56.228 11.5605 55.5542 11.7847 54.9976 11.5063L53.625 10.8208V18C53.625 20.2749 51.7749 22.125 49.5 22.125C47.2251 22.125 45.375 20.2749 45.375 18C45.375 15.7251 47.2251 13.875 49.5 13.875H51.375C51.375 13.875 51.375 9.01289 51.375 9.00003C51.375 8.17409 52.2629 7.62545 53.0024 7.99365L56.0024 9.49365C56.5591 9.77198 56.7847 10.4473 56.5063 11.0024Z" fill="#199478"/>
<path d="M20.67 44.625C20.64 44.25 20.625 43.875 20.625 43.5V36.375H18C15.72 36.375 13.875 38.22 13.875 40.5C13.875 42.7799 15.72 44.625 18 44.625H20.67Z" fill="#199478"/>
<path d="M54.0001 36.375H51.3751V43.5C51.3751 43.875 51.3601 44.25 51.3301 44.625H54.0001C56.2802 44.625 58.1251 42.7799 58.1251 40.5C58.1251 38.22 56.2802 36.375 54.0001 36.375Z" fill="#199478"/>
<path d="M52.5308 46.875C50.9707 54.57 44.1458 60.375 36.0008 60.375C27.8558 60.375 21.0308 54.57 19.4707 46.875H18.0008C17.7158 46.875 17.4458 46.86 17.1758 46.8149C18.4958 54.435 24.3758 60.5099 31.8758 62.16V67.875H28.5008C27.8858 67.875 27.3758 68.385 27.3758 69C27.3758 69.615 27.8858 70.125 28.5008 70.125H43.5008C44.1157 70.125 44.6258 69.615 44.6258 69C44.6258 68.385 44.1157 67.875 43.5008 67.875H40.1258V62.16C47.6258 60.5099 53.5057 54.435 54.8258 46.8149C54.5558 46.86 54.2858 46.875 54.0008 46.875H52.5308Z" fill="#199478"/>
<path d="M36 56.625C43.2378 56.625 49.125 50.7378 49.125 43.5V41.625H22.875V43.5C22.875 50.7378 28.7629 56.625 36 56.625Z" fill="#199478"/>
<path d="M49.125 34.125H40.5C39.8789 34.125 39.375 33.6211 39.375 33C39.375 32.3789 39.8789 31.875 40.5 31.875H49.125V30.2487C41.5296 29.3194 35.625 22.8426 35.625 15C35.625 14.1058 35.7178 13.2346 35.865 12.3818C29.0694 12.4515 23.5018 17.7076 22.932 24.375H31.5C32.1211 24.375 32.625 24.8789 32.625 25.5C32.625 26.1211 32.1211 26.625 31.5 26.625H22.875V31.875H31.5C32.1211 31.875 32.625 32.3789 32.625 33C32.625 33.6211 32.1211 34.125 31.5 34.125H22.875V39.375H49.125V34.125Z" fill="#199478"/>
</svg>
