<svg width="72" height="72" viewBox="0 0 72 72" fill="none" xmlns="http://www.w3.org/2000/svg">
<g clip-path="url(#clip0_84_1601)">
<path d="M50.7102 53.0548C50.2138 52.5558 49.6447 52.1157 48.9742 51.7957C45.798 50.2759 42.0329 51.6441 40.5367 54.7764C39.03 57.9299 40.3591 61.7103 43.5195 63.216C46.6609 64.7131 50.4487 63.3864 51.957 60.2353V60.2332L57.0347 49.5998L59.3151 56.0494L63.2907 54.6446L57.6156 38.5916L50.7102 53.0548Z" fill="#199478"/>
<path d="M39.0214 22.3658C37.8849 21.4844 36.556 20.8758 35.0939 20.6639C30.483 20.0045 26.2022 23.1736 25.5317 27.7995C24.7844 32.9171 28.7727 37.4503 33.8868 37.4503C38.0067 37.4503 41.6198 34.4201 42.2295 30.2261C42.2308 30.2176 42.2295 30.2093 42.2308 30.2009L42.2336 30.2015L45.3153 6.91537L67.1058 4.73386L65.1216 19.7504C64.0077 18.8847 62.6869 18.2582 61.1938 18.0416C56.6115 17.3773 52.3049 20.5331 51.6316 25.1772C50.8843 30.2948 54.8726 34.828 59.9867 34.828C64.1066 34.828 67.7196 31.7978 68.3294 27.6017C68.3306 27.5933 68.3291 27.585 68.3304 27.5766L68.3335 27.5771L71.9921 0L41.5745 3.05494L39.0214 22.3658Z" fill="#199478"/>
<path d="M6.24719 71.9999C10.2082 71.9999 13.1853 68.3992 12.4743 64.5285L9.7285 49.4122L21.7467 44.0173L23.2309 52.2524C22.5295 52.1402 21.8097 52.1236 21.0875 52.2555C17.6538 52.8854 15.3714 56.173 16.0036 59.6197C16.5743 62.7305 19.2848 64.8067 22.2143 64.8067C26.1843 64.8067 29.1646 61.2243 28.4517 57.3374L24.923 37.9404L4.98649 46.932L7.25505 59.4492C6.55924 59.3357 5.83938 59.3125 5.10813 59.4466C1.67617 60.0749 -0.512513 63.3812 0.117769 66.813C0.67605 69.8596 3.25413 71.9999 6.24719 71.9999Z" fill="#199478"/>
<path d="M6.34454 32.9224C9.25449 34.849 13.1789 34.0641 15.1136 31.1426C16.0488 29.7336 16.3784 28.0445 16.0426 26.3883L13.6963 14.8403L19.3982 18.6203L21.73 15.1018L7.53718 5.69824L10.7257 21.4115C8.09546 21.0341 5.8321 22.2376 4.56465 24.1512C2.62585 27.0789 3.44049 30.9992 6.34454 32.9224Z" fill="#199478"/>
</g>
<defs>
<clipPath id="clip0_84_1601">
<rect width="72" height="72" fill="white"/>
</clipPath>
</defs>
</svg>
