<svg width="30" height="30" viewBox="0 0 30 30" fill="none" xmlns="http://www.w3.org/2000/svg">
<path d="M22 27C21.0375 27 20.2138 26.6646 19.529 25.9937C18.8442 25.3229 18.5012 24.5154 18.5 23.5714V6.42857C18.5 5.48572 18.843 4.67886 19.529 4.008C20.215 3.33715 21.0387 3.00115 22 3C22.9613 2.99886 23.7856 3.33486 24.4727 4.008C25.1599 4.68114 25.5023 5.488 25.5 6.42857V23.5714C25.5 24.5143 25.1576 25.3217 24.4727 25.9937C23.7879 26.6657 22.9637 27.0011 22 27ZM8 27C7.0375 27 6.21383 26.6646 5.529 25.9937C4.84417 25.3229 4.50117 24.5154 4.5 23.5714V6.42857C4.5 5.48572 4.843 4.67886 5.529 4.008C6.215 3.33715 7.03867 3.00115 8 3C8.96133 2.99886 9.78558 3.33486 10.4727 4.008C11.1599 4.68114 11.5023 5.488 11.5 6.42857V23.5714C11.5 24.5143 11.1576 25.3217 10.4727 25.9937C9.78791 26.6657 8.96366 27.0011 8 27Z" fill="#ACC0BB"/>
</svg>
