<svg width="30" height="30" viewBox="0 0 30 30" fill="none" xmlns="http://www.w3.org/2000/svg">
<path d="M20.7492 7.275C19.8949 6.29941 19.4241 5.04675 19.4242 3.75H15.5617V19.25C15.5325 20.089 15.1786 20.8838 14.5746 21.4669C13.9706 22.0499 13.1637 22.3755 12.3242 22.375C10.5492 22.375 9.07422 20.925 9.07422 19.125C9.07422 16.975 11.1492 15.3625 13.2867 16.025V12.075C8.97422 11.5 5.19922 14.85 5.19922 19.125C5.19922 23.2875 8.64922 26.25 12.3117 26.25C16.2367 26.25 19.4242 23.0625 19.4242 19.125V11.2625C20.9905 12.3873 22.8709 12.9908 24.7992 12.9875V9.125C24.7992 9.125 22.4492 9.2375 20.7492 7.275Z" fill="#404040"/>
</svg>
