<svg width="85" height="34" viewBox="0 0 85 34" fill="none" xmlns="http://www.w3.org/2000/svg">
<rect width="84.6882" height="34.0036" rx="5" fill="#D9D9D9"/>
<g clip-path="url(#clip0_151_3375)">
<path d="M48.4634 9.64746C45.1414 9.64746 42.1725 11.3913 42.1725 14.6124C42.1725 18.3067 47.4377 18.5619 47.4377 20.4181C47.4377 21.1996 46.5535 21.8992 45.0426 21.8992C42.8989 21.8992 41.2967 20.9217 41.2967 20.9217L40.611 24.1727C40.611 24.1727 42.4568 24.9984 44.9072 24.9984C48.5393 24.9984 51.3976 23.1692 51.3976 19.8926C51.3976 15.9886 46.1104 15.7411 46.1104 14.0186C46.1104 13.4063 46.8364 12.7358 48.3426 12.7358C50.0422 12.7358 51.4286 13.4467 51.4286 13.4467L52.0997 10.3071C52.0997 10.3071 50.5907 9.64746 48.463 9.64746H48.4634ZM18.0688 9.88458L17.9883 10.3584C17.9883 10.3584 19.3858 10.6173 20.6448 11.1342C22.2657 11.7266 22.3809 12.0718 22.654 13.1427L25.6285 24.7536H29.616L35.7589 9.88458H31.7808L27.8335 19.9941L26.2228 11.4245C26.0753 10.4437 25.3269 9.88411 24.4112 9.88411H18.0693L18.0688 9.88458ZM37.3588 9.88458L34.2382 24.7536H38.0318L41.1412 9.88458H37.3588ZM58.5171 9.88458C57.6024 9.88458 57.1176 10.3806 56.7621 11.2471L51.2042 24.7536H55.1824L55.9519 22.5024H60.7984L61.2663 24.7536H64.7766L61.7145 9.88458H58.5171ZM59.0346 13.9019L60.2139 19.4814H57.0549L59.035 13.9019H59.0346Z" fill="#1434CB"/>
</g>
<defs>
<clipPath id="clip0_151_3375">
<rect width="46.8351" height="15.3978" fill="white" transform="translate(17.9648 9.62378)"/>
</clipPath>
</defs>
</svg>
