<svg width="40" height="40" viewBox="0 0 40 40" fill="none" xmlns="http://www.w3.org/2000/svg">
<path fill-rule="evenodd" clip-rule="evenodd" d="M20.0007 3.33325C10.7957 3.33325 3.33398 10.7949 3.33398 19.9999C3.33398 23.1499 4.20898 26.0999 5.73065 28.6132L4.24398 33.6666C4.15863 33.9567 4.15301 34.2645 4.22773 34.5576C4.30244 34.8506 4.45473 35.1181 4.66858 35.332C4.88244 35.5458 5.14995 35.6981 5.44301 35.7728C5.73607 35.8476 6.04385 35.8419 6.33398 35.7566L11.3873 34.2699C13.9852 35.8415 16.9644 36.6704 20.0007 36.6666C29.2057 36.6666 36.6673 29.2049 36.6673 19.9999C36.6673 10.7949 29.2057 3.33325 20.0007 3.33325ZM16.2307 23.7716C19.6023 27.1416 22.8207 27.5866 23.9573 27.6282C25.6856 27.6916 27.369 26.3716 28.024 24.8399C28.106 24.6492 28.1356 24.4401 28.1098 24.2342C28.084 24.0282 28.0038 23.8328 27.8773 23.6683C26.964 22.5016 25.729 21.6632 24.5223 20.8299C24.2705 20.6553 23.9608 20.5852 23.6583 20.6343C23.3559 20.6834 23.0843 20.8479 22.9007 21.0933L21.9007 22.6182C21.8478 22.6999 21.7659 22.7584 21.6715 22.782C21.5771 22.8055 21.4773 22.7922 21.3923 22.7449C20.714 22.3566 19.7257 21.6966 19.0157 20.9866C18.3057 20.2766 17.6857 19.3333 17.3373 18.6982C17.2952 18.6173 17.2833 18.5241 17.3037 18.4352C17.3242 18.3463 17.3757 18.2676 17.449 18.2133L18.989 17.0699C19.2094 16.8792 19.3517 16.6139 19.3886 16.3248C19.4255 16.0357 19.3544 15.7432 19.189 15.5033C18.4423 14.4099 17.5723 13.0199 16.3107 12.0983C16.1475 11.981 15.9568 11.9079 15.7571 11.886C15.5573 11.8641 15.3554 11.8942 15.1707 11.9733C13.6373 12.6299 12.3107 14.3133 12.374 16.0449C12.4157 17.1816 12.8607 20.3999 16.2307 23.7716Z" fill="#199478"/>
</svg>
