<svg width="30" height="30" viewBox="0 0 30 30" fill="none" xmlns="http://www.w3.org/2000/svg">
<path fill-rule="evenodd" clip-rule="evenodd" d="M15 2.5C8.09625 2.5 2.5 8.09625 2.5 15C2.5 17.3625 3.15625 19.575 4.2975 21.46L3.1825 25.25C3.11848 25.4676 3.11427 25.6984 3.17031 25.9182C3.22634 26.138 3.34056 26.3387 3.50095 26.4991C3.66134 26.6594 3.86198 26.7737 4.08177 26.8297C4.30156 26.8857 4.5324 26.8815 4.75 26.8175L8.54 25.7025C10.4884 26.8812 12.7228 27.5029 15 27.5C21.9037 27.5 27.5 21.9037 27.5 15C27.5 8.09625 21.9037 2.5 15 2.5ZM12.1725 17.8287C14.7013 20.3562 17.115 20.69 17.9675 20.7212C19.2638 20.7687 20.5262 19.7787 21.0175 18.63C21.079 18.487 21.1012 18.3302 21.0819 18.1757C21.0625 18.0212 21.0023 17.8747 20.9075 17.7513C20.2225 16.8763 19.2962 16.2475 18.3913 15.6225C18.2024 15.4915 17.9701 15.4389 17.7433 15.4758C17.5164 15.5126 17.3127 15.636 17.175 15.82L16.425 16.9637C16.3854 17.025 16.3239 17.0689 16.2531 17.0865C16.1823 17.1042 16.1075 17.0942 16.0437 17.0588C15.535 16.7675 14.7938 16.2725 14.2613 15.74C13.7288 15.2075 13.2638 14.5 13.0025 14.0238C12.9709 13.9631 12.962 13.8931 12.9773 13.8264C12.9927 13.7598 13.0313 13.7008 13.0863 13.66L14.2412 12.8025C14.4066 12.6595 14.5133 12.4605 14.541 12.2437C14.5686 12.0269 14.5153 11.8075 14.3912 11.6275C13.8312 10.8075 13.1788 9.765 12.2325 9.07375C12.1101 8.98582 11.9671 8.93099 11.8173 8.91457C11.6675 8.89814 11.516 8.92068 11.3775 8.98C10.2275 9.4725 9.2325 10.735 9.28 12.0337C9.31125 12.8862 9.645 15.3 12.1725 17.8287Z" fill="white"/>
</svg>
