<svg width="20" height="20" viewBox="0 0 20 20" fill="none" xmlns="http://www.w3.org/2000/svg">
<path d="M10 1.80772C12.6506 1.80772 13.0121 1.80772 14.0964 1.80772C15.0602 1.80772 15.5422 2.04868 15.9036 2.16916C16.3855 2.41013 16.747 2.53061 17.1084 2.89206C17.4699 3.2535 17.7108 3.61495 17.8313 4.09688C17.9518 4.45832 18.0723 4.94025 18.1928 5.9041C18.1928 6.98844 18.1928 7.2294 18.1928 10.0005C18.1928 12.7716 18.1928 13.0125 18.1928 14.0969C18.1928 15.0607 17.9518 15.5427 17.8313 15.9041C17.5904 16.386 17.4699 16.7475 17.1084 17.1089C16.747 17.4704 16.3855 17.7113 15.9036 17.8318C15.5422 17.9523 15.0602 18.0728 14.0964 18.1933C13.0121 18.1933 12.7711 18.1933 10 18.1933C7.22892 18.1933 6.98795 18.1933 5.90362 18.1933C4.93976 18.1933 4.45783 17.9523 4.09639 17.8318C3.61446 17.5909 3.25301 17.4704 2.89157 17.1089C2.53012 16.7475 2.28916 16.386 2.16868 15.9041C2.04819 15.5427 1.92771 15.0607 1.80723 14.0969C1.80723 13.0125 1.80723 12.7716 1.80723 10.0005C1.80723 7.2294 1.80723 6.98844 1.80723 5.9041C1.80723 4.94025 2.04819 4.45832 2.16868 4.09688C2.40964 3.61495 2.53012 3.2535 2.89157 2.89206C3.25301 2.53061 3.61446 2.28965 4.09639 2.16916C4.45783 2.04868 4.93976 1.9282 5.90362 1.80772C6.98795 1.80772 7.3494 1.80772 10 1.80772ZM10 0.000488281C7.22892 0.000488281 6.98795 0.000488281 5.90362 0.000488281C4.81928 0.000488281 4.09639 0.241453 3.49398 0.482417C2.89157 0.723381 2.28916 1.08483 1.68675 1.68724C1.08434 2.28965 0.843374 2.77157 0.481928 3.49447C0.240965 4.09688 0.120482 4.81977 0 5.9041C0 6.98844 0 7.34989 0 10.0005C0 12.7716 0 13.0125 0 14.0969C0 15.1812 0.240965 15.9041 0.481928 16.5065C0.722892 17.1089 1.08434 17.7113 1.68675 18.3137C2.28916 18.9162 2.77109 19.1571 3.49398 19.5186C4.09639 19.7595 4.81928 19.88 5.90362 20.0005C6.98795 20.0005 7.3494 20.0005 10 20.0005C12.6506 20.0005 13.0121 20.0005 14.0964 20.0005C15.1807 20.0005 15.9036 19.7595 16.506 19.5186C17.1084 19.2776 17.7108 18.9162 18.3133 18.3137C18.9157 17.7113 19.1566 17.2294 19.5181 16.5065C19.759 15.9041 19.8795 15.1812 20 14.0969C20 13.0125 20 12.6511 20 10.0005C20 7.34989 20 6.98844 20 5.9041C20 4.81977 19.759 4.09688 19.5181 3.49447C19.2771 2.89206 18.9157 2.28965 18.3133 1.68724C17.7108 1.08483 17.2289 0.843863 16.506 0.482417C15.9036 0.241453 15.1807 0.12097 14.0964 0.000488281C13.0121 0.000488281 12.7711 0.000488281 10 0.000488281Z" fill="white"/>
<path d="M10 4.81977C7.10843 4.81977 4.81928 7.10892 4.81928 10.0005C4.81928 12.8921 7.10843 15.1812 10 15.1812C12.8916 15.1812 15.1807 12.8921 15.1807 10.0005C15.1807 7.10892 12.8916 4.81977 10 4.81977ZM10 13.374C8.19277 13.374 6.62651 11.9282 6.62651 10.0005C6.62651 8.19326 8.07229 6.627 10 6.627C11.8072 6.627 13.3735 8.07278 13.3735 10.0005C13.3735 11.8077 11.8072 13.374 10 13.374Z" fill="white"/>
<path d="M15.3012 5.9041C15.9666 5.9041 16.506 5.36469 16.506 4.69928C16.506 4.03388 15.9666 3.49447 15.3012 3.49447C14.6358 3.49447 14.0964 4.03388 14.0964 4.69928C14.0964 5.36469 14.6358 5.9041 15.3012 5.9041Z" fill="white"/>
</svg>
