<svg width="66" height="24" viewBox="0 0 66 24" fill="none" xmlns="http://www.w3.org/2000/svg">
<path fill-rule="evenodd" clip-rule="evenodd" d="M50.6221 15.2238L50.5066 15.1255C50.226 14.8881 50.1765 14.4542 50.4323 14.1759L53.4366 10.7703C53.6759 10.4919 54.1134 10.4428 54.394 10.6966L54.5095 10.7948C54.7901 11.0322 54.8396 11.4661 54.5838 11.7445L51.5796 15.1501C51.3403 15.4284 50.9193 15.4612 50.6221 15.2238Z" fill="url(#paint0_linear_1329_12586)"/>
<path opacity="0.4" fill-rule="evenodd" clip-rule="evenodd" d="M53.0317 11.3599L52.9739 11.2944L52.5117 11.8184L52.5612 11.8757C53.3535 12.6616 53.0152 13.4557 52.8336 13.734L52.8996 13.6603C53.0069 13.5375 53.172 13.3493 53.3453 13.1446C53.5269 12.8335 53.7828 12.0967 53.0317 11.3599Z" fill="url(#paint1_linear_1329_12586)"/>
<path opacity="0.4" fill-rule="evenodd" clip-rule="evenodd" d="M54.023 12.3831L54.1468 12.2439C54.155 12.2276 54.1715 12.2112 54.1798 12.1948C54.0477 12.3422 53.9074 12.4977 53.7754 12.6533C53.8744 12.5468 53.957 12.4568 54.023 12.3831Z" fill="url(#paint2_radial_1329_12586)"/>
<path fill-rule="evenodd" clip-rule="evenodd" d="M54.6003 10.8766L51.5961 7.47096C51.3568 7.19262 50.9194 7.1435 50.6387 7.39728L50.5232 7.49552C50.2426 7.73293 50.1931 8.16682 50.4489 8.44517L52.9827 11.2941L53.0404 11.3596C53.7915 12.1045 53.5356 12.8413 53.3458 13.1524C53.4944 12.9805 53.6429 12.8086 53.7832 12.653C53.9153 12.4975 54.0556 12.342 54.1876 12.1946C54.3197 12.0472 54.4435 11.9081 54.526 11.818C54.8149 11.5397 54.8561 11.1549 54.6003 10.8766Z" fill="url(#paint3_linear_1329_12586)"/>
<path fill-rule="evenodd" clip-rule="evenodd" d="M54.4346 15.2238L54.3191 15.1255C54.0385 14.8881 53.989 14.4542 54.2448 14.1759L57.2491 10.7703C57.4884 10.4919 57.9259 10.4428 58.2065 10.6966L58.322 10.7948C58.6026 11.0322 58.6521 11.4661 58.3963 11.7445L55.3921 15.1501C55.1527 15.4284 54.7318 15.4612 54.4346 15.2238Z" fill="url(#paint4_linear_1329_12586)"/>
<path opacity="0.4" fill-rule="evenodd" clip-rule="evenodd" d="M56.8774 11.3267L56.8196 11.2612L56.3574 11.7852L56.4069 11.8425C57.1993 12.6284 56.8609 13.4225 56.6793 13.7008L56.7453 13.6271C56.8526 13.5043 57.0177 13.3161 57.191 13.1114C57.3726 12.8003 57.6284 12.0635 56.8774 11.3267Z" fill="url(#paint5_linear_1329_12586)"/>
<path opacity="0.4" fill-rule="evenodd" clip-rule="evenodd" d="M57.8267 12.3831L57.9505 12.2439C57.9587 12.2276 57.9753 12.2112 57.9835 12.1948C57.8515 12.3422 57.7112 12.4977 57.5791 12.6533C57.6781 12.5468 57.7689 12.4568 57.8267 12.3831Z" fill="url(#paint6_radial_1329_12586)"/>
<path fill-rule="evenodd" clip-rule="evenodd" d="M58.4051 10.8766L55.4008 7.47096C55.1615 7.19262 54.724 7.1435 54.4434 7.39728L54.3279 7.49552C54.0473 7.73293 53.9978 8.16682 54.2536 8.44517L56.7873 11.2941L56.8451 11.3596C57.5962 12.1045 57.3403 12.8413 57.1505 13.1524C57.299 12.9805 57.4476 12.8086 57.5879 12.653C57.72 12.4975 57.8603 12.342 57.9923 12.1946C58.1244 12.0472 58.2483 11.9081 58.3308 11.818C58.6197 11.5397 58.6609 11.1549 58.4051 10.8766Z" fill="url(#paint7_linear_1329_12586)"/>
<path fill-rule="evenodd" clip-rule="evenodd" d="M8.43157 15.191C8.31603 15.0764 8.25 14.9044 8.25 14.6916V7.95407C8.25 7.73304 8.31603 7.56112 8.45633 7.42195C8.59664 7.28278 8.76996 7.21729 8.99279 7.21729C9.21563 7.21729 9.41371 7.28278 9.54576 7.42195C9.68607 7.56112 9.75209 7.73304 9.75209 7.95407V14.1677H12.9956C13.4578 14.1677 13.6972 14.3723 13.6972 14.7735C13.6972 15.1746 13.4578 15.3793 12.9956 15.3793H8.95153C8.72869 15.3793 8.55537 15.3138 8.43157 15.191Z" fill="white"/>
<path fill-rule="evenodd" clip-rule="evenodd" d="M14.8694 15.24C14.7291 15.1008 14.6631 14.9207 14.6631 14.6915V7.94577C14.6631 7.72474 14.7291 7.55282 14.8694 7.41365C15.0097 7.27448 15.183 7.20898 15.4059 7.20898C15.6287 7.20898 15.8268 7.27448 15.9589 7.41365C16.0992 7.55282 16.1652 7.72474 16.1652 7.94577V14.6915C16.1652 14.9125 16.0992 15.1008 15.9589 15.24C15.8185 15.3791 15.637 15.4446 15.4059 15.4446C15.1913 15.4446 15.0097 15.3791 14.8694 15.24Z" fill="white"/>
<path fill-rule="evenodd" clip-rule="evenodd" d="M24.748 16.9099C24.748 16.7707 24.6984 16.6398 24.6159 16.5006L24.2033 15.8866C23.9639 15.5018 23.675 15.2399 23.3202 15.1253C24.0052 14.8224 24.5334 14.3475 24.8965 13.6926C25.2679 13.0459 25.4495 12.2518 25.4495 11.3431C25.4495 10.4999 25.2927 9.76307 24.9791 9.14089C24.6654 8.52691 24.2198 8.0439 23.6338 7.70006C23.0561 7.3726 22.3628 7.20068 21.5787 7.20068C20.7782 7.20068 20.0932 7.35623 19.5071 7.70006C18.9293 8.0439 18.4754 8.51872 18.1618 9.14089C17.8565 9.77125 17.6914 10.4999 17.6914 11.3431C17.6914 12.1781 17.8482 12.9149 18.1618 13.5452C18.4754 14.1592 18.9211 14.6422 19.5071 14.9861C20.0932 15.3135 20.7782 15.4855 21.5787 15.4855C21.8593 15.4855 22.0822 15.5346 22.2555 15.6165C22.4288 15.6983 22.5691 15.8293 22.6764 16.0094L23.3532 17.1228C23.4357 17.2456 23.543 17.3439 23.6585 17.4093C23.7823 17.4748 23.9144 17.5076 24.0547 17.5076C24.2363 17.5076 24.4013 17.4421 24.5416 17.3357C24.6819 17.2292 24.748 17.0818 24.748 16.9099ZM23.9557 11.3267C23.9557 12.2763 23.7411 13.0131 23.3202 13.5289C22.8992 14.0446 22.3133 14.2984 21.5622 14.2984C20.8112 14.2984 20.217 14.0446 19.796 13.5289C19.3751 13.0131 19.1605 12.2927 19.1605 11.3267C19.1605 10.3607 19.3751 9.64028 19.796 9.12453C20.217 8.61696 20.8029 8.36318 21.5622 8.36318C22.3215 8.36318 22.8992 8.60877 23.3202 9.12453C23.7411 9.64028 23.9557 10.3607 23.9557 11.3267Z" fill="white"/>
<path fill-rule="evenodd" clip-rule="evenodd" d="M27.0596 14.6914C27.0596 14.9206 27.1256 15.1008 27.2659 15.2399C27.3897 15.3791 27.5795 15.4446 27.8024 15.4528C28.0335 15.4528 28.215 15.3873 28.3553 15.2481C28.4956 15.1171 28.5617 14.937 28.5617 14.6996V12.2273H30.6332C31.5081 12.2273 32.1848 12.0144 32.6718 11.5724C33.1587 11.1385 33.4063 10.5245 33.4063 9.74675C33.4063 8.96903 33.1587 8.35504 32.6718 7.92934C32.1848 7.48726 31.5081 7.27441 30.6332 7.27441H27.7859C27.563 7.27441 27.3897 7.33991 27.2576 7.45452C27.1256 7.57732 27.0596 7.74923 27.0596 7.97027V14.6914ZM31.9867 9.76312C31.9867 10.6473 31.4668 11.0975 30.4434 11.0975L28.5617 11.0893V8.42872H30.4434C31.4668 8.42872 31.9867 8.87897 31.9867 9.76312Z" fill="white"/>
<path fill-rule="evenodd" clip-rule="evenodd" d="M41.0895 15.2399C41.2298 15.1089 41.3041 14.9615 41.3041 14.7896C41.3041 14.6832 41.2793 14.5931 41.2463 14.4867L38.0358 7.66732C37.9615 7.51177 37.8542 7.39716 37.7139 7.3153C37.5736 7.24162 37.4251 7.20068 37.26 7.20068C37.0949 7.20068 36.9464 7.23343 36.8061 7.3153C36.6575 7.39716 36.5502 7.51996 36.4842 7.66732L33.2818 14.4867C33.2406 14.5849 33.2158 14.6914 33.2158 14.7896C33.2158 14.9697 33.2818 15.1253 33.4304 15.2399C33.5707 15.3545 33.744 15.42 33.9173 15.42C34.0494 15.42 34.1649 15.3872 34.2722 15.3217C34.3795 15.2562 34.4621 15.158 34.5281 15.0188L35.2297 13.4798H39.2903L39.9918 15.0188C40.0496 15.1498 40.1404 15.2562 40.2477 15.3217C40.355 15.3872 40.4788 15.42 40.5943 15.42C40.7841 15.42 40.9492 15.3545 41.0895 15.2399ZM38.7951 12.3336H35.7331L37.26 8.92804L38.7951 12.3336Z" fill="white"/>
<path fill-rule="evenodd" clip-rule="evenodd" d="M47.0817 7.21717C47.255 7.21717 47.4118 7.28266 47.5521 7.42183C47.6924 7.56101 47.7585 7.70836 47.7585 7.90484C47.7585 8.0522 47.7007 8.20774 47.5851 8.34692L44.9524 11.5315V14.716C44.9524 14.9534 44.8863 15.1336 44.746 15.2727C44.6057 15.4119 44.4324 15.4692 44.2178 15.4692C43.995 15.4692 43.8052 15.4037 43.6649 15.2727C43.5246 15.1417 43.4585 14.9616 43.4585 14.716V11.5315L40.8423 8.33873C40.7267 8.19955 40.6689 8.0522 40.6689 7.89665C40.6689 7.71655 40.735 7.55282 40.8753 7.41365C41.0156 7.27448 41.1806 7.20898 41.3457 7.20898C41.5438 7.20898 41.7006 7.29085 41.8409 7.46277L44.2096 10.3772L46.57 7.46277C46.7103 7.29904 46.8836 7.21717 47.0817 7.21717Z" fill="white"/>
<defs>
<linearGradient id="paint0_linear_1329_12586" x1="51.5605" y1="16.2867" x2="55.7168" y2="14.2551" gradientUnits="userSpaceOnUse">
<stop stop-color="#1FADC3"/>
<stop offset="0.7072" stop-color="#36B98F"/>
</linearGradient>
<linearGradient id="paint1_linear_1329_12586" x1="53.0241" y1="13.0664" x2="53.8032" y2="12.9521" gradientUnits="userSpaceOnUse">
<stop stop-color="#123F06" stop-opacity="0.01"/>
<stop offset="1" stop-color="#123F06"/>
</linearGradient>
<radialGradient id="paint2_radial_1329_12586" cx="0" cy="0" r="1" gradientUnits="userSpaceOnUse" gradientTransform="translate(52.3675 12.8087) scale(2.0123 2.28118)">
<stop offset="0.4185" stop-color="#123F06" stop-opacity="0.01"/>
<stop offset="1" stop-color="#123F06"/>
</radialGradient>
<linearGradient id="paint3_linear_1329_12586" x1="48.7091" y1="11.7447" x2="53.7566" y2="13.5032" gradientUnits="userSpaceOnUse">
<stop stop-color="#9FDB57"/>
<stop offset="1" stop-color="#71CA5E"/>
</linearGradient>
<linearGradient id="paint4_linear_1329_12586" x1="55.3694" y1="16.2888" x2="59.5257" y2="14.2572" gradientUnits="userSpaceOnUse">
<stop stop-color="#1FADC3"/>
<stop offset="0.7072" stop-color="#36B98F"/>
</linearGradient>
<linearGradient id="paint5_linear_1329_12586" x1="56.8697" y1="13.0332" x2="57.6488" y2="12.9189" gradientUnits="userSpaceOnUse">
<stop stop-color="#123F06" stop-opacity="0.01"/>
<stop offset="1" stop-color="#123F06"/>
</linearGradient>
<radialGradient id="paint6_radial_1329_12586" cx="0" cy="0" r="1" gradientUnits="userSpaceOnUse" gradientTransform="translate(56.1746 12.8087) scale(2.0123 2.28118)">
<stop offset="0.4185" stop-color="#123F06" stop-opacity="0.01"/>
<stop offset="1" stop-color="#123F06"/>
</radialGradient>
<linearGradient id="paint7_linear_1329_12586" x1="52.5163" y1="11.7462" x2="57.5638" y2="13.5047" gradientUnits="userSpaceOnUse">
<stop stop-color="#9FDB57"/>
<stop offset="1" stop-color="#71CA5E"/>
</linearGradient>
</defs>
</svg>
