<svg width="41" height="24" viewBox="0 0 41 24" fill="none" xmlns="http://www.w3.org/2000/svg">
<g clip-path="url(#clip0_1329_12585)">
<path d="M24.4996 5.71094H17.2119V18.2901H24.4996V5.71094Z" fill="#FF5F00"/>
<path d="M17.6745 12.0005C17.6733 10.789 17.9591 9.59317 18.5103 8.50349C19.0614 7.4138 19.8634 6.45884 20.8556 5.71089C19.6269 4.78325 18.1513 4.20637 16.5975 4.04618C15.0436 3.88598 13.4742 4.14894 12.0685 4.80499C10.6629 5.46105 9.47781 6.48374 8.64869 7.75615C7.81957 9.02857 7.37988 10.4994 7.37988 12.0005C7.37988 13.5016 7.81957 14.9724 8.64869 16.2448C9.47781 17.5172 10.6629 18.5399 12.0685 19.196C13.4742 19.852 15.0436 20.115 16.5975 19.9548C18.1513 19.7946 19.6269 19.2177 20.8556 18.2901C19.8634 17.5421 19.0614 16.5871 18.5103 15.4975C17.9591 14.4078 17.6733 13.2119 17.6745 12.0005Z" fill="#EB001B"/>
<path d="M34.3307 12.0005C34.3308 13.5015 33.8912 14.9724 33.0621 16.2448C32.233 17.5172 31.0479 18.5399 29.6423 19.1959C28.2367 19.852 26.6673 20.115 25.1135 19.9548C23.5597 19.7946 22.0841 19.2177 20.8555 18.2901C21.8468 17.5414 22.6481 16.5862 23.1992 15.4967C23.7502 14.4072 24.0365 13.2117 24.0365 12.0005C24.0365 10.7892 23.7502 9.59374 23.1992 8.50422C22.6481 7.41471 21.8468 6.45959 20.8555 5.71089C22.0841 4.78325 23.5597 4.20637 25.1135 4.04618C26.6673 3.88598 28.2367 4.14895 29.6423 4.80501C31.0479 5.46107 32.233 6.48376 33.0621 7.75618C33.8912 9.0286 34.3308 10.4994 34.3307 12.0005Z" fill="#F79E1B"/>
<path d="M33.5364 16.958V16.7004H33.6445V16.648H33.3691V16.7004H33.4773V16.958H33.5364ZM34.0709 16.958V16.6475H33.9865L33.8894 16.861L33.7923 16.6475H33.7079V16.958H33.7675V16.7237L33.8585 16.9257H33.9203L34.0114 16.7232V16.958H34.0709Z" fill="#F79E1B"/>
</g>
<defs>
<clipPath id="clip0_1329_12585">
<rect width="41" height="24" fill="white" transform="translate(0 0.000488281)"/>
</clipPath>
</defs>
</svg>
