<svg width="25" height="24" viewBox="0 0 25 24" fill="none" xmlns="http://www.w3.org/2000/svg">
<path d="M12.7563 4.05273C17.4693 4.05273 21.291 7.69586 21.291 12.1885C21.291 16.6812 17.4693 20.3243 12.7563 20.3243C8.04341 20.3243 4.22168 16.6812 4.22168 12.1885C4.22168 7.69586 8.04341 4.05273 12.7563 4.05273Z" fill="url(#paint0_linear_1329_12589)"/>
<path d="M12.7563 4.00049C8.01606 4.00049 4.16699 7.66446 4.16699 12.1884C4.16699 16.7123 8.01059 20.3763 12.7563 20.3763C17.502 20.3763 21.3456 16.7123 21.3456 12.1884C21.3456 7.66446 17.502 4.00049 12.7563 4.00049ZM12.7563 19.4746C8.53547 19.4746 5.11286 16.212 5.11286 12.1884C5.11286 8.1648 8.53547 4.90215 12.7563 4.90215C16.9772 4.90215 20.3998 8.1648 20.3998 12.1884C20.3998 16.212 16.9772 19.4746 12.7563 19.4746Z" fill="#8DC641"/>
<path d="M15.7583 10.3279L13.8447 13.0329H15.7583V10.3279ZM16.48 9.2334V13.0381H17.322V13.7261H16.48V15.1489H15.7529V13.7261H13.0465V12.986L15.7747 9.23861L16.48 9.2334ZM12.2482 14.4557V15.1437H8.19141V15.1229C8.22968 14.4766 8.40464 14.0023 8.74362 13.6114C9.01699 13.2883 9.3505 13.0485 10.0339 12.642C10.0339 12.642 10.2745 12.4961 10.3456 12.4544C10.7119 12.2302 10.947 12.053 11.1383 11.8498C11.3734 11.5892 11.4937 11.3077 11.4937 10.9742C11.4937 10.3279 11.0126 9.88489 10.3237 9.88489C9.51999 9.88489 9.10993 10.4686 9.08806 11.339V11.3546H8.36636V11.339L8.3609 11.1827C8.3609 10.0152 9.15914 9.2334 10.362 9.2334C11.5375 9.2334 12.3029 9.91095 12.3029 10.9585C12.3029 11.4954 12.1006 11.928 11.7124 12.3084C11.4227 12.6003 11.1219 12.7931 10.4495 13.184C10.4385 13.1892 10.4331 13.1944 10.4221 13.1997C10.3893 13.2153 10.2417 13.2987 10.2034 13.3247C9.88084 13.5072 9.68401 13.6375 9.50906 13.7938C9.29583 13.9867 9.15367 14.2003 9.08806 14.4505H12.2482V14.4557Z" fill="white"/>
<defs>
<linearGradient id="paint0_linear_1329_12589" x1="4.22168" y1="12.1885" x2="21.291" y2="12.1885" gradientUnits="userSpaceOnUse">
<stop stop-color="#333333"/>
<stop offset="1"/>
</linearGradient>
</defs>
</svg>
