<svg width="19" height="22" viewBox="0 0 19 22" fill="none" xmlns="http://www.w3.org/2000/svg">
<path d="M18.9762 5.25407C17.5829 5.25403 16.2467 4.70051 15.2615 3.71527C14.2763 2.73004 13.7228 1.39379 13.7229 0.000488281H9.96951V14.6979C9.96881 15.368 9.75723 16.0208 9.36475 16.564C8.97227 17.1071 8.41881 17.5129 7.78281 17.7239C7.14681 17.9349 6.46053 17.9404 5.82124 17.7395C5.18195 17.5387 4.62209 17.1418 4.221 16.605C3.8199 16.0682 3.59793 15.4188 3.58654 14.7488C3.57515 14.0788 3.77492 13.4222 4.15753 12.8721C4.54014 12.322 5.08619 11.9063 5.71828 11.6838C6.35037 11.4614 7.03644 11.4435 7.67925 11.6328V7.9842C6.31317 7.8 4.9234 8.03693 3.69553 8.66337C2.46765 9.28981 1.46011 10.2759 0.807446 11.4901C0.154777 12.7042 -0.111954 14.0886 0.0428692 15.4583C0.197692 16.828 0.766701 18.1179 1.67391 19.1557C2.58113 20.1935 3.78336 20.9299 5.12009 21.2664C6.45681 21.603 7.8644 21.5237 9.1549 21.0393C10.4454 20.5548 11.5574 19.6881 12.3424 18.555C13.1273 17.4219 13.5479 16.0763 13.548 14.6979L13.6575 7.26882C15.1997 8.4009 17.0635 9.01004 18.9766 9.00718L18.9762 5.25407Z" fill="white"/>
</svg>
