<svg width="41" height="24" viewBox="0 0 41 24" fill="none" xmlns="http://www.w3.org/2000/svg">
<path fill-rule="evenodd" clip-rule="evenodd" d="M14.3505 15.6004H12.2215L10.625 9.65835C10.5492 9.38501 10.3883 9.14337 10.1517 9.02948C9.56104 8.74327 8.9102 8.51549 8.2002 8.40061V8.17184H11.6298C12.1031 8.17184 12.4581 8.51549 12.5173 8.9146L13.3457 13.2008L15.4736 8.17184H17.5434L14.3505 15.6004ZM18.7267 15.6004H16.7161L18.3717 8.17183H20.3823L18.7267 15.6004ZM22.9836 10.2298C23.0428 9.82966 23.3978 9.60089 23.812 9.60089C24.4628 9.54345 25.1718 9.65833 25.7634 9.94355L26.1184 8.34414C25.5268 8.11537 24.8759 8.00049 24.2853 8.00049C22.3338 8.00049 20.9138 9.02946 20.9138 10.4575C20.9138 11.5439 21.9197 12.1144 22.6297 12.458C23.3978 12.8007 23.6936 13.0295 23.6345 13.3721C23.6345 13.8861 23.0428 14.1149 22.4522 14.1149C21.7422 14.1149 21.0321 13.9436 20.3823 13.6573L20.0273 15.2577C20.7373 15.543 21.5055 15.6578 22.2155 15.6578C24.4036 15.7143 25.7634 14.6863 25.7634 13.1434C25.7634 11.2003 22.9836 11.0864 22.9836 10.2298ZM32.8001 15.6004L31.2036 8.17183H29.4888C29.1338 8.17183 28.7788 8.40061 28.6605 8.74327L25.7042 15.6004H27.774L28.1871 14.515H30.7303L30.967 15.6004H32.8001ZM29.7847 10.1723L30.3753 12.9721H28.7197L29.7847 10.1723Z" fill="white"/>
</svg>
