<svg xmlns="http://www.w3.org/2000/svg" width="174.204" height="117.504"><g data-name="Group 983"><path data-name="Path 312" d="M155.577 105.17c0 1.841-30.744 3.333-68.666 3.333s-68.668-1.492-68.668-3.333 30.744-3.334 68.668-3.334 68.666 1.494 68.666 3.334z" fill="#bcbec0" opacity=".6" style="mix-blend-mode:multiply;isolation:isolate"/><g data-name="Group 982"><g data-name="Group 981"><g data-name="Group 682"><g data-name="Group 679"><g data-name="Group 678"><path data-name="Path 313" d="M119.325 21.742l-.285-.192c.078-.114 7.748-11.477 9.943-14.659.178-.26.359-.613.209-.819-.637-.867-5.7.295-8.75 1.232l-.1-.328c.83-.255 8.139-2.457 9.127-1.107.219.3.151.706-.2 1.217-2.198 3.184-9.866 14.542-9.944 14.656z" fill="#969595"/></g></g><g data-name="Group 681"><g data-name="Group 680"><path data-name="Path 314" d="M127.133 38.685c-.117-1.268.114-30.808.266-33.988a1.3 1.3 0 00-.488-1.182c-1.553-1.185-6.123.279-6.17.294l-.106-.327c.2-.064 4.791-1.534 6.483-.24a1.641 1.641 0 01.625 1.472c-.155 3.176-.385 32.674-.266 33.938z" fill="#969595"/></g></g></g><g data-name="Group 684"><g data-name="Group 683"><path data-name="Rectangle 127" fill="#969595" d="M116.56 15.658l2.465-3.023.8.651-2.466 3.024z"/></g></g><g data-name="Group 686"><g data-name="Group 685"><path data-name="Rectangle 128" fill="#cf7010" d="M35.373 72.819l.31-2.5 44.222 5.49-.31 2.502z"/></g></g><g data-name="Group 742"><g data-name="Group 735"><g data-name="Group 688"><g data-name="Group 687"><path data-name="Rectangle 129" fill="#969595" d="M139.518 42.848l.344-.014 1.18 28.75-.344.013z"/></g></g><g data-name="Group 690"><g data-name="Group 689"><path data-name="Rectangle 130" fill="#969595" d="M132.124 44.177l.329-.103 8.575 27.483-.328.103z"/></g></g><g data-name="Group 692"><g data-name="Group 691"><path data-name="Rectangle 131" fill="#969595" d="M125.326 47.374l.29-.184 15.397 24.317-.29.184z"/></g></g><g data-name="Group 694"><g data-name="Group 693"><path data-name="Path 315" d="M140.752 71.721l-21.166-19.5.234-.253 21.164 19.5z" fill="#969595"/></g></g><g data-name="Group 696"><g data-name="Group 695"><path data-name="Rectangle 132" fill="#969595" d="M115.298 58.391l.16-.305 25.492 13.357-.16.304z"/></g></g><g data-name="Group 698"><g data-name="Group 697"><path data-name="Path 316" d="M140.831 71.762l-28.078-6.3.074-.336 28.08 6.3z" fill="#969595"/></g></g><g data-name="Group 700"><g data-name="Group 699"><path data-name="Path 317" d="M112.122 72.945l-.014-.344 28.754-1.179.014.343z" fill="#969595"/></g></g><g data-name="Group 702"><g data-name="Group 701"><path data-name="Path 318" d="M113.452 80.339l-.1-.328 27.469-8.581.1.329z" fill="#969595"/></g></g><g data-name="Group 704"><g data-name="Group 703"><path data-name="Rectangle 133" fill="#969595" d="M116.457 86.834l24.317-15.367.184.29-24.317 15.368z"/></g></g><g data-name="Group 706"><g data-name="Group 705"><path data-name="Path 319" d="M121.497 92.877l-.252-.233 19.5-21.166.254.233z" fill="#969595"/></g></g><g data-name="Group 708"><g data-name="Group 707"><path data-name="Rectangle 134" fill="#969595" d="M127.359 97.005l13.353-25.498.305.16-13.353 25.498z"/></g></g><g data-name="Group 710"><g data-name="Group 709"><path data-name="Rectangle 135" fill="#969595" d="M134.406 99.638l6.274-28.087.335.075-6.273 28.087z"/></g></g><g data-name="Group 712"><g data-name="Group 711"><path data-name="Rectangle 136" fill="#969595" d="M140.698 71.602l.344-.014 1.177 28.754-.344.014z"/></g></g><g data-name="Group 714"><g data-name="Group 713"><path data-name="Rectangle 137" fill="#969595" d="M140.706 71.646l.329-.103 8.575 27.483-.328.103z"/></g></g><g data-name="Group 716"><g data-name="Group 715"><path data-name="Rectangle 138" fill="#969595" d="M140.723 71.687l.29-.184 15.4 24.313-.292.184z"/></g></g><g data-name="Group 718"><g data-name="Group 717"><path data-name="Path 320" d="M161.918 91.22l-21.166-19.5.233-.253 21.166 19.5z" fill="#969595"/></g></g><g data-name="Group 720"><g data-name="Group 719"><path data-name="Rectangle 139" fill="#969595" d="M140.79 71.747l.16-.305 25.49 13.356-.16.305z"/></g></g><g data-name="Group 722"><g data-name="Group 721"><path data-name="Path 321" d="M168.911 78.07l-28.08-6.3.076-.335 28.08 6.3z" fill="#969595"/></g></g><g data-name="Group 724"><g data-name="Group 723"><path data-name="Path 322" d="M140.871 71.77l-.014-.343 28.754-1.179.014.344z" fill="#969595"/></g></g><g data-name="Group 726"><g data-name="Group 725"><path data-name="Path 323" d="M140.92 71.759l-.1-.329 27.471-8.581.1.328z" fill="#969595"/></g></g><g data-name="Group 728"><g data-name="Group 727"><path data-name="Rectangle 140" fill="#969595" d="M140.771 71.438l24.327-15.375.184.291-24.327 15.375z"/></g></g><g data-name="Group 730"><g data-name="Group 729"><path data-name="Path 324" d="M140.997 71.711l-.254-.233 19.5-21.166.254.233z" fill="#969595"/></g></g><g data-name="Group 732"><g data-name="Group 731"><path data-name="Rectangle 141" fill="#969595" d="M140.715 71.514l13.353-25.497.305.16-13.353 25.497z"/></g></g><g data-name="Group 734"><g data-name="Group 733"><path data-name="Rectangle 142" fill="#969595" d="M140.709 71.559l6.287-28.083.336.075-6.287 28.083z"/></g></g></g><g data-name="Group 737"><g data-name="Group 736"><path data-name="Path 325" d="M140.871 37.941a33.335 33.335 0 1033.334 33.335 33.336 33.336 0 00-33.334-33.335zm0 62.562a29.227 29.227 0 1129.226-29.227 29.226 29.226 0 01-29.226 29.227z" fill="#353535"/></g></g><g data-name="Group 739"><g data-name="Group 738"><path data-name="Path 326" d="M140.871 40.07a31.205 31.205 0 1031.2 31.205 31.2 31.2 0 00-31.2-31.205zm0 59.728a28.523 28.523 0 1128.523-28.523 28.523 28.523 0 01-28.523 28.524z" fill="#f1f1f1"/></g></g><g data-name="Group 741"><g data-name="Group 740"><path data-name="Path 327" d="M140.871 41.636a29.64 29.64 0 1029.64 29.64 29.639 29.639 0 00-29.64-29.64zm0 58.163a28.523 28.523 0 1128.523-28.523 28.523 28.523 0 01-28.523 28.523z" fill="#cecdcc"/></g></g></g><g data-name="Group 744"><g data-name="Group 743"><path data-name="Path 328" d="M138.797 71.779a2.072 2.072 0 112.073 2.072 2.072 2.072 0 01-2.073-2.072z" fill="#cecdcc"/></g></g><g data-name="Group 746"><g data-name="Group 745"><path data-name="Path 329" d="M110.84 85.487a33.09 33.09 0 0128.912-47.391 32.823 32.823 0 011.985.006 13.632 13.632 0 002.031-2.4 35.6 35.6 0 00-38.691 36.436 35.447 35.447 0 004.13 15.705c.458.26 1.713-2.045 1.633-2.356z" fill="#ea931f"/></g></g><g data-name="Group 748"><g data-name="Group 747"><path data-name="Path 330" d="M141.348 72.539l-.394-.031c-.321-.025-31.991-2.49-33.43-2.578a4.886 4.886 0 01-2.817-1.208.516.516 0 01.709-.749 3.893 3.893 0 002.17.928c1.377.084 29.215 2.25 33.053 2.549 1.2-3.418 10.264-29.113 11.617-33.231a2.3 2.3 0 00-.175-2.171c-1.139-1.575-4.541-1.6-4.577-1.6H128.36l-3.981 3.289a.516.516 0 11-.658-.794l4.268-3.527h19.515c.162 0 3.961.023 5.411 2.024a3.291 3.291 0 01.32 3.1c-1.445 4.4-11.653 33.333-11.756 33.625z" fill="#ea931f"/></g></g><g data-name="Group 749"><path data-name="Path 331" d="M124.381 8.11c-3.484.623-6.039 2.642-5.7 4.511s3.43 2.878 6.914 2.256z" fill="#cecdcc"/></g><g data-name="Group 750"><path data-name="Path 332" d="M119.549 11.97a2.807 2.807 0 011.155-2.493c-1.411.889-2.223 2.042-2.028 3.144.334 1.868 3.43 2.878 6.914 2.256l-.093-.523c-3.073.293-5.645-.691-5.948-2.384z" fill="#969595"/></g><g data-name="Group 751"><path data-name="Path 333" d="M104.204 9.457a.515.515 0 01-.418-.817c.869-1.2 3.648-1.9 7.476-2.74.694-.152 1.361-.3 1.942-.44-.707-.981-1.844-2.682-2.127-3.1a.516.516 0 01.859-.573c1.078 1.618 2.312 3.412 2.514 3.617a.521.521 0 01.131.5.515.515 0 01-.358.365c-.74.208-1.711.422-2.738.648-2.6.573-6.156 1.358-6.863 2.337a.517.517 0 01-.418.203z" fill="#cecdcc"/></g><g data-name="Group 753"><g data-name="Group 752"><path data-name="Path 334" d="M116.622 21.215c-2.9-9.145-2.874-9.275-2.8-9.664.084-.416.187-.615 1.814-2.039.774-.676 1.643-1.4 2.115-1.771.092-.072 2.252-1.772 1.092-3.283-.705-.921-4.443-1.142-7.49-.769l-.293-2.388c1.281-.157 7.768-.816 9.693 1.693 1.807 2.356.475 5.1-1.529 6.65a54.98 54.98 0 00-2.9 2.483c.392 1.374 1.537 5.052 2.586 8.361z" fill="#cecdcc"/></g></g><g data-name="Group 754" fill="#353535"><path data-name="Path 335" d="M112.038 2.403c.084.989-.291 1.884-1.475 1.985l-8.1.693a2 2 0 01-2.3-1.606 2 2 0 011.989-1.973l8.1-.692a1.522 1.522 0 011.782 1.593z"/><path data-name="Path 336" d="M111.538.002c.242-.027.468.238.505.591l.391 3.617c.039.353-.125.66-.367.686l-1.184.128c-.242.026-.468-.239-.506-.591l-.392-3.618c-.037-.353.127-.659.369-.686z"/></g><g data-name="Group 815"><g data-name="Group 759"><g data-name="Group 756"><g data-name="Group 755"><path data-name="Path 337" d="M126.411 14.056a121.923 121.923 0 0113.533-.551 144.988 144.988 0 0114.58.636l-.447 1.3-26.633-.258-1.033-1.125" fill="#af590b"/></g></g><g data-name="Group 758"><g data-name="Group 757"><path data-name="Path 338" d="M140.918 14.408c-7.154 0-13.123-.151-14.507-.352l2.795 14.464c1.064 3.845 2.009 5.949 4.49 5.949h13.47c2.481 0 3.655-2.861 4.491-5.949.826-3.045 2.119-10.022 2.867-14.379-1.543.195-6.604.267-13.606.267z" fill="#cf7010"/></g></g></g><g data-name="Group 814"><g data-name="Group 794" opacity=".5"><g data-name="Group 761"><g data-name="Group 760"><path data-name="Path 339" d="M136.362 16.111h-4.3a.344.344 0 010-.688h4.3a.344.344 0 010 .688z" fill="#f9a326"/></g></g><g data-name="Group 763"><g data-name="Group 762"><path data-name="Path 340" d="M144.271 16.111h-4.3a.344.344 0 010-.688h4.3a.344.344 0 010 .688z" fill="#f9a326"/></g></g><g data-name="Group 765"><g data-name="Group 764"><path data-name="Path 341" d="M151.002 16.111h-4.3a.344.344 0 010-.688h4.3a.344.344 0 110 .688z" fill="#f9a326"/></g></g><g data-name="Group 767"><g data-name="Group 766"><path data-name="Path 342" d="M133.12 17.864h-4.3a.344.344 0 110-.687h4.3a.344.344 0 010 .687z" fill="#f9a326"/></g></g><g data-name="Group 769"><g data-name="Group 768"><path data-name="Path 343" d="M141.028 17.864h-4.3a.344.344 0 110-.687h4.3a.344.344 0 110 .687z" fill="#f9a326"/></g></g><g data-name="Group 771"><g data-name="Group 770"><path data-name="Path 344" d="M147.758 17.864h-4.3a.344.344 0 010-.687h4.3a.344.344 0 110 .687z" fill="#f9a326"/></g></g><g data-name="Group 773"><g data-name="Group 772"><path data-name="Path 345" d="M136.362 19.915h-4.3a.344.344 0 110-.687h4.3a.344.344 0 110 .687z" fill="#f9a326"/></g></g><g data-name="Group 775"><g data-name="Group 774"><path data-name="Path 346" d="M144.271 19.915h-4.3a.344.344 0 110-.687h4.3a.344.344 0 110 .687z" fill="#f9a326"/></g></g><g data-name="Group 777"><g data-name="Group 776"><path data-name="Path 347" d="M151.002 19.915h-4.3a.344.344 0 110-.687h4.3a.344.344 0 110 .687z" fill="#f9a326"/></g></g><g data-name="Group 779"><g data-name="Group 778"><path data-name="Path 348" d="M132.858 22.413h-4.3a.344.344 0 110-.687h4.3a.344.344 0 110 .687z" fill="#f9a326"/></g></g><g data-name="Group 781"><g data-name="Group 780"><path data-name="Path 349" d="M140.771 22.413h-4.3a.344.344 0 010-.687h4.3a.344.344 0 110 .687z" fill="#f9a326"/></g></g><g data-name="Group 783"><g data-name="Group 782"><path data-name="Path 350" d="M147.498 22.413h-4.3a.344.344 0 110-.687h4.3a.344.344 0 110 .687z" fill="#f9a326"/></g></g><g data-name="Group 785"><g data-name="Group 784"><path data-name="Path 351" d="M136.671 24.911h-4.3a.344.344 0 010-.687h4.3a.344.344 0 110 .687z" fill="#f9a326"/></g></g><g data-name="Group 787"><g data-name="Group 786"><path data-name="Path 352" d="M144.584 24.911h-4.3a.344.344 0 110-.687h4.3a.344.344 0 110 .687z" fill="#f9a326"/></g></g><g data-name="Group 789"><g data-name="Group 788"><path data-name="Path 353" d="M151.315 24.911h-4.3a.344.344 0 110-.687h4.3a.344.344 0 110 .687z" fill="#f9a326"/></g></g><g data-name="Group 791"><g data-name="Group 790"><path data-name="Path 354" d="M139.85 27.582h-4.3a.344.344 0 010-.687h4.3a.344.344 0 010 .687z" fill="#f9a326"/></g></g><g data-name="Group 793"><g data-name="Group 792"><path data-name="Path 355" d="M147.758 27.582h-4.3a.344.344 0 010-.687h4.3a.344.344 0 110 .687z" fill="#f9a326"/></g></g></g><g data-name="Group 813" opacity=".5"><g data-name="Group 796"><g data-name="Group 795"><path data-name="Path 356" d="M136.829 29.297h-4.3a.344.344 0 110-.687h4.3a.344.344 0 010 .687z" fill="#f9a326"/></g></g><g data-name="Group 798"><g data-name="Group 797"><path data-name="Path 357" d="M144.739 29.297h-4.3a.344.344 0 110-.687h4.3a.344.344 0 010 .687z" fill="#f9a326"/></g></g><g data-name="Group 800"><g data-name="Group 799"><path data-name="Path 358" d="M150.971 29.297h-3.8a.344.344 0 010-.687h3.8a.344.344 0 110 .687z" fill="#f9a326"/></g></g><g data-name="Group 802"><g data-name="Group 801"><path data-name="Path 359" d="M133.584 31.05h-3.033a.344.344 0 110-.687h3.033a.344.344 0 110 .687z" fill="#f9a326"/></g></g><g data-name="Group 804"><g data-name="Group 803"><path data-name="Path 360" d="M141.495 31.05h-4.3a.344.344 0 010-.687h4.3a.344.344 0 010 .687z" fill="#f9a326"/></g></g><g data-name="Group 806"><g data-name="Group 805"><path data-name="Path 361" d="M148.225 31.05h-4.3a.344.344 0 010-.687h4.3a.344.344 0 110 .687z" fill="#f9a326"/></g></g><g data-name="Group 808"><g data-name="Group 807"><path data-name="Path 362" d="M136.829 33.101h-4.3a.344.344 0 110-.687h4.3a.344.344 0 010 .687z" fill="#f9a326"/></g></g><g data-name="Group 810"><g data-name="Group 809"><path data-name="Path 363" d="M144.739 33.101h-4.3a.344.344 0 110-.687h4.3a.344.344 0 010 .687z" fill="#f9a326"/></g></g><g data-name="Group 812"><g data-name="Group 811"><path data-name="Path 364" d="M149.481 33.101h-2.315a.344.344 0 010-.687h2.315a.344.344 0 110 .687z" fill="#f9a326"/></g></g></g></g></g><g data-name="Group 816"><path data-name="Path 365" d="M120.942 11.081a.335.335 0 01-.178-.051.344.344 0 01-.115-.472c.121-.2.666-.692 3.137-1.049a.344.344 0 01.1.681c-2.148.31-2.627.716-2.668.754a.342.342 0 01-.276.137z" fill="#fff" opacity=".5"/></g><g data-name="Group 878"><g data-name="Group 872"><g data-name="Group 865"><g data-name="Group 818"><g data-name="Group 817"><path data-name="Rectangle 143" fill="#969595" d="M34.033 42.848l.344-.014 1.18 28.75-.344.013z"/></g></g><g data-name="Group 820"><g data-name="Group 819"><path data-name="Rectangle 144" fill="#969595" d="M26.639 44.177l.328-.103 8.58 27.47-.328.102z"/></g></g><g data-name="Group 822"><g data-name="Group 821"><path data-name="Rectangle 145" fill="#969595" d="M19.84 47.375l.29-.184 15.397 24.317-.29.184z"/></g></g><g data-name="Group 824"><g data-name="Group 823"><path data-name="Rectangle 146" fill="#969595" d="M14.101 52.223l.234-.254 21.152 19.512-.234.253z"/></g></g><g data-name="Group 826"><g data-name="Group 825"><path data-name="Path 366" d="M35.304 71.747L9.813 58.391l.159-.3 25.491 13.356z" fill="#969595"/></g></g><g data-name="Group 828"><g data-name="Group 827"><path data-name="Rectangle 147" fill="#969595" d="M7.267 65.459l.075-.336 28.08 6.304-.076.335z"/></g></g><g data-name="Group 830"><g data-name="Group 829"><path data-name="Path 367" d="M6.637 72.945l-.015-.344 28.754-1.179.015.343z" fill="#969595"/></g></g><g data-name="Group 832"><g data-name="Group 831"><path data-name="Rectangle 148" fill="#969595" d="M7.852 79.973l27.483-8.518.102.328-27.483 8.519z"/></g></g><g data-name="Group 834"><g data-name="Group 833"><path data-name="Rectangle 149" fill="#969595" d="M10.989 86.863l24.292-15.43.184.29-24.292 15.43z"/></g></g><g data-name="Group 836"><g data-name="Group 835"><path data-name="Rectangle 150" fill="#969595" d="M15.76 92.646l19.483-21.181.254.233-19.484 21.18z"/></g></g><g data-name="Group 838"><g data-name="Group 837"><path data-name="Path 368" d="M22.179 97.17l-.3-.16 13.356-25.491.3.16z" fill="#969595"/></g></g><g data-name="Group 840"><g data-name="Group 839"><path data-name="Rectangle 151" fill="#969595" d="M28.913 99.636l6.303-28.08.335.076-6.303 28.08z"/></g></g><g data-name="Group 842"><g data-name="Group 841"><path data-name="Rectangle 152" fill="#969595" d="M35.212 71.602l.343-.014 1.178 28.754-.342.014z"/></g></g><g data-name="Group 844"><g data-name="Group 843"><path data-name="Rectangle 153" fill="#969595" d="M35.219 71.646l.328-.103 8.582 27.47-.329.103z"/></g></g><g data-name="Group 846"><g data-name="Group 845"><path data-name="Rectangle 154" fill="#969595" d="M35.239 71.686l.29-.184 15.397 24.317-.29.184z"/></g></g><g data-name="Group 848"><g data-name="Group 847"><path data-name="Rectangle 155" fill="#969595" d="M35.267 71.721l.233-.253 21.166 19.498-.233.253z"/></g></g><g data-name="Group 850"><g data-name="Group 849"><path data-name="Path 369" d="M60.795 85.103L35.304 71.747l.159-.305 25.491 13.356z" fill="#969595"/></g></g><g data-name="Group 852"><g data-name="Group 851"><path data-name="Rectangle 156" fill="#969595" d="M35.346 71.762l.075-.336 28.08 6.304-.076.336z"/></g></g><g data-name="Group 854"><g data-name="Group 853"><path data-name="Path 370" d="M35.391 71.77l-.015-.343 28.754-1.179.015.344z" fill="#969595"/></g></g><g data-name="Group 856"><g data-name="Group 855"><path data-name="Rectangle 157" fill="#969595" d="M35.332 71.429l27.47-8.577.103.328-27.47 8.577z"/></g></g><g data-name="Group 858"><g data-name="Group 857"><path data-name="Rectangle 158" fill="#969595" d="M35.284 71.438l24.327-15.375.184.291L35.468 71.73z"/></g></g><g data-name="Group 860"><g data-name="Group 859"><path data-name="Rectangle 159" fill="#969595" d="M35.261 71.482l19.483-21.18.252.232-19.483 21.18z"/></g></g><g data-name="Group 862"><g data-name="Group 861"><path data-name="Rectangle 160" fill="#969595" d="M35.213 71.505l13.394-25.471.305.16-13.395 25.471z"/></g></g><g data-name="Group 864"><g data-name="Group 863"><path data-name="Rectangle 161" fill="#969595" d="M35.216 71.557l6.303-28.08.336.076-6.303 28.08z"/></g></g></g><g data-name="Group 867"><g data-name="Group 866"><path data-name="Path 371" d="M35.383 38.26a33.335 33.335 0 1033.335 33.335A33.335 33.335 0 0035.383 38.26zm0 62.561a29.227 29.227 0 1129.228-29.226 29.227 29.227 0 01-29.228 29.226z" fill="#353535"/></g></g><g data-name="Group 869"><g data-name="Group 868"><path data-name="Path 372" d="M35.383 40.39a31.205 31.205 0 1031.2 31.205 31.205 31.205 0 00-31.2-31.205zm0 59.728a28.523 28.523 0 1128.525-28.523 28.523 28.523 0 01-28.525 28.523z" fill="#f1f1f1"/></g></g><g data-name="Group 871"><g data-name="Group 870"><path data-name="Path 373" d="M35.383 41.954a29.641 29.641 0 1029.641 29.641 29.641 29.641 0 00-29.641-29.641zm0 58.164a28.523 28.523 0 1128.525-28.523 28.523 28.523 0 01-28.525 28.523z" fill="#cecdcc"/></g></g></g><g data-name="Group 877"><g data-name="Group 874"><g data-name="Group 873"><path data-name="Path 374" d="M2.613 65.527a33.364 33.364 0 0166.068 4.207c.621.8 1.525 1.665 2.465 1.527A35.769 35.769 0 000 66.548c.586.447 1.436.422 2.613-1.021z" fill="#ea931f"/></g></g><g data-name="Group 876"><g data-name="Group 875"><path data-name="Path 375" d="M19.181 41.484A34.34 34.34 0 0165.799 55.77l.281-.229A34.732 34.732 0 0019.197 41.07z" fill="#fff" opacity=".5"/></g></g></g></g><g data-name="Group 883"><g data-name="Group 880"><g data-name="Group 879"><path data-name="Path 376" d="M31.489 71.595a3.9 3.9 0 113.894 3.894 3.894 3.894 0 01-3.894-3.894z" fill="#cecdcc"/></g></g><g data-name="Group 882"><g data-name="Group 881"><path data-name="Path 377" d="M81.51 87.159c-.438-.11-43.9-11.05-45.973-11.5s-2.516-.738-3.567-1.863a3.781 3.781 0 01-.442-3.711 4.4 4.4 0 012.646-2.37c1.061-.188 8.851.143 9.182.157l.229.01-.34.991-.325-.112.191-.555c-1.326-.054-7.951-.317-8.876-.153a4.076 4.076 0 00-2.393 2.171 3.431 3.431 0 00.4 3.363c.934 1 1.27 1.281 3.368 1.737s45.546 11.393 45.985 11.5z" fill="#353535"/></g></g></g><g data-name="Group 886"><g data-name="Group 885"><g data-name="Group 884"><path data-name="Path 378" d="M35.537 72.011a.515.515 0 01-.4-.835l28.287-35.758a.516.516 0 01.809.64L35.946 71.815a.515.515 0 01-.409.196z" fill="#ea931f"/></g></g></g><g data-name="Group 889"><g data-name="Group 888"><g data-name="Group 887"><path data-name="Path 379" d="M35.383 71.888a.511.511 0 01-.321-.113L7.916 50.059a.515.515 0 11.644-.805L35.706 70.97a.515.515 0 01-.323.918z" fill="#ea931f"/></g></g></g><g data-name="Group 892"><g data-name="Group 891"><g data-name="Group 890"><path data-name="Path 380" d="M35.481 71.919a.515.515 0 01-.44-.246c-.177-.289-17.711-28.884-18.891-30.566a9.2 9.2 0 01-1.979-4.237 3.319 3.319 0 01.819-2.7c1.115-1.22 3.246-1.817 6.343-1.78h.136l1.56-.012c22.624-.188 26-.083 26.412.03.968.264 8.532 6.05 10.827 7.817.226.174.036.244-.138.47s-.265.521-.491.347c-3.663-2.82-9.746-7.389-10.476-7.641-.468-.088-5.4-.164-26.125.008l-1.569.011h-.148c-3.471-.046-4.946.762-5.57 1.444a2.291 2.291 0 00-.556 1.886 8.34 8.34 0 001.8 3.768c1.2 1.708 18.2 29.439 18.926 30.619a.515.515 0 01-.17.709.508.508 0 01-.27.073z" fill="#ea931f"/></g></g></g><g data-name="Group 894"><g data-name="Group 893"><path data-name="Path 381" d="M101.827 55.67a.521.521 0 01-.348-.135l-2.635-2.406a.517.517 0 11.7-.761l2.634 2.406a.515.515 0 01-.347.9z" fill="#ea931f"/></g></g><g data-name="Group 896"><g data-name="Group 895"><path data-name="Path 382" d="M121.522 33.293l1.824 1.739-35.075 36.812-1.867-1.724z" fill="#ea931f"/></g></g><path data-name="Path 383" d="M122.94 34.646l-35 36.725-1.457-1.344-.088.093 1.867 1.724 35.08-36.811z" fill="#cf7010" opacity=".5"/><g data-name="Group 898"><g data-name="Group 897"><path data-name="Path 384" d="M85.565 59.985q-.689 0-1.38-.067a21.431 21.431 0 01-15.137-8.6 1.203 1.203 0 111.925-1.443 18.762 18.762 0 0013.444 7.644c5.988.581 11.97-3.451 17.787-11.982 7.615-11.169 14.679-23.959 14.75-24.087a1.203 1.203 0 112.107 1.16c-.07.129-7.188 13.017-14.871 24.282-5.926 8.697-12.186 13.093-18.625 13.093z" fill="#ea931f"/></g></g><path data-name="Path 385" d="M118.995 21.357a.558.558 0 01-.024.056c-.07.129-7.187 13.016-14.869 24.282-5.928 8.691-12.187 13.087-18.627 13.087q-.689 0-1.379-.067a21.426 21.426 0 01-15.137-8.6c-.01-.013-.016-.029-.026-.042a1.2 1.2 0 00.115 1.245 21.431 21.431 0 0015.137 8.6q.691.066 1.38.067c6.439 0 12.7-4.4 18.625-13.088 7.683-11.265 14.8-24.153 14.871-24.282a1.194 1.194 0 00-.066-1.258z" fill="#cf7010" opacity=".5"/><g data-name="Group 930"><g data-name="Group 913"><g data-name="Group 901"><g data-name="Group 900"><g data-name="Group 899"><path data-name="Path 386" d="M53.412 27.834a.344.344 0 01-.144-.656c.222-.1.7-.335 1.107-.574a14.865 14.865 0 01-2.1-.061c-.471-.051-.957-.1-.967-.5-.012-.429.426-.5 2.051-.759l.038-.006c-.383-.04-.78-.066-1.085-.066-.458 0-1.077-.052-1.167-.5-.04-.2.05-.463.419-.617a3.427 3.427 0 01.75-.112c.294-.032.885-.1 1.35-.174l-.349-.046a10.524 10.524 0 01-1.347-.236c-.154-.039-.622-.161-.622-.561 0-.149 0-.544 1.438-.92a.344.344 0 11.173.666 5.453 5.453 0 00-.613.2c.366.081.732.128 1.059.17.74.095 1.274.164 1.457.576a.422.422 0 01-.021.386c-.142.247-.5.378-1.574.52.842.062 1.928.229 1.974.676.04.391-.42.486-.616.526-.26.053-.593.109-.932.164.3 0 .571-.009.8-.017.671-.023.98-.033 1.1.27a.455.455 0 01-.178.532 3.242 3.242 0 01-.412.308c2.212-.176 5.978-.483 6.652-.6.081-.014.162-.027.246-.039.891-.135 2-.3 4.529-3.4a.344.344 0 11.533.434c-2.7 3.308-3.951 3.5-4.96 3.65l-.23.037c-.993.173-8.041.712-8.341.734z" fill="#969595"/></g></g></g><g data-name="Group 912"><g data-name="Group 908"><g data-name="Group 904"><g data-name="Group 903"><g data-name="Group 902"><path data-name="Rectangle 162" fill="#cecdcc" d="M59.137 24.695l1.921-.727 2.86 7.552-1.921.728z"/></g></g></g><g data-name="Group 907"><g data-name="Group 906"><g data-name="Group 905" opacity=".5"><path data-name="Rectangle 163" fill="#969595" d="M59.199 24.856l.704-.267 2.798 7.394-.704.266z"/></g></g></g></g><g data-name="Group 911"><g data-name="Group 910"><g data-name="Group 909"><path data-name="Path 387" d="M64.571 31.377a.436.436 0 01-.24.567l-2.271.9a.436.436 0 01-.563-.25l-.438-1.108a.436.436 0 01.239-.567l2.272-.9a.434.434 0 01.562.25z" fill="#969595"/></g></g></g></g></g><g data-name="Group 916"><g data-name="Group 915"><g data-name="Group 914"><path data-name="Path 388" d="M58.971 19.028c-2.534-.05-9.472-.408-10.392 1.29a2.831 2.831 0 00-.311 2.361.606.606 0 001.026-.087c.331-.667 1.583-1.368 4.349.963 1.964 1.473 4.713 3.019 9.353 1.129s7.56-1.833 8.476-1.661 2.463.553 2.463-.726-1.493-2.637-5.77-3.1a70.788 70.788 0 00-9.194-.169z" fill="#353535"/></g></g></g><g data-name="Group 919"><g data-name="Group 918"><g data-name="Group 917" opacity=".2"><path data-name="Path 389" d="M71.471 21.777c-.916-.172-3.838-.229-8.476 1.661s-7.389.344-9.353-1.128c-2.766-2.332-4.018-1.631-4.349-.964a.606.606 0 01-1.026.088.671.671 0 01-.055-.145 2.324 2.324 0 00.055 1.39.606.606 0 001.026-.087c.331-.667 1.583-1.368 4.349.963 1.964 1.473 4.713 3.019 9.353 1.129s7.56-1.833 8.476-1.661 2.463.553 2.463-.726a1.67 1.67 0 00-.152-.686c-.411.582-1.568.306-2.311.166z"/></g></g></g><g data-name="Group 929" opacity=".5"><g data-name="Group 922"><g data-name="Group 921"><g data-name="Group 920"><path data-name="Path 390" d="M73.471 22.077l-.181-.292a.517.517 0 00.179-.184l.3.173a.864.864 0 01-.298.303z" fill="#969595"/></g></g></g><g data-name="Group 925"><g data-name="Group 924"><g data-name="Group 923"><path data-name="Path 391" d="M59.109 24.613l-.005-.344c.225 0 .455-.016.684-.038l.034.342c-.24.023-.479.037-.713.04zm-.358 0a7.572 7.572 0 01-.711-.056l.041-.341c.224.028.453.046.681.053zm1.424-.079l-.047-.341c.222-.03.45-.07.677-.118l.071.336c-.235.047-.471.089-.705.12zm-2.49-.029a7.366 7.366 0 01-.7-.158l.092-.331c.217.06.441.111.665.15zm3.537-.174l-.082-.334c.216-.054.437-.115.662-.186l.1.328c-.231.07-.457.131-.68.189zm-4.577-.087a7.884 7.884 0 01-.669-.253l.137-.316c.211.092.426.173.638.243zm5.6-.216l-.113-.325c.211-.073.427-.153.647-.242l.129.318c-.228.091-.45.171-.665.246zm-6.591-.185c-.208-.1-.42-.213-.629-.335l.173-.3c.2.117.4.226.605.322zm7.577-.2l-.129-.319c.223-.09.44-.175.655-.257l.121.322q-.318.121-.649.255zm-8.511-.323c-.2-.128-.4-.26-.589-.394l.2-.28c.183.13.374.259.573.383zm9.485-.052l-.119-.323c.226-.083.448-.16.664-.233l.11.325c-.216.073-.435.15-.657.233zm.985-.339l-.106-.327c.231-.075.456-.143.674-.207l.1.33c-.222.064-.443.131-.67.205zm-11.345-.211l-.191-.144a19.106 19.106 0 00-.359-.3l.215-.269c.116.094.237.194.36.3l.18.135zm12.343-.088l-.091-.331q.352-.1.682-.176l.081.334a40.09 40.09 0 00-.674.174zm1.01-.251l-.075-.336q.36-.08.691-.14l.062.338q-.328.061-.68.139zm5.459-.115c-.1 0-.209-.006-.316-.015l.032-.343a2.274 2.274 0 00.644-.019l.072.336a2.026 2.026 0 01-.434.047zm-.674-.06c-.191-.03-.378-.066-.549-.1l-.144-.028.064-.338.146.029c.167.033.35.069.536.1zm-3.766-.022l-.055-.34c.246-.04.479-.072.7-.1l.04.341q-.331.041-.687.1zm-15.196-.112a8.279 8.279 0 00-.564-.391l.184-.29c.189.119.386.256.586.4zm16.223-.018l-.032-.342c.255-.024.492-.039.707-.046l.012.343q-.315.009-.687.043zm1.712-.02c-.2-.02-.433-.03-.681-.031v-.343a7.105 7.105 0 01.715.033zm-22-.051a.826.826 0 01-.1-.006l.042-.342a.374.374 0 00.409-.212l.3.163a.725.725 0 01-.648.395zm3.206-.477a4.787 4.787 0 00-.607-.295l.127-.32a5.317 5.317 0 01.649.315zm-2.383-.173l-.251-.234a1.354 1.354 0 01.684-.39l.08.334a1 1 0 00-.51.288zm1.461-.231a2.228 2.228 0 00-.617-.1l-.028-.344a2.607 2.607 0 01.74.11z" fill="#969595"/></g></g></g><g data-name="Group 928"><g data-name="Group 927"><g data-name="Group 926"><path data-name="Path 392" d="M48.435 21.789a.57.57 0 01-.118-.139 1.075 1.075 0 01-.089-.252l.335-.079a.686.686 0 00.05.156.214.214 0 00.048.055z" fill="#969595"/></g></g></g></g></g><g data-name="Group 941"><g data-name="Group 933"><g data-name="Group 932"><g data-name="Group 931"><path data-name="Rectangle 164" fill="#ea931f" d="M61.603 31.929l2.357-.892 14.457 38.19-2.357.892z"/></g></g></g><g data-name="Group 936"><g data-name="Group 935"><g data-name="Group 934" opacity=".5"><path data-name="Rectangle 165" fill="#cf7010" d="M61.605 31.928l1.096-.415 14.422 38.11-1.096.415z"/></g></g></g><g data-name="Group 940"><g data-name="Group 939"><g data-name="Group 938" opacity=".4"><g data-name="Group 937"><path data-name="Path 393" d="M64.05 34.908l.51 1.244c.324.792.774 1.929 1.321 3.289s1.162 2.958 1.833 4.664 1.364 3.535 2.067 5.359 1.379 3.661 2.024 5.376 1.227 3.326 1.735 4.7.913 2.529 1.2 3.334l.447 1.269-.51-1.245-1.321-3.289c-.535-1.366-1.175-2.953-1.833-4.664s-1.363-3.535-2.067-5.359l-2.024-5.376-1.734-4.7c-.507-1.375-.913-2.529-1.2-3.334z" fill="#fff"/></g></g></g></g></g><g data-name="Group 973"><g data-name="Group 968"><g data-name="Group 944"><g data-name="Group 943"><g data-name="Group 942"><path data-name="Path 394" d="M81.437 68.17c-.046-.036.054.01 0 0-2.1-.4-41.6-2.105-41.6-2.105a17.064 17.064 0 01-2.758 3.488 7.916 7.916 0 00-1.133 1.431s-.146-.566-.4.894l.032.013-.285.048s2.392.856 2.593 2.145a8.5 8.5 0 005.5 7.016l.038.011.029.009c13.156 3.86 36.454 7.84 36.454 7.84.308.028.621.044.936.044a10.4 10.4 0 0010.4-10.4 10.592 10.592 0 00-9.806-10.434zM65.771 81.881a5.192 5.192 0 01-.71-.053h-.006l-.073-.016a5.129 5.129 0 01-.684-.147c-3.492-.753-17.987-3.914-19.936-4.92a3.522 3.522 0 01.989-6.9 3.29 3.29 0 01.412.027c2.892.183 20.162 1.288 21 1.528a5.286 5.286 0 01-1 10.477z" fill="#ea931f"/></g></g></g><g data-name="Group 951"><g data-name="Group 947"><g data-name="Group 946"><g data-name="Group 945" opacity=".7"><path data-name="Path 395" d="M80.835 86.445a7.835 7.835 0 117.835-7.835 7.844 7.844 0 01-7.835 7.835zm0-15.327a7.492 7.492 0 107.492 7.492 7.5 7.5 0 00-7.492-7.492z" fill="#fff"/></g></g></g><g data-name="Group 950"><g data-name="Group 949"><g data-name="Group 948" opacity=".7"><path data-name="Path 396" d="M65.771 83.084c-.159 0-.321-.007-.494-.022l-.5-.061a6.391 6.391 0 01-.775-.166c-5.1-1.1-17.287-3.787-19.928-4.9l-.328-.127a4.724 4.724 0 011.606-9.167 4.855 4.855 0 01.522.03c8.974.57 19.936 1.3 21.15 1.554l.076.015a6.489 6.489 0 01-1.329 12.844zm-20.421-14.1a4.381 4.381 0 00-1.486 8.5l.336.13c2.62 1.1 14.778 3.781 19.883 4.883a6.527 6.527 0 00.739.159l.49.059c.156.014.308.02.459.02a6.145 6.145 0 001.257-12.16l-.075-.016c-.946-.2-8.246-.731-21.111-1.547a4.443 4.443 0 00-.489-.025z" fill="#fff"/></g></g></g></g><g data-name="Group 967"><g data-name="Group 954"><g data-name="Group 953"><g data-name="Group 952"><path data-name="Path 397" d="M92.413 93.787a1.381 1.381 0 01-1.926-.324L78.746 78.839c-.477-.627.062-1.729.65-2.176.588-.447 1.766-.6 2.242.028l10.978 15.153a1.384 1.384 0 01-.2 1.943z" fill="#cecdcc"/></g></g></g><g data-name="Group 957"><g data-name="Group 956"><g data-name="Group 955"><circle data-name="Ellipse 5" cx="1.179" cy="1.179" r="1.179" transform="translate(79.685 77.342)" fill="#353535"/></g></g></g><g data-name="Group 960"><g data-name="Group 959"><g data-name="Group 958"><path data-name="Path 398" d="M87.666 94.012a2.385 2.385 0 012.385-2.386h3.772a2.386 2.386 0 012.386 2.386 2.385 2.385 0 01-2.386 2.385h-3.772a2.385 2.385 0 01-2.385-2.385z" fill="#969595"/></g></g></g><g data-name="Group 963"><g data-name="Group 962"><g data-name="Group 961"><path data-name="Path 399" d="M90.758 94.047a1.179 1.179 0 111.18 1.179 1.179 1.179 0 01-1.18-1.179z" fill="#353535"/></g></g></g><g data-name="Group 966"><g data-name="Group 965"><g data-name="Group 964" opacity=".5"><path data-name="Path 400" d="M90.413 90.744a.345.345 0 01-.274-.134l-8.028-10.482a.344.344 0 01.546-.418l8.029 10.481a.345.345 0 01-.064.482.341.341 0 01-.209.071z" fill="#fff"/></g></g></g></g></g><g data-name="Group 972"><g data-name="Group 971"><g data-name="Group 970" opacity=".5"><g data-name="Group 969"><path data-name="Path 401" d="M80.864 69.302s.227-.017.624-.036l.329-.014.391.027.451.034a4.654 4.654 0 01.49.084l.533.1.555.174a8.809 8.809 0 011.167.475 9.307 9.307 0 011.148.711 10.812 10.812 0 011.072.9 10.7 10.7 0 01.9 1.073 9.356 9.356 0 01.711 1.148 8.505 8.505 0 01.476 1.167l.174.555c.037.184.071.363.106.533a4.906 4.906 0 01.082.49l.033.447.027.39c.008.121-.009.232-.013.333-.018.4-.037.626-.037.626s-.04-.227-.1-.617l-.049-.322c-.018-.122-.057-.24-.09-.373a7.135 7.135 0 00-.238-.878l-.162-.492-.215-.509a3.566 3.566 0 00-.248-.525c-.1-.173-.184-.354-.279-.536a12.4 12.4 0 00-.712-1.041 10.243 10.243 0 00-.851-.983 9.947 9.947 0 00-.982-.85 11.9 11.9 0 00-1.041-.714c-.182-.094-.363-.184-.536-.28a3.793 3.793 0 00-.526-.248l-.509-.214-.491-.161a7.26 7.26 0 00-.875-.239l-.372-.089-.326-.049c-.393-.057-.617-.097-.617-.097z" fill="#fff"/></g></g></g></g></g><g data-name="Group 975"><g data-name="Group 974"><circle data-name="Ellipse 6" cx="1.179" cy="1.179" r="1.179" transform="translate(34.205 70.416)" fill="#353535"/></g></g><path data-name="Path 402" d="M141.565 70.858c-.065-.075-6.527-7.447-8.541-10.077-1.34-1.749-5.176-13.808-7.5-21.721l.068-.034-6.588-18.619-2.375.841 6.7 18.874c1.476 5 5.912 19.675 7.787 22.123 2.062 2.693 8.375 9.894 8.642 10.2a1.203 1.203 0 101.809-1.585z" fill="#ea931f"/><path data-name="Path 403" d="M140.719 72.329c-.267-.3-6.58-7.507-8.642-10.2-1.875-2.447-6.311-17.125-7.787-22.122l-6.7-18.874 1.483-.525-.071-.2-2.375.841 6.7 18.874c1.476 5 5.912 19.675 7.787 22.123 2.062 2.693 8.375 9.894 8.642 10.2a1.2 1.2 0 001.522.239 1.189 1.189 0 01-.559-.356z" fill="#cf7010" opacity=".4"/><g data-name="Group 976"><path data-name="Path 404" d="M120.871 43.478s-.717.564-1.739 1.452a60.18 60.18 0 00-1.707 1.548c-.3.293-.619.591-.929.906s-.629.628-.93.96c-.317.318-.613.653-.906.984s-.575.659-.846.981-.522.64-.764.942l-.349.441-.313.423c-.2.272-.387.521-.553.742s-.293.424-.406.587c-.228.325-.367.508-.367.508s.086-.21.248-.575c.084-.182.186-.4.3-.656s.279-.523.447-.821l.262-.468.314-.479c.217-.328.436-.683.7-1.018s.516-.706.819-1.04.589-.693.908-1.023.642-.654.969-.964.668-.6.988-.881.656-.531.969-.769.615-.452.9-.64a16.268 16.268 0 011.414-.86c.363-.188.571-.28.571-.28z" fill="#fff" opacity=".5"/></g><g data-name="Group 978"><g data-name="Group 977"><path data-name="Path 405" d="M139.69 71.779a1.178 1.178 0 111.18 1.179 1.178 1.178 0 01-1.18-1.179z" fill="#353535"/></g></g><g data-name="Group 980"><g data-name="Group 979"><path data-name="Rectangle 166" d="M116.15 19.71l2.311-.794a.431.431 0 01.544.27l.393 1.144a.43.43 0 01-.267.546l-2.306.793a.431.431 0 01-.548-.269l-.393-1.143a.43.43 0 01.267-.547z" fill="#969595"/></g></g></g></g></g></svg>