<svg width="81" height="80" viewBox="0 0 81 80" fill="none" xmlns="http://www.w3.org/2000/svg">
<path d="M10.2245 60C10.2245 69.9411 18.2834 78 28.2245 78L65.2245 78C67.9859 78 70.2245 75.7614 70.2245 73L70.2245 28C70.2245 22.4771 65.7473 18 60.2245 18L15.2245 18C12.4631 18 10.2245 20.2386 10.2245 23L10.2245 60Z" fill="#8FCDEA" fill-opacity="0.2"/>
<path d="M30.584 45.1664C33.3197 45.1664 35.5374 42.9487 35.5374 40.213C35.5374 37.4774 33.3197 35.2596 30.584 35.2596C27.8483 35.2596 25.6306 37.4774 25.6306 40.213C25.6306 42.9487 27.8483 45.1664 30.584 45.1664Z" fill="#333842"/>
<path d="M49.2258 45.1664C51.9615 45.1664 54.1792 42.9487 54.1792 40.213C54.1792 37.4774 51.9615 35.2596 49.2258 35.2596C46.4901 35.2596 44.2724 37.4774 44.2724 40.213C44.2724 42.9487 46.4901 45.1664 49.2258 45.1664Z" fill="#333842"/>
<path d="M72.5015 55.3928C72.0754 53.8482 70.8504 52.6232 69.3057 52.1971L49.9715 47.1904L46.1899 49.8003L40.2245 48.8416L34.2591 49.8003L30.4775 47.1904L11.1433 52.2503C9.59869 52.6764 8.37366 53.8482 7.94756 55.4461L6.40295 61.3049C13.4868 72.5433 26.0035 80 40.2245 80C54.4456 80 66.9622 72.5433 74.0461 61.3049L72.5015 55.3928Z" fill="#886C60"/>
<path d="M32.8743 34.0879H47.5747V48.8415H32.8743V34.0879Z" fill="#FBCB9D"/>
<path d="M39.9049 42.5033C48.8768 42.5033 56.1499 33.5848 56.1499 22.5832C56.1499 11.5816 48.8768 2.66309 39.9049 2.66309C30.933 2.66309 23.6599 11.5816 23.6599 22.5832C23.6599 33.5848 30.933 42.5033 39.9049 42.5033Z" fill="#393D47"/>
<path d="M29.6253 25.2463H26.536C26.2165 26.2583 26.0567 27.6431 26.1099 29.1345C26.2697 32.1172 27.3882 34.4607 28.6133 34.4075C29.785 34.3542 30.584 31.8509 30.4242 28.8682C30.3709 27.4834 30.0514 26.2051 29.6253 25.2463ZM50.1845 25.2463C49.7584 26.2051 49.4921 27.4301 49.3856 28.8682C49.2258 31.8509 50.0247 34.3009 51.1965 34.4075C52.3683 34.4607 53.4868 32.1172 53.6998 29.1345C53.8064 27.6431 53.6466 26.2583 53.2737 25.2463H50.1845Z" fill="#FBCB9D"/>
<path d="M32.608 16.4048C32.2884 18.4288 32.0754 20.3995 31.8623 22.4235C32.1819 22.0506 32.4482 21.5713 32.5547 21.1452V22.2637C32.821 21.8909 32.9276 21.4648 32.9276 21.0387C33.0341 21.4115 33.0873 21.7843 33.1939 22.1572C33.5134 21.4115 33.7797 20.6126 34.0993 19.8669C34.2058 20.7191 34.3656 21.6245 34.4722 22.4767C35.0048 21.8376 35.2178 20.9854 35.058 20.1865C35.2711 20.9854 35.3776 21.7843 35.4309 22.6365C35.8037 21.0387 35.9635 19.3343 35.9102 17.6831C35.857 19.4941 35.9102 21.3582 35.9635 23.1692L36.4429 19.6538C36.3896 20.5593 36.4961 21.518 36.7092 22.4235C37.0287 21.9441 37.1353 21.3582 37.0287 20.7724C37.082 21.4115 37.1885 21.9974 37.2418 22.6365C37.4548 21.9974 37.6146 21.305 37.6679 20.6658C37.7212 21.3582 37.7212 22.0506 37.7744 22.7431C37.9342 21.6778 38.1473 20.6126 38.307 19.5473C38.307 20.3995 38.4136 21.1985 38.5734 21.9974C38.8397 20.8256 38.9995 19.6006 38.9995 18.3755C39.1592 19.5473 39.2658 20.7724 39.4256 21.9441C39.6919 21.4648 39.7984 20.8789 39.7984 20.3463L40.118 22.4235C40.331 22.0506 40.4375 21.6778 40.5441 21.2517C40.7038 21.7311 40.8104 22.1572 40.9702 22.6365C41.2365 22.0506 41.4495 21.4648 41.556 20.8789C41.7691 21.6245 41.9289 22.4235 42.1419 23.1692C42.568 22.2637 42.8343 21.305 42.9941 20.3463C43.2072 21.305 43.367 22.2104 43.58 23.1692C43.8996 22.4767 44.0594 21.6778 44.0594 20.8789C44.2192 21.518 44.3257 22.1039 44.4855 22.7431C44.6985 22.2637 44.805 21.7311 44.8583 21.1985C44.9648 21.8376 45.0714 22.4235 45.2844 23.0094C45.4442 22.4235 45.604 21.8376 45.817 21.305C45.9236 21.6778 46.0833 22.0506 46.1899 22.4235C46.3497 21.9441 46.4562 21.518 46.616 21.0387C46.6692 21.8376 46.829 22.6365 47.0421 23.4355C47.4682 22.317 47.7345 21.1452 47.6812 19.9734C47.841 20.6658 47.9475 21.4115 47.8943 22.1572V17.3636C47.841 18.056 47.7877 18.6951 47.6812 19.3875C47.6812 18.3223 47.7345 17.257 47.7345 16.1918C47.6279 17.2038 47.4682 18.2158 47.2551 19.2277C47.0953 18.3223 46.9355 17.3636 46.829 16.4581C46.5627 17.2038 46.3497 18.0027 46.2431 18.7484C46.2431 18.0027 46.1899 17.257 46.0833 16.5646C45.9768 16.9907 45.8703 17.3636 45.7638 17.7897C45.817 17.3103 45.7105 16.8309 45.5507 16.3516C45.4442 16.6712 45.3909 17.044 45.2844 17.3636C45.1779 16.8842 45.0714 16.4048 44.9116 15.9255C44.7518 16.6712 44.5387 17.4168 44.2724 18.1092C44.1659 17.4168 44.0594 16.7777 43.8996 16.0853C43.4735 16.9375 43.1539 17.7897 42.8876 18.6951C42.6746 17.7364 42.4082 16.8309 42.1952 15.8722C41.9289 16.5646 41.7158 17.2038 41.4495 17.8962C41.3963 17.1505 41.2897 16.4581 41.0767 15.7657C40.9169 16.032 40.8104 16.3516 40.6506 16.6179C40.5973 16.1385 40.4908 15.6592 40.4375 15.1798C40.118 15.9787 39.8517 16.7244 39.5853 17.5766C39.5853 16.9907 39.5853 16.4581 39.5321 15.8722C39.2125 16.2983 38.9995 16.7777 38.8397 17.257C38.7331 16.8309 38.6799 16.4581 38.5734 16.032C38.2538 16.4581 38.0407 16.9907 37.8809 17.5234C37.9342 16.9375 37.9342 16.4048 37.8277 15.819C37.5614 16.0853 37.4016 16.4048 37.2418 16.7244C37.1353 16.2451 37.0287 15.7657 36.9755 15.2863C36.6027 15.9255 36.2831 16.5646 36.0168 17.257C36.0168 16.7244 35.9635 16.1918 35.9635 15.6592C35.8037 16.1918 35.6439 16.6712 35.4841 17.2038C35.3244 16.9375 35.2711 16.6179 35.3244 16.2983C34.9515 16.8842 34.6852 17.5234 34.4722 18.2158C34.5254 17.5766 34.4189 16.9375 34.2058 16.3516C34.0461 16.7244 33.8863 17.0973 33.7265 17.5234C33.7797 17.3103 33.6732 17.044 33.5134 16.9375C33.5667 17.4168 33.3536 17.8962 33.0341 18.2158C32.7678 17.7897 32.5547 17.257 32.5015 16.7777" fill="#646B79"/>
<path d="M27.7078 25.2463C27.6545 25.7257 27.6545 26.2583 27.6545 26.7377C27.6545 36.9108 33.1406 45.1132 39.9049 45.1132C46.6692 45.1132 52.1552 36.8575 52.1552 26.7377C52.1552 26.2051 52.1552 25.7257 52.1019 25.2463H27.7078Z" fill="#FFDAC1"/>
<path d="M39.9049 11.7177C45.9236 11.7177 51.1965 15.7124 54.0194 21.6777C53.327 13.7417 47.3084 7.56323 39.9049 7.56323C32.5547 7.56323 26.4828 13.7417 25.7904 21.6777C28.6133 15.7124 33.8863 11.7177 39.9049 11.7177Z" fill="#FAD404"/>
<path d="M32.7678 44.4208C32.7678 44.4208 36.3364 48.2557 40.2245 48.8415C40.2245 48.8415 37.1886 57.4168 31.7026 54.5406C26.2165 51.6645 27.9742 46.4447 32.7678 44.4208ZM47.6813 44.4208C47.6813 44.4208 44.1127 48.2557 40.2245 48.8415C40.2245 48.8415 43.2605 57.4168 48.7465 54.5406C54.2325 51.6645 52.4749 46.4447 47.6813 44.4208Z" fill="#FFFFFC"/>
<path d="M54.6585 65.779H25.7903V48.3622L20.6239 49.6937V74.8868C26.4295 78.1358 33.0873 80 40.2244 80C47.3616 80 54.0194 78.1358 59.825 74.8868V49.747L54.6585 48.4154V65.779Z" fill="white"/>
</svg>
