<svg width="101" height="80" viewBox="0 0 101 80" fill="none" xmlns="http://www.w3.org/2000/svg">
<path d="M100.225 62C100.225 71.9411 92.1656 80 82.2245 80L45.2245 80C42.4631 80 40.2245 77.7614 40.2245 75L40.2245 30C40.2245 24.4772 44.7017 20 50.2245 20L95.2245 20C97.9859 20 100.225 22.2386 100.225 25L100.225 62Z" fill="#8FCDEA" fill-opacity="0.2"/>
<path d="M44.1308 37.6563C39.8769 37.6563 36.3964 34.418 36.3964 30.4602V28.2343H51.8651V30.4602C51.8651 34.418 48.3847 37.6563 44.1308 37.6563Z" fill="#6E83B7"/>
<path d="M31.5114 39.3658L39.1573 37.5763H49.104L56.75 39.3658C61.7141 40.5275 65.2245 44.9544 65.2245 50.0525V62.9847H56.9928V78.4375H31.2687V67.4666H23.037V50.0525C23.037 44.9544 26.5475 40.5275 31.5114 39.3658Z" fill="#EDEFF1"/>
<path d="M44.1307 47.0085C39.3189 47.0085 35.2764 43.3483 34.7579 38.606L39.1575 37.5763H49.1042L53.5037 38.606C52.9851 43.3483 48.9426 47.0085 44.1307 47.0085Z" fill="#EDEFF1"/>
<path d="M49.1041 37.5762V32.0884H39.1573V37.5762L37.1175 38.0537C37.3641 41.7087 40.4144 44.6074 44.1308 44.6074C47.8472 44.6074 50.8975 41.7087 51.1441 38.0537L49.1041 37.5762Z" fill="#FFD3B3"/>
<path d="M49.104 34.426C47.5389 35.1238 45.8444 35.484 44.1308 35.4831C42.4171 35.484 40.7226 35.1239 39.1575 34.426V32.0884H49.1042L49.104 34.426Z" fill="#FCB98B"/>
<path d="M56.1353 22.3134H54.4203V16.8256H56.1353C56.4082 16.8256 56.6699 16.934 56.8628 17.1269C57.0558 17.3199 57.1642 17.5816 57.1642 17.8545V21.2843C57.1642 21.4194 57.1377 21.5533 57.086 21.6781C57.0343 21.803 56.9585 21.9164 56.8629 22.012C56.7674 22.1076 56.6539 22.1834 56.5291 22.2351C56.4042 22.2868 56.2704 22.3134 56.1353 22.3134ZM32.1262 16.8256H33.8412V22.3134H32.1262C31.8533 22.3134 31.5916 22.205 31.3987 22.012C31.2057 21.8191 31.0973 21.5574 31.0973 21.2845V17.8546C31.0973 17.7195 31.1239 17.5857 31.1756 17.4608C31.2272 17.3359 31.303 17.2225 31.3986 17.1269C31.4941 17.0314 31.6076 16.9556 31.7324 16.9039C31.8573 16.8521 31.9911 16.8255 32.1262 16.8256Z" fill="#FFD3B3"/>
<path d="M54.4204 12.1952V23.1708C54.4204 28.8536 49.8136 33.4605 44.1308 33.4605C38.4479 33.4605 33.8411 28.8536 33.8411 23.1708V12.1952H54.4204Z" fill="#FFD3B3"/>
<path d="M44.1308 1.5625C37.7193 1.5625 32.4737 6.80813 32.4737 13.2195V16.8255H33.8412V22.3133L35.5115 16.8013C40.2245 16.8013 42.412 15.085 44.1308 12.1952C45.8495 15.0852 48.037 16.8013 52.7501 16.8013L54.4204 22.3133V16.8255H55.7879V13.2195C55.7878 6.80813 50.5422 1.5625 44.1308 1.5625Z" fill="#6E83B7"/>
<path d="M56.75 39.3656L53.3622 38.5726V45.9481C53.3622 49.3998 50.5639 52.1981 47.1122 52.1981H41.1494C37.6976 52.1981 34.8994 49.3998 34.8994 45.9481V38.5726L31.5114 39.3656C31.4297 39.3847 31.3495 39.4072 31.2686 39.4279V78.4375H56.9926V39.4279C56.9119 39.4072 56.8317 39.3848 56.75 39.3656Z" fill="#FFB0AA"/>
<path d="M19.0586 46.0218C24.1708 40.9096 32.5361 40.9096 37.6483 46.0218L47.6403 56.0138C52.7525 61.126 52.7525 69.4913 47.6403 74.6035C42.5281 79.7157 34.1628 79.7157 29.0506 74.6035L19.0586 64.6115C13.9465 59.4993 13.9465 51.1338 19.0586 46.0218Z" fill="#6E83B7"/>
<path d="M27.3659 63.0428L30.3225 65.9993C32.7322 68.409 36.6362 68.4118 39.0426 66.0056C41.4489 63.5993 41.4462 59.6951 39.0364 57.2854L36.0798 54.3289L27.3659 63.0428Z" fill="#FFD3B3"/>
<path d="M27.3659 63.0428L28.6245 64.3014C30.8231 64.1831 32.9867 63.2895 34.6565 61.6195C36.3264 59.9496 37.22 57.7859 37.3384 55.5875L36.0798 54.3289L27.3659 63.0428Z" fill="#FCB98B"/>
<path d="M21.15 62.2295L21.9632 61.4162L19.4072 58.8601L18.5939 59.6734C18.4398 59.8275 18.3533 60.0365 18.3533 60.2544C18.3533 60.4722 18.4398 60.6812 18.5939 60.8353L19.9881 62.2295C20.0644 62.3058 20.1549 62.3664 20.2546 62.4077C20.3543 62.449 20.4611 62.4702 20.569 62.4702C20.6769 62.4702 20.7838 62.449 20.8834 62.4077C20.9831 62.3664 21.0737 62.3058 21.15 62.2295ZM35.2665 48.1129L34.4532 48.9262L31.8972 46.3701L32.7104 45.5569C32.8645 45.4028 33.0735 45.3163 33.2914 45.3163C33.5093 45.3163 33.7182 45.4028 33.8723 45.5569L35.2665 46.9511C35.3428 47.0274 35.4034 47.1179 35.4447 47.2176C35.486 47.3173 35.5072 47.4241 35.5072 47.532C35.5072 47.6399 35.486 47.7467 35.4447 47.8464C35.4034 47.9461 35.3428 48.0367 35.2665 48.1129Z" fill="#FCB98B"/>
<path d="M26.9303 63.1769C32.0575 63.1769 36.2139 59.0205 36.2139 53.8933C36.2139 48.7661 32.0575 44.6097 26.9303 44.6097C21.8031 44.6097 17.6467 48.7661 17.6467 53.8933C17.6467 59.0205 21.8031 63.1769 26.9303 63.1769Z" fill="#FFD3B3"/>
<path d="M20.3658 47.3288C20.746 46.9484 21.1584 46.6016 21.5983 46.2922C21.9765 46.8802 22.2369 47.5218 22.364 48.1643C22.5039 48.8635 22.4931 49.5613 22.3564 50.2044C22.2192 50.848 21.9562 51.4375 21.6042 51.9321C21.2528 52.4275 20.8126 52.8257 20.3367 53.1091C20.6197 52.6311 20.7876 52.1185 20.8444 51.6197C20.9019 51.1207 20.8498 50.6357 20.7133 50.2044C20.5761 49.7727 20.3542 49.396 20.0845 49.1016C19.8743 48.8706 19.6235 48.6801 19.3445 48.5397C19.6501 48.108 19.9917 47.7029 20.3658 47.3288Z" fill="#FFB236"/>
<path d="M17.6783 62.9849C18.0933 63.5637 18.555 64.1077 19.0586 64.6114L29.0506 74.6035C31.0165 76.5694 33.4637 77.7785 36.0217 78.2324V62.9849H17.6783Z" fill="#46BEE8"/>
<path d="M36.0219 44.6412V78.2323C40.1158 78.9587 44.4942 77.7497 47.6404 74.6034C50.7867 71.4572 51.9958 67.0789 51.2694 62.9848C50.8154 60.4267 49.6064 57.9797 47.6404 56.0137L37.6484 46.0217C37.1446 45.5181 36.6007 45.0564 36.0219 44.6412Z" fill="#80D6FB"/>
<path d="M46.4745 68.8083H60.537C63.1259 68.8083 65.2245 66.7097 65.2245 64.1208V60.5765H46.4745V68.8083Z" fill="#EDEFF1"/>
<path d="M57.774 61.3579H46.4745V59.7954H56.2115V51.6388H57.774V61.3579ZM46.4745 68.0271H56.9928V69.5896H46.4745V68.0271Z" fill="#D3D3D3"/>
<path d="M43.9212 68.8083H46.4745V60.5765H43.9212C41.6481 60.5765 39.8054 62.4192 39.8054 64.6923C39.8053 66.9654 41.6481 68.8083 43.9212 68.8083ZM28.8478 67.8937L30.249 69.295C31.8564 70.9023 31.8564 73.5083 30.249 75.1156C28.6417 76.7229 26.0358 76.7229 24.4284 75.1156L23.0272 73.7144C21.4198 72.107 21.4198 69.5011 23.0272 67.8937C24.6345 66.2864 27.2404 66.2864 28.8478 67.8937Z" fill="#FFD3B3"/>
</svg>
