<svg width="81" height="80" viewBox="0 0 81 80" fill="none" xmlns="http://www.w3.org/2000/svg">
<path d="M60.7754 25C60.7754 15.0589 52.7165 7 42.7754 7L5.77539 7C3.01397 7.00001 0.775391 9.23858 0.775391 12L0.775395 57C0.775395 62.5229 5.25255 67 10.7754 67L55.7754 67C58.5368 67 60.7754 64.7614 60.7754 62L60.7754 25Z" fill="#8FCDEA" fill-opacity="0.2"/>
<g clip-path="url(#clip0_31_864)">
<path d="M78.268 30.9135V67.6287H23.2838V30.9135C23.2838 29.0278 24.8133 27.4983 26.7003 27.4983H74.8516C76.7384 27.4983 78.268 29.0278 78.268 30.9135Z" fill="#DFEAEF"/>
<path d="M23.2838 62.1758H78.268V67.6288H23.2838V62.1758Z" fill="#B4D0D5"/>
<path d="M74.0426 31.7234V60.1218H27.5093V31.7234H74.0426Z" fill="#6EC17D"/>
<path d="M80.7754 64.347H20.7765V66.3538C20.7765 69.0968 23.0001 71.3204 25.7431 71.3204H75.8088C78.5518 71.3204 80.7754 69.0968 80.7754 66.3538V64.347Z" fill="#DFEAEF"/>
<path d="M54.0297 67.8337H47.5221C45.653 67.8337 44.1377 66.3185 44.1377 64.4492V64.347H57.4141V64.4492C57.4141 66.3185 55.8988 67.8337 54.0297 67.8337ZM31.1707 71.3204H25.7431C22.9991 71.3204 20.7754 69.0968 20.7754 66.3539V64.3475H26.203V66.3539C26.203 69.0968 28.4268 71.3204 31.1707 71.3204Z" fill="#B4D0D5"/>
<path d="M64.1217 30.9437V36.0442C64.1217 39.09 62.3024 41.8558 59.4884 43.0244C53.9182 45.3399 47.6334 45.3399 42.0633 43.0244C39.2493 41.8558 37.4299 39.09 37.4299 36.0442V30.9437H64.1217Z" fill="#665E66"/>
<path d="M54.2739 44.4904C50.179 45.1278 45.9477 44.6402 42.0628 43.0248C39.2488 41.8562 37.4294 39.0905 37.4294 36.0447V30.9442H44.4253V36.0447C44.4253 39.0905 46.2446 41.8562 49.0587 43.0248C50.732 43.7208 52.483 44.2129 54.2739 44.4904Z" fill="#454045"/>
<path d="M64.1217 30.9437V32.9888L53.1976 38.7762C52.4515 39.171 51.6201 39.3774 50.776 39.3774C49.9318 39.3774 49.1004 39.171 48.3543 38.7762L37.4302 32.9888V30.9437H64.1217Z" fill="#454045"/>
<path d="M70.7055 22.5563L53.1973 13.2814C52.4514 12.8862 51.6201 12.6796 50.7759 12.6796C49.9318 12.6796 49.1005 12.8862 48.3545 13.2814L30.8464 22.5563C28.8803 23.5977 28.8803 26.4143 30.8464 27.4558L48.3545 36.7308C49.1005 37.126 49.9318 37.3326 50.7759 37.3326C51.6201 37.3326 52.4514 37.126 53.1973 36.7308L70.7055 27.4558C72.6715 26.4143 72.6715 23.5978 70.7055 22.5563Z" fill="#665E66"/>
<path d="M58.5644 46.6472C58.3723 46.6472 58.1881 46.5709 58.0523 46.435C57.9164 46.2992 57.8401 46.115 57.8401 45.9229V34.1602L50.2313 25.4836C50.1079 25.3387 50.0466 25.1511 50.0604 24.9613C50.0742 24.7715 50.1622 24.5948 50.3053 24.4693C50.4484 24.3438 50.6351 24.2797 50.825 24.2908C51.015 24.3018 51.193 24.3872 51.3206 24.5284L59.1091 33.41C59.2249 33.5421 59.2888 33.7118 59.2889 33.8875V45.9228C59.2889 46.1149 59.2125 46.2992 59.0767 46.435C58.9408 46.5709 58.7565 46.6472 58.5644 46.6472Z" fill="#EAB14D"/>
<path d="M57.535 46.0878L56.0841 48.6008C55.189 50.1511 56.3078 52.0889 58.0979 52.0889H59.0308C60.8208 52.0889 61.9396 50.1511 61.0446 48.6008L59.5937 46.0878C59.1362 45.2954 57.9925 45.2954 57.535 46.0878Z" fill="#F4DD45"/>
<path d="M50.1443 56.8024H32.0183C31.7782 56.8024 31.5479 56.707 31.3781 56.5372C31.2083 56.3674 31.1129 56.1371 31.1129 55.897C31.1129 55.6569 31.2083 55.4266 31.3781 55.2568C31.5479 55.087 31.7782 54.9916 32.0183 54.9916H50.1442C50.2631 54.9916 50.3808 55.015 50.4906 55.0605C50.6005 55.106 50.7003 55.1727 50.7844 55.2567C50.8685 55.3408 50.9352 55.4406 50.9807 55.5505C51.0262 55.6603 51.0496 55.778 51.0496 55.8969C51.0496 56.0158 51.0262 56.1336 50.9807 56.2434C50.9352 56.3533 50.8685 56.4531 50.7845 56.5372C50.7004 56.6212 50.6006 56.6879 50.4908 56.7334C50.3809 56.7789 50.2632 56.8024 50.1443 56.8024ZM44.1376 52.9944H32.0183C31.7782 52.9944 31.5479 52.899 31.3781 52.7292C31.2083 52.5594 31.1129 52.3291 31.1129 52.089C31.1129 51.8489 31.2083 51.6186 31.3781 51.4488C31.5479 51.279 31.7782 51.1836 32.0183 51.1836H44.1376C44.3777 51.1836 44.608 51.279 44.7778 51.4488C44.9476 51.6186 45.043 51.8489 45.043 52.089C45.043 52.3291 44.9476 52.5594 44.7778 52.7292C44.608 52.899 44.3777 52.9944 44.1376 52.9944Z" fill="#665E66"/>
</g>
<defs>
<clipPath id="clip0_31_864">
<rect width="60" height="60" fill="white" transform="translate(20.7754 12)"/>
</clipPath>
</defs>
</svg>
