<svg width="120" height="120" viewBox="0 0 120 120" fill="none" xmlns="http://www.w3.org/2000/svg">
<path d="M12 80C12 77.7909 13.7909 76 16 76H36C38.2091 76 40 77.7909 40 80V108H12V80Z" fill="url(#paint0_linear_72_55)"/>
<path d="M46 48C46 45.7909 47.7909 44 50 44H70C72.2091 44 74 45.7909 74 48V108H46V48Z" fill="url(#paint1_linear_72_55)"/>
<path d="M80 16C80 13.7909 81.7909 12 84 12H104C106.209 12 108 13.7909 108 16V108H80V16Z" fill="url(#paint2_linear_72_55)"/>
<defs>
<linearGradient id="paint0_linear_72_55" x1="26" y1="76" x2="26" y2="108" gradientUnits="userSpaceOnUse">
<stop offset="0.136218" stop-color="#00E56D"/>
<stop offset="1" stop-color="#00E56D" stop-opacity="0.1"/>
</linearGradient>
<linearGradient id="paint1_linear_72_55" x1="60" y1="44" x2="60" y2="108" gradientUnits="userSpaceOnUse">
<stop offset="0.141025" stop-color="#00E56D"/>
<stop offset="1" stop-color="#00E56D" stop-opacity="0.1"/>
</linearGradient>
<linearGradient id="paint2_linear_72_55" x1="94" y1="12" x2="94" y2="108" gradientUnits="userSpaceOnUse">
<stop offset="0.126602" stop-color="#00E56D"/>
<stop offset="1" stop-color="#00E56D" stop-opacity="0.1"/>
</linearGradient>
</defs>
</svg>
