<svg width="17" height="11" viewBox="0 0 17 11" fill="none" xmlns="http://www.w3.org/2000/svg">
<path d="M0.34375 11V0.814453H7.19336V2.37988H2.14844V5.16211H6.83105V6.69336H2.14844V11H0.34375ZM8.35547 11V0.814453H12.293C13.3685 0.814453 14.2002 1.05599 14.7881 1.53906C15.3805 2.02214 15.6768 2.66243 15.6768 3.45996C15.6768 4.04785 15.5173 4.52865 15.1982 4.90234C14.8838 5.27604 14.4531 5.53809 13.9062 5.68848V5.70215C14.5124 5.77507 15.0228 6.01888 15.4375 6.43359C15.8568 6.84375 16.0664 7.41113 16.0664 8.13574C16.0664 8.99251 15.7611 9.68522 15.1504 10.2139C14.5443 10.738 13.651 11 12.4707 11H8.35547ZM10.1328 9.53027H12.2793C12.8945 9.53027 13.3708 9.40495 13.708 9.1543C14.0452 8.90365 14.2139 8.54362 14.2139 8.07422C14.2139 7.60026 14.0475 7.22656 13.7148 6.95312C13.3867 6.67969 12.9219 6.54297 12.3203 6.54297H10.1328V9.53027ZM10.1328 5.12793H12.2109C12.7305 5.12793 13.1361 5.00033 13.4277 4.74512C13.724 4.48535 13.8721 4.139 13.8721 3.70605C13.8721 3.26855 13.724 2.9222 13.4277 2.66699C13.1361 2.41178 12.7305 2.28418 12.2109 2.28418H10.1328V5.12793Z" fill="white"/>
</svg>
