<svg width="110" height="38" viewBox="0 0 110 38" fill="none" xmlns="http://www.w3.org/2000/svg">
<path fill-rule="evenodd" clip-rule="evenodd" d="M9.6797 37.9841L4.56193 32.0008H3.71554V37.9892H0.000647082V24.6358L3.32665 20.4798H7.43367C8.87473 20.4798 10.1851 20.8963 11.2243 21.6989C12.248 22.4882 12.9727 23.6212 13.2658 25.0662C13.4858 26.1536 13.4198 27.2765 13.0568 28.2911C12.6964 29.2981 12.0564 30.2007 11.1272 30.871L11.1253 30.8678C10.6031 31.2501 10.0181 31.5362 9.3898 31.7242C9.33415 31.7407 9.27786 31.7559 9.22091 31.7711L14.5354 37.9841H9.6797ZM39.4319 37.9841L35.2032 26.4302L30.8781 37.9841H26.9238L33.4781 20.4716L36.9613 20.4868L43.3655 37.9841H39.4319ZM25.5423 37.9841H15.6341L15.6212 24.7465L18.9478 20.4792H25.8943V24.1617H20.7584L19.3232 26.0017L19.3244 27.5531H25.5423V31.2356H19.3277L19.3309 34.301H25.5423V37.9841ZM97.809 20.4849L91.4216 37.9873H87.939L81.5731 20.4849H85.5041L89.6829 31.9749L93.876 20.4849H97.809ZM64.5102 37.9829V24.1528H58.8896V20.4792H73.8456V24.1528H68.2257V37.9829H64.5102ZM75.9512 37.9816V20.4798H79.6668V37.9816H75.9512ZM109.645 37.986H98.1959L98.183 24.7447L101.526 20.4792H110V24.1427H103.336L101.885 25.9947L101.887 27.5632H109.645V31.2267H101.89L101.893 34.3219H109.645V37.986ZM74.9896 3.79392H69.7522C68.7835 3.79392 67.0383 4.27053 67.0506 5.44846C67.0668 7.00995 68.7725 7.02388 70.0091 7.14604C70.9758 7.24224 72.1263 7.3663 73.2056 7.79101C74.5729 8.32966 75.6969 9.26769 76.0813 10.9729C76.5329 12.9717 75.8794 14.8263 74.2565 16.127C73.0212 17.1176 71.344 17.6341 69.7942 17.6341H64.5567V13.9731H69.7942C70.7312 13.9731 72.3094 13.6503 72.4867 12.447C72.556 11.978 72.4136 11.4109 71.8274 11.1805C71.2165 10.94 70.3656 10.8494 69.646 10.7792C67.3638 10.5526 64.8246 10.0614 63.7828 7.76253C63.2839 6.66309 63.2095 5.23832 63.5635 4.08634C64.3691 1.47035 67.1257 0.133553 69.7522 0.133553H74.9896V3.79392ZM51.1965 0.129755L51.1971 11.9976C51.1971 12.5401 51.4482 12.9629 51.8248 13.2623C52.4181 13.7338 53.2872 13.9712 54.1316 13.9712V13.9775L57.8077 13.9769V0.129755H61.5226V17.6347L54.1316 17.6372V17.6442C52.5165 17.6442 50.7817 17.1347 49.503 16.1181C48.2917 15.1548 47.4822 13.7806 47.4822 11.9976V0.129755H51.1965ZM0 17.6347V4.3718L3.41206 0.129755H10.5054V3.80784H5.19348L3.7149 5.64594V7.37706H9.69393V11.0514H3.7149V17.6347H0ZM24.4707 5.24528C23.5279 4.31231 22.2247 3.73569 20.7856 3.73569C20.3404 3.73569 19.9249 3.78442 19.5432 3.8762C19.2656 3.94266 18.9893 4.03697 18.7181 4.1547L15.6548 7.95875C15.5998 8.28472 15.574 8.55056 15.574 8.88919C15.574 10.3127 16.1576 11.6008 17.1004 12.5331C18.0432 13.4648 19.3464 14.0421 20.7856 14.0421C22.2247 14.0421 23.5279 13.4648 24.4707 12.5331C25.4141 11.6008 25.9972 10.3121 25.9972 8.88919C25.9972 7.46568 25.4141 6.17698 24.4707 5.24528ZM20.7856 0C23.2678 0 25.5151 0.995634 27.1412 2.60397C28.768 4.2123 29.7748 6.4346 29.7748 8.88919C29.7748 11.3431 28.768 13.5654 27.1412 15.1738C25.5151 16.7821 23.2678 17.7777 20.7856 17.7777C18.304 17.7777 16.056 16.7821 14.4299 15.1738C11.9238 12.6958 11.3369 9.56265 12.1897 6.27762L16.2948 1.17982C17.0881 0.771569 17.776 0.470284 18.658 0.257612C19.3555 0.0892463 20.0692 0 20.7856 0ZM45.3669 17.6334C43.603 17.6334 41.7769 17.6701 40.0291 17.6303C37.6699 17.5758 35.5384 16.6068 33.9834 15.0687C32.3813 13.4851 31.3906 11.2969 31.3906 8.88096C31.3906 6.46434 32.3813 4.27623 33.9834 2.69131C35.585 1.1083 37.7973 0.128489 40.2414 0.128489H45.3669V3.80215H40.2414C38.823 3.80215 37.5392 4.37054 36.6093 5.28895C35.6807 6.208 35.1055 7.47833 35.1055 8.88096C35.1055 10.2836 35.6807 11.5527 36.6093 12.4723C37.3204 13.1743 38.2386 13.6718 39.2656 13.868C40.0168 14.0098 40.9053 13.9667 41.6662 13.9661H45.3663L45.3669 17.6334ZM56.784 37.9848C55.0201 37.9848 53.1946 38.0215 51.4469 37.981C49.087 37.9272 46.9555 36.9581 45.4005 35.42C43.7984 33.8357 42.8083 31.647 42.8083 29.2316C42.8083 26.815 43.7984 24.6263 45.4005 23.0426C47.0021 21.459 49.2145 20.4792 51.6585 20.4792H56.784V24.1528H51.6585C50.2401 24.1528 48.9563 24.7206 48.0271 25.6403C47.0978 26.5587 46.5232 27.8284 46.5232 29.2316C46.5232 30.6336 47.0978 31.904 48.0271 32.823C48.7375 33.525 49.6558 34.0231 50.6827 34.2181C51.4339 34.3605 52.323 34.3174 53.084 34.3174L56.784 34.3168V37.9848ZM3.71554 28.3044H7.4382C7.76757 28.3044 8.06781 28.2651 8.33053 28.1873C8.56413 28.1164 8.7686 28.0195 8.9362 27.8961L8.95043 27.8822C9.24227 27.6714 9.44481 27.3847 9.55934 27.0638C9.70105 26.6682 9.72564 26.2226 9.63764 25.7878C9.53151 25.2637 9.29145 24.87 8.96014 24.6149C8.58548 24.3256 8.05746 24.1763 7.43367 24.1763H5.10806L3.71554 25.9156V28.3044Z" fill="white"/>
</svg>
