<svg width="24" height="24" viewBox="0 0 24 24" fill="none" xmlns="http://www.w3.org/2000/svg">
<path d="M14.872 14.2872L21.394 20.8072C21.1324 21.154 20.7985 21.4399 20.4156 21.645C20.0326 21.8501 19.6097 21.9696 19.176 21.9952L19 22.0002H5C4.53604 22.0003 4.07837 21.8928 3.66297 21.6862C3.24757 21.4795 2.88577 21.1793 2.606 20.8092L9.127 14.2872L11.445 15.8322L11.561 15.8982C11.6977 15.965 11.8478 15.9997 12 15.9997C12.1522 15.9997 12.3023 15.965 12.439 15.8982L12.555 15.8322L14.872 14.2872ZM2 9.53521L7.429 13.1552L2 18.5852V9.53521ZM22 9.53521V18.5852L16.57 13.1552L22 9.53521ZM12.44 2.10221L12.555 2.16821L20.999 7.79721L12 13.7972L3 7.79721L11.445 2.16721C11.5906 2.07045 11.7589 2.01354 11.9333 2.00213C12.1077 1.99073 12.2831 2.02523 12.44 2.10221Z" fill="#FAE6AA"/>
</svg>
