<svg width="10" height="16" viewBox="0 0 10 16" fill="none" xmlns="http://www.w3.org/2000/svg">
<path d="M6.83341 0.395874C5.81123 0.395874 4.8309 0.801937 4.10811 1.52473C3.38531 2.24753 2.97925 3.22785 2.97925 4.25004V6.39587H0.916748C0.813415 6.39587 0.729248 6.47921 0.729248 6.58337V9.41671C0.729248 9.52004 0.812581 9.60421 0.916748 9.60421H2.97925V15.4167C2.97925 15.52 3.06258 15.6042 3.16675 15.6042H6.00008C6.10341 15.6042 6.18758 15.5209 6.18758 15.4167V9.60421H8.26841C8.35425 9.60421 8.42925 9.54587 8.45008 9.46254L9.15841 6.62921C9.16538 6.60156 9.16596 6.57269 9.16009 6.54478C9.15422 6.51688 9.14207 6.49069 9.12455 6.46819C9.10703 6.44569 9.08462 6.42748 9.059 6.41495C9.03339 6.40242 9.00526 6.3959 8.97675 6.39587H6.18758V4.25004C6.18758 4.16523 6.20429 4.08125 6.23674 4.00289C6.2692 3.92453 6.31677 3.85334 6.37674 3.79337C6.43671 3.7334 6.50791 3.68582 6.58627 3.65337C6.66462 3.62091 6.7486 3.60421 6.83341 3.60421H9.00008C9.10341 3.60421 9.18758 3.52087 9.18758 3.41671V0.583374C9.18758 0.480041 9.10425 0.395874 9.00008 0.395874H6.83341Z" fill="white"/>
</svg>
