<svg width="18" height="18" viewBox="0 0 18 18" fill="none" xmlns="http://www.w3.org/2000/svg">
<path d="M9.85661 0.666626C10.7941 0.669126 11.2699 0.674126 11.6808 0.685793L11.8424 0.691626C12.0291 0.698293 12.2133 0.706626 12.4358 0.716626C13.3224 0.758293 13.9274 0.898293 14.4583 1.10413C15.0083 1.31579 15.4716 1.60246 15.9349 2.06496C16.3589 2.4814 16.6868 2.98535 16.8958 3.54163C17.1016 4.07246 17.2416 4.67746 17.2833 5.56496C17.2933 5.78663 17.3016 5.97079 17.3083 6.15829L17.3133 6.31996C17.3258 6.72996 17.3308 7.20579 17.3324 8.14329L17.3333 8.76496V9.85663C17.3353 10.4645 17.3289 11.0723 17.3141 11.68L17.3091 11.8416C17.3024 12.0291 17.2941 12.2133 17.2841 12.435C17.2424 13.3225 17.1008 13.9266 16.8958 14.4583C16.6868 15.0146 16.3589 15.5185 15.9349 15.935C15.5185 16.3589 15.0146 16.6868 14.4583 16.8958C13.9274 17.1016 13.3224 17.2416 12.4358 17.2833L11.8424 17.3083L11.6808 17.3133C11.2699 17.325 10.7941 17.3308 9.85661 17.3325L9.23494 17.3333H8.14411C7.536 17.3354 6.92788 17.329 6.31995 17.3141L6.15828 17.3091C5.96045 17.3016 5.76267 17.293 5.56494 17.2833C4.67828 17.2416 4.07328 17.1016 3.54161 16.8958C2.98564 16.6867 2.48198 16.3588 2.06578 15.935C1.64157 15.5186 1.31337 15.0146 1.10411 14.4583C0.898278 13.9275 0.758278 13.3225 0.716612 12.435L0.691612 11.8416L0.687445 11.68C0.672083 11.0723 0.665138 10.4645 0.666612 9.85663V8.14329C0.664305 7.53546 0.670417 6.92762 0.684945 6.31996L0.690778 6.15829C0.697445 5.97079 0.705778 5.78663 0.715778 5.56496C0.757445 4.67746 0.897445 4.07329 1.10328 3.54163C1.31302 2.98512 1.6418 2.48116 2.06661 2.06496C2.48257 1.64125 2.98593 1.31335 3.54161 1.10413C4.07328 0.898293 4.67744 0.758293 5.56494 0.716626C5.78661 0.706626 5.97161 0.698293 6.15828 0.691626L6.31995 0.686626C6.92761 0.67182 7.53544 0.66543 8.14328 0.667459L9.85661 0.666626ZM8.99994 4.83329C7.89488 4.83329 6.83507 5.27228 6.05367 6.05368C5.27226 6.83508 4.83328 7.89489 4.83328 8.99996C4.83328 10.105 5.27226 11.1648 6.05367 11.9462C6.83507 12.7276 7.89488 13.1666 8.99994 13.1666C10.105 13.1666 11.1648 12.7276 11.9462 11.9462C12.7276 11.1648 13.1666 10.105 13.1666 8.99996C13.1666 7.89489 12.7276 6.83508 11.9462 6.05368C11.1648 5.27228 10.105 4.83329 8.99994 4.83329ZM8.99994 6.49996C9.32825 6.4999 9.65335 6.56452 9.95669 6.6901C10.26 6.81569 10.5356 6.99979 10.7678 7.2319C11 7.46401 11.1842 7.73957 11.3099 8.04287C11.4356 8.34616 11.5003 8.67124 11.5004 8.99954C11.5004 9.32785 11.4358 9.65295 11.3102 9.95628C11.1846 10.2596 11.0005 10.5352 10.7684 10.7674C10.5363 10.9996 10.2607 11.1838 9.95745 11.3095C9.65416 11.4352 9.32908 11.4999 9.00078 11.5C8.33774 11.5 7.70185 11.2366 7.23301 10.7677C6.76417 10.2989 6.50078 9.663 6.50078 8.99996C6.50078 8.33692 6.76417 7.70103 7.23301 7.23219C7.70185 6.76335 8.33774 6.49996 9.00078 6.49996M13.3758 3.58329C13.0995 3.58329 12.8346 3.69304 12.6392 3.88839C12.4439 4.08374 12.3341 4.34869 12.3341 4.62496C12.3341 4.90123 12.4439 5.16618 12.6392 5.36153C12.8346 5.55688 13.0995 5.66663 13.3758 5.66663C13.652 5.66663 13.917 5.55688 14.1123 5.36153C14.3077 5.16618 14.4174 4.90123 14.4174 4.62496C14.4174 4.34869 14.3077 4.08374 14.1123 3.88839C13.917 3.69304 13.652 3.58329 13.3758 3.58329Z" fill="white"/>
</svg>
