<svg width="12" height="13" viewBox="0 0 12 13" fill="none" xmlns="http://www.w3.org/2000/svg">
<path d="M10.6743 4.56738C10.6525 4.45982 10.5999 4.3634 10.519 4.28223L10.519 4.28125C10.4107 4.17347 10.2745 4.11719 10.1216 4.11719C9.96888 4.11729 9.83329 4.17361 9.7251 4.28125L9.7251 4.28223L6.00049 8.00684L2.27393 4.28125C2.16561 4.17302 2.0297 4.11623 1.87646 4.11719C1.72341 4.11818 1.58787 4.17678 1.47998 4.28516C1.37231 4.39345 1.31494 4.52874 1.31494 4.68164C1.31497 4.83455 1.37227 4.96984 1.47998 5.07812L5.29834 8.89941C5.3966 8.99727 5.50949 9.07172 5.63525 9.11914L5.63623 9.11914C5.75519 9.16326 5.87651 9.18652 5.99951 9.18652C6.12261 9.18652 6.24397 9.16338 6.36279 9.11914L6.36377 9.11914C6.48971 9.07177 6.60173 8.9973 6.69971 8.89941L10.522 5.0791C10.631 4.97003 10.6875 4.83301 10.686 4.67871L10.6743 4.56738Z" fill="white" stroke="white" stroke-width="0.375"/>
</svg>
